M48
;DRILL file {kicad (2014-10-29 BZR 5235)-product} date 10/30/2014 4:03:07 PM
;FORMAT={-:-/ absolute / inch / decimal}
FMAT,2
INCH,TZ
T1C0.012
T2C0.031
T3C0.035
T4C0.040
%
G90
G05
M72
T1
X5.7972Y-3.1791
X5.7972Y-3.2185
X5.7972Y-3.2579
X5.7972Y-3.2972
X5.7972Y-3.3366
X5.7972Y-3.376
X5.8169Y-3.1988
X5.8169Y-3.3169
X5.8268Y-3.1102
X5.8268Y-3.5138
X5.8661Y-3.4724
X5.8661Y-3.6024
X5.874Y-3.5039
X5.9154Y-2.7362
X5.9449Y-3.2283
X5.9449Y-3.3071
X5.9449Y-3.3858
X5.9547Y-3.0512
X5.9547Y-3.1063
X5.9843Y-3.2677
X5.9843Y-3.3465
X6.0039Y-2.7362
X6.0177Y-3.5128
X6.0236Y-3.2283
X6.0236Y-3.3071
X6.0236Y-3.3858
X6.0531Y-3.0512
X6.0536Y-3.1063
X6.063Y-3.2677
X6.063Y-3.3465
X6.0827Y-2.9921
X6.1024Y-2.7362
X6.1024Y-3.2283
X6.1024Y-3.3071
X6.1024Y-3.3858
X6.1614Y-2.9921
X6.1614Y-3.1102
X6.1754Y-3.4964
X6.1811Y-3.4646
X6.1811Y-3.6122
X6.2106Y-2.7362
X6.2205Y-3.6122
X6.2303Y-3.2382
X6.2303Y-3.3366
X6.2402Y-2.9921
X6.2598Y-3.1693
X6.2598Y-3.2087
X6.2598Y-3.2677
X6.2598Y-3.3071
X6.3189Y-2.9921
X6.3189Y-3.0709
X6.3268Y-3.2381
X6.3287Y-3.1398
X6.3287Y-3.3366
X6.3976Y-2.9921
X6.3976Y-3.0709
X6.437Y-3.2087
X6.4409Y-3.1339
X6.4409Y-3.3543
X6.4409Y-3.4409
X6.5157Y-3.2382
X6.5157Y-3.5433
X6.5157Y-3.5827
X6.5354Y-3.3563
X6.5453Y-3.4154
X6.5748Y-3.1496
X6.5846Y-3.1004
X6.5846Y-3.1004
X6.5846Y-3.1988
X6.5846Y-3.1988
X6.5846Y-3.4154
X6.5846Y-3.5138
X6.6142Y-3.1496
X6.6142Y-3.4646
X6.6634Y-3.4744
X6.6693Y-3.1575
X6.6693Y-3.1575
X6.7126Y-3.2972
X6.7126Y-3.5984
X6.7874Y-3.1496
X6.7913Y-3.3661
X6.7913Y-3.4646
X6.8012Y-3.0512
X6.8504Y-3.0512
X6.8602Y-3.3661
X6.8996Y-3.0512
X6.9488Y-3.0315
X6.9488Y-3.3465
X6.9488Y-3.6614
X7.0079Y-3.0315
X7.0079Y-3.3465
X7.0079Y-3.6614
X7.0472Y-2.7559
X7.0472Y-2.7953
X7.0669Y-3.0315
X7.0669Y-3.3465
X7.0669Y-3.6614
X7.126Y-2.7559
X7.126Y-2.7953
X7.126Y-3.0315
X7.126Y-3.3465
X7.126Y-3.6614
X7.185Y-3.0315
X7.185Y-3.3465
X7.185Y-3.6614
X7.2047Y-2.8051
X7.2047Y-2.9035
X7.2283Y-2.8543
X7.2441Y-3.0512
X7.2441Y-3.1102
X7.2441Y-3.1693
X7.2441Y-3.2283
X7.2441Y-3.2874
X7.2441Y-3.3465
X7.2441Y-3.4055
X7.2441Y-3.4646
X7.2441Y-3.5236
X7.2539Y-2.8051
X7.2539Y-2.9035
T2
X6.3386Y-3.4449
X6.3976Y-3.5531
T3
X6.4469Y-2.8543
X6.5453Y-2.8543
X6.7225Y-2.8543
X6.8209Y-2.8543
T4
X5.8Y-3.75
X5.8Y-3.85
X5.9Y-3.75
X5.9Y-3.85
X6.Y-3.75
X6.Y-3.85
X6.1Y-3.75
X6.1Y-3.85
X6.2Y-3.75
X6.2Y-3.85
X6.3Y-3.75
X6.3Y-3.85
X6.4Y-3.75
X6.4Y-3.85
X6.5Y-3.75
X6.5Y-3.85
X6.6Y-3.75
X6.6Y-3.85
X6.7Y-3.75
X6.7Y-3.85
X6.9937Y-3.8437
X7.0937Y-3.8437
X7.1937Y-3.8437
T0
M30
