%FSLAX46Y46*%
G04 Gerber Fmt 4.6, Leading zero omitted, Abs format (unit mm)*
G04 Created by KiCad (PCBNEW (2014-10-26 BZR 5226)-product) date Tue 28 Oct 2014 10:56:12 AM EDT*
%MOMM*%
G01*
G04 APERTURE LIST*
%ADD10C,0.100000*%
%ADD11R,0.600000X0.600000*%
%ADD12R,1.100000X0.600000*%
%ADD13C,2.050000*%
%ADD14R,7.760000X1.600000*%
%ADD15R,2.200000X2.200000*%
%ADD16R,5.300000X1.800000*%
%ADD17R,1.524000X1.524000*%
%ADD18C,1.524000*%
%ADD19R,0.900000X0.300000*%
%ADD20R,0.300000X0.900000*%
%ADD21R,6.100000X6.100000*%
%ADD22R,1.524000X2.286000*%
%ADD23O,1.524000X2.286000*%
%ADD24R,0.650000X0.600000*%
%ADD25R,1.450000X1.150000*%
%ADD26R,0.600000X0.650000*%
%ADD27R,2.500000X2.500000*%
%ADD28R,2.100000X1.100000*%
%ADD29R,2.100000X3.500000*%
%ADD30C,0.600000*%
%ADD31C,0.600000*%
%ADD32C,0.400000*%
%ADD33C,0.200000*%
%ADD34C,0.250000*%
%ADD35C,1.000000*%
%ADD36C,0.150000*%
%ADD37C,0.350000*%
%ADD38C,0.300000*%
%ADD39C,0.254000*%
G04 APERTURE END LIST*
D10*
D11*
X171950000Y-90500000D03*
X171050000Y-90500000D03*
D12*
X171600000Y-88950000D03*
X171600000Y-87050000D03*
X171600000Y-88000000D03*
X169400000Y-87050000D03*
X169400000Y-88950000D03*
D13*
X179500000Y-81000000D03*
D14*
X179500000Y-77920000D03*
X179500000Y-84080000D03*
D15*
X182280000Y-78220000D03*
X182280000Y-83780000D03*
X176720000Y-78220000D03*
X176720000Y-83780000D03*
D16*
X149400000Y-73000000D03*
X158600000Y-73000000D03*
D17*
X173249680Y-72500000D03*
D18*
X170750320Y-72500000D03*
D19*
X157150000Y-87250000D03*
X157150000Y-86750000D03*
X157150000Y-86250000D03*
X157150000Y-85750000D03*
X157150000Y-85250000D03*
X157150000Y-84750000D03*
X157150000Y-84250000D03*
X157150000Y-83750000D03*
X157150000Y-83250000D03*
X157150000Y-82750000D03*
X157150000Y-82250000D03*
X157150000Y-81750000D03*
X157150000Y-81250000D03*
X157150000Y-80750000D03*
D20*
X156250000Y-79850000D03*
X155750000Y-79850000D03*
X155250000Y-79850000D03*
X154750000Y-79850000D03*
X154250000Y-79850000D03*
X153750000Y-79850000D03*
X153250000Y-79850000D03*
X152750000Y-79850000D03*
X152250000Y-79850000D03*
X151750000Y-79850000D03*
X151250000Y-79850000D03*
X150750000Y-79850000D03*
X150250000Y-79850000D03*
X149750000Y-79850000D03*
D19*
X148850000Y-80750000D03*
X148850000Y-81250000D03*
X148850000Y-81750000D03*
X148850000Y-82250000D03*
X148850000Y-82750000D03*
X148850000Y-83250000D03*
X148850000Y-83750000D03*
X148850000Y-84250000D03*
X148850000Y-84750000D03*
X148850000Y-85250000D03*
X148850000Y-85750000D03*
X148850000Y-86250000D03*
X148850000Y-86750000D03*
X148850000Y-87250000D03*
D20*
X149750000Y-88150000D03*
X150250000Y-88150000D03*
X150750000Y-88150000D03*
X151250000Y-88150000D03*
X151750000Y-88150000D03*
X152250000Y-88150000D03*
X152750000Y-88150000D03*
X153250000Y-88150000D03*
X153750000Y-88150000D03*
X154250000Y-88150000D03*
X154750000Y-88150000D03*
X155250000Y-88150000D03*
X155750000Y-88150000D03*
X156250000Y-88150000D03*
D21*
X153000000Y-84000000D03*
D11*
X155000000Y-90050000D03*
X155000000Y-90950000D03*
X155000000Y-77050000D03*
X155000000Y-77950000D03*
D22*
X172720000Y-97790000D03*
D23*
X175260000Y-97790000D03*
X177800000Y-97790000D03*
X160020000Y-94996000D03*
X162560000Y-94996000D03*
X165100000Y-94996000D03*
X167640000Y-94996000D03*
X167640000Y-98044000D03*
X165100000Y-98044000D03*
X162560000Y-98044000D03*
X160020000Y-98044000D03*
X170180000Y-98044000D03*
X170180000Y-94996000D03*
X157480000Y-94996000D03*
X157480000Y-98044000D03*
D22*
X147320000Y-98044000D03*
D23*
X149860000Y-98044000D03*
X152400000Y-98044000D03*
X154940000Y-98044000D03*
X154940000Y-94996000D03*
X152400000Y-94996000D03*
X149860000Y-94996000D03*
X147320000Y-94996000D03*
D17*
X166249680Y-72500000D03*
D18*
X163750320Y-72500000D03*
D12*
X171600000Y-80950000D03*
X171600000Y-79050000D03*
X171600000Y-80000000D03*
X169400000Y-79050000D03*
X169400000Y-80950000D03*
D24*
X148550000Y-69500000D03*
X149450000Y-69500000D03*
X159450000Y-69500000D03*
X158550000Y-69500000D03*
D25*
X164800000Y-81300000D03*
X164800000Y-79500000D03*
X164750000Y-85600000D03*
X164750000Y-87400000D03*
D26*
X150000000Y-77950000D03*
X150000000Y-77050000D03*
D13*
X179500000Y-89000000D03*
D14*
X179500000Y-85920000D03*
X179500000Y-92080000D03*
D15*
X182280000Y-86220000D03*
X182280000Y-91780000D03*
X176720000Y-86220000D03*
X176720000Y-91780000D03*
D27*
X161000000Y-87500000D03*
X162500000Y-90250000D03*
D28*
X177400000Y-70200000D03*
X177400000Y-72500000D03*
X177400000Y-74800000D03*
D29*
X183600000Y-72500000D03*
D11*
X150000000Y-90050000D03*
X150000000Y-90950000D03*
X159000000Y-90050000D03*
X159000000Y-90950000D03*
X160000000Y-90050000D03*
X160000000Y-90950000D03*
X151000000Y-90050000D03*
X151000000Y-90950000D03*
X152000000Y-90050000D03*
X152000000Y-90950000D03*
X153000000Y-90050000D03*
X153000000Y-90950000D03*
X154000000Y-90050000D03*
X154000000Y-90950000D03*
X156000000Y-90050000D03*
X156000000Y-90950000D03*
X158000000Y-90050000D03*
X158000000Y-90950000D03*
X149000000Y-77950000D03*
X149000000Y-77050000D03*
X160700000Y-84000000D03*
X159800000Y-84000000D03*
X157000000Y-90950000D03*
X157000000Y-90050000D03*
X160700000Y-83000000D03*
X159800000Y-83000000D03*
X160700000Y-81500000D03*
X159800000Y-81500000D03*
X160700000Y-80500000D03*
X159800000Y-80500000D03*
X168000000Y-80550000D03*
X168000000Y-81450000D03*
X168000000Y-79450000D03*
X168000000Y-78550000D03*
X169950000Y-82500000D03*
X169050000Y-82500000D03*
X169950000Y-77500000D03*
X169050000Y-77500000D03*
X171950000Y-82500000D03*
X171050000Y-82500000D03*
X171950000Y-77500000D03*
X171050000Y-77500000D03*
X173000000Y-80950000D03*
X173000000Y-80050000D03*
X168000000Y-88550000D03*
X168000000Y-89450000D03*
X168000000Y-87450000D03*
X168000000Y-86550000D03*
X169950000Y-90500000D03*
X169050000Y-90500000D03*
X169950000Y-85500000D03*
X169050000Y-85500000D03*
X171950000Y-85500000D03*
X171050000Y-85500000D03*
X173000000Y-88950000D03*
X173000000Y-88050000D03*
X174700000Y-81000000D03*
X173800000Y-81000000D03*
X174700000Y-89000000D03*
X173800000Y-89000000D03*
D30*
X163600000Y-79600000D03*
X167000000Y-80000000D03*
X179000000Y-71000000D03*
X181000000Y-71000000D03*
X181000000Y-70000000D03*
X179000000Y-70000000D03*
X155000000Y-69500000D03*
X152500000Y-69500000D03*
X184000000Y-77500000D03*
X184000000Y-79000000D03*
X184000000Y-80500000D03*
X184000000Y-82000000D03*
X184000000Y-83500000D03*
X184000000Y-85000000D03*
X184000000Y-86500000D03*
X184000000Y-88000000D03*
X184000000Y-89500000D03*
X165500000Y-91000000D03*
X165500000Y-90000000D03*
X149000000Y-88200000D03*
X170500000Y-83750000D03*
X151000000Y-84000000D03*
X153000000Y-82000000D03*
X148000000Y-79000000D03*
X163500000Y-87250000D03*
X166250000Y-86750000D03*
X182500000Y-93000000D03*
X181000000Y-93000000D03*
X179500000Y-93000000D03*
X178000000Y-93000000D03*
X176500000Y-93000000D03*
X182500000Y-77000000D03*
X181000000Y-77000000D03*
X179500000Y-77000000D03*
X178000000Y-77000000D03*
X176500000Y-77000000D03*
X182500000Y-85000000D03*
X181000000Y-85000000D03*
X179500000Y-85000000D03*
X178000000Y-85000000D03*
X176500000Y-85000000D03*
X151000000Y-82000000D03*
X155000000Y-82000000D03*
X153000000Y-84000000D03*
X151000000Y-86000000D03*
X153000000Y-86000000D03*
X155000000Y-86000000D03*
X155000000Y-84000000D03*
X152000000Y-83000000D03*
X154000000Y-83000000D03*
X152000000Y-85000000D03*
X154000000Y-85000000D03*
X157000000Y-88000000D03*
X170500000Y-91400000D03*
X172500000Y-85500000D03*
X174250000Y-85500000D03*
X172750000Y-77500000D03*
X174000000Y-77500000D03*
X175250000Y-77500000D03*
X150250000Y-69500000D03*
X157750000Y-69500000D03*
X149000000Y-91500000D03*
X162500000Y-78000000D03*
X160500000Y-78000000D03*
X162500000Y-76000000D03*
X154500000Y-76000000D03*
X156500000Y-76000000D03*
X158500000Y-76000000D03*
X160500000Y-76000000D03*
X153750000Y-77500000D03*
X152850021Y-89225114D03*
X149200000Y-89000000D03*
X151250000Y-77500000D03*
X183000000Y-71250000D03*
X184250000Y-71250000D03*
X183600000Y-72500000D03*
X183000000Y-73750000D03*
X184250000Y-73750000D03*
X156854438Y-88808537D03*
X158000000Y-91750000D03*
X157000000Y-91750000D03*
X169400000Y-80200000D03*
X169400000Y-80200000D03*
X169250000Y-88250000D03*
X172400000Y-80000000D03*
X172500000Y-88000000D03*
X159000000Y-84000000D03*
X167250000Y-89250000D03*
X159000000Y-83000000D03*
X167250000Y-86750000D03*
X159000000Y-81500000D03*
X167250000Y-81250000D03*
X167250000Y-81250000D03*
X159000000Y-80500000D03*
X167250000Y-78750000D03*
X167250000Y-78750000D03*
X166000000Y-82200000D03*
X163600000Y-82200000D03*
X158250000Y-82250000D03*
X153760729Y-78899998D03*
X151250000Y-78899998D03*
X148000000Y-89250000D03*
X158250000Y-84750000D03*
X163500000Y-85250000D03*
X156500000Y-79000000D03*
X147750000Y-81250000D03*
X147250000Y-81750000D03*
X147250000Y-82750000D03*
X147250000Y-83750000D03*
X147750000Y-84250000D03*
X147250000Y-84750000D03*
X147250000Y-85750000D03*
X147250000Y-80750000D03*
X160700000Y-82248955D03*
X160750000Y-84750000D03*
X160750000Y-79750000D03*
X168000000Y-79999151D03*
X168000000Y-88000846D03*
X166000000Y-85250000D03*
D31*
X164800000Y-79500000D02*
X163700000Y-79500000D01*
X163700000Y-79500000D02*
X163600000Y-79600000D01*
X164800000Y-79500000D02*
X166500000Y-79500000D01*
X166500000Y-79500000D02*
X167000000Y-80000000D01*
D32*
X146750000Y-88000000D02*
X148800000Y-88000000D01*
X148800000Y-88000000D02*
X149000000Y-88200000D01*
X146250000Y-87500000D02*
X146750000Y-88000000D01*
X146250000Y-79250000D02*
X146250000Y-87500000D01*
X146500000Y-79000000D02*
X146250000Y-79250000D01*
X148000000Y-79000000D02*
X146500000Y-79000000D01*
D33*
X181000000Y-71000000D02*
X179000000Y-71000000D01*
X181000000Y-70000000D02*
X181000000Y-71000000D01*
X179000000Y-70000000D02*
X181000000Y-70000000D01*
X177400000Y-70200000D02*
X178800000Y-70200000D01*
X178800000Y-70200000D02*
X179000000Y-70000000D01*
X152500000Y-69500000D02*
X155000000Y-69500000D01*
X150250000Y-69500000D02*
X152500000Y-69500000D01*
X155000000Y-77050000D02*
X154250000Y-77050000D01*
X184000000Y-79000000D02*
X184000000Y-77500000D01*
X184000000Y-80500000D02*
X184000000Y-79000000D01*
X184000000Y-82000000D02*
X184000000Y-80500000D01*
X184000000Y-83500000D02*
X184000000Y-82000000D01*
X184000000Y-85000000D02*
X184000000Y-83500000D01*
X184000000Y-86500000D02*
X184000000Y-85000000D01*
X184000000Y-88000000D02*
X184000000Y-86500000D01*
X184000000Y-89500000D02*
X184000000Y-88000000D01*
X183720000Y-91780000D02*
X184000000Y-91500000D01*
X184000000Y-91500000D02*
X184000000Y-89500000D01*
X182280000Y-91780000D02*
X183720000Y-91780000D01*
X165500000Y-90000000D02*
X165500000Y-91000000D01*
X164750000Y-87400000D02*
X164750000Y-89250000D01*
X164750000Y-89250000D02*
X165500000Y-90000000D01*
D34*
X149001099Y-88001099D02*
X149150000Y-88150000D01*
X148850000Y-87850000D02*
X149001099Y-88001099D01*
D33*
X149001099Y-88198901D02*
X149000000Y-88200000D01*
X149001099Y-88001099D02*
X149001099Y-88198901D01*
D34*
X149150000Y-88150000D02*
X149750000Y-88150000D01*
X148850000Y-87250000D02*
X148850000Y-87850000D01*
X157150000Y-81750000D02*
X155250000Y-81750000D01*
X155250000Y-81750000D02*
X155000000Y-82000000D01*
X157150000Y-82750000D02*
X154250000Y-82750000D01*
X154250000Y-82750000D02*
X153000000Y-84000000D01*
X151000000Y-84000000D02*
X153000000Y-84000000D01*
X153000000Y-82000000D02*
X153000000Y-84000000D01*
D31*
X149000000Y-78500000D02*
X148500000Y-79000000D01*
X148500000Y-79000000D02*
X148000000Y-79000000D01*
X149000000Y-77950000D02*
X149000000Y-78500000D01*
X164750000Y-87400000D02*
X163650000Y-87400000D01*
X163650000Y-87400000D02*
X163500000Y-87250000D01*
X164750000Y-87400000D02*
X165600000Y-87400000D01*
X165600000Y-87400000D02*
X166250000Y-86750000D01*
X181000000Y-93000000D02*
X182500000Y-93000000D01*
X179500000Y-93000000D02*
X181000000Y-93000000D01*
X178000000Y-93000000D02*
X179500000Y-93000000D01*
X176500000Y-93000000D02*
X178000000Y-93000000D01*
X176720000Y-91780000D02*
X176720000Y-92780000D01*
X176720000Y-92780000D02*
X176500000Y-93000000D01*
X181000000Y-77000000D02*
X182500000Y-77000000D01*
X179500000Y-77000000D02*
X181000000Y-77000000D01*
X178000000Y-77000000D02*
X179500000Y-77000000D01*
X176500000Y-77000000D02*
X178000000Y-77000000D01*
X176720000Y-78220000D02*
X176720000Y-77220000D01*
X176720000Y-77220000D02*
X176500000Y-77000000D01*
X179500000Y-85000000D02*
X182500000Y-85000000D01*
X179500000Y-85000000D02*
X181000000Y-85000000D01*
X176500000Y-85000000D02*
X179500000Y-85000000D01*
X176500000Y-85000000D02*
X178000000Y-85000000D01*
X176720000Y-86220000D02*
X176720000Y-85220000D01*
X176720000Y-85220000D02*
X176500000Y-85000000D01*
D33*
X179500000Y-85920000D02*
X177020000Y-85920000D01*
X177020000Y-85920000D02*
X176720000Y-86220000D01*
X182280000Y-86220000D02*
X181980000Y-85920000D01*
X181980000Y-85920000D02*
X179500000Y-85920000D01*
X179500000Y-84080000D02*
X177020000Y-84080000D01*
X177020000Y-84080000D02*
X176720000Y-83780000D01*
X182280000Y-83780000D02*
X181980000Y-84080000D01*
X181980000Y-84080000D02*
X179500000Y-84080000D01*
X179500000Y-77920000D02*
X177020000Y-77920000D01*
X177020000Y-77920000D02*
X176720000Y-78220000D01*
X182280000Y-78220000D02*
X181980000Y-77920000D01*
X181980000Y-77920000D02*
X179500000Y-77920000D01*
X155000000Y-77050000D02*
X155500000Y-77050000D01*
X155500000Y-77050000D02*
X155750000Y-77300000D01*
X155750000Y-77300000D02*
X155750000Y-79400000D01*
X155750000Y-79400000D02*
X155750000Y-80050000D01*
D35*
X177400000Y-70200000D02*
X170941491Y-70200000D01*
X170941491Y-70200000D02*
X164300000Y-70200000D01*
X170750320Y-72500000D02*
X170750320Y-70391171D01*
X170750320Y-70391171D02*
X170941491Y-70200000D01*
X164300000Y-70200000D02*
X163750320Y-70749680D01*
X163750320Y-70749680D02*
X163750320Y-72500000D01*
D34*
X153000000Y-84000000D02*
X151000000Y-82000000D01*
X153000000Y-84000000D02*
X155000000Y-82000000D01*
X153000000Y-84000000D02*
X151000000Y-86000000D01*
X153000000Y-84000000D02*
X153000000Y-86000000D01*
X153000000Y-84000000D02*
X155000000Y-86000000D01*
X153000000Y-84000000D02*
X155000000Y-84000000D01*
X153000000Y-84000000D02*
X152000000Y-83000000D01*
X153000000Y-84000000D02*
X154000000Y-83000000D01*
X153000000Y-84000000D02*
X152000000Y-85000000D01*
X153000000Y-84000000D02*
X154000000Y-85000000D01*
X154750000Y-82250000D02*
X153000000Y-84000000D01*
X154750000Y-80050000D02*
X154750000Y-82250000D01*
X155750000Y-81250000D02*
X153000000Y-84000000D01*
X155750000Y-80050000D02*
X155750000Y-81250000D01*
X155250000Y-81750000D02*
X153000000Y-84000000D01*
X153750000Y-84750000D02*
X153000000Y-84000000D01*
X156950000Y-84750000D02*
X153750000Y-84750000D01*
X150250000Y-87950000D02*
X150250000Y-86750000D01*
X149750000Y-87950000D02*
X149750000Y-87250000D01*
X149750000Y-87250000D02*
X153000000Y-84000000D01*
X149050000Y-87250000D02*
X149750000Y-87250000D01*
X150250000Y-86750000D02*
X153000000Y-84000000D01*
X149050000Y-86750000D02*
X150250000Y-86750000D01*
X150750000Y-86250000D02*
X153000000Y-84000000D01*
X149050000Y-86250000D02*
X150750000Y-86250000D01*
X151250000Y-82250000D02*
X153000000Y-84000000D01*
X151250000Y-80050000D02*
X151250000Y-82250000D01*
X153750000Y-83250000D02*
X153000000Y-84000000D01*
X153750000Y-80050000D02*
X153750000Y-83250000D01*
X156950000Y-87950000D02*
X156250000Y-87950000D01*
X157000000Y-88000000D02*
X156950000Y-87950000D01*
D31*
X171950000Y-85500000D02*
X172500000Y-85500000D01*
X171950000Y-85500000D02*
X174250000Y-85500000D01*
X176000000Y-85500000D02*
X176720000Y-86220000D01*
X171950000Y-85500000D02*
X176000000Y-85500000D01*
X171950000Y-77500000D02*
X172750000Y-77500000D01*
X172750000Y-77500000D02*
X174000000Y-77500000D01*
X172750000Y-77500000D02*
X175250000Y-77500000D01*
X176000000Y-77500000D02*
X176720000Y-78220000D01*
X172750000Y-77500000D02*
X176000000Y-77500000D01*
X149450000Y-69500000D02*
X150250000Y-69500000D01*
X158550000Y-69500000D02*
X157750000Y-69500000D01*
D33*
X154250000Y-77050000D02*
X154200000Y-77050000D01*
X162500000Y-76000000D02*
X162500000Y-78000000D01*
X160500000Y-76000000D02*
X160500000Y-78000000D01*
X160500000Y-76000000D02*
X162500000Y-76000000D01*
X153750000Y-76750000D02*
X154500000Y-76000000D01*
X153750000Y-77500000D02*
X153750000Y-76750000D01*
X154500000Y-76000000D02*
X156500000Y-76000000D01*
X156500000Y-76000000D02*
X158500000Y-76000000D01*
X158500000Y-76000000D02*
X160500000Y-76000000D01*
X154200000Y-77050000D02*
X153750000Y-77500000D01*
X152250000Y-77000000D02*
X149400000Y-74150000D01*
X149400000Y-74150000D02*
X149400000Y-73000000D01*
X152250000Y-80050000D02*
X152250000Y-77000000D01*
D34*
X148550000Y-70550000D02*
X149400000Y-71400000D01*
X149400000Y-71400000D02*
X149400000Y-73000000D01*
X148550000Y-69500000D02*
X148550000Y-70550000D01*
D33*
X152750000Y-76000000D02*
X155750000Y-73000000D01*
X155750000Y-73000000D02*
X158600000Y-73000000D01*
X152750000Y-80050000D02*
X152750000Y-76000000D01*
D34*
X159450000Y-70550000D02*
X158600000Y-71400000D01*
X158600000Y-71400000D02*
X158600000Y-73000000D01*
X159450000Y-69500000D02*
X159450000Y-70550000D01*
X158750000Y-73150000D02*
X158600000Y-73000000D01*
X152750000Y-89125093D02*
X152850021Y-89225114D01*
X152750000Y-88150000D02*
X152750000Y-89125093D01*
D35*
X166800000Y-74800000D02*
X166249680Y-74249680D01*
X166249680Y-74249680D02*
X166249680Y-72500000D01*
X177400000Y-74800000D02*
X166800000Y-74800000D01*
D33*
X150000000Y-89000000D02*
X149200000Y-89000000D01*
X150600000Y-89000000D02*
X150000000Y-89000000D01*
X150750000Y-88850000D02*
X150600000Y-89000000D01*
X150750000Y-88150000D02*
X150750000Y-88850000D01*
X156035342Y-89000000D02*
X156540002Y-89000000D01*
X156540002Y-89000000D02*
X156731465Y-88808537D01*
X156731465Y-88808537D02*
X156854438Y-88808537D01*
X155750000Y-88150000D02*
X155750000Y-88714658D01*
X155750000Y-88714658D02*
X156035342Y-89000000D01*
D35*
X177400000Y-72500000D02*
X183600000Y-72500000D01*
X177400000Y-72500000D02*
X173249680Y-72500000D01*
D32*
X183600000Y-71850000D02*
X183000000Y-71250000D01*
X183600000Y-72500000D02*
X183600000Y-71850000D01*
X184250000Y-71250000D02*
X183600000Y-72500000D01*
X183600000Y-71900000D02*
X184250000Y-71250000D01*
X183600000Y-71900000D02*
X184250000Y-71250000D01*
X183600000Y-72500000D02*
X183600000Y-71900000D01*
X183600000Y-73150000D02*
X183000000Y-73750000D01*
X183600000Y-72500000D02*
X183600000Y-73150000D01*
X183600000Y-73100000D02*
X184250000Y-73750000D01*
X183600000Y-72500000D02*
X183600000Y-73100000D01*
D33*
X150250000Y-78750000D02*
X150250000Y-79850000D01*
X150250000Y-78750000D02*
X150000000Y-78500000D01*
X150000000Y-78500000D02*
X150000000Y-77950000D01*
X150000000Y-77050000D02*
X149000000Y-77050000D01*
D36*
X150600000Y-89400000D02*
X150000000Y-90000000D01*
X150000000Y-90000000D02*
X150000000Y-90050000D01*
X151000000Y-89400000D02*
X150600000Y-89400000D01*
X151250000Y-89150000D02*
X151000000Y-89400000D01*
X151250000Y-88150000D02*
X151250000Y-89150000D01*
D33*
X150000000Y-89909998D02*
X150000000Y-90050000D01*
X150000000Y-89980602D02*
X150000000Y-90050000D01*
D34*
X158500000Y-86750000D02*
X158000000Y-86250000D01*
X158000000Y-86250000D02*
X157150000Y-86250000D01*
X158500000Y-89000000D02*
X158500000Y-86750000D01*
X159000000Y-89500000D02*
X158500000Y-89000000D01*
X159000000Y-90050000D02*
X159000000Y-89500000D01*
X159000000Y-86500000D02*
X158250000Y-85750000D01*
X158250000Y-85750000D02*
X157150000Y-85750000D01*
X159000000Y-88500000D02*
X159000000Y-86500000D01*
X160000000Y-89500000D02*
X159000000Y-88500000D01*
X160000000Y-90050000D02*
X160000000Y-89500000D01*
D36*
X151750000Y-88150000D02*
X151750000Y-89300000D01*
X151750000Y-89300000D02*
X151000000Y-90050000D01*
X152250000Y-89350000D02*
X152000000Y-89600000D01*
X152000000Y-89600000D02*
X152000000Y-90050000D01*
X152250000Y-88150000D02*
X152250000Y-89350000D01*
X153250000Y-88150000D02*
X153250000Y-88750000D01*
X153250000Y-88750000D02*
X153425022Y-88925022D01*
X153425022Y-88925022D02*
X153425022Y-89624978D01*
X153425022Y-89624978D02*
X153000000Y-90050000D01*
X153750000Y-88150000D02*
X153750000Y-88706747D01*
X153750000Y-88706747D02*
X153825032Y-88781779D01*
X153825032Y-88781779D02*
X153825032Y-89425032D01*
X153825032Y-89425032D02*
X154000000Y-89600000D01*
X154000000Y-89600000D02*
X154000000Y-90050000D01*
X155000000Y-90050000D02*
X155000000Y-89600000D01*
X155000000Y-89600000D02*
X154250000Y-88850000D01*
X154250000Y-88850000D02*
X154250000Y-88750000D01*
X154250000Y-88750000D02*
X154250000Y-88150000D01*
D33*
X154250000Y-87950000D02*
X154250042Y-87950042D01*
D36*
X156000000Y-90050000D02*
X154750000Y-88800000D01*
X154750000Y-88800000D02*
X154750000Y-88150000D01*
D34*
X158000000Y-87000000D02*
X157750000Y-86750000D01*
X157750000Y-86750000D02*
X157150000Y-86750000D01*
X158000000Y-90050000D02*
X158000000Y-87000000D01*
D31*
X158000000Y-90950000D02*
X158000000Y-91750000D01*
D33*
X155000000Y-78750000D02*
X155250000Y-79000000D01*
X155250000Y-79000000D02*
X155250000Y-79850000D01*
X155000000Y-77950000D02*
X155000000Y-78750000D01*
D31*
X157000000Y-90950000D02*
X157000000Y-91750000D01*
D36*
X157000000Y-90050000D02*
X157000000Y-90000000D01*
X155904998Y-89400000D02*
X155324999Y-88820001D01*
X157000000Y-90000000D02*
X156400000Y-89400000D01*
X156400000Y-89400000D02*
X155904998Y-89400000D01*
X155324999Y-88820001D02*
X155324999Y-88224999D01*
X155324999Y-88224999D02*
X155250000Y-88150000D01*
D31*
X169400000Y-80200000D02*
X169400000Y-80950000D01*
D32*
X169400000Y-88400000D02*
X169250000Y-88250000D01*
X169400000Y-88950000D02*
X169400000Y-88400000D01*
D33*
X172950000Y-80000000D02*
X173000000Y-80050000D01*
X171650000Y-88050000D02*
X171600000Y-88000000D01*
D31*
X173000000Y-88050000D02*
X172550000Y-88050000D01*
X172500000Y-88000000D02*
X171600000Y-88000000D01*
X172550000Y-88050000D02*
X172500000Y-88000000D01*
X171600000Y-80000000D02*
X172250000Y-80000000D01*
X172300000Y-80050000D02*
X173000000Y-80050000D01*
X172250000Y-80000000D02*
X172300000Y-80050000D01*
D37*
X179500000Y-81000000D02*
X174700000Y-81000000D01*
X174700000Y-89000000D02*
X179500000Y-89000000D01*
D33*
X160020000Y-93420000D02*
X160020000Y-95250000D01*
X159400000Y-92800000D02*
X160020000Y-93420000D01*
X156000000Y-92800000D02*
X159400000Y-92800000D01*
D31*
X155000000Y-90950000D02*
X155000000Y-91800000D01*
D33*
X155000000Y-91800000D02*
X156000000Y-92800000D01*
X162560000Y-95160000D02*
X162560000Y-95250000D01*
X159750010Y-92350010D02*
X162560000Y-95160000D01*
X156550010Y-92350010D02*
X159750010Y-92350010D01*
X156000000Y-91800000D02*
X156550010Y-92350010D01*
D31*
X156000000Y-91800000D02*
X156000000Y-90950000D01*
D33*
X165100000Y-94869000D02*
X165100000Y-95250000D01*
X163631000Y-93400000D02*
X165100000Y-94869000D01*
X161600000Y-93400000D02*
X163631000Y-93400000D01*
X159800000Y-91800000D02*
X160000000Y-91800000D01*
X160000000Y-91800000D02*
X161600000Y-93400000D01*
X159000000Y-90950000D02*
X159000000Y-91000000D01*
X159000000Y-91000000D02*
X159800000Y-91800000D01*
X167200000Y-92800000D02*
X167640000Y-93240000D01*
X167640000Y-93240000D02*
X167640000Y-95250000D01*
X161800000Y-92800000D02*
X167200000Y-92800000D01*
X160000000Y-91000000D02*
X161800000Y-92800000D01*
X160000000Y-90950000D02*
X160000000Y-91000000D01*
X157200000Y-93400000D02*
X155400000Y-93400000D01*
X157480000Y-93680000D02*
X157200000Y-93400000D01*
X157480000Y-95250000D02*
X157480000Y-93680000D01*
D31*
X154000000Y-90950000D02*
X154000000Y-91800000D01*
D33*
X154000000Y-92000000D02*
X155400000Y-93400000D01*
X154000000Y-91800000D02*
X154000000Y-92000000D01*
X154940000Y-93940000D02*
X154940000Y-95250000D01*
X154400000Y-93400000D02*
X154940000Y-93940000D01*
X153600000Y-93400000D02*
X154400000Y-93400000D01*
X153000000Y-92800000D02*
X153600000Y-93400000D01*
D31*
X153000000Y-90950000D02*
X153000000Y-91800000D01*
D33*
X153000000Y-91800000D02*
X153000000Y-92800000D01*
D31*
X152000000Y-90950000D02*
X152000000Y-91800000D01*
D33*
X152000000Y-91800000D02*
X152000000Y-93200000D01*
X152400000Y-93600000D02*
X152400000Y-95250000D01*
X152000000Y-93200000D02*
X152400000Y-93600000D01*
X151000000Y-94110000D02*
X149860000Y-95250000D01*
D31*
X151000000Y-90950000D02*
X151000000Y-91800000D01*
D33*
X151000000Y-91800000D02*
X151000000Y-94110000D01*
X147320000Y-93880000D02*
X147320000Y-95250000D01*
X147800000Y-93400000D02*
X147320000Y-93880000D01*
X149400000Y-93400000D02*
X147800000Y-93400000D01*
X150000000Y-92800000D02*
X149400000Y-93400000D01*
D31*
X150000000Y-90950000D02*
X150000000Y-91800000D01*
D33*
X150000000Y-91800000D02*
X150000000Y-92800000D01*
D32*
X170500000Y-82500000D02*
X170500000Y-79250000D01*
X170300000Y-79050000D02*
X169400000Y-79050000D01*
X170500000Y-79250000D02*
X170300000Y-79050000D01*
X170500000Y-82500000D02*
X169950000Y-82500000D01*
X170500000Y-82500000D02*
X171050000Y-82500000D01*
D31*
X171050000Y-77500000D02*
X169950000Y-77500000D01*
X171600000Y-79050000D02*
X171600000Y-78600000D01*
X171050000Y-78050000D02*
X171050000Y-77500000D01*
X171600000Y-78600000D02*
X171050000Y-78050000D01*
D32*
X170500000Y-90500000D02*
X170500000Y-87300000D01*
X170250000Y-87050000D02*
X169400000Y-87050000D01*
X170500000Y-87300000D02*
X170250000Y-87050000D01*
X170500000Y-90500000D02*
X169950000Y-90500000D01*
X170500000Y-90500000D02*
X171050000Y-90500000D01*
D31*
X169950000Y-85500000D02*
X170700000Y-85500000D01*
X170700000Y-85500000D02*
X171050000Y-85500000D01*
X171600000Y-87050000D02*
X171600000Y-86600000D01*
X171050000Y-86050000D02*
X171050000Y-85500000D01*
X171600000Y-86600000D02*
X171050000Y-86050000D01*
D33*
X173750000Y-80950000D02*
X173800000Y-81000000D01*
D31*
X171950000Y-82500000D02*
X171950000Y-81950000D01*
X171600000Y-81600000D02*
X171600000Y-80950000D01*
X171950000Y-81950000D02*
X171600000Y-81600000D01*
X173000000Y-80950000D02*
X173350000Y-80950000D01*
X173400000Y-81000000D02*
X173800000Y-81000000D01*
X173350000Y-80950000D02*
X173400000Y-81000000D01*
X171600000Y-80950000D02*
X173000000Y-80950000D01*
D33*
X173750000Y-88950000D02*
X173800000Y-89000000D01*
D31*
X171600000Y-88950000D02*
X173000000Y-88950000D01*
X173000000Y-88950000D02*
X173350000Y-88950000D01*
X173400000Y-89000000D02*
X173800000Y-89000000D01*
X173350000Y-88950000D02*
X173400000Y-89000000D01*
X171600000Y-88950000D02*
X171600000Y-89600000D01*
X171950000Y-89950000D02*
X171950000Y-90500000D01*
X171600000Y-89600000D02*
X171950000Y-89950000D01*
D34*
X158500000Y-83750000D02*
X157150000Y-83750000D01*
D31*
X169050000Y-90500000D02*
X168500000Y-90500000D01*
X168000000Y-90000000D02*
X168000000Y-89450000D01*
X168500000Y-90500000D02*
X168000000Y-90000000D01*
D38*
X167950000Y-89500000D02*
X168000000Y-89450000D01*
D34*
X158750000Y-83750000D02*
X159000000Y-84000000D01*
X158500000Y-83750000D02*
X158750000Y-83750000D01*
D31*
X159800000Y-84000000D02*
X159000000Y-84000000D01*
X167450000Y-89450000D02*
X167250000Y-89250000D01*
X168000000Y-89450000D02*
X167450000Y-89450000D01*
D34*
X158750000Y-83250000D02*
X157150000Y-83250000D01*
D31*
X169050000Y-85500000D02*
X168400000Y-85500000D01*
X168000000Y-85900000D02*
X168000000Y-86550000D01*
X168400000Y-85500000D02*
X168000000Y-85900000D01*
D38*
X167950000Y-86500000D02*
X168000000Y-86550000D01*
D34*
X158750000Y-83250000D02*
X159000000Y-83000000D01*
D31*
X159800000Y-83000000D02*
X159000000Y-83000000D01*
X167450000Y-86550000D02*
X167250000Y-86750000D01*
X168000000Y-86550000D02*
X167450000Y-86550000D01*
D34*
X158750000Y-81250000D02*
X157150000Y-81250000D01*
D31*
X169050000Y-82500000D02*
X168500000Y-82500000D01*
X168000000Y-82000000D02*
X168000000Y-81450000D01*
X168500000Y-82500000D02*
X168000000Y-82000000D01*
D34*
X158750000Y-81250000D02*
X159000000Y-81500000D01*
D31*
X159800000Y-81500000D02*
X159000000Y-81500000D01*
X167450000Y-81450000D02*
X167250000Y-81250000D01*
X168000000Y-81450000D02*
X167450000Y-81450000D01*
D34*
X158750000Y-80750000D02*
X157150000Y-80750000D01*
D31*
X169050000Y-77500000D02*
X168500000Y-77500000D01*
X168000000Y-78000000D02*
X168000000Y-78550000D01*
X168500000Y-77500000D02*
X168000000Y-78000000D01*
D34*
X158750000Y-80750000D02*
X159000000Y-80500000D01*
D31*
X159800000Y-80500000D02*
X159000000Y-80500000D01*
X167450000Y-78550000D02*
X167250000Y-78750000D01*
X168000000Y-78550000D02*
X167450000Y-78550000D01*
X164800000Y-81300000D02*
X165700000Y-82200000D01*
X165700000Y-82200000D02*
X166000000Y-82200000D01*
X164800000Y-81300000D02*
X163900000Y-82200000D01*
X163900000Y-82200000D02*
X163600000Y-82200000D01*
D34*
X157750000Y-85250000D02*
X157150000Y-85250000D01*
X157750000Y-84250000D02*
X157150000Y-84250000D01*
X157150000Y-82250000D02*
X158250000Y-82250000D01*
D33*
X156250000Y-79250000D02*
X156250000Y-79850000D01*
X153750000Y-79000000D02*
X153750000Y-78910727D01*
X153750000Y-78910727D02*
X153760729Y-78899998D01*
X154250000Y-79250000D02*
X154250000Y-79850000D01*
X154250000Y-79250000D02*
X154000000Y-79000000D01*
X153250000Y-79250000D02*
X153250000Y-79850000D01*
X154000000Y-79000000D02*
X153500000Y-79000000D01*
X153500000Y-79000000D02*
X153250000Y-79250000D01*
X151750000Y-79250000D02*
X151750000Y-79850000D01*
X151250000Y-79000000D02*
X151250000Y-78899998D01*
X150750000Y-79250000D02*
X150750000Y-79850000D01*
D34*
X157750000Y-85250000D02*
X158250000Y-84750000D01*
X157750000Y-84250000D02*
X158250000Y-84750000D01*
D31*
X164750000Y-85600000D02*
X163850000Y-85600000D01*
X163850000Y-85600000D02*
X163500000Y-85250000D01*
D33*
X151000000Y-79000000D02*
X151250000Y-79000000D01*
X150750000Y-79250000D02*
X151000000Y-79000000D01*
X151500000Y-79000000D02*
X151250000Y-79000000D01*
X151750000Y-79250000D02*
X151500000Y-79000000D01*
X156250000Y-79250000D02*
X156500000Y-79000000D01*
X148550000Y-81250000D02*
X147750000Y-81250000D01*
X148550000Y-81750000D02*
X147250000Y-81750000D01*
X148550000Y-82750000D02*
X147250000Y-82750000D01*
X148550000Y-83750000D02*
X147250000Y-83750000D01*
X148550000Y-84250000D02*
X147750000Y-84250000D01*
X148550000Y-84750000D02*
X147250000Y-84750000D01*
X148550000Y-85750000D02*
X147250000Y-85750000D01*
X148550000Y-80750000D02*
X147250000Y-80750000D01*
X148550000Y-80750000D02*
X149050000Y-80750000D01*
X148550000Y-81250000D02*
X149050000Y-81250000D01*
X148550000Y-81750000D02*
X149050000Y-81750000D01*
X148550000Y-82750000D02*
X149050000Y-82750000D01*
X148550000Y-83750000D02*
X149050000Y-83750000D01*
X148550000Y-84250000D02*
X149050000Y-84250000D01*
X148550000Y-84750000D02*
X149050000Y-84750000D01*
X148550000Y-85750000D02*
X149050000Y-85750000D01*
D31*
X160700000Y-80500000D02*
X160700000Y-81500000D01*
X160700000Y-84000000D02*
X160700000Y-83000000D01*
X160700000Y-83000000D02*
X160700000Y-82248955D01*
X160700000Y-82248955D02*
X160700000Y-81500000D01*
X160700000Y-84700000D02*
X160750000Y-84750000D01*
X160700000Y-84000000D02*
X160700000Y-84700000D01*
X160700000Y-79800000D02*
X160750000Y-79750000D01*
X160700000Y-80500000D02*
X160700000Y-79800000D01*
X168000000Y-80550000D02*
X168000000Y-79999151D01*
X168000000Y-79450000D02*
X168000000Y-79999151D01*
X168000000Y-88550000D02*
X168000000Y-88000846D01*
X168000000Y-87450000D02*
X168000000Y-88000846D01*
X165650000Y-85600000D02*
X166000000Y-85250000D01*
X164750000Y-85600000D02*
X165650000Y-85600000D01*
D39*
G36*
X150300553Y-76090000D02*
X150173691Y-76090000D01*
X149573691Y-76090000D01*
X149469822Y-76133023D01*
X149426310Y-76115000D01*
X149173691Y-76115000D01*
X148573691Y-76115000D01*
X148340302Y-76211673D01*
X148161673Y-76390301D01*
X148065000Y-76623690D01*
X148065000Y-76876309D01*
X148065000Y-77476309D01*
X148161673Y-77709698D01*
X148340301Y-77888327D01*
X148573690Y-77985000D01*
X148826309Y-77985000D01*
X149065000Y-77985000D01*
X149065000Y-78401309D01*
X149161673Y-78634698D01*
X149340301Y-78813327D01*
X149343158Y-78814510D01*
X149345543Y-78818080D01*
X149240302Y-78861673D01*
X149061673Y-79040301D01*
X148965000Y-79273690D01*
X148965000Y-79365000D01*
X146185000Y-79365000D01*
X146185000Y-74195303D01*
X146211673Y-74259698D01*
X146390301Y-74438327D01*
X146623690Y-74535000D01*
X146876309Y-74535000D01*
X148790257Y-74535000D01*
X148880277Y-74669723D01*
X150300553Y-76090000D01*
X150300553Y-76090000D01*
G37*
X150300553Y-76090000D02*
X150173691Y-76090000D01*
X149573691Y-76090000D01*
X149469822Y-76133023D01*
X149426310Y-76115000D01*
X149173691Y-76115000D01*
X148573691Y-76115000D01*
X148340302Y-76211673D01*
X148161673Y-76390301D01*
X148065000Y-76623690D01*
X148065000Y-76876309D01*
X148065000Y-77476309D01*
X148161673Y-77709698D01*
X148340301Y-77888327D01*
X148573690Y-77985000D01*
X148826309Y-77985000D01*
X149065000Y-77985000D01*
X149065000Y-78401309D01*
X149161673Y-78634698D01*
X149340301Y-78813327D01*
X149343158Y-78814510D01*
X149345543Y-78818080D01*
X149240302Y-78861673D01*
X149061673Y-79040301D01*
X148965000Y-79273690D01*
X148965000Y-79365000D01*
X146185000Y-79365000D01*
X146185000Y-74195303D01*
X146211673Y-74259698D01*
X146390301Y-74438327D01*
X146623690Y-74535000D01*
X146876309Y-74535000D01*
X148790257Y-74535000D01*
X148880277Y-74669723D01*
X150300553Y-76090000D01*
G36*
X156157655Y-84749999D02*
X156065000Y-84973690D01*
X156065000Y-85226309D01*
X156065000Y-85473690D01*
X156065000Y-85526309D01*
X156065000Y-85726309D01*
X156065000Y-85973690D01*
X156065000Y-86026309D01*
X156065000Y-86226309D01*
X156065000Y-86473690D01*
X156065000Y-86526309D01*
X156065000Y-86726309D01*
X156065000Y-86973690D01*
X156065000Y-87026309D01*
X156065000Y-87081025D01*
X156026310Y-87065000D01*
X155773691Y-87065000D01*
X155526310Y-87065000D01*
X155473691Y-87065000D01*
X155273691Y-87065000D01*
X155026310Y-87065000D01*
X154973691Y-87065000D01*
X154773691Y-87065000D01*
X154526310Y-87065000D01*
X154473691Y-87065000D01*
X154273691Y-87065000D01*
X154026310Y-87065000D01*
X153973691Y-87065000D01*
X153773691Y-87065000D01*
X153526310Y-87065000D01*
X153473691Y-87065000D01*
X153273691Y-87065000D01*
X153026310Y-87065000D01*
X152973691Y-87065000D01*
X152773691Y-87065000D01*
X152526310Y-87065000D01*
X152473691Y-87065000D01*
X152273691Y-87065000D01*
X152026310Y-87065000D01*
X151973691Y-87065000D01*
X151773691Y-87065000D01*
X151526310Y-87065000D01*
X151473691Y-87065000D01*
X151273691Y-87065000D01*
X151026310Y-87065000D01*
X150973691Y-87065000D01*
X150773691Y-87065000D01*
X150473691Y-87065000D01*
X150240302Y-87161673D01*
X150061673Y-87340301D01*
X149965000Y-87573690D01*
X149965000Y-87826309D01*
X149965000Y-88265000D01*
X149787419Y-88265000D01*
X149730327Y-88207808D01*
X149386799Y-88065162D01*
X149014833Y-88064838D01*
X148671057Y-88206883D01*
X148452194Y-88425364D01*
X148186799Y-88315162D01*
X147814833Y-88314838D01*
X147471057Y-88456883D01*
X147207808Y-88719673D01*
X147065162Y-89063201D01*
X147064838Y-89435167D01*
X147206883Y-89778943D01*
X147469673Y-90042192D01*
X147813201Y-90184838D01*
X148185167Y-90185162D01*
X148528943Y-90043117D01*
X148747805Y-89824635D01*
X149013201Y-89934838D01*
X149065000Y-89934883D01*
X149065000Y-90476309D01*
X149074812Y-90499999D01*
X149065000Y-90523690D01*
X149065000Y-90776309D01*
X149065000Y-90950000D01*
X149065000Y-91376309D01*
X149065000Y-91800000D01*
X149136173Y-92157809D01*
X149265000Y-92350612D01*
X149265000Y-92495553D01*
X149095553Y-92665000D01*
X147800000Y-92665000D01*
X147518728Y-92720949D01*
X147280277Y-92880276D01*
X146892315Y-93268238D01*
X146785391Y-93289507D01*
X146332172Y-93592339D01*
X146185000Y-93812596D01*
X146185000Y-87135000D01*
X150135000Y-87135000D01*
X150135000Y-80935000D01*
X150226309Y-80935000D01*
X150473690Y-80935000D01*
X150526309Y-80935000D01*
X150726309Y-80935000D01*
X151026309Y-80935000D01*
X151249999Y-80842344D01*
X151473690Y-80935000D01*
X151726309Y-80935000D01*
X151973690Y-80935000D01*
X152026309Y-80935000D01*
X152226309Y-80935000D01*
X152473690Y-80935000D01*
X152526309Y-80935000D01*
X152726309Y-80935000D01*
X152973690Y-80935000D01*
X153026309Y-80935000D01*
X153226309Y-80935000D01*
X153526309Y-80935000D01*
X153749999Y-80842344D01*
X153973690Y-80935000D01*
X154226309Y-80935000D01*
X154526309Y-80935000D01*
X154749999Y-80842344D01*
X154973690Y-80935000D01*
X155226309Y-80935000D01*
X155526309Y-80935000D01*
X155749999Y-80842344D01*
X155973690Y-80935000D01*
X156065000Y-80935000D01*
X156065000Y-80973690D01*
X156065000Y-81026309D01*
X156065000Y-81226309D01*
X156065000Y-81526309D01*
X156157655Y-81749999D01*
X156065000Y-81973690D01*
X156065000Y-82226309D01*
X156065000Y-82526309D01*
X156157655Y-82749999D01*
X156065000Y-82973690D01*
X156065000Y-83226309D01*
X156065000Y-83473690D01*
X156065000Y-83526309D01*
X156065000Y-83726309D01*
X156065000Y-83973690D01*
X156065000Y-84026309D01*
X156065000Y-84226309D01*
X156065000Y-84526309D01*
X156157655Y-84749999D01*
X156157655Y-84749999D01*
G37*
X156157655Y-84749999D02*
X156065000Y-84973690D01*
X156065000Y-85226309D01*
X156065000Y-85473690D01*
X156065000Y-85526309D01*
X156065000Y-85726309D01*
X156065000Y-85973690D01*
X156065000Y-86026309D01*
X156065000Y-86226309D01*
X156065000Y-86473690D01*
X156065000Y-86526309D01*
X156065000Y-86726309D01*
X156065000Y-86973690D01*
X156065000Y-87026309D01*
X156065000Y-87081025D01*
X156026310Y-87065000D01*
X155773691Y-87065000D01*
X155526310Y-87065000D01*
X155473691Y-87065000D01*
X155273691Y-87065000D01*
X155026310Y-87065000D01*
X154973691Y-87065000D01*
X154773691Y-87065000D01*
X154526310Y-87065000D01*
X154473691Y-87065000D01*
X154273691Y-87065000D01*
X154026310Y-87065000D01*
X153973691Y-87065000D01*
X153773691Y-87065000D01*
X153526310Y-87065000D01*
X153473691Y-87065000D01*
X153273691Y-87065000D01*
X153026310Y-87065000D01*
X152973691Y-87065000D01*
X152773691Y-87065000D01*
X152526310Y-87065000D01*
X152473691Y-87065000D01*
X152273691Y-87065000D01*
X152026310Y-87065000D01*
X151973691Y-87065000D01*
X151773691Y-87065000D01*
X151526310Y-87065000D01*
X151473691Y-87065000D01*
X151273691Y-87065000D01*
X151026310Y-87065000D01*
X150973691Y-87065000D01*
X150773691Y-87065000D01*
X150473691Y-87065000D01*
X150240302Y-87161673D01*
X150061673Y-87340301D01*
X149965000Y-87573690D01*
X149965000Y-87826309D01*
X149965000Y-88265000D01*
X149787419Y-88265000D01*
X149730327Y-88207808D01*
X149386799Y-88065162D01*
X149014833Y-88064838D01*
X148671057Y-88206883D01*
X148452194Y-88425364D01*
X148186799Y-88315162D01*
X147814833Y-88314838D01*
X147471057Y-88456883D01*
X147207808Y-88719673D01*
X147065162Y-89063201D01*
X147064838Y-89435167D01*
X147206883Y-89778943D01*
X147469673Y-90042192D01*
X147813201Y-90184838D01*
X148185167Y-90185162D01*
X148528943Y-90043117D01*
X148747805Y-89824635D01*
X149013201Y-89934838D01*
X149065000Y-89934883D01*
X149065000Y-90476309D01*
X149074812Y-90499999D01*
X149065000Y-90523690D01*
X149065000Y-90776309D01*
X149065000Y-90950000D01*
X149065000Y-91376309D01*
X149065000Y-91800000D01*
X149136173Y-92157809D01*
X149265000Y-92350612D01*
X149265000Y-92495553D01*
X149095553Y-92665000D01*
X147800000Y-92665000D01*
X147518728Y-92720949D01*
X147280277Y-92880276D01*
X146892315Y-93268238D01*
X146785391Y-93289507D01*
X146332172Y-93592339D01*
X146185000Y-93812596D01*
X146185000Y-87135000D01*
X150135000Y-87135000D01*
X150135000Y-80935000D01*
X150226309Y-80935000D01*
X150473690Y-80935000D01*
X150526309Y-80935000D01*
X150726309Y-80935000D01*
X151026309Y-80935000D01*
X151249999Y-80842344D01*
X151473690Y-80935000D01*
X151726309Y-80935000D01*
X151973690Y-80935000D01*
X152026309Y-80935000D01*
X152226309Y-80935000D01*
X152473690Y-80935000D01*
X152526309Y-80935000D01*
X152726309Y-80935000D01*
X152973690Y-80935000D01*
X153026309Y-80935000D01*
X153226309Y-80935000D01*
X153526309Y-80935000D01*
X153749999Y-80842344D01*
X153973690Y-80935000D01*
X154226309Y-80935000D01*
X154526309Y-80935000D01*
X154749999Y-80842344D01*
X154973690Y-80935000D01*
X155226309Y-80935000D01*
X155526309Y-80935000D01*
X155749999Y-80842344D01*
X155973690Y-80935000D01*
X156065000Y-80935000D01*
X156065000Y-80973690D01*
X156065000Y-81026309D01*
X156065000Y-81226309D01*
X156065000Y-81526309D01*
X156157655Y-81749999D01*
X156065000Y-81973690D01*
X156065000Y-82226309D01*
X156065000Y-82526309D01*
X156157655Y-82749999D01*
X156065000Y-82973690D01*
X156065000Y-83226309D01*
X156065000Y-83473690D01*
X156065000Y-83526309D01*
X156065000Y-83726309D01*
X156065000Y-83973690D01*
X156065000Y-84026309D01*
X156065000Y-84226309D01*
X156065000Y-84526309D01*
X156157655Y-84749999D01*
G36*
X158741974Y-68685000D02*
X158586673Y-68840301D01*
X158490000Y-69073690D01*
X158490000Y-69326309D01*
X158490000Y-69926309D01*
X158586673Y-70159698D01*
X158676086Y-70249111D01*
X158062599Y-70862599D01*
X157897852Y-71109161D01*
X157840000Y-71400000D01*
X157840000Y-71465000D01*
X155823691Y-71465000D01*
X155590302Y-71561673D01*
X155411673Y-71740301D01*
X155315000Y-71973690D01*
X155315000Y-72226309D01*
X155315000Y-72423666D01*
X155230277Y-72480276D01*
X152230277Y-75480277D01*
X152070949Y-75718728D01*
X152060534Y-75771087D01*
X150824446Y-74535000D01*
X152176309Y-74535000D01*
X152409698Y-74438327D01*
X152588327Y-74259699D01*
X152685000Y-74026310D01*
X152685000Y-73773691D01*
X152685000Y-71973691D01*
X152588327Y-71740302D01*
X152409699Y-71561673D01*
X152176310Y-71465000D01*
X151923691Y-71465000D01*
X150160000Y-71465000D01*
X150160000Y-71400000D01*
X150102148Y-71109161D01*
X149937401Y-70862599D01*
X149323913Y-70249111D01*
X149413327Y-70159699D01*
X149510000Y-69926310D01*
X149510000Y-69673691D01*
X149510000Y-69073691D01*
X149413327Y-68840302D01*
X149258025Y-68685000D01*
X158741974Y-68685000D01*
X158741974Y-68685000D01*
G37*
X158741974Y-68685000D02*
X158586673Y-68840301D01*
X158490000Y-69073690D01*
X158490000Y-69326309D01*
X158490000Y-69926309D01*
X158586673Y-70159698D01*
X158676086Y-70249111D01*
X158062599Y-70862599D01*
X157897852Y-71109161D01*
X157840000Y-71400000D01*
X157840000Y-71465000D01*
X155823691Y-71465000D01*
X155590302Y-71561673D01*
X155411673Y-71740301D01*
X155315000Y-71973690D01*
X155315000Y-72226309D01*
X155315000Y-72423666D01*
X155230277Y-72480276D01*
X152230277Y-75480277D01*
X152070949Y-75718728D01*
X152060534Y-75771087D01*
X150824446Y-74535000D01*
X152176309Y-74535000D01*
X152409698Y-74438327D01*
X152588327Y-74259699D01*
X152685000Y-74026310D01*
X152685000Y-73773691D01*
X152685000Y-71973691D01*
X152588327Y-71740302D01*
X152409699Y-71561673D01*
X152176310Y-71465000D01*
X151923691Y-71465000D01*
X150160000Y-71465000D01*
X150160000Y-71400000D01*
X150102148Y-71109161D01*
X149937401Y-70862599D01*
X149323913Y-70249111D01*
X149413327Y-70159699D01*
X149510000Y-69926310D01*
X149510000Y-69673691D01*
X149510000Y-69073691D01*
X149413327Y-68840302D01*
X149258025Y-68685000D01*
X158741974Y-68685000D01*
G36*
X184815000Y-99315000D02*
X183508000Y-99315000D01*
X183508000Y-93008000D01*
X183508000Y-85992000D01*
X183508000Y-84008000D01*
X183508000Y-77992000D01*
X172296655Y-77992000D01*
X172261145Y-77938855D01*
X171985000Y-77662710D01*
X171985000Y-77500000D01*
X171985000Y-77073691D01*
X171888327Y-76840302D01*
X171709699Y-76661673D01*
X171508000Y-76578126D01*
X171508000Y-75992000D01*
X167289580Y-75992000D01*
X165492000Y-77789580D01*
X165492000Y-80090000D01*
X165398691Y-80090000D01*
X163948691Y-80090000D01*
X163715302Y-80186673D01*
X163536673Y-80365301D01*
X163440000Y-80598690D01*
X163440000Y-80851309D01*
X163440000Y-81264859D01*
X163414833Y-81264838D01*
X163071057Y-81406883D01*
X162807808Y-81669673D01*
X162665162Y-82013201D01*
X162664838Y-82385167D01*
X162806883Y-82728943D01*
X162938855Y-82861145D01*
X163069673Y-82992192D01*
X163413201Y-83134838D01*
X163600000Y-83135000D01*
X163785167Y-83135162D01*
X163785559Y-83135000D01*
X163900000Y-83135000D01*
X164257809Y-83063827D01*
X164561145Y-82861145D01*
X164800000Y-82622290D01*
X165038855Y-82861145D01*
X165342191Y-83063827D01*
X165700000Y-83135000D01*
X165999184Y-83135000D01*
X166000000Y-83135000D01*
X166185167Y-83135162D01*
X166357809Y-83063827D01*
X166528943Y-82993117D01*
X166651927Y-82870347D01*
X167289580Y-83508000D01*
X168000000Y-83508000D01*
X175492000Y-83508000D01*
X175492000Y-84008000D01*
X183508000Y-84008000D01*
X183508000Y-85992000D01*
X175500000Y-85992000D01*
X172296655Y-85992000D01*
X172261145Y-85938855D01*
X171985000Y-85662710D01*
X171985000Y-85500000D01*
X171985000Y-85073691D01*
X171888327Y-84840302D01*
X171709699Y-84661673D01*
X171508000Y-84578126D01*
X171508000Y-83992000D01*
X167289580Y-83992000D01*
X166676921Y-84604658D01*
X166661145Y-84588855D01*
X166530327Y-84457808D01*
X166186799Y-84315162D01*
X165814833Y-84314838D01*
X165617098Y-84396539D01*
X165601310Y-84390000D01*
X165348691Y-84390000D01*
X163898691Y-84390000D01*
X163882839Y-84396565D01*
X163686799Y-84315162D01*
X163314833Y-84314838D01*
X162971057Y-84456883D01*
X162707808Y-84719673D01*
X162565162Y-85063201D01*
X162564838Y-85435167D01*
X162706883Y-85778943D01*
X162838855Y-85911145D01*
X162969673Y-86042192D01*
X162970064Y-86042354D01*
X163188855Y-86261145D01*
X163443971Y-86431607D01*
X163486673Y-86534698D01*
X163665301Y-86713327D01*
X163898690Y-86810000D01*
X164151309Y-86810000D01*
X165601309Y-86810000D01*
X165834698Y-86713327D01*
X166013327Y-86534699D01*
X166056028Y-86431607D01*
X166311145Y-86261145D01*
X166492000Y-86080290D01*
X166492000Y-86185540D01*
X166457808Y-86219673D01*
X166315162Y-86563201D01*
X166314838Y-86935167D01*
X166456883Y-87278943D01*
X166492000Y-87314121D01*
X166492000Y-88685540D01*
X166457808Y-88719673D01*
X166315162Y-89063201D01*
X166314838Y-89435167D01*
X166456883Y-89778943D01*
X166492000Y-89814121D01*
X166492000Y-90710420D01*
X168289580Y-92508000D01*
X174992000Y-92508000D01*
X174992000Y-93008000D01*
X183508000Y-93008000D01*
X183508000Y-99315000D01*
X178606231Y-99315000D01*
X178787828Y-99193661D01*
X179090660Y-98740442D01*
X179197000Y-98205833D01*
X179197000Y-97374167D01*
X179090660Y-96839558D01*
X178787828Y-96386339D01*
X178334609Y-96083507D01*
X177800000Y-95977167D01*
X177265391Y-96083507D01*
X176812172Y-96386339D01*
X176509340Y-96839558D01*
X176403000Y-97374167D01*
X176403000Y-98205833D01*
X176509340Y-98740442D01*
X176812172Y-99193661D01*
X176993768Y-99315000D01*
X173998025Y-99315000D01*
X174020327Y-99292699D01*
X174117000Y-99059310D01*
X174117000Y-98806691D01*
X174117000Y-96520691D01*
X174020327Y-96287302D01*
X173841699Y-96108673D01*
X173608310Y-96012000D01*
X173355691Y-96012000D01*
X171831691Y-96012000D01*
X171598302Y-96108673D01*
X171419673Y-96287301D01*
X171323000Y-96520690D01*
X171323000Y-96773309D01*
X171323000Y-99059309D01*
X171419673Y-99292698D01*
X171441974Y-99315000D01*
X146185000Y-99315000D01*
X146185000Y-96179403D01*
X146332172Y-96399661D01*
X146785391Y-96702493D01*
X147320000Y-96808833D01*
X147854609Y-96702493D01*
X148307828Y-96399661D01*
X148590000Y-95977361D01*
X148872172Y-96399661D01*
X149325391Y-96702493D01*
X149860000Y-96808833D01*
X150394609Y-96702493D01*
X150847828Y-96399661D01*
X151130000Y-95977361D01*
X151412172Y-96399661D01*
X151865391Y-96702493D01*
X152400000Y-96808833D01*
X152934609Y-96702493D01*
X153387828Y-96399661D01*
X153670000Y-95977361D01*
X153952172Y-96399661D01*
X154405391Y-96702493D01*
X154940000Y-96808833D01*
X155474609Y-96702493D01*
X155927828Y-96399661D01*
X156210000Y-95977361D01*
X156492172Y-96399661D01*
X156945391Y-96702493D01*
X157480000Y-96808833D01*
X158014609Y-96702493D01*
X158467828Y-96399661D01*
X158750000Y-95977361D01*
X159032172Y-96399661D01*
X159485391Y-96702493D01*
X160020000Y-96808833D01*
X160554609Y-96702493D01*
X161007828Y-96399661D01*
X161290000Y-95977361D01*
X161572172Y-96399661D01*
X162025391Y-96702493D01*
X162560000Y-96808833D01*
X163094609Y-96702493D01*
X163547828Y-96399661D01*
X163830000Y-95977361D01*
X164112172Y-96399661D01*
X164565391Y-96702493D01*
X165100000Y-96808833D01*
X165634609Y-96702493D01*
X166087828Y-96399661D01*
X166370000Y-95977361D01*
X166652172Y-96399661D01*
X167105391Y-96702493D01*
X167640000Y-96808833D01*
X168174609Y-96702493D01*
X168627828Y-96399661D01*
X168910000Y-95977361D01*
X169192172Y-96399661D01*
X169645391Y-96702493D01*
X170180000Y-96808833D01*
X170714609Y-96702493D01*
X171167828Y-96399661D01*
X171470660Y-95946442D01*
X171577000Y-95411833D01*
X171577000Y-94580167D01*
X171470660Y-94045558D01*
X171167828Y-93592339D01*
X170714609Y-93289507D01*
X170180000Y-93183167D01*
X169645391Y-93289507D01*
X169192172Y-93592339D01*
X168910000Y-94014638D01*
X168627828Y-93592339D01*
X168375000Y-93423404D01*
X168375000Y-93240000D01*
X168319051Y-92958728D01*
X168159724Y-92720277D01*
X167719723Y-92280277D01*
X167481272Y-92120949D01*
X167200000Y-92065000D01*
X164045303Y-92065000D01*
X164109698Y-92038327D01*
X164288327Y-91859699D01*
X164385000Y-91626310D01*
X164385000Y-91373691D01*
X164385000Y-88873691D01*
X164288327Y-88640302D01*
X164109699Y-88461673D01*
X163876310Y-88365000D01*
X163623691Y-88365000D01*
X162885000Y-88365000D01*
X162885000Y-86123691D01*
X162788327Y-85890302D01*
X162609699Y-85711673D01*
X162376310Y-85615000D01*
X162123691Y-85615000D01*
X161104972Y-85615000D01*
X161107809Y-85613827D01*
X161278943Y-85543117D01*
X161411145Y-85411145D01*
X161542192Y-85280327D01*
X161613827Y-85107809D01*
X161684838Y-84936799D01*
X161685000Y-84750000D01*
X161685162Y-84564833D01*
X161635000Y-84443431D01*
X161635000Y-84426310D01*
X161635000Y-84173691D01*
X161635000Y-84000000D01*
X161635000Y-83573691D01*
X161635000Y-83426310D01*
X161635000Y-83173691D01*
X161635000Y-83000000D01*
X161635000Y-82573691D01*
X161635000Y-82249771D01*
X161635000Y-82248955D01*
X161635162Y-82063788D01*
X161635000Y-82063395D01*
X161635000Y-81926310D01*
X161635000Y-81673691D01*
X161635000Y-81500000D01*
X161635000Y-81073691D01*
X161635000Y-80926310D01*
X161635000Y-80673691D01*
X161635000Y-80500000D01*
X161635000Y-80073691D01*
X161635000Y-80056821D01*
X161684838Y-79936799D01*
X161685000Y-79750000D01*
X161685162Y-79564833D01*
X161613827Y-79392191D01*
X161543117Y-79221057D01*
X161411145Y-79088855D01*
X161280327Y-78957808D01*
X160936799Y-78815162D01*
X160564833Y-78814838D01*
X160221057Y-78956883D01*
X159957808Y-79219673D01*
X159913407Y-79326601D01*
X159836173Y-79442191D01*
X159811744Y-79565000D01*
X159800000Y-79565000D01*
X159373691Y-79565000D01*
X159000816Y-79565000D01*
X158814833Y-79564838D01*
X158471057Y-79706883D01*
X158207808Y-79969673D01*
X158199367Y-79990000D01*
X157786665Y-79990000D01*
X157726310Y-79965000D01*
X157473691Y-79965000D01*
X157035000Y-79965000D01*
X157035000Y-79787070D01*
X157292192Y-79530327D01*
X157434838Y-79186799D01*
X157435162Y-78814833D01*
X157293117Y-78471057D01*
X157030327Y-78207808D01*
X156686799Y-78065162D01*
X156314833Y-78064838D01*
X155971057Y-78206883D01*
X155935000Y-78242877D01*
X155935000Y-78123691D01*
X155935000Y-77523691D01*
X155838327Y-77290302D01*
X155659699Y-77111673D01*
X155426310Y-77015000D01*
X155173691Y-77015000D01*
X154573691Y-77015000D01*
X154340302Y-77111673D01*
X154161673Y-77290301D01*
X154065000Y-77523690D01*
X154065000Y-77776309D01*
X154065000Y-78013938D01*
X153947528Y-77965160D01*
X153575562Y-77964836D01*
X153485000Y-78002255D01*
X153485000Y-76304446D01*
X155470710Y-74318736D01*
X155590301Y-74438327D01*
X155823690Y-74535000D01*
X156076309Y-74535000D01*
X161376309Y-74535000D01*
X161609698Y-74438327D01*
X161788327Y-74259699D01*
X161885000Y-74026310D01*
X161885000Y-73773691D01*
X161885000Y-71973691D01*
X161788327Y-71740302D01*
X161609699Y-71561673D01*
X161376310Y-71465000D01*
X161123691Y-71465000D01*
X159609802Y-71465000D01*
X159987401Y-71087401D01*
X160152148Y-70840839D01*
X160210000Y-70550000D01*
X160210000Y-70263025D01*
X160313327Y-70159699D01*
X160410000Y-69926310D01*
X160410000Y-69673691D01*
X160410000Y-69073691D01*
X160313327Y-68840302D01*
X160158025Y-68685000D01*
X184815000Y-68685000D01*
X184815000Y-70131025D01*
X184776310Y-70115000D01*
X184523691Y-70115000D01*
X182423691Y-70115000D01*
X182190302Y-70211673D01*
X182011673Y-70390301D01*
X181915000Y-70623690D01*
X181915000Y-70876309D01*
X181915000Y-71365000D01*
X178697020Y-71365000D01*
X178576310Y-71315000D01*
X178323691Y-71315000D01*
X176223691Y-71315000D01*
X176102980Y-71365000D01*
X174536705Y-71365000D01*
X174371379Y-71199673D01*
X174137990Y-71103000D01*
X173885371Y-71103000D01*
X172361371Y-71103000D01*
X172127982Y-71199673D01*
X171949353Y-71378301D01*
X171852680Y-71611690D01*
X171852680Y-71864309D01*
X171852680Y-73388309D01*
X171949353Y-73621698D01*
X171992654Y-73665000D01*
X167506705Y-73665000D01*
X167550007Y-73621699D01*
X167646680Y-73388310D01*
X167646680Y-73135691D01*
X167646680Y-71611691D01*
X167550007Y-71378302D01*
X167371379Y-71199673D01*
X167137990Y-71103000D01*
X166885371Y-71103000D01*
X165361371Y-71103000D01*
X165127982Y-71199673D01*
X164949353Y-71378301D01*
X164852680Y-71611690D01*
X164852680Y-71864309D01*
X164852680Y-73388309D01*
X164949353Y-73621698D01*
X165114680Y-73787025D01*
X165114680Y-74249680D01*
X165201077Y-74684026D01*
X165447114Y-75052246D01*
X165997434Y-75602566D01*
X166365654Y-75848603D01*
X166365655Y-75848603D01*
X166800000Y-75935000D01*
X176102979Y-75935000D01*
X176223690Y-75985000D01*
X176476309Y-75985000D01*
X178576309Y-75985000D01*
X178809698Y-75888327D01*
X178988327Y-75709699D01*
X179085000Y-75476310D01*
X179085000Y-75223691D01*
X179085000Y-74123691D01*
X178988327Y-73890302D01*
X178809699Y-73711673D01*
X178660806Y-73649999D01*
X178697019Y-73635000D01*
X181915000Y-73635000D01*
X181915000Y-74376309D01*
X182011673Y-74609698D01*
X182190301Y-74788327D01*
X182423690Y-74885000D01*
X182676309Y-74885000D01*
X184776309Y-74885000D01*
X184815000Y-74868973D01*
X184815000Y-99315000D01*
X184815000Y-99315000D01*
G37*
X184815000Y-99315000D02*
X183508000Y-99315000D01*
X183508000Y-93008000D01*
X183508000Y-85992000D01*
X183508000Y-84008000D01*
X183508000Y-77992000D01*
X172296655Y-77992000D01*
X172261145Y-77938855D01*
X171985000Y-77662710D01*
X171985000Y-77500000D01*
X171985000Y-77073691D01*
X171888327Y-76840302D01*
X171709699Y-76661673D01*
X171508000Y-76578126D01*
X171508000Y-75992000D01*
X167289580Y-75992000D01*
X165492000Y-77789580D01*
X165492000Y-80090000D01*
X165398691Y-80090000D01*
X163948691Y-80090000D01*
X163715302Y-80186673D01*
X163536673Y-80365301D01*
X163440000Y-80598690D01*
X163440000Y-80851309D01*
X163440000Y-81264859D01*
X163414833Y-81264838D01*
X163071057Y-81406883D01*
X162807808Y-81669673D01*
X162665162Y-82013201D01*
X162664838Y-82385167D01*
X162806883Y-82728943D01*
X162938855Y-82861145D01*
X163069673Y-82992192D01*
X163413201Y-83134838D01*
X163600000Y-83135000D01*
X163785167Y-83135162D01*
X163785559Y-83135000D01*
X163900000Y-83135000D01*
X164257809Y-83063827D01*
X164561145Y-82861145D01*
X164800000Y-82622290D01*
X165038855Y-82861145D01*
X165342191Y-83063827D01*
X165700000Y-83135000D01*
X165999184Y-83135000D01*
X166000000Y-83135000D01*
X166185167Y-83135162D01*
X166357809Y-83063827D01*
X166528943Y-82993117D01*
X166651927Y-82870347D01*
X167289580Y-83508000D01*
X168000000Y-83508000D01*
X175492000Y-83508000D01*
X175492000Y-84008000D01*
X183508000Y-84008000D01*
X183508000Y-85992000D01*
X175500000Y-85992000D01*
X172296655Y-85992000D01*
X172261145Y-85938855D01*
X171985000Y-85662710D01*
X171985000Y-85500000D01*
X171985000Y-85073691D01*
X171888327Y-84840302D01*
X171709699Y-84661673D01*
X171508000Y-84578126D01*
X171508000Y-83992000D01*
X167289580Y-83992000D01*
X166676921Y-84604658D01*
X166661145Y-84588855D01*
X166530327Y-84457808D01*
X166186799Y-84315162D01*
X165814833Y-84314838D01*
X165617098Y-84396539D01*
X165601310Y-84390000D01*
X165348691Y-84390000D01*
X163898691Y-84390000D01*
X163882839Y-84396565D01*
X163686799Y-84315162D01*
X163314833Y-84314838D01*
X162971057Y-84456883D01*
X162707808Y-84719673D01*
X162565162Y-85063201D01*
X162564838Y-85435167D01*
X162706883Y-85778943D01*
X162838855Y-85911145D01*
X162969673Y-86042192D01*
X162970064Y-86042354D01*
X163188855Y-86261145D01*
X163443971Y-86431607D01*
X163486673Y-86534698D01*
X163665301Y-86713327D01*
X163898690Y-86810000D01*
X164151309Y-86810000D01*
X165601309Y-86810000D01*
X165834698Y-86713327D01*
X166013327Y-86534699D01*
X166056028Y-86431607D01*
X166311145Y-86261145D01*
X166492000Y-86080290D01*
X166492000Y-86185540D01*
X166457808Y-86219673D01*
X166315162Y-86563201D01*
X166314838Y-86935167D01*
X166456883Y-87278943D01*
X166492000Y-87314121D01*
X166492000Y-88685540D01*
X166457808Y-88719673D01*
X166315162Y-89063201D01*
X166314838Y-89435167D01*
X166456883Y-89778943D01*
X166492000Y-89814121D01*
X166492000Y-90710420D01*
X168289580Y-92508000D01*
X174992000Y-92508000D01*
X174992000Y-93008000D01*
X183508000Y-93008000D01*
X183508000Y-99315000D01*
X178606231Y-99315000D01*
X178787828Y-99193661D01*
X179090660Y-98740442D01*
X179197000Y-98205833D01*
X179197000Y-97374167D01*
X179090660Y-96839558D01*
X178787828Y-96386339D01*
X178334609Y-96083507D01*
X177800000Y-95977167D01*
X177265391Y-96083507D01*
X176812172Y-96386339D01*
X176509340Y-96839558D01*
X176403000Y-97374167D01*
X176403000Y-98205833D01*
X176509340Y-98740442D01*
X176812172Y-99193661D01*
X176993768Y-99315000D01*
X173998025Y-99315000D01*
X174020327Y-99292699D01*
X174117000Y-99059310D01*
X174117000Y-98806691D01*
X174117000Y-96520691D01*
X174020327Y-96287302D01*
X173841699Y-96108673D01*
X173608310Y-96012000D01*
X173355691Y-96012000D01*
X171831691Y-96012000D01*
X171598302Y-96108673D01*
X171419673Y-96287301D01*
X171323000Y-96520690D01*
X171323000Y-96773309D01*
X171323000Y-99059309D01*
X171419673Y-99292698D01*
X171441974Y-99315000D01*
X146185000Y-99315000D01*
X146185000Y-96179403D01*
X146332172Y-96399661D01*
X146785391Y-96702493D01*
X147320000Y-96808833D01*
X147854609Y-96702493D01*
X148307828Y-96399661D01*
X148590000Y-95977361D01*
X148872172Y-96399661D01*
X149325391Y-96702493D01*
X149860000Y-96808833D01*
X150394609Y-96702493D01*
X150847828Y-96399661D01*
X151130000Y-95977361D01*
X151412172Y-96399661D01*
X151865391Y-96702493D01*
X152400000Y-96808833D01*
X152934609Y-96702493D01*
X153387828Y-96399661D01*
X153670000Y-95977361D01*
X153952172Y-96399661D01*
X154405391Y-96702493D01*
X154940000Y-96808833D01*
X155474609Y-96702493D01*
X155927828Y-96399661D01*
X156210000Y-95977361D01*
X156492172Y-96399661D01*
X156945391Y-96702493D01*
X157480000Y-96808833D01*
X158014609Y-96702493D01*
X158467828Y-96399661D01*
X158750000Y-95977361D01*
X159032172Y-96399661D01*
X159485391Y-96702493D01*
X160020000Y-96808833D01*
X160554609Y-96702493D01*
X161007828Y-96399661D01*
X161290000Y-95977361D01*
X161572172Y-96399661D01*
X162025391Y-96702493D01*
X162560000Y-96808833D01*
X163094609Y-96702493D01*
X163547828Y-96399661D01*
X163830000Y-95977361D01*
X164112172Y-96399661D01*
X164565391Y-96702493D01*
X165100000Y-96808833D01*
X165634609Y-96702493D01*
X166087828Y-96399661D01*
X166370000Y-95977361D01*
X166652172Y-96399661D01*
X167105391Y-96702493D01*
X167640000Y-96808833D01*
X168174609Y-96702493D01*
X168627828Y-96399661D01*
X168910000Y-95977361D01*
X169192172Y-96399661D01*
X169645391Y-96702493D01*
X170180000Y-96808833D01*
X170714609Y-96702493D01*
X171167828Y-96399661D01*
X171470660Y-95946442D01*
X171577000Y-95411833D01*
X171577000Y-94580167D01*
X171470660Y-94045558D01*
X171167828Y-93592339D01*
X170714609Y-93289507D01*
X170180000Y-93183167D01*
X169645391Y-93289507D01*
X169192172Y-93592339D01*
X168910000Y-94014638D01*
X168627828Y-93592339D01*
X168375000Y-93423404D01*
X168375000Y-93240000D01*
X168319051Y-92958728D01*
X168159724Y-92720277D01*
X167719723Y-92280277D01*
X167481272Y-92120949D01*
X167200000Y-92065000D01*
X164045303Y-92065000D01*
X164109698Y-92038327D01*
X164288327Y-91859699D01*
X164385000Y-91626310D01*
X164385000Y-91373691D01*
X164385000Y-88873691D01*
X164288327Y-88640302D01*
X164109699Y-88461673D01*
X163876310Y-88365000D01*
X163623691Y-88365000D01*
X162885000Y-88365000D01*
X162885000Y-86123691D01*
X162788327Y-85890302D01*
X162609699Y-85711673D01*
X162376310Y-85615000D01*
X162123691Y-85615000D01*
X161104972Y-85615000D01*
X161107809Y-85613827D01*
X161278943Y-85543117D01*
X161411145Y-85411145D01*
X161542192Y-85280327D01*
X161613827Y-85107809D01*
X161684838Y-84936799D01*
X161685000Y-84750000D01*
X161685162Y-84564833D01*
X161635000Y-84443431D01*
X161635000Y-84426310D01*
X161635000Y-84173691D01*
X161635000Y-84000000D01*
X161635000Y-83573691D01*
X161635000Y-83426310D01*
X161635000Y-83173691D01*
X161635000Y-83000000D01*
X161635000Y-82573691D01*
X161635000Y-82249771D01*
X161635000Y-82248955D01*
X161635162Y-82063788D01*
X161635000Y-82063395D01*
X161635000Y-81926310D01*
X161635000Y-81673691D01*
X161635000Y-81500000D01*
X161635000Y-81073691D01*
X161635000Y-80926310D01*
X161635000Y-80673691D01*
X161635000Y-80500000D01*
X161635000Y-80073691D01*
X161635000Y-80056821D01*
X161684838Y-79936799D01*
X161685000Y-79750000D01*
X161685162Y-79564833D01*
X161613827Y-79392191D01*
X161543117Y-79221057D01*
X161411145Y-79088855D01*
X161280327Y-78957808D01*
X160936799Y-78815162D01*
X160564833Y-78814838D01*
X160221057Y-78956883D01*
X159957808Y-79219673D01*
X159913407Y-79326601D01*
X159836173Y-79442191D01*
X159811744Y-79565000D01*
X159800000Y-79565000D01*
X159373691Y-79565000D01*
X159000816Y-79565000D01*
X158814833Y-79564838D01*
X158471057Y-79706883D01*
X158207808Y-79969673D01*
X158199367Y-79990000D01*
X157786665Y-79990000D01*
X157726310Y-79965000D01*
X157473691Y-79965000D01*
X157035000Y-79965000D01*
X157035000Y-79787070D01*
X157292192Y-79530327D01*
X157434838Y-79186799D01*
X157435162Y-78814833D01*
X157293117Y-78471057D01*
X157030327Y-78207808D01*
X156686799Y-78065162D01*
X156314833Y-78064838D01*
X155971057Y-78206883D01*
X155935000Y-78242877D01*
X155935000Y-78123691D01*
X155935000Y-77523691D01*
X155838327Y-77290302D01*
X155659699Y-77111673D01*
X155426310Y-77015000D01*
X155173691Y-77015000D01*
X154573691Y-77015000D01*
X154340302Y-77111673D01*
X154161673Y-77290301D01*
X154065000Y-77523690D01*
X154065000Y-77776309D01*
X154065000Y-78013938D01*
X153947528Y-77965160D01*
X153575562Y-77964836D01*
X153485000Y-78002255D01*
X153485000Y-76304446D01*
X155470710Y-74318736D01*
X155590301Y-74438327D01*
X155823690Y-74535000D01*
X156076309Y-74535000D01*
X161376309Y-74535000D01*
X161609698Y-74438327D01*
X161788327Y-74259699D01*
X161885000Y-74026310D01*
X161885000Y-73773691D01*
X161885000Y-71973691D01*
X161788327Y-71740302D01*
X161609699Y-71561673D01*
X161376310Y-71465000D01*
X161123691Y-71465000D01*
X159609802Y-71465000D01*
X159987401Y-71087401D01*
X160152148Y-70840839D01*
X160210000Y-70550000D01*
X160210000Y-70263025D01*
X160313327Y-70159699D01*
X160410000Y-69926310D01*
X160410000Y-69673691D01*
X160410000Y-69073691D01*
X160313327Y-68840302D01*
X160158025Y-68685000D01*
X184815000Y-68685000D01*
X184815000Y-70131025D01*
X184776310Y-70115000D01*
X184523691Y-70115000D01*
X182423691Y-70115000D01*
X182190302Y-70211673D01*
X182011673Y-70390301D01*
X181915000Y-70623690D01*
X181915000Y-70876309D01*
X181915000Y-71365000D01*
X178697020Y-71365000D01*
X178576310Y-71315000D01*
X178323691Y-71315000D01*
X176223691Y-71315000D01*
X176102980Y-71365000D01*
X174536705Y-71365000D01*
X174371379Y-71199673D01*
X174137990Y-71103000D01*
X173885371Y-71103000D01*
X172361371Y-71103000D01*
X172127982Y-71199673D01*
X171949353Y-71378301D01*
X171852680Y-71611690D01*
X171852680Y-71864309D01*
X171852680Y-73388309D01*
X171949353Y-73621698D01*
X171992654Y-73665000D01*
X167506705Y-73665000D01*
X167550007Y-73621699D01*
X167646680Y-73388310D01*
X167646680Y-73135691D01*
X167646680Y-71611691D01*
X167550007Y-71378302D01*
X167371379Y-71199673D01*
X167137990Y-71103000D01*
X166885371Y-71103000D01*
X165361371Y-71103000D01*
X165127982Y-71199673D01*
X164949353Y-71378301D01*
X164852680Y-71611690D01*
X164852680Y-71864309D01*
X164852680Y-73388309D01*
X164949353Y-73621698D01*
X165114680Y-73787025D01*
X165114680Y-74249680D01*
X165201077Y-74684026D01*
X165447114Y-75052246D01*
X165997434Y-75602566D01*
X166365654Y-75848603D01*
X166365655Y-75848603D01*
X166800000Y-75935000D01*
X176102979Y-75935000D01*
X176223690Y-75985000D01*
X176476309Y-75985000D01*
X178576309Y-75985000D01*
X178809698Y-75888327D01*
X178988327Y-75709699D01*
X179085000Y-75476310D01*
X179085000Y-75223691D01*
X179085000Y-74123691D01*
X178988327Y-73890302D01*
X178809699Y-73711673D01*
X178660806Y-73649999D01*
X178697019Y-73635000D01*
X181915000Y-73635000D01*
X181915000Y-74376309D01*
X182011673Y-74609698D01*
X182190301Y-74788327D01*
X182423690Y-74885000D01*
X182676309Y-74885000D01*
X184776309Y-74885000D01*
X184815000Y-74868973D01*
X184815000Y-99315000D01*
G36*
X147974974Y-80127000D02*
X147861673Y-80240301D01*
X147765000Y-80473690D01*
X147765000Y-80516250D01*
X147923750Y-80675000D01*
X147926974Y-80675000D01*
X147861673Y-80740301D01*
X147765000Y-80973690D01*
X147765000Y-80983750D01*
X147765000Y-81016250D01*
X147765000Y-81026310D01*
X147857655Y-81250000D01*
X147765000Y-81473690D01*
X147765000Y-81483750D01*
X147765000Y-81516250D01*
X147765000Y-81526310D01*
X147857655Y-81750000D01*
X147765000Y-81973690D01*
X147765000Y-81983750D01*
X147765000Y-82026310D01*
X147765000Y-82226309D01*
X147765000Y-82473690D01*
X147765000Y-82516250D01*
X147765000Y-82526309D01*
X147857655Y-82749999D01*
X147765000Y-82973690D01*
X147765000Y-82983750D01*
X147765000Y-83026310D01*
X147765000Y-83226309D01*
X147765000Y-83473690D01*
X147765000Y-83516250D01*
X147765000Y-83526309D01*
X147857655Y-83749999D01*
X147765000Y-83973690D01*
X147765000Y-83983750D01*
X147765000Y-84016250D01*
X147765000Y-84026310D01*
X147857655Y-84250000D01*
X147765000Y-84473690D01*
X147765000Y-84483750D01*
X147765000Y-84516250D01*
X147765000Y-84526310D01*
X147857655Y-84750000D01*
X147765000Y-84973690D01*
X147765000Y-84983750D01*
X147765000Y-85026310D01*
X147765000Y-85226309D01*
X147765000Y-85473690D01*
X147765000Y-85516250D01*
X147765000Y-85526309D01*
X147857655Y-85749999D01*
X147765000Y-85973690D01*
X147765000Y-85983750D01*
X147765000Y-86026310D01*
X147765000Y-86226309D01*
X147765000Y-86373000D01*
X147085000Y-86373000D01*
X147085000Y-80127000D01*
X147974974Y-80127000D01*
X147974974Y-80127000D01*
G37*
X147974974Y-80127000D02*
X147861673Y-80240301D01*
X147765000Y-80473690D01*
X147765000Y-80516250D01*
X147923750Y-80675000D01*
X147926974Y-80675000D01*
X147861673Y-80740301D01*
X147765000Y-80973690D01*
X147765000Y-80983750D01*
X147765000Y-81016250D01*
X147765000Y-81026310D01*
X147857655Y-81250000D01*
X147765000Y-81473690D01*
X147765000Y-81483750D01*
X147765000Y-81516250D01*
X147765000Y-81526310D01*
X147857655Y-81750000D01*
X147765000Y-81973690D01*
X147765000Y-81983750D01*
X147765000Y-82026310D01*
X147765000Y-82226309D01*
X147765000Y-82473690D01*
X147765000Y-82516250D01*
X147765000Y-82526309D01*
X147857655Y-82749999D01*
X147765000Y-82973690D01*
X147765000Y-82983750D01*
X147765000Y-83026310D01*
X147765000Y-83226309D01*
X147765000Y-83473690D01*
X147765000Y-83516250D01*
X147765000Y-83526309D01*
X147857655Y-83749999D01*
X147765000Y-83973690D01*
X147765000Y-83983750D01*
X147765000Y-84016250D01*
X147765000Y-84026310D01*
X147857655Y-84250000D01*
X147765000Y-84473690D01*
X147765000Y-84483750D01*
X147765000Y-84516250D01*
X147765000Y-84526310D01*
X147857655Y-84750000D01*
X147765000Y-84973690D01*
X147765000Y-84983750D01*
X147765000Y-85026310D01*
X147765000Y-85226309D01*
X147765000Y-85473690D01*
X147765000Y-85516250D01*
X147765000Y-85526309D01*
X147857655Y-85749999D01*
X147765000Y-85973690D01*
X147765000Y-85983750D01*
X147765000Y-86026310D01*
X147765000Y-86226309D01*
X147765000Y-86373000D01*
X147085000Y-86373000D01*
X147085000Y-80127000D01*
X147974974Y-80127000D01*
G36*
X148977000Y-80897000D02*
X148723000Y-80897000D01*
X148723000Y-80825000D01*
X148723000Y-80675000D01*
X148723000Y-80623750D01*
X148723000Y-80603000D01*
X148977000Y-80603000D01*
X148977000Y-80623750D01*
X148977000Y-80675000D01*
X148977000Y-80825000D01*
X148977000Y-80897000D01*
X148977000Y-80897000D01*
G37*
X148977000Y-80897000D02*
X148723000Y-80897000D01*
X148723000Y-80825000D01*
X148723000Y-80675000D01*
X148723000Y-80623750D01*
X148723000Y-80603000D01*
X148977000Y-80603000D01*
X148977000Y-80623750D01*
X148977000Y-80675000D01*
X148977000Y-80825000D01*
X148977000Y-80897000D01*
M02*
