%FSLAX46Y46*%
G04 Gerber Fmt 4.6, Leading zero omitted, Abs format (unit mm)*
G04 Created by KiCad (PCBNEW (2014-10-28 BZR 5233)-product) date Wed 29 Oct 2014 08:40:06 AM EDT*
%MOMM*%
G01*
G04 APERTURE LIST*
%ADD10C,0.100000*%
%ADD11C,0.200000*%
%ADD12C,0.350000*%
%ADD13C,0.150000*%
G04 APERTURE END LIST*
D10*
D11*
X158714286Y-75404762D02*
X158571429Y-75452381D01*
X158333333Y-75452381D01*
X158238095Y-75404762D01*
X158190476Y-75357143D01*
X158142857Y-75261905D01*
X158142857Y-75166667D01*
X158190476Y-75071429D01*
X158238095Y-75023810D01*
X158333333Y-74976190D01*
X158523810Y-74928571D01*
X158619048Y-74880952D01*
X158666667Y-74833333D01*
X158714286Y-74738095D01*
X158714286Y-74642857D01*
X158666667Y-74547619D01*
X158619048Y-74500000D01*
X158523810Y-74452381D01*
X158285714Y-74452381D01*
X158142857Y-74500000D01*
X157523810Y-74976190D02*
X157523810Y-75452381D01*
X157857143Y-74452381D02*
X157523810Y-74976190D01*
X157190476Y-74452381D01*
X156857143Y-75452381D02*
X156857143Y-74452381D01*
X156285714Y-75452381D01*
X156285714Y-74452381D01*
X155952381Y-74452381D02*
X155380952Y-74452381D01*
X155666667Y-75452381D02*
X155666667Y-74452381D01*
X155047619Y-75452381D02*
X155047619Y-74452381D01*
X155047619Y-74928571D02*
X154476190Y-74928571D01*
X154476190Y-75452381D02*
X154476190Y-74452381D01*
X152666666Y-75452381D02*
X153000000Y-74976190D01*
X153238095Y-75452381D02*
X153238095Y-74452381D01*
X152857142Y-74452381D01*
X152761904Y-74500000D01*
X152714285Y-74547619D01*
X152666666Y-74642857D01*
X152666666Y-74785714D01*
X152714285Y-74880952D01*
X152761904Y-74928571D01*
X152857142Y-74976190D01*
X153238095Y-74976190D01*
X152238095Y-74928571D02*
X151904761Y-74928571D01*
X151761904Y-75452381D02*
X152238095Y-75452381D01*
X152238095Y-74452381D01*
X151761904Y-74452381D01*
X151476190Y-74452381D02*
X151142857Y-75452381D01*
X150809523Y-74452381D01*
X149761904Y-75166667D02*
X149285713Y-75166667D01*
X149857142Y-75452381D02*
X149523809Y-74452381D01*
X149190475Y-75452381D01*
D12*
X164221000Y-93396000D02*
X162779000Y-93396000D01*
X162779000Y-93396000D02*
X164221000Y-93396000D01*
X164221000Y-92104000D02*
X162779000Y-92104000D01*
X162779000Y-92104000D02*
X164221000Y-92104000D01*
X169238000Y-71131000D02*
X169238000Y-71427000D01*
X169238000Y-71427000D02*
X174762000Y-71427000D01*
X174762000Y-71427000D02*
X174762000Y-71131000D01*
X169238000Y-68869000D02*
X169238000Y-68573000D01*
X169238000Y-68573000D02*
X174762000Y-68573000D01*
X174762000Y-68573000D02*
X174762000Y-68869000D01*
X168476000Y-71296100D02*
X168603000Y-71423100D01*
X168603000Y-71423100D02*
X168730000Y-71296100D01*
X168730000Y-71296100D02*
X168603000Y-71169100D01*
X168603000Y-71169100D02*
X168476000Y-71296100D01*
X148929000Y-86529000D02*
X149071000Y-86529000D01*
X149071000Y-86529000D02*
X148929000Y-86529000D01*
X148929000Y-87471000D02*
X149071000Y-87471000D01*
X149071000Y-87471000D02*
X148929000Y-87471000D01*
X148529000Y-80071000D02*
X148529000Y-79929000D01*
X148529000Y-79929000D02*
X148529000Y-80071000D01*
X149471000Y-80071000D02*
X149471000Y-79929000D01*
X149471000Y-79929000D02*
X149471000Y-80071000D01*
X156221000Y-90429000D02*
X156221000Y-90571000D01*
X156221000Y-90571000D02*
X156221000Y-90429000D01*
X155279000Y-90429000D02*
X155279000Y-90571000D01*
X155279000Y-90571000D02*
X155279000Y-90429000D01*
X157971000Y-79929000D02*
X157971000Y-80071000D01*
X157971000Y-80071000D02*
X157971000Y-79929000D01*
X157029000Y-79929000D02*
X157029000Y-80071000D01*
X157029000Y-80071000D02*
X157029000Y-79929000D01*
X153179000Y-87279000D02*
X153321000Y-87279000D01*
X153321000Y-87279000D02*
X153179000Y-87279000D01*
X153179000Y-88221000D02*
X153321000Y-88221000D01*
X153321000Y-88221000D02*
X153179000Y-88221000D01*
X158721000Y-86679000D02*
X158721000Y-86821000D01*
X158721000Y-86821000D02*
X158721000Y-86679000D01*
X157779000Y-86679000D02*
X157779000Y-86821000D01*
X157779000Y-86821000D02*
X157779000Y-86679000D01*
X148929000Y-89779000D02*
X149071000Y-89779000D01*
X149071000Y-89779000D02*
X148929000Y-89779000D01*
X148929000Y-90721000D02*
X149071000Y-90721000D01*
X149071000Y-90721000D02*
X148929000Y-90721000D01*
X168429000Y-82529000D02*
X168571000Y-82529000D01*
X168571000Y-82529000D02*
X168429000Y-82529000D01*
X168429000Y-83471000D02*
X168571000Y-83471000D01*
X168571000Y-83471000D02*
X168429000Y-83471000D01*
X168429000Y-90529000D02*
X168571000Y-90529000D01*
X168571000Y-90529000D02*
X168429000Y-90529000D01*
X168429000Y-91471000D02*
X168571000Y-91471000D01*
X168571000Y-91471000D02*
X168429000Y-91471000D01*
X172429000Y-82529000D02*
X172571000Y-82529000D01*
X172571000Y-82529000D02*
X172429000Y-82529000D01*
X172429000Y-83471000D02*
X172571000Y-83471000D01*
X172571000Y-83471000D02*
X172429000Y-83471000D01*
X172429000Y-90529000D02*
X172571000Y-90529000D01*
X172571000Y-90529000D02*
X172429000Y-90529000D01*
X172429000Y-91471000D02*
X172571000Y-91471000D01*
X172571000Y-91471000D02*
X172429000Y-91471000D01*
X167762000Y-68869000D02*
X167762000Y-68573000D01*
X167762000Y-68573000D02*
X162238000Y-68573000D01*
X162238000Y-68573000D02*
X162238000Y-68869000D01*
X167762000Y-71131000D02*
X167762000Y-71427000D01*
X167762000Y-71427000D02*
X162238000Y-71427000D01*
X162238000Y-71427000D02*
X162238000Y-71131000D01*
X168524000Y-68703900D02*
X168397000Y-68576900D01*
X168397000Y-68576900D02*
X168270000Y-68703900D01*
X168270000Y-68703900D02*
X168397000Y-68830900D01*
X168397000Y-68830900D02*
X168524000Y-68703900D01*
X174762000Y-73869000D02*
X174762000Y-73573000D01*
X174762000Y-73573000D02*
X169238000Y-73573000D01*
X169238000Y-73573000D02*
X169238000Y-73869000D01*
X174762000Y-76131000D02*
X174762000Y-76427000D01*
X174762000Y-76427000D02*
X169238000Y-76427000D01*
X169238000Y-76427000D02*
X169238000Y-76131000D01*
X175524000Y-73703900D02*
X175397000Y-73576900D01*
X175397000Y-73576900D02*
X175270000Y-73703900D01*
X175270000Y-73703900D02*
X175397000Y-73830900D01*
X175397000Y-73830900D02*
X175524000Y-73703900D01*
X174471000Y-94646000D02*
X173029000Y-94646000D01*
X173029000Y-94646000D02*
X174471000Y-94646000D01*
X174471000Y-93354000D02*
X173029000Y-93354000D01*
X173029000Y-93354000D02*
X174471000Y-93354000D01*
X181854000Y-97221000D02*
X181854000Y-95779000D01*
X181854000Y-95779000D02*
X181854000Y-97221000D01*
X183146000Y-97221000D02*
X183146000Y-95779000D01*
X183146000Y-95779000D02*
X183146000Y-97221000D01*
D13*
X161111905Y-92235714D02*
X160730952Y-91969047D01*
X161111905Y-91778571D02*
X160311905Y-91778571D01*
X160311905Y-92083333D01*
X160350000Y-92159524D01*
X160388095Y-92197619D01*
X160464286Y-92235714D01*
X160578571Y-92235714D01*
X160654762Y-92197619D01*
X160692857Y-92159524D01*
X160730952Y-92083333D01*
X160730952Y-91778571D01*
X161111905Y-92997619D02*
X161111905Y-92540476D01*
X161111905Y-92769047D02*
X160311905Y-92769047D01*
X160426190Y-92692857D01*
X160502381Y-92616666D01*
X160540476Y-92540476D01*
X160311905Y-93492857D02*
X160311905Y-93569048D01*
X160350000Y-93645238D01*
X160388095Y-93683333D01*
X160464286Y-93721429D01*
X160616667Y-93759524D01*
X160807143Y-93759524D01*
X160959524Y-93721429D01*
X161035714Y-93683333D01*
X161073810Y-93645238D01*
X161111905Y-93569048D01*
X161111905Y-93492857D01*
X161073810Y-93416667D01*
X161035714Y-93378571D01*
X160959524Y-93340476D01*
X160807143Y-93302381D01*
X160616667Y-93302381D01*
X160464286Y-93340476D01*
X160388095Y-93378571D01*
X160350000Y-93416667D01*
X160311905Y-93492857D01*
X177090476Y-69361905D02*
X177090476Y-68561905D01*
X176900000Y-68561905D01*
X176785714Y-68600000D01*
X176709523Y-68676190D01*
X176671428Y-68752381D01*
X176633333Y-68904762D01*
X176633333Y-69019048D01*
X176671428Y-69171429D01*
X176709523Y-69247619D01*
X176785714Y-69323810D01*
X176900000Y-69361905D01*
X177090476Y-69361905D01*
X176366666Y-68561905D02*
X175871428Y-68561905D01*
X176138095Y-68866667D01*
X176023809Y-68866667D01*
X175947619Y-68904762D01*
X175909523Y-68942857D01*
X175871428Y-69019048D01*
X175871428Y-69209524D01*
X175909523Y-69285714D01*
X175947619Y-69323810D01*
X176023809Y-69361905D01*
X176252381Y-69361905D01*
X176328571Y-69323810D01*
X176366666Y-69285714D01*
X147383333Y-85785714D02*
X147421428Y-85823810D01*
X147535714Y-85861905D01*
X147611904Y-85861905D01*
X147726190Y-85823810D01*
X147802381Y-85747619D01*
X147840476Y-85671429D01*
X147878571Y-85519048D01*
X147878571Y-85404762D01*
X147840476Y-85252381D01*
X147802381Y-85176190D01*
X147726190Y-85100000D01*
X147611904Y-85061905D01*
X147535714Y-85061905D01*
X147421428Y-85100000D01*
X147383333Y-85138095D01*
X146659523Y-85061905D02*
X147040476Y-85061905D01*
X147078571Y-85442857D01*
X147040476Y-85404762D01*
X146964285Y-85366667D01*
X146773809Y-85366667D01*
X146697619Y-85404762D01*
X146659523Y-85442857D01*
X146621428Y-85519048D01*
X146621428Y-85709524D01*
X146659523Y-85785714D01*
X146697619Y-85823810D01*
X146773809Y-85861905D01*
X146964285Y-85861905D01*
X147040476Y-85823810D01*
X147078571Y-85785714D01*
X147383333Y-84035714D02*
X147421428Y-84073810D01*
X147535714Y-84111905D01*
X147611904Y-84111905D01*
X147726190Y-84073810D01*
X147802381Y-83997619D01*
X147840476Y-83921429D01*
X147878571Y-83769048D01*
X147878571Y-83654762D01*
X147840476Y-83502381D01*
X147802381Y-83426190D01*
X147726190Y-83350000D01*
X147611904Y-83311905D01*
X147535714Y-83311905D01*
X147421428Y-83350000D01*
X147383333Y-83388095D01*
X147116666Y-83311905D02*
X146583333Y-83311905D01*
X146926190Y-84111905D01*
X147383333Y-82535714D02*
X147421428Y-82573810D01*
X147535714Y-82611905D01*
X147611904Y-82611905D01*
X147726190Y-82573810D01*
X147802381Y-82497619D01*
X147840476Y-82421429D01*
X147878571Y-82269048D01*
X147878571Y-82154762D01*
X147840476Y-82002381D01*
X147802381Y-81926190D01*
X147726190Y-81850000D01*
X147611904Y-81811905D01*
X147535714Y-81811905D01*
X147421428Y-81850000D01*
X147383333Y-81888095D01*
X147002381Y-82611905D02*
X146850000Y-82611905D01*
X146773809Y-82573810D01*
X146735714Y-82535714D01*
X146659523Y-82421429D01*
X146621428Y-82269048D01*
X146621428Y-81964286D01*
X146659523Y-81888095D01*
X146697619Y-81850000D01*
X146773809Y-81811905D01*
X146926190Y-81811905D01*
X147002381Y-81850000D01*
X147040476Y-81888095D01*
X147078571Y-81964286D01*
X147078571Y-82154762D01*
X147040476Y-82230952D01*
X147002381Y-82269048D01*
X146926190Y-82307143D01*
X146773809Y-82307143D01*
X146697619Y-82269048D01*
X146659523Y-82230952D01*
X146621428Y-82154762D01*
X152035714Y-79485714D02*
X152073810Y-79447619D01*
X152111905Y-79333333D01*
X152111905Y-79257143D01*
X152073810Y-79142857D01*
X151997619Y-79066666D01*
X151921429Y-79028571D01*
X151769048Y-78990476D01*
X151654762Y-78990476D01*
X151502381Y-79028571D01*
X151426190Y-79066666D01*
X151350000Y-79142857D01*
X151311905Y-79257143D01*
X151311905Y-79333333D01*
X151350000Y-79447619D01*
X151388095Y-79485714D01*
X152111905Y-80247619D02*
X152111905Y-79790476D01*
X152111905Y-80019047D02*
X151311905Y-80019047D01*
X151426190Y-79942857D01*
X151502381Y-79866666D01*
X151540476Y-79790476D01*
X152111905Y-81009524D02*
X152111905Y-80552381D01*
X152111905Y-80780952D02*
X151311905Y-80780952D01*
X151426190Y-80704762D01*
X151502381Y-80628571D01*
X151540476Y-80552381D01*
X153285714Y-76985714D02*
X153323810Y-76947619D01*
X153361905Y-76833333D01*
X153361905Y-76757143D01*
X153323810Y-76642857D01*
X153247619Y-76566666D01*
X153171429Y-76528571D01*
X153019048Y-76490476D01*
X152904762Y-76490476D01*
X152752381Y-76528571D01*
X152676190Y-76566666D01*
X152600000Y-76642857D01*
X152561905Y-76757143D01*
X152561905Y-76833333D01*
X152600000Y-76947619D01*
X152638095Y-76985714D01*
X153361905Y-77747619D02*
X153361905Y-77290476D01*
X153361905Y-77519047D02*
X152561905Y-77519047D01*
X152676190Y-77442857D01*
X152752381Y-77366666D01*
X152790476Y-77290476D01*
X152561905Y-78014286D02*
X152561905Y-78509524D01*
X152866667Y-78242857D01*
X152866667Y-78357143D01*
X152904762Y-78433333D01*
X152942857Y-78471429D01*
X153019048Y-78509524D01*
X153209524Y-78509524D01*
X153285714Y-78471429D01*
X153323810Y-78433333D01*
X153361905Y-78357143D01*
X153361905Y-78128571D01*
X153323810Y-78052381D01*
X153285714Y-78014286D01*
X156035714Y-77235714D02*
X156073810Y-77197619D01*
X156111905Y-77083333D01*
X156111905Y-77007143D01*
X156073810Y-76892857D01*
X155997619Y-76816666D01*
X155921429Y-76778571D01*
X155769048Y-76740476D01*
X155654762Y-76740476D01*
X155502381Y-76778571D01*
X155426190Y-76816666D01*
X155350000Y-76892857D01*
X155311905Y-77007143D01*
X155311905Y-77083333D01*
X155350000Y-77197619D01*
X155388095Y-77235714D01*
X156111905Y-77997619D02*
X156111905Y-77540476D01*
X156111905Y-77769047D02*
X155311905Y-77769047D01*
X155426190Y-77692857D01*
X155502381Y-77616666D01*
X155540476Y-77540476D01*
X155311905Y-78721429D02*
X155311905Y-78340476D01*
X155692857Y-78302381D01*
X155654762Y-78340476D01*
X155616667Y-78416667D01*
X155616667Y-78607143D01*
X155654762Y-78683333D01*
X155692857Y-78721429D01*
X155769048Y-78759524D01*
X155959524Y-78759524D01*
X156035714Y-78721429D01*
X156073810Y-78683333D01*
X156111905Y-78607143D01*
X156111905Y-78416667D01*
X156073810Y-78340476D01*
X156035714Y-78302381D01*
X159764286Y-82535714D02*
X159802381Y-82573810D01*
X159916667Y-82611905D01*
X159992857Y-82611905D01*
X160107143Y-82573810D01*
X160183334Y-82497619D01*
X160221429Y-82421429D01*
X160259524Y-82269048D01*
X160259524Y-82154762D01*
X160221429Y-82002381D01*
X160183334Y-81926190D01*
X160107143Y-81850000D01*
X159992857Y-81811905D01*
X159916667Y-81811905D01*
X159802381Y-81850000D01*
X159764286Y-81888095D01*
X159002381Y-82611905D02*
X159459524Y-82611905D01*
X159230953Y-82611905D02*
X159230953Y-81811905D01*
X159307143Y-81926190D01*
X159383334Y-82002381D01*
X159459524Y-82040476D01*
X158735714Y-81811905D02*
X158202381Y-81811905D01*
X158545238Y-82611905D01*
X151785714Y-89485714D02*
X151823810Y-89447619D01*
X151861905Y-89333333D01*
X151861905Y-89257143D01*
X151823810Y-89142857D01*
X151747619Y-89066666D01*
X151671429Y-89028571D01*
X151519048Y-88990476D01*
X151404762Y-88990476D01*
X151252381Y-89028571D01*
X151176190Y-89066666D01*
X151100000Y-89142857D01*
X151061905Y-89257143D01*
X151061905Y-89333333D01*
X151100000Y-89447619D01*
X151138095Y-89485714D01*
X151138095Y-89790476D02*
X151100000Y-89828571D01*
X151061905Y-89904762D01*
X151061905Y-90095238D01*
X151100000Y-90171428D01*
X151138095Y-90209524D01*
X151214286Y-90247619D01*
X151290476Y-90247619D01*
X151404762Y-90209524D01*
X151861905Y-89752381D01*
X151861905Y-90247619D01*
X151861905Y-91009524D02*
X151861905Y-90552381D01*
X151861905Y-90780952D02*
X151061905Y-90780952D01*
X151176190Y-90704762D01*
X151252381Y-90628571D01*
X151290476Y-90552381D01*
X159764286Y-84785714D02*
X159802381Y-84823810D01*
X159916667Y-84861905D01*
X159992857Y-84861905D01*
X160107143Y-84823810D01*
X160183334Y-84747619D01*
X160221429Y-84671429D01*
X160259524Y-84519048D01*
X160259524Y-84404762D01*
X160221429Y-84252381D01*
X160183334Y-84176190D01*
X160107143Y-84100000D01*
X159992857Y-84061905D01*
X159916667Y-84061905D01*
X159802381Y-84100000D01*
X159764286Y-84138095D01*
X159002381Y-84861905D02*
X159459524Y-84861905D01*
X159230953Y-84861905D02*
X159230953Y-84061905D01*
X159307143Y-84176190D01*
X159383334Y-84252381D01*
X159459524Y-84290476D01*
X158621429Y-84861905D02*
X158469048Y-84861905D01*
X158392857Y-84823810D01*
X158354762Y-84785714D01*
X158278571Y-84671429D01*
X158240476Y-84519048D01*
X158240476Y-84214286D01*
X158278571Y-84138095D01*
X158316667Y-84100000D01*
X158392857Y-84061905D01*
X158545238Y-84061905D01*
X158621429Y-84100000D01*
X158659524Y-84138095D01*
X158697619Y-84214286D01*
X158697619Y-84404762D01*
X158659524Y-84480952D01*
X158621429Y-84519048D01*
X158545238Y-84557143D01*
X158392857Y-84557143D01*
X158316667Y-84519048D01*
X158278571Y-84480952D01*
X158240476Y-84404762D01*
X157035714Y-87235714D02*
X157073810Y-87197619D01*
X157111905Y-87083333D01*
X157111905Y-87007143D01*
X157073810Y-86892857D01*
X156997619Y-86816666D01*
X156921429Y-86778571D01*
X156769048Y-86740476D01*
X156654762Y-86740476D01*
X156502381Y-86778571D01*
X156426190Y-86816666D01*
X156350000Y-86892857D01*
X156311905Y-87007143D01*
X156311905Y-87083333D01*
X156350000Y-87197619D01*
X156388095Y-87235714D01*
X156388095Y-87540476D02*
X156350000Y-87578571D01*
X156311905Y-87654762D01*
X156311905Y-87845238D01*
X156350000Y-87921428D01*
X156388095Y-87959524D01*
X156464286Y-87997619D01*
X156540476Y-87997619D01*
X156654762Y-87959524D01*
X157111905Y-87502381D01*
X157111905Y-87997619D01*
X156311905Y-88264286D02*
X156311905Y-88759524D01*
X156616667Y-88492857D01*
X156616667Y-88607143D01*
X156654762Y-88683333D01*
X156692857Y-88721429D01*
X156769048Y-88759524D01*
X156959524Y-88759524D01*
X157035714Y-88721429D01*
X157073810Y-88683333D01*
X157111905Y-88607143D01*
X157111905Y-88378571D01*
X157073810Y-88302381D01*
X157035714Y-88264286D01*
X146785714Y-86866667D02*
X146823810Y-86828572D01*
X146861905Y-86714286D01*
X146861905Y-86638096D01*
X146823810Y-86523810D01*
X146747619Y-86447619D01*
X146671429Y-86409524D01*
X146519048Y-86371429D01*
X146404762Y-86371429D01*
X146252381Y-86409524D01*
X146176190Y-86447619D01*
X146100000Y-86523810D01*
X146061905Y-86638096D01*
X146061905Y-86714286D01*
X146100000Y-86828572D01*
X146138095Y-86866667D01*
X146061905Y-87552381D02*
X146061905Y-87400000D01*
X146100000Y-87323810D01*
X146138095Y-87285715D01*
X146252381Y-87209524D01*
X146404762Y-87171429D01*
X146709524Y-87171429D01*
X146785714Y-87209524D01*
X146823810Y-87247619D01*
X146861905Y-87323810D01*
X146861905Y-87476191D01*
X146823810Y-87552381D01*
X146785714Y-87590477D01*
X146709524Y-87628572D01*
X146519048Y-87628572D01*
X146442857Y-87590477D01*
X146404762Y-87552381D01*
X146366667Y-87476191D01*
X146366667Y-87323810D01*
X146404762Y-87247619D01*
X146442857Y-87209524D01*
X146519048Y-87171429D01*
X147785714Y-79116667D02*
X147823810Y-79078572D01*
X147861905Y-78964286D01*
X147861905Y-78888096D01*
X147823810Y-78773810D01*
X147747619Y-78697619D01*
X147671429Y-78659524D01*
X147519048Y-78621429D01*
X147404762Y-78621429D01*
X147252381Y-78659524D01*
X147176190Y-78697619D01*
X147100000Y-78773810D01*
X147061905Y-78888096D01*
X147061905Y-78964286D01*
X147100000Y-79078572D01*
X147138095Y-79116667D01*
X147404762Y-79573810D02*
X147366667Y-79497619D01*
X147328571Y-79459524D01*
X147252381Y-79421429D01*
X147214286Y-79421429D01*
X147138095Y-79459524D01*
X147100000Y-79497619D01*
X147061905Y-79573810D01*
X147061905Y-79726191D01*
X147100000Y-79802381D01*
X147138095Y-79840477D01*
X147214286Y-79878572D01*
X147252381Y-79878572D01*
X147328571Y-79840477D01*
X147366667Y-79802381D01*
X147404762Y-79726191D01*
X147404762Y-79573810D01*
X147442857Y-79497619D01*
X147480952Y-79459524D01*
X147557143Y-79421429D01*
X147709524Y-79421429D01*
X147785714Y-79459524D01*
X147823810Y-79497619D01*
X147861905Y-79573810D01*
X147861905Y-79726191D01*
X147823810Y-79802381D01*
X147785714Y-79840477D01*
X147709524Y-79878572D01*
X147557143Y-79878572D01*
X147480952Y-79840477D01*
X147442857Y-79802381D01*
X147404762Y-79726191D01*
X156264286Y-93035714D02*
X156302381Y-93073810D01*
X156416667Y-93111905D01*
X156492857Y-93111905D01*
X156607143Y-93073810D01*
X156683334Y-92997619D01*
X156721429Y-92921429D01*
X156759524Y-92769048D01*
X156759524Y-92654762D01*
X156721429Y-92502381D01*
X156683334Y-92426190D01*
X156607143Y-92350000D01*
X156492857Y-92311905D01*
X156416667Y-92311905D01*
X156302381Y-92350000D01*
X156264286Y-92388095D01*
X155959524Y-92388095D02*
X155921429Y-92350000D01*
X155845238Y-92311905D01*
X155654762Y-92311905D01*
X155578572Y-92350000D01*
X155540476Y-92388095D01*
X155502381Y-92464286D01*
X155502381Y-92540476D01*
X155540476Y-92654762D01*
X155997619Y-93111905D01*
X155502381Y-93111905D01*
X154816667Y-92578571D02*
X154816667Y-93111905D01*
X155007143Y-92273810D02*
X155197619Y-92845238D01*
X154702381Y-92845238D01*
X158014286Y-77785714D02*
X158052381Y-77823810D01*
X158166667Y-77861905D01*
X158242857Y-77861905D01*
X158357143Y-77823810D01*
X158433334Y-77747619D01*
X158471429Y-77671429D01*
X158509524Y-77519048D01*
X158509524Y-77404762D01*
X158471429Y-77252381D01*
X158433334Y-77176190D01*
X158357143Y-77100000D01*
X158242857Y-77061905D01*
X158166667Y-77061905D01*
X158052381Y-77100000D01*
X158014286Y-77138095D01*
X157252381Y-77861905D02*
X157709524Y-77861905D01*
X157480953Y-77861905D02*
X157480953Y-77061905D01*
X157557143Y-77176190D01*
X157633334Y-77252381D01*
X157709524Y-77290476D01*
X156757143Y-77061905D02*
X156680952Y-77061905D01*
X156604762Y-77100000D01*
X156566667Y-77138095D01*
X156528571Y-77214286D01*
X156490476Y-77366667D01*
X156490476Y-77557143D01*
X156528571Y-77709524D01*
X156566667Y-77785714D01*
X156604762Y-77823810D01*
X156680952Y-77861905D01*
X156757143Y-77861905D01*
X156833333Y-77823810D01*
X156871429Y-77785714D01*
X156909524Y-77709524D01*
X156947619Y-77557143D01*
X156947619Y-77366667D01*
X156909524Y-77214286D01*
X156871429Y-77138095D01*
X156833333Y-77100000D01*
X156757143Y-77061905D01*
X153764286Y-89535714D02*
X153802381Y-89573810D01*
X153916667Y-89611905D01*
X153992857Y-89611905D01*
X154107143Y-89573810D01*
X154183334Y-89497619D01*
X154221429Y-89421429D01*
X154259524Y-89269048D01*
X154259524Y-89154762D01*
X154221429Y-89002381D01*
X154183334Y-88926190D01*
X154107143Y-88850000D01*
X153992857Y-88811905D01*
X153916667Y-88811905D01*
X153802381Y-88850000D01*
X153764286Y-88888095D01*
X153459524Y-88888095D02*
X153421429Y-88850000D01*
X153345238Y-88811905D01*
X153154762Y-88811905D01*
X153078572Y-88850000D01*
X153040476Y-88888095D01*
X153002381Y-88964286D01*
X153002381Y-89040476D01*
X153040476Y-89154762D01*
X153497619Y-89611905D01*
X153002381Y-89611905D01*
X152697619Y-88888095D02*
X152659524Y-88850000D01*
X152583333Y-88811905D01*
X152392857Y-88811905D01*
X152316667Y-88850000D01*
X152278571Y-88888095D01*
X152240476Y-88964286D01*
X152240476Y-89040476D01*
X152278571Y-89154762D01*
X152735714Y-89611905D01*
X152240476Y-89611905D01*
X158764286Y-89535714D02*
X158802381Y-89573810D01*
X158916667Y-89611905D01*
X158992857Y-89611905D01*
X159107143Y-89573810D01*
X159183334Y-89497619D01*
X159221429Y-89421429D01*
X159259524Y-89269048D01*
X159259524Y-89154762D01*
X159221429Y-89002381D01*
X159183334Y-88926190D01*
X159107143Y-88850000D01*
X158992857Y-88811905D01*
X158916667Y-88811905D01*
X158802381Y-88850000D01*
X158764286Y-88888095D01*
X158002381Y-89611905D02*
X158459524Y-89611905D01*
X158230953Y-89611905D02*
X158230953Y-88811905D01*
X158307143Y-88926190D01*
X158383334Y-89002381D01*
X158459524Y-89040476D01*
X157697619Y-88888095D02*
X157659524Y-88850000D01*
X157583333Y-88811905D01*
X157392857Y-88811905D01*
X157316667Y-88850000D01*
X157278571Y-88888095D01*
X157240476Y-88964286D01*
X157240476Y-89040476D01*
X157278571Y-89154762D01*
X157735714Y-89611905D01*
X157240476Y-89611905D01*
X146785714Y-89735714D02*
X146823810Y-89697619D01*
X146861905Y-89583333D01*
X146861905Y-89507143D01*
X146823810Y-89392857D01*
X146747619Y-89316666D01*
X146671429Y-89278571D01*
X146519048Y-89240476D01*
X146404762Y-89240476D01*
X146252381Y-89278571D01*
X146176190Y-89316666D01*
X146100000Y-89392857D01*
X146061905Y-89507143D01*
X146061905Y-89583333D01*
X146100000Y-89697619D01*
X146138095Y-89735714D01*
X146138095Y-90040476D02*
X146100000Y-90078571D01*
X146061905Y-90154762D01*
X146061905Y-90345238D01*
X146100000Y-90421428D01*
X146138095Y-90459524D01*
X146214286Y-90497619D01*
X146290476Y-90497619D01*
X146404762Y-90459524D01*
X146861905Y-90002381D01*
X146861905Y-90497619D01*
X146061905Y-90992857D02*
X146061905Y-91069048D01*
X146100000Y-91145238D01*
X146138095Y-91183333D01*
X146214286Y-91221429D01*
X146366667Y-91259524D01*
X146557143Y-91259524D01*
X146709524Y-91221429D01*
X146785714Y-91183333D01*
X146823810Y-91145238D01*
X146861905Y-91069048D01*
X146861905Y-90992857D01*
X146823810Y-90916667D01*
X146785714Y-90878571D01*
X146709524Y-90840476D01*
X146557143Y-90802381D01*
X146366667Y-90802381D01*
X146214286Y-90840476D01*
X146138095Y-90878571D01*
X146100000Y-90916667D01*
X146061905Y-90992857D01*
X171014286Y-79785714D02*
X171052381Y-79823810D01*
X171166667Y-79861905D01*
X171242857Y-79861905D01*
X171357143Y-79823810D01*
X171433334Y-79747619D01*
X171471429Y-79671429D01*
X171509524Y-79519048D01*
X171509524Y-79404762D01*
X171471429Y-79252381D01*
X171433334Y-79176190D01*
X171357143Y-79100000D01*
X171242857Y-79061905D01*
X171166667Y-79061905D01*
X171052381Y-79100000D01*
X171014286Y-79138095D01*
X170709524Y-79138095D02*
X170671429Y-79100000D01*
X170595238Y-79061905D01*
X170404762Y-79061905D01*
X170328572Y-79100000D01*
X170290476Y-79138095D01*
X170252381Y-79214286D01*
X170252381Y-79290476D01*
X170290476Y-79404762D01*
X170747619Y-79861905D01*
X170252381Y-79861905D01*
X169528571Y-79061905D02*
X169909524Y-79061905D01*
X169947619Y-79442857D01*
X169909524Y-79404762D01*
X169833333Y-79366667D01*
X169642857Y-79366667D01*
X169566667Y-79404762D01*
X169528571Y-79442857D01*
X169490476Y-79519048D01*
X169490476Y-79709524D01*
X169528571Y-79785714D01*
X169566667Y-79823810D01*
X169642857Y-79861905D01*
X169833333Y-79861905D01*
X169909524Y-79823810D01*
X169947619Y-79785714D01*
X167764286Y-81785714D02*
X167802381Y-81823810D01*
X167916667Y-81861905D01*
X167992857Y-81861905D01*
X168107143Y-81823810D01*
X168183334Y-81747619D01*
X168221429Y-81671429D01*
X168259524Y-81519048D01*
X168259524Y-81404762D01*
X168221429Y-81252381D01*
X168183334Y-81176190D01*
X168107143Y-81100000D01*
X167992857Y-81061905D01*
X167916667Y-81061905D01*
X167802381Y-81100000D01*
X167764286Y-81138095D01*
X167459524Y-81138095D02*
X167421429Y-81100000D01*
X167345238Y-81061905D01*
X167154762Y-81061905D01*
X167078572Y-81100000D01*
X167040476Y-81138095D01*
X167002381Y-81214286D01*
X167002381Y-81290476D01*
X167040476Y-81404762D01*
X167497619Y-81861905D01*
X167002381Y-81861905D01*
X166316667Y-81061905D02*
X166469048Y-81061905D01*
X166545238Y-81100000D01*
X166583333Y-81138095D01*
X166659524Y-81252381D01*
X166697619Y-81404762D01*
X166697619Y-81709524D01*
X166659524Y-81785714D01*
X166621429Y-81823810D01*
X166545238Y-81861905D01*
X166392857Y-81861905D01*
X166316667Y-81823810D01*
X166278571Y-81785714D01*
X166240476Y-81709524D01*
X166240476Y-81519048D01*
X166278571Y-81442857D01*
X166316667Y-81404762D01*
X166392857Y-81366667D01*
X166545238Y-81366667D01*
X166621429Y-81404762D01*
X166659524Y-81442857D01*
X166697619Y-81519048D01*
X174264286Y-81785714D02*
X174302381Y-81823810D01*
X174416667Y-81861905D01*
X174492857Y-81861905D01*
X174607143Y-81823810D01*
X174683334Y-81747619D01*
X174721429Y-81671429D01*
X174759524Y-81519048D01*
X174759524Y-81404762D01*
X174721429Y-81252381D01*
X174683334Y-81176190D01*
X174607143Y-81100000D01*
X174492857Y-81061905D01*
X174416667Y-81061905D01*
X174302381Y-81100000D01*
X174264286Y-81138095D01*
X173959524Y-81138095D02*
X173921429Y-81100000D01*
X173845238Y-81061905D01*
X173654762Y-81061905D01*
X173578572Y-81100000D01*
X173540476Y-81138095D01*
X173502381Y-81214286D01*
X173502381Y-81290476D01*
X173540476Y-81404762D01*
X173997619Y-81861905D01*
X173502381Y-81861905D01*
X173235714Y-81061905D02*
X172702381Y-81061905D01*
X173045238Y-81861905D01*
X169014286Y-84785714D02*
X169052381Y-84823810D01*
X169166667Y-84861905D01*
X169242857Y-84861905D01*
X169357143Y-84823810D01*
X169433334Y-84747619D01*
X169471429Y-84671429D01*
X169509524Y-84519048D01*
X169509524Y-84404762D01*
X169471429Y-84252381D01*
X169433334Y-84176190D01*
X169357143Y-84100000D01*
X169242857Y-84061905D01*
X169166667Y-84061905D01*
X169052381Y-84100000D01*
X169014286Y-84138095D01*
X168709524Y-84138095D02*
X168671429Y-84100000D01*
X168595238Y-84061905D01*
X168404762Y-84061905D01*
X168328572Y-84100000D01*
X168290476Y-84138095D01*
X168252381Y-84214286D01*
X168252381Y-84290476D01*
X168290476Y-84404762D01*
X168747619Y-84861905D01*
X168252381Y-84861905D01*
X167795238Y-84404762D02*
X167871429Y-84366667D01*
X167909524Y-84328571D01*
X167947619Y-84252381D01*
X167947619Y-84214286D01*
X167909524Y-84138095D01*
X167871429Y-84100000D01*
X167795238Y-84061905D01*
X167642857Y-84061905D01*
X167566667Y-84100000D01*
X167528571Y-84138095D01*
X167490476Y-84214286D01*
X167490476Y-84252381D01*
X167528571Y-84328571D01*
X167566667Y-84366667D01*
X167642857Y-84404762D01*
X167795238Y-84404762D01*
X167871429Y-84442857D01*
X167909524Y-84480952D01*
X167947619Y-84557143D01*
X167947619Y-84709524D01*
X167909524Y-84785714D01*
X167871429Y-84823810D01*
X167795238Y-84861905D01*
X167642857Y-84861905D01*
X167566667Y-84823810D01*
X167528571Y-84785714D01*
X167490476Y-84709524D01*
X167490476Y-84557143D01*
X167528571Y-84480952D01*
X167566667Y-84442857D01*
X167642857Y-84404762D01*
X171014286Y-87785714D02*
X171052381Y-87823810D01*
X171166667Y-87861905D01*
X171242857Y-87861905D01*
X171357143Y-87823810D01*
X171433334Y-87747619D01*
X171471429Y-87671429D01*
X171509524Y-87519048D01*
X171509524Y-87404762D01*
X171471429Y-87252381D01*
X171433334Y-87176190D01*
X171357143Y-87100000D01*
X171242857Y-87061905D01*
X171166667Y-87061905D01*
X171052381Y-87100000D01*
X171014286Y-87138095D01*
X170747619Y-87061905D02*
X170252381Y-87061905D01*
X170519048Y-87366667D01*
X170404762Y-87366667D01*
X170328572Y-87404762D01*
X170290476Y-87442857D01*
X170252381Y-87519048D01*
X170252381Y-87709524D01*
X170290476Y-87785714D01*
X170328572Y-87823810D01*
X170404762Y-87861905D01*
X170633334Y-87861905D01*
X170709524Y-87823810D01*
X170747619Y-87785714D01*
X169757143Y-87061905D02*
X169680952Y-87061905D01*
X169604762Y-87100000D01*
X169566667Y-87138095D01*
X169528571Y-87214286D01*
X169490476Y-87366667D01*
X169490476Y-87557143D01*
X169528571Y-87709524D01*
X169566667Y-87785714D01*
X169604762Y-87823810D01*
X169680952Y-87861905D01*
X169757143Y-87861905D01*
X169833333Y-87823810D01*
X169871429Y-87785714D01*
X169909524Y-87709524D01*
X169947619Y-87557143D01*
X169947619Y-87366667D01*
X169909524Y-87214286D01*
X169871429Y-87138095D01*
X169833333Y-87100000D01*
X169757143Y-87061905D01*
X167764286Y-89785714D02*
X167802381Y-89823810D01*
X167916667Y-89861905D01*
X167992857Y-89861905D01*
X168107143Y-89823810D01*
X168183334Y-89747619D01*
X168221429Y-89671429D01*
X168259524Y-89519048D01*
X168259524Y-89404762D01*
X168221429Y-89252381D01*
X168183334Y-89176190D01*
X168107143Y-89100000D01*
X167992857Y-89061905D01*
X167916667Y-89061905D01*
X167802381Y-89100000D01*
X167764286Y-89138095D01*
X167497619Y-89061905D02*
X167002381Y-89061905D01*
X167269048Y-89366667D01*
X167154762Y-89366667D01*
X167078572Y-89404762D01*
X167040476Y-89442857D01*
X167002381Y-89519048D01*
X167002381Y-89709524D01*
X167040476Y-89785714D01*
X167078572Y-89823810D01*
X167154762Y-89861905D01*
X167383334Y-89861905D01*
X167459524Y-89823810D01*
X167497619Y-89785714D01*
X166240476Y-89861905D02*
X166697619Y-89861905D01*
X166469048Y-89861905D02*
X166469048Y-89061905D01*
X166545238Y-89176190D01*
X166621429Y-89252381D01*
X166697619Y-89290476D01*
X174264286Y-89785714D02*
X174302381Y-89823810D01*
X174416667Y-89861905D01*
X174492857Y-89861905D01*
X174607143Y-89823810D01*
X174683334Y-89747619D01*
X174721429Y-89671429D01*
X174759524Y-89519048D01*
X174759524Y-89404762D01*
X174721429Y-89252381D01*
X174683334Y-89176190D01*
X174607143Y-89100000D01*
X174492857Y-89061905D01*
X174416667Y-89061905D01*
X174302381Y-89100000D01*
X174264286Y-89138095D01*
X173997619Y-89061905D02*
X173502381Y-89061905D01*
X173769048Y-89366667D01*
X173654762Y-89366667D01*
X173578572Y-89404762D01*
X173540476Y-89442857D01*
X173502381Y-89519048D01*
X173502381Y-89709524D01*
X173540476Y-89785714D01*
X173578572Y-89823810D01*
X173654762Y-89861905D01*
X173883334Y-89861905D01*
X173959524Y-89823810D01*
X173997619Y-89785714D01*
X173197619Y-89138095D02*
X173159524Y-89100000D01*
X173083333Y-89061905D01*
X172892857Y-89061905D01*
X172816667Y-89100000D01*
X172778571Y-89138095D01*
X172740476Y-89214286D01*
X172740476Y-89290476D01*
X172778571Y-89404762D01*
X173235714Y-89861905D01*
X172740476Y-89861905D01*
X169014286Y-92785714D02*
X169052381Y-92823810D01*
X169166667Y-92861905D01*
X169242857Y-92861905D01*
X169357143Y-92823810D01*
X169433334Y-92747619D01*
X169471429Y-92671429D01*
X169509524Y-92519048D01*
X169509524Y-92404762D01*
X169471429Y-92252381D01*
X169433334Y-92176190D01*
X169357143Y-92100000D01*
X169242857Y-92061905D01*
X169166667Y-92061905D01*
X169052381Y-92100000D01*
X169014286Y-92138095D01*
X168747619Y-92061905D02*
X168252381Y-92061905D01*
X168519048Y-92366667D01*
X168404762Y-92366667D01*
X168328572Y-92404762D01*
X168290476Y-92442857D01*
X168252381Y-92519048D01*
X168252381Y-92709524D01*
X168290476Y-92785714D01*
X168328572Y-92823810D01*
X168404762Y-92861905D01*
X168633334Y-92861905D01*
X168709524Y-92823810D01*
X168747619Y-92785714D01*
X167985714Y-92061905D02*
X167490476Y-92061905D01*
X167757143Y-92366667D01*
X167642857Y-92366667D01*
X167566667Y-92404762D01*
X167528571Y-92442857D01*
X167490476Y-92519048D01*
X167490476Y-92709524D01*
X167528571Y-92785714D01*
X167566667Y-92823810D01*
X167642857Y-92861905D01*
X167871429Y-92861905D01*
X167947619Y-92823810D01*
X167985714Y-92785714D01*
X151692857Y-77447619D02*
X151692857Y-77714286D01*
X152111905Y-77828572D02*
X152111905Y-77447619D01*
X151311905Y-77447619D01*
X151311905Y-77828572D01*
X151578571Y-78514286D02*
X152111905Y-78514286D01*
X151273810Y-78323810D02*
X151845238Y-78133334D01*
X151845238Y-78628572D01*
X177962857Y-94197619D02*
X177962857Y-94464286D01*
X178381905Y-94578572D02*
X178381905Y-94197619D01*
X177581905Y-94197619D01*
X177581905Y-94578572D01*
X177658095Y-94883334D02*
X177620000Y-94921429D01*
X177581905Y-94997620D01*
X177581905Y-95188096D01*
X177620000Y-95264286D01*
X177658095Y-95302382D01*
X177734286Y-95340477D01*
X177810476Y-95340477D01*
X177924762Y-95302382D01*
X178381905Y-94845239D01*
X178381905Y-95340477D01*
X180802381Y-96692857D02*
X180535714Y-96692857D01*
X180421428Y-97111905D02*
X180802381Y-97111905D01*
X180802381Y-96311905D01*
X180421428Y-96311905D01*
X180154761Y-96311905D02*
X179659523Y-96311905D01*
X179926190Y-96616667D01*
X179811904Y-96616667D01*
X179735714Y-96654762D01*
X179697618Y-96692857D01*
X179659523Y-96769048D01*
X179659523Y-96959524D01*
X179697618Y-97035714D01*
X179735714Y-97073810D01*
X179811904Y-97111905D01*
X180040476Y-97111905D01*
X180116666Y-97073810D01*
X180154761Y-97035714D01*
X166802381Y-91942857D02*
X166535714Y-91942857D01*
X166421428Y-92361905D02*
X166802381Y-92361905D01*
X166802381Y-91561905D01*
X166421428Y-91561905D01*
X165659523Y-92361905D02*
X166116666Y-92361905D01*
X165888095Y-92361905D02*
X165888095Y-91561905D01*
X165964285Y-91676190D01*
X166040476Y-91752381D01*
X166116666Y-91790476D01*
X173014286Y-84785714D02*
X173052381Y-84823810D01*
X173166667Y-84861905D01*
X173242857Y-84861905D01*
X173357143Y-84823810D01*
X173433334Y-84747619D01*
X173471429Y-84671429D01*
X173509524Y-84519048D01*
X173509524Y-84404762D01*
X173471429Y-84252381D01*
X173433334Y-84176190D01*
X173357143Y-84100000D01*
X173242857Y-84061905D01*
X173166667Y-84061905D01*
X173052381Y-84100000D01*
X173014286Y-84138095D01*
X172709524Y-84138095D02*
X172671429Y-84100000D01*
X172595238Y-84061905D01*
X172404762Y-84061905D01*
X172328572Y-84100000D01*
X172290476Y-84138095D01*
X172252381Y-84214286D01*
X172252381Y-84290476D01*
X172290476Y-84404762D01*
X172747619Y-84861905D01*
X172252381Y-84861905D01*
X171871429Y-84861905D02*
X171719048Y-84861905D01*
X171642857Y-84823810D01*
X171604762Y-84785714D01*
X171528571Y-84671429D01*
X171490476Y-84519048D01*
X171490476Y-84214286D01*
X171528571Y-84138095D01*
X171566667Y-84100000D01*
X171642857Y-84061905D01*
X171795238Y-84061905D01*
X171871429Y-84100000D01*
X171909524Y-84138095D01*
X171947619Y-84214286D01*
X171947619Y-84404762D01*
X171909524Y-84480952D01*
X171871429Y-84519048D01*
X171795238Y-84557143D01*
X171642857Y-84557143D01*
X171566667Y-84519048D01*
X171528571Y-84480952D01*
X171490476Y-84404762D01*
X173014286Y-92785714D02*
X173052381Y-92823810D01*
X173166667Y-92861905D01*
X173242857Y-92861905D01*
X173357143Y-92823810D01*
X173433334Y-92747619D01*
X173471429Y-92671429D01*
X173509524Y-92519048D01*
X173509524Y-92404762D01*
X173471429Y-92252381D01*
X173433334Y-92176190D01*
X173357143Y-92100000D01*
X173242857Y-92061905D01*
X173166667Y-92061905D01*
X173052381Y-92100000D01*
X173014286Y-92138095D01*
X172747619Y-92061905D02*
X172252381Y-92061905D01*
X172519048Y-92366667D01*
X172404762Y-92366667D01*
X172328572Y-92404762D01*
X172290476Y-92442857D01*
X172252381Y-92519048D01*
X172252381Y-92709524D01*
X172290476Y-92785714D01*
X172328572Y-92823810D01*
X172404762Y-92861905D01*
X172633334Y-92861905D01*
X172709524Y-92823810D01*
X172747619Y-92785714D01*
X171566667Y-92328571D02*
X171566667Y-92861905D01*
X171757143Y-92023810D02*
X171947619Y-92595238D01*
X171452381Y-92595238D01*
X161090476Y-69361905D02*
X161090476Y-68561905D01*
X160900000Y-68561905D01*
X160785714Y-68600000D01*
X160709523Y-68676190D01*
X160671428Y-68752381D01*
X160633333Y-68904762D01*
X160633333Y-69019048D01*
X160671428Y-69171429D01*
X160709523Y-69247619D01*
X160785714Y-69323810D01*
X160900000Y-69361905D01*
X161090476Y-69361905D01*
X159871428Y-69361905D02*
X160328571Y-69361905D01*
X160100000Y-69361905D02*
X160100000Y-68561905D01*
X160176190Y-68676190D01*
X160252381Y-68752381D01*
X160328571Y-68790476D01*
X177090476Y-76361905D02*
X177090476Y-75561905D01*
X176900000Y-75561905D01*
X176785714Y-75600000D01*
X176709523Y-75676190D01*
X176671428Y-75752381D01*
X176633333Y-75904762D01*
X176633333Y-76019048D01*
X176671428Y-76171429D01*
X176709523Y-76247619D01*
X176785714Y-76323810D01*
X176900000Y-76361905D01*
X177090476Y-76361905D01*
X176328571Y-75638095D02*
X176290476Y-75600000D01*
X176214285Y-75561905D01*
X176023809Y-75561905D01*
X175947619Y-75600000D01*
X175909523Y-75638095D01*
X175871428Y-75714286D01*
X175871428Y-75790476D01*
X175909523Y-75904762D01*
X176366666Y-76361905D01*
X175871428Y-76361905D01*
X174264286Y-96111905D02*
X174530953Y-95730952D01*
X174721429Y-96111905D02*
X174721429Y-95311905D01*
X174416667Y-95311905D01*
X174340476Y-95350000D01*
X174302381Y-95388095D01*
X174264286Y-95464286D01*
X174264286Y-95578571D01*
X174302381Y-95654762D01*
X174340476Y-95692857D01*
X174416667Y-95730952D01*
X174721429Y-95730952D01*
X173502381Y-96111905D02*
X173959524Y-96111905D01*
X173730953Y-96111905D02*
X173730953Y-95311905D01*
X173807143Y-95426190D01*
X173883334Y-95502381D01*
X173959524Y-95540476D01*
X172740476Y-96111905D02*
X173197619Y-96111905D01*
X172969048Y-96111905D02*
X172969048Y-95311905D01*
X173045238Y-95426190D01*
X173121429Y-95502381D01*
X173197619Y-95540476D01*
X183014286Y-94111905D02*
X183280953Y-93730952D01*
X183471429Y-94111905D02*
X183471429Y-93311905D01*
X183166667Y-93311905D01*
X183090476Y-93350000D01*
X183052381Y-93388095D01*
X183014286Y-93464286D01*
X183014286Y-93578571D01*
X183052381Y-93654762D01*
X183090476Y-93692857D01*
X183166667Y-93730952D01*
X183471429Y-93730952D01*
X182252381Y-94111905D02*
X182709524Y-94111905D01*
X182480953Y-94111905D02*
X182480953Y-93311905D01*
X182557143Y-93426190D01*
X182633334Y-93502381D01*
X182709524Y-93540476D01*
X181947619Y-93388095D02*
X181909524Y-93350000D01*
X181833333Y-93311905D01*
X181642857Y-93311905D01*
X181566667Y-93350000D01*
X181528571Y-93388095D01*
X181490476Y-93464286D01*
X181490476Y-93540476D01*
X181528571Y-93654762D01*
X181985714Y-94111905D01*
X181490476Y-94111905D01*
M02*
