%FSLAX46Y46*%
G04 Gerber Fmt 4.6, Leading zero omitted, Abs format (unit mm)*
G04 Created by KiCad (PCBNEW (2014-10-29 BZR 5235)-product) date 10/30/2014 3:07:56 PM*
%MOMM*%
G01*
G04 APERTURE LIST*
%ADD10C,0.100000*%
%ADD11C,0.350000*%
%ADD12C,0.381000*%
%ADD13C,0.300000*%
%ADD14C,0.150000*%
%ADD15C,0.200000*%
%ADD16C,0.203200*%
G04 APERTURE END LIST*
D10*
D11*
X170750000Y-89500000D02*
X170250000Y-89500000D01*
X170250000Y-89500000D02*
X170250000Y-86500000D01*
X170250000Y-86500000D02*
X170750000Y-86500000D01*
X170750000Y-86500000D02*
X170750000Y-89500000D01*
X147873000Y-71719000D02*
X147873000Y-70473000D01*
X147873000Y-70473000D02*
X160127000Y-70473000D01*
X160127000Y-70473000D02*
X160127000Y-71719000D01*
X147873000Y-74281000D02*
X147873000Y-75527000D01*
X147873000Y-75527000D02*
X160127000Y-75527000D01*
X160127000Y-75527000D02*
X160127000Y-74281000D01*
D12*
X175200400Y-72500000D02*
G75*
G03X175200400Y-72500000I-3200400J0D01*
G01*
X172698500Y-74100200D02*
X173498600Y-74100200D01*
X173099820Y-73701420D02*
X173099820Y-74501520D01*
D11*
X147750000Y-80500000D02*
X147750000Y-87500000D01*
X147750000Y-87500000D02*
X149500000Y-89250000D01*
X149500000Y-89250000D02*
X156500000Y-89250000D01*
X156500000Y-89250000D02*
X158250000Y-87500000D01*
X158250000Y-87500000D02*
X158250000Y-80500000D01*
X158250000Y-80500000D02*
X156500000Y-78750000D01*
X156500000Y-78750000D02*
X149500000Y-78750000D01*
X149500000Y-78750000D02*
X147750000Y-80500000D01*
D13*
X158250000Y-88750000D02*
X157750000Y-89250000D01*
X157750000Y-89250000D02*
X158250000Y-89250000D01*
X158250000Y-89250000D02*
X158250000Y-88750000D01*
X157250000Y-89250000D02*
X158250000Y-88250000D01*
D12*
X168200400Y-72500000D02*
G75*
G03X168200400Y-72500000I-3200400J0D01*
G01*
X165698500Y-74100200D02*
X166498600Y-74100200D01*
X166099820Y-73701420D02*
X166099820Y-74501520D01*
D11*
X170750000Y-81500000D02*
X170250000Y-81500000D01*
X170250000Y-81500000D02*
X170250000Y-78500000D01*
X170250000Y-78500000D02*
X170750000Y-78500000D01*
X170750000Y-78500000D02*
X170750000Y-81500000D01*
X165271000Y-80471000D02*
X165271000Y-80329000D01*
X165271000Y-80329000D02*
X165271000Y-80471000D01*
X164329000Y-80471000D02*
X164329000Y-80329000D01*
X164329000Y-80329000D02*
X164329000Y-80471000D01*
X164279000Y-86429000D02*
X164279000Y-86571000D01*
X164279000Y-86571000D02*
X164279000Y-86429000D01*
X165221000Y-86429000D02*
X165221000Y-86571000D01*
X165221000Y-86571000D02*
X165221000Y-86429000D01*
X182000000Y-74500000D02*
X182000000Y-75500000D01*
X182000000Y-75500000D02*
X179500000Y-75500000D01*
X179500000Y-69500000D02*
X182000000Y-69500000D01*
X182000000Y-69500000D02*
X182000000Y-70500000D01*
D14*
X171485714Y-91861905D02*
X171219047Y-91480952D01*
X171028571Y-91861905D02*
X171028571Y-91061905D01*
X171333333Y-91061905D01*
X171409524Y-91100000D01*
X171447619Y-91138095D01*
X171485714Y-91214286D01*
X171485714Y-91328571D01*
X171447619Y-91404762D01*
X171409524Y-91442857D01*
X171333333Y-91480952D01*
X171028571Y-91480952D01*
X171790476Y-91138095D02*
X171828571Y-91100000D01*
X171904762Y-91061905D01*
X172095238Y-91061905D01*
X172171428Y-91100000D01*
X172209524Y-91138095D01*
X172247619Y-91214286D01*
X172247619Y-91290476D01*
X172209524Y-91404762D01*
X171752381Y-91861905D01*
X172247619Y-91861905D01*
X172514286Y-91061905D02*
X173047619Y-91061905D01*
X172704762Y-91861905D01*
D15*
X165738095Y-83952381D02*
X165738095Y-84761905D01*
X165785714Y-84857143D01*
X165833333Y-84904762D01*
X165928571Y-84952381D01*
X166119048Y-84952381D01*
X166214286Y-84904762D01*
X166261905Y-84857143D01*
X166309524Y-84761905D01*
X166309524Y-83952381D01*
X167214286Y-84285714D02*
X167214286Y-84952381D01*
X166976190Y-83904762D02*
X166738095Y-84619048D01*
X167357143Y-84619048D01*
D14*
X174561905Y-78766666D02*
X175133333Y-78766666D01*
X175247619Y-78804762D01*
X175323810Y-78880952D01*
X175361905Y-78995238D01*
X175361905Y-79071428D01*
X174828571Y-78042857D02*
X175361905Y-78042857D01*
X174523810Y-78233333D02*
X175095238Y-78423809D01*
X175095238Y-77928571D01*
X153352381Y-69061905D02*
X153885714Y-69861905D01*
X153885714Y-69061905D02*
X153352381Y-69861905D01*
X154609524Y-69861905D02*
X154152381Y-69861905D01*
X154380952Y-69861905D02*
X154380952Y-69061905D01*
X154304762Y-69176190D01*
X154228571Y-69252381D01*
X154152381Y-69290476D01*
D16*
X168333207Y-69857414D02*
X168285552Y-69905070D01*
X168142586Y-69952725D01*
X168047276Y-69952725D01*
X167904310Y-69905070D01*
X167808999Y-69809759D01*
X167761344Y-69714449D01*
X167713689Y-69523828D01*
X167713689Y-69380862D01*
X167761344Y-69190241D01*
X167808999Y-69094930D01*
X167904310Y-68999620D01*
X168047276Y-68951965D01*
X168142586Y-68951965D01*
X168285552Y-68999620D01*
X168333207Y-69047275D01*
X169191001Y-69285551D02*
X169191001Y-69952725D01*
X168952725Y-68904310D02*
X168714449Y-69619138D01*
X169333967Y-69619138D01*
D14*
X157890476Y-78561905D02*
X157890476Y-79209524D01*
X157928571Y-79285714D01*
X157966667Y-79323810D01*
X158042857Y-79361905D01*
X158195238Y-79361905D01*
X158271429Y-79323810D01*
X158309524Y-79285714D01*
X158347619Y-79209524D01*
X158347619Y-78561905D01*
X158690476Y-78638095D02*
X158728571Y-78600000D01*
X158804762Y-78561905D01*
X158995238Y-78561905D01*
X159071428Y-78600000D01*
X159109524Y-78638095D01*
X159147619Y-78714286D01*
X159147619Y-78790476D01*
X159109524Y-78904762D01*
X158652381Y-79361905D01*
X159147619Y-79361905D01*
X155361905Y-92633333D02*
X154980952Y-92900000D01*
X155361905Y-93090476D02*
X154561905Y-93090476D01*
X154561905Y-92785714D01*
X154600000Y-92709523D01*
X154638095Y-92671428D01*
X154714286Y-92633333D01*
X154828571Y-92633333D01*
X154904762Y-92671428D01*
X154942857Y-92709523D01*
X154980952Y-92785714D01*
X154980952Y-93090476D01*
X154561905Y-91947619D02*
X154561905Y-92100000D01*
X154600000Y-92176190D01*
X154638095Y-92214285D01*
X154752381Y-92290476D01*
X154904762Y-92328571D01*
X155209524Y-92328571D01*
X155285714Y-92290476D01*
X155323810Y-92252381D01*
X155361905Y-92176190D01*
X155361905Y-92023809D01*
X155323810Y-91947619D01*
X155285714Y-91909523D01*
X155209524Y-91871428D01*
X155019048Y-91871428D01*
X154942857Y-91909523D01*
X154904762Y-91947619D01*
X154866667Y-92023809D01*
X154866667Y-92176190D01*
X154904762Y-92252381D01*
X154942857Y-92290476D01*
X155019048Y-92328571D01*
X156411905Y-77764286D02*
X156030952Y-78030953D01*
X156411905Y-78221429D02*
X155611905Y-78221429D01*
X155611905Y-77916667D01*
X155650000Y-77840476D01*
X155688095Y-77802381D01*
X155764286Y-77764286D01*
X155878571Y-77764286D01*
X155954762Y-77802381D01*
X155992857Y-77840476D01*
X156030952Y-77916667D01*
X156030952Y-78221429D01*
X156411905Y-77002381D02*
X156411905Y-77459524D01*
X156411905Y-77230953D02*
X155611905Y-77230953D01*
X155726190Y-77307143D01*
X155802381Y-77383334D01*
X155840476Y-77459524D01*
X155878571Y-76316667D02*
X156411905Y-76316667D01*
X155573810Y-76507143D02*
X156145238Y-76697619D01*
X156145238Y-76202381D01*
D16*
X172166414Y-94451965D02*
X172166414Y-95166793D01*
X172118758Y-95309759D01*
X172023448Y-95405070D01*
X171880482Y-95452725D01*
X171785172Y-95452725D01*
X172595311Y-94547275D02*
X172642966Y-94499620D01*
X172738277Y-94451965D01*
X172976553Y-94451965D01*
X173071863Y-94499620D01*
X173119519Y-94547275D01*
X173167174Y-94642586D01*
X173167174Y-94737896D01*
X173119519Y-94880862D01*
X172547656Y-95452725D01*
X173167174Y-95452725D01*
X146666414Y-92451965D02*
X146666414Y-93166793D01*
X146618758Y-93309759D01*
X146523448Y-93405070D01*
X146380482Y-93452725D01*
X146285172Y-93452725D01*
X147667174Y-93452725D02*
X147095311Y-93452725D01*
X147381242Y-93452725D02*
X147381242Y-92451965D01*
X147285932Y-92594930D01*
X147190621Y-92690241D01*
X147095311Y-92737896D01*
X161333207Y-69857414D02*
X161285552Y-69905070D01*
X161142586Y-69952725D01*
X161047276Y-69952725D01*
X160904310Y-69905070D01*
X160808999Y-69809759D01*
X160761344Y-69714449D01*
X160713689Y-69523828D01*
X160713689Y-69380862D01*
X160761344Y-69190241D01*
X160808999Y-69094930D01*
X160904310Y-68999620D01*
X161047276Y-68951965D01*
X161142586Y-68951965D01*
X161285552Y-68999620D01*
X161333207Y-69047275D01*
X162286312Y-69952725D02*
X161714449Y-69952725D01*
X162000380Y-69952725D02*
X162000380Y-68951965D01*
X161905070Y-69094930D01*
X161809759Y-69190241D01*
X161714449Y-69237896D01*
D15*
X165738095Y-75952381D02*
X165738095Y-76761905D01*
X165785714Y-76857143D01*
X165833333Y-76904762D01*
X165928571Y-76952381D01*
X166119048Y-76952381D01*
X166214286Y-76904762D01*
X166261905Y-76857143D01*
X166309524Y-76761905D01*
X166309524Y-75952381D01*
X166690476Y-75952381D02*
X167309524Y-75952381D01*
X166976190Y-76333333D01*
X167119048Y-76333333D01*
X167214286Y-76380952D01*
X167261905Y-76428571D01*
X167309524Y-76523810D01*
X167309524Y-76761905D01*
X167261905Y-76857143D01*
X167214286Y-76904762D01*
X167119048Y-76952381D01*
X166833333Y-76952381D01*
X166738095Y-76904762D01*
X166690476Y-76857143D01*
D14*
X147116667Y-69785714D02*
X147078572Y-69823810D01*
X146964286Y-69861905D01*
X146888096Y-69861905D01*
X146773810Y-69823810D01*
X146697619Y-69747619D01*
X146659524Y-69671429D01*
X146621429Y-69519048D01*
X146621429Y-69404762D01*
X146659524Y-69252381D01*
X146697619Y-69176190D01*
X146773810Y-69100000D01*
X146888096Y-69061905D01*
X146964286Y-69061905D01*
X147078572Y-69100000D01*
X147116667Y-69138095D01*
X147421429Y-69138095D02*
X147459524Y-69100000D01*
X147535715Y-69061905D01*
X147726191Y-69061905D01*
X147802381Y-69100000D01*
X147840477Y-69138095D01*
X147878572Y-69214286D01*
X147878572Y-69290476D01*
X147840477Y-69404762D01*
X147383334Y-69861905D01*
X147878572Y-69861905D01*
X156366667Y-69785714D02*
X156328572Y-69823810D01*
X156214286Y-69861905D01*
X156138096Y-69861905D01*
X156023810Y-69823810D01*
X155947619Y-69747619D01*
X155909524Y-69671429D01*
X155871429Y-69519048D01*
X155871429Y-69404762D01*
X155909524Y-69252381D01*
X155947619Y-69176190D01*
X156023810Y-69100000D01*
X156138096Y-69061905D01*
X156214286Y-69061905D01*
X156328572Y-69100000D01*
X156366667Y-69138095D01*
X156633334Y-69061905D02*
X157128572Y-69061905D01*
X156861905Y-69366667D01*
X156976191Y-69366667D01*
X157052381Y-69404762D01*
X157090477Y-69442857D01*
X157128572Y-69519048D01*
X157128572Y-69709524D01*
X157090477Y-69785714D01*
X157052381Y-69823810D01*
X156976191Y-69861905D01*
X156747619Y-69861905D01*
X156671429Y-69823810D01*
X156633334Y-69785714D01*
X164285714Y-78485714D02*
X164247619Y-78523810D01*
X164133333Y-78561905D01*
X164057143Y-78561905D01*
X163942857Y-78523810D01*
X163866666Y-78447619D01*
X163828571Y-78371429D01*
X163790476Y-78219048D01*
X163790476Y-78104762D01*
X163828571Y-77952381D01*
X163866666Y-77876190D01*
X163942857Y-77800000D01*
X164057143Y-77761905D01*
X164133333Y-77761905D01*
X164247619Y-77800000D01*
X164285714Y-77838095D01*
X165047619Y-78561905D02*
X164590476Y-78561905D01*
X164819047Y-78561905D02*
X164819047Y-77761905D01*
X164742857Y-77876190D01*
X164666666Y-77952381D01*
X164590476Y-77990476D01*
X165733333Y-77761905D02*
X165580952Y-77761905D01*
X165504762Y-77800000D01*
X165466667Y-77838095D01*
X165390476Y-77952381D01*
X165352381Y-78104762D01*
X165352381Y-78409524D01*
X165390476Y-78485714D01*
X165428571Y-78523810D01*
X165504762Y-78561905D01*
X165657143Y-78561905D01*
X165733333Y-78523810D01*
X165771429Y-78485714D01*
X165809524Y-78409524D01*
X165809524Y-78219048D01*
X165771429Y-78142857D01*
X165733333Y-78104762D01*
X165657143Y-78066667D01*
X165504762Y-78066667D01*
X165428571Y-78104762D01*
X165390476Y-78142857D01*
X165352381Y-78219048D01*
X163535714Y-87264286D02*
X163573810Y-87302381D01*
X163611905Y-87416667D01*
X163611905Y-87492857D01*
X163573810Y-87607143D01*
X163497619Y-87683334D01*
X163421429Y-87721429D01*
X163269048Y-87759524D01*
X163154762Y-87759524D01*
X163002381Y-87721429D01*
X162926190Y-87683334D01*
X162850000Y-87607143D01*
X162811905Y-87492857D01*
X162811905Y-87416667D01*
X162850000Y-87302381D01*
X162888095Y-87264286D01*
X163611905Y-86502381D02*
X163611905Y-86959524D01*
X163611905Y-86730953D02*
X162811905Y-86730953D01*
X162926190Y-86807143D01*
X163002381Y-86883334D01*
X163040476Y-86959524D01*
X163154762Y-86045238D02*
X163116667Y-86121429D01*
X163078571Y-86159524D01*
X163002381Y-86197619D01*
X162964286Y-86197619D01*
X162888095Y-86159524D01*
X162850000Y-86121429D01*
X162811905Y-86045238D01*
X162811905Y-85892857D01*
X162850000Y-85816667D01*
X162888095Y-85778571D01*
X162964286Y-85740476D01*
X163002381Y-85740476D01*
X163078571Y-85778571D01*
X163116667Y-85816667D01*
X163154762Y-85892857D01*
X163154762Y-86045238D01*
X163192857Y-86121429D01*
X163230952Y-86159524D01*
X163307143Y-86197619D01*
X163459524Y-86197619D01*
X163535714Y-86159524D01*
X163573810Y-86121429D01*
X163611905Y-86045238D01*
X163611905Y-85892857D01*
X163573810Y-85816667D01*
X163535714Y-85778571D01*
X163459524Y-85740476D01*
X163307143Y-85740476D01*
X163230952Y-85778571D01*
X163192857Y-85816667D01*
X163154762Y-85892857D01*
X148485714Y-78014286D02*
X148523810Y-78052381D01*
X148561905Y-78166667D01*
X148561905Y-78242857D01*
X148523810Y-78357143D01*
X148447619Y-78433334D01*
X148371429Y-78471429D01*
X148219048Y-78509524D01*
X148104762Y-78509524D01*
X147952381Y-78471429D01*
X147876190Y-78433334D01*
X147800000Y-78357143D01*
X147761905Y-78242857D01*
X147761905Y-78166667D01*
X147800000Y-78052381D01*
X147838095Y-78014286D01*
X148561905Y-77252381D02*
X148561905Y-77709524D01*
X148561905Y-77480953D02*
X147761905Y-77480953D01*
X147876190Y-77557143D01*
X147952381Y-77633334D01*
X147990476Y-77709524D01*
X148028571Y-76566667D02*
X148561905Y-76566667D01*
X147723810Y-76757143D02*
X148295238Y-76947619D01*
X148295238Y-76452381D01*
X174561905Y-86766666D02*
X175133333Y-86766666D01*
X175247619Y-86804762D01*
X175323810Y-86880952D01*
X175361905Y-86995238D01*
X175361905Y-87071428D01*
X174561905Y-86461904D02*
X174561905Y-85966666D01*
X174866667Y-86233333D01*
X174866667Y-86119047D01*
X174904762Y-86042857D01*
X174942857Y-86004761D01*
X175019048Y-85966666D01*
X175209524Y-85966666D01*
X175285714Y-86004761D01*
X175323810Y-86042857D01*
X175361905Y-86119047D01*
X175361905Y-86347619D01*
X175323810Y-86423809D01*
X175285714Y-86461904D01*
X159990476Y-85061905D02*
X160447619Y-85061905D01*
X160219048Y-85861905D02*
X160219048Y-85061905D01*
X160714286Y-85861905D02*
X160714286Y-85061905D01*
X161019048Y-85061905D01*
X161095239Y-85100000D01*
X161133334Y-85138095D01*
X161171429Y-85214286D01*
X161171429Y-85328571D01*
X161133334Y-85404762D01*
X161095239Y-85442857D01*
X161019048Y-85480952D01*
X160714286Y-85480952D01*
X161933334Y-85861905D02*
X161476191Y-85861905D01*
X161704762Y-85861905D02*
X161704762Y-85061905D01*
X161628572Y-85176190D01*
X161552381Y-85252381D01*
X161476191Y-85290476D01*
X164061905Y-91259524D02*
X164061905Y-90802381D01*
X164861905Y-91030952D02*
X164061905Y-91030952D01*
X164861905Y-90535714D02*
X164061905Y-90535714D01*
X164061905Y-90230952D01*
X164100000Y-90154761D01*
X164138095Y-90116666D01*
X164214286Y-90078571D01*
X164328571Y-90078571D01*
X164404762Y-90116666D01*
X164442857Y-90154761D01*
X164480952Y-90230952D01*
X164480952Y-90535714D01*
X164138095Y-89773809D02*
X164100000Y-89735714D01*
X164061905Y-89659523D01*
X164061905Y-89469047D01*
X164100000Y-89392857D01*
X164138095Y-89354761D01*
X164214286Y-89316666D01*
X164290476Y-89316666D01*
X164404762Y-89354761D01*
X164861905Y-89811904D01*
X164861905Y-89316666D01*
D15*
X182738095Y-68952381D02*
X182738095Y-69761905D01*
X182785714Y-69857143D01*
X182833333Y-69904762D01*
X182928571Y-69952381D01*
X183119048Y-69952381D01*
X183214286Y-69904762D01*
X183261905Y-69857143D01*
X183309524Y-69761905D01*
X183309524Y-68952381D01*
X184309524Y-69952381D02*
X183738095Y-69952381D01*
X184023809Y-69952381D02*
X184023809Y-68952381D01*
X183928571Y-69095238D01*
X183833333Y-69190476D01*
X183738095Y-69238095D01*
D14*
X150361905Y-92633333D02*
X149980952Y-92900000D01*
X150361905Y-93090476D02*
X149561905Y-93090476D01*
X149561905Y-92785714D01*
X149600000Y-92709523D01*
X149638095Y-92671428D01*
X149714286Y-92633333D01*
X149828571Y-92633333D01*
X149904762Y-92671428D01*
X149942857Y-92709523D01*
X149980952Y-92785714D01*
X149980952Y-93090476D01*
X150361905Y-91871428D02*
X150361905Y-92328571D01*
X150361905Y-92100000D02*
X149561905Y-92100000D01*
X149676190Y-92176190D01*
X149752381Y-92252381D01*
X149790476Y-92328571D01*
X159361905Y-92633333D02*
X158980952Y-92900000D01*
X159361905Y-93090476D02*
X158561905Y-93090476D01*
X158561905Y-92785714D01*
X158600000Y-92709523D01*
X158638095Y-92671428D01*
X158714286Y-92633333D01*
X158828571Y-92633333D01*
X158904762Y-92671428D01*
X158942857Y-92709523D01*
X158980952Y-92785714D01*
X158980952Y-93090476D01*
X158904762Y-92176190D02*
X158866667Y-92252381D01*
X158828571Y-92290476D01*
X158752381Y-92328571D01*
X158714286Y-92328571D01*
X158638095Y-92290476D01*
X158600000Y-92252381D01*
X158561905Y-92176190D01*
X158561905Y-92023809D01*
X158600000Y-91947619D01*
X158638095Y-91909523D01*
X158714286Y-91871428D01*
X158752381Y-91871428D01*
X158828571Y-91909523D01*
X158866667Y-91947619D01*
X158904762Y-92023809D01*
X158904762Y-92176190D01*
X158942857Y-92252381D01*
X158980952Y-92290476D01*
X159057143Y-92328571D01*
X159209524Y-92328571D01*
X159285714Y-92290476D01*
X159323810Y-92252381D01*
X159361905Y-92176190D01*
X159361905Y-92023809D01*
X159323810Y-91947619D01*
X159285714Y-91909523D01*
X159209524Y-91871428D01*
X159057143Y-91871428D01*
X158980952Y-91909523D01*
X158942857Y-91947619D01*
X158904762Y-92023809D01*
X160361905Y-92633333D02*
X159980952Y-92900000D01*
X160361905Y-93090476D02*
X159561905Y-93090476D01*
X159561905Y-92785714D01*
X159600000Y-92709523D01*
X159638095Y-92671428D01*
X159714286Y-92633333D01*
X159828571Y-92633333D01*
X159904762Y-92671428D01*
X159942857Y-92709523D01*
X159980952Y-92785714D01*
X159980952Y-93090476D01*
X160361905Y-92252381D02*
X160361905Y-92100000D01*
X160323810Y-92023809D01*
X160285714Y-91985714D01*
X160171429Y-91909523D01*
X160019048Y-91871428D01*
X159714286Y-91871428D01*
X159638095Y-91909523D01*
X159600000Y-91947619D01*
X159561905Y-92023809D01*
X159561905Y-92176190D01*
X159600000Y-92252381D01*
X159638095Y-92290476D01*
X159714286Y-92328571D01*
X159904762Y-92328571D01*
X159980952Y-92290476D01*
X160019048Y-92252381D01*
X160057143Y-92176190D01*
X160057143Y-92023809D01*
X160019048Y-91947619D01*
X159980952Y-91909523D01*
X159904762Y-91871428D01*
X151361905Y-92633333D02*
X150980952Y-92900000D01*
X151361905Y-93090476D02*
X150561905Y-93090476D01*
X150561905Y-92785714D01*
X150600000Y-92709523D01*
X150638095Y-92671428D01*
X150714286Y-92633333D01*
X150828571Y-92633333D01*
X150904762Y-92671428D01*
X150942857Y-92709523D01*
X150980952Y-92785714D01*
X150980952Y-93090476D01*
X150638095Y-92328571D02*
X150600000Y-92290476D01*
X150561905Y-92214285D01*
X150561905Y-92023809D01*
X150600000Y-91947619D01*
X150638095Y-91909523D01*
X150714286Y-91871428D01*
X150790476Y-91871428D01*
X150904762Y-91909523D01*
X151361905Y-92366666D01*
X151361905Y-91871428D01*
X152361905Y-92633333D02*
X151980952Y-92900000D01*
X152361905Y-93090476D02*
X151561905Y-93090476D01*
X151561905Y-92785714D01*
X151600000Y-92709523D01*
X151638095Y-92671428D01*
X151714286Y-92633333D01*
X151828571Y-92633333D01*
X151904762Y-92671428D01*
X151942857Y-92709523D01*
X151980952Y-92785714D01*
X151980952Y-93090476D01*
X151561905Y-92366666D02*
X151561905Y-91871428D01*
X151866667Y-92138095D01*
X151866667Y-92023809D01*
X151904762Y-91947619D01*
X151942857Y-91909523D01*
X152019048Y-91871428D01*
X152209524Y-91871428D01*
X152285714Y-91909523D01*
X152323810Y-91947619D01*
X152361905Y-92023809D01*
X152361905Y-92252381D01*
X152323810Y-92328571D01*
X152285714Y-92366666D01*
X153361905Y-92633333D02*
X152980952Y-92900000D01*
X153361905Y-93090476D02*
X152561905Y-93090476D01*
X152561905Y-92785714D01*
X152600000Y-92709523D01*
X152638095Y-92671428D01*
X152714286Y-92633333D01*
X152828571Y-92633333D01*
X152904762Y-92671428D01*
X152942857Y-92709523D01*
X152980952Y-92785714D01*
X152980952Y-93090476D01*
X152828571Y-91947619D02*
X153361905Y-91947619D01*
X152523810Y-92138095D02*
X153095238Y-92328571D01*
X153095238Y-91833333D01*
X154361905Y-92633333D02*
X153980952Y-92900000D01*
X154361905Y-93090476D02*
X153561905Y-93090476D01*
X153561905Y-92785714D01*
X153600000Y-92709523D01*
X153638095Y-92671428D01*
X153714286Y-92633333D01*
X153828571Y-92633333D01*
X153904762Y-92671428D01*
X153942857Y-92709523D01*
X153980952Y-92785714D01*
X153980952Y-93090476D01*
X153561905Y-91909523D02*
X153561905Y-92290476D01*
X153942857Y-92328571D01*
X153904762Y-92290476D01*
X153866667Y-92214285D01*
X153866667Y-92023809D01*
X153904762Y-91947619D01*
X153942857Y-91909523D01*
X154019048Y-91871428D01*
X154209524Y-91871428D01*
X154285714Y-91909523D01*
X154323810Y-91947619D01*
X154361905Y-92023809D01*
X154361905Y-92214285D01*
X154323810Y-92290476D01*
X154285714Y-92328571D01*
X156361905Y-92633333D02*
X155980952Y-92900000D01*
X156361905Y-93090476D02*
X155561905Y-93090476D01*
X155561905Y-92785714D01*
X155600000Y-92709523D01*
X155638095Y-92671428D01*
X155714286Y-92633333D01*
X155828571Y-92633333D01*
X155904762Y-92671428D01*
X155942857Y-92709523D01*
X155980952Y-92785714D01*
X155980952Y-93090476D01*
X155561905Y-92366666D02*
X155561905Y-91833333D01*
X156361905Y-92176190D01*
X158361905Y-93014286D02*
X157980952Y-93280953D01*
X158361905Y-93471429D02*
X157561905Y-93471429D01*
X157561905Y-93166667D01*
X157600000Y-93090476D01*
X157638095Y-93052381D01*
X157714286Y-93014286D01*
X157828571Y-93014286D01*
X157904762Y-93052381D01*
X157942857Y-93090476D01*
X157980952Y-93166667D01*
X157980952Y-93471429D01*
X158361905Y-92252381D02*
X158361905Y-92709524D01*
X158361905Y-92480953D02*
X157561905Y-92480953D01*
X157676190Y-92557143D01*
X157752381Y-92633334D01*
X157790476Y-92709524D01*
X157561905Y-91985714D02*
X157561905Y-91490476D01*
X157866667Y-91757143D01*
X157866667Y-91642857D01*
X157904762Y-91566667D01*
X157942857Y-91528571D01*
X158019048Y-91490476D01*
X158209524Y-91490476D01*
X158285714Y-91528571D01*
X158323810Y-91566667D01*
X158361905Y-91642857D01*
X158361905Y-91871429D01*
X158323810Y-91947619D01*
X158285714Y-91985714D01*
X147361905Y-78014286D02*
X146980952Y-78280953D01*
X147361905Y-78471429D02*
X146561905Y-78471429D01*
X146561905Y-78166667D01*
X146600000Y-78090476D01*
X146638095Y-78052381D01*
X146714286Y-78014286D01*
X146828571Y-78014286D01*
X146904762Y-78052381D01*
X146942857Y-78090476D01*
X146980952Y-78166667D01*
X146980952Y-78471429D01*
X147361905Y-77252381D02*
X147361905Y-77709524D01*
X147361905Y-77480953D02*
X146561905Y-77480953D01*
X146676190Y-77557143D01*
X146752381Y-77633334D01*
X146790476Y-77709524D01*
X146561905Y-76528571D02*
X146561905Y-76909524D01*
X146942857Y-76947619D01*
X146904762Y-76909524D01*
X146866667Y-76833333D01*
X146866667Y-76642857D01*
X146904762Y-76566667D01*
X146942857Y-76528571D01*
X147019048Y-76490476D01*
X147209524Y-76490476D01*
X147285714Y-76528571D01*
X147323810Y-76566667D01*
X147361905Y-76642857D01*
X147361905Y-76833333D01*
X147323810Y-76909524D01*
X147285714Y-76947619D01*
X161735714Y-84361905D02*
X161469047Y-83980952D01*
X161278571Y-84361905D02*
X161278571Y-83561905D01*
X161583333Y-83561905D01*
X161659524Y-83600000D01*
X161697619Y-83638095D01*
X161735714Y-83714286D01*
X161735714Y-83828571D01*
X161697619Y-83904762D01*
X161659524Y-83942857D01*
X161583333Y-83980952D01*
X161278571Y-83980952D01*
X162497619Y-84361905D02*
X162040476Y-84361905D01*
X162269047Y-84361905D02*
X162269047Y-83561905D01*
X162192857Y-83676190D01*
X162116666Y-83752381D01*
X162040476Y-83790476D01*
X163183333Y-83561905D02*
X163030952Y-83561905D01*
X162954762Y-83600000D01*
X162916667Y-83638095D01*
X162840476Y-83752381D01*
X162802381Y-83904762D01*
X162802381Y-84209524D01*
X162840476Y-84285714D01*
X162878571Y-84323810D01*
X162954762Y-84361905D01*
X163107143Y-84361905D01*
X163183333Y-84323810D01*
X163221429Y-84285714D01*
X163259524Y-84209524D01*
X163259524Y-84019048D01*
X163221429Y-83942857D01*
X163183333Y-83904762D01*
X163107143Y-83866667D01*
X162954762Y-83866667D01*
X162878571Y-83904762D01*
X162840476Y-83942857D01*
X162802381Y-84019048D01*
X157361905Y-93014286D02*
X156980952Y-93280953D01*
X157361905Y-93471429D02*
X156561905Y-93471429D01*
X156561905Y-93166667D01*
X156600000Y-93090476D01*
X156638095Y-93052381D01*
X156714286Y-93014286D01*
X156828571Y-93014286D01*
X156904762Y-93052381D01*
X156942857Y-93090476D01*
X156980952Y-93166667D01*
X156980952Y-93471429D01*
X157361905Y-92252381D02*
X157361905Y-92709524D01*
X157361905Y-92480953D02*
X156561905Y-92480953D01*
X156676190Y-92557143D01*
X156752381Y-92633334D01*
X156790476Y-92709524D01*
X156904762Y-91795238D02*
X156866667Y-91871429D01*
X156828571Y-91909524D01*
X156752381Y-91947619D01*
X156714286Y-91947619D01*
X156638095Y-91909524D01*
X156600000Y-91871429D01*
X156561905Y-91795238D01*
X156561905Y-91642857D01*
X156600000Y-91566667D01*
X156638095Y-91528571D01*
X156714286Y-91490476D01*
X156752381Y-91490476D01*
X156828571Y-91528571D01*
X156866667Y-91566667D01*
X156904762Y-91642857D01*
X156904762Y-91795238D01*
X156942857Y-91871429D01*
X156980952Y-91909524D01*
X157057143Y-91947619D01*
X157209524Y-91947619D01*
X157285714Y-91909524D01*
X157323810Y-91871429D01*
X157361905Y-91795238D01*
X157361905Y-91642857D01*
X157323810Y-91566667D01*
X157285714Y-91528571D01*
X157209524Y-91490476D01*
X157057143Y-91490476D01*
X156980952Y-91528571D01*
X156942857Y-91566667D01*
X156904762Y-91642857D01*
X161735714Y-83361905D02*
X161469047Y-82980952D01*
X161278571Y-83361905D02*
X161278571Y-82561905D01*
X161583333Y-82561905D01*
X161659524Y-82600000D01*
X161697619Y-82638095D01*
X161735714Y-82714286D01*
X161735714Y-82828571D01*
X161697619Y-82904762D01*
X161659524Y-82942857D01*
X161583333Y-82980952D01*
X161278571Y-82980952D01*
X162497619Y-83361905D02*
X162040476Y-83361905D01*
X162269047Y-83361905D02*
X162269047Y-82561905D01*
X162192857Y-82676190D01*
X162116666Y-82752381D01*
X162040476Y-82790476D01*
X162764286Y-82561905D02*
X163297619Y-82561905D01*
X162954762Y-83361905D01*
X161735714Y-81861905D02*
X161469047Y-81480952D01*
X161278571Y-81861905D02*
X161278571Y-81061905D01*
X161583333Y-81061905D01*
X161659524Y-81100000D01*
X161697619Y-81138095D01*
X161735714Y-81214286D01*
X161735714Y-81328571D01*
X161697619Y-81404762D01*
X161659524Y-81442857D01*
X161583333Y-81480952D01*
X161278571Y-81480952D01*
X162497619Y-81861905D02*
X162040476Y-81861905D01*
X162269047Y-81861905D02*
X162269047Y-81061905D01*
X162192857Y-81176190D01*
X162116666Y-81252381D01*
X162040476Y-81290476D01*
X162878571Y-81861905D02*
X163030952Y-81861905D01*
X163107143Y-81823810D01*
X163145238Y-81785714D01*
X163221429Y-81671429D01*
X163259524Y-81519048D01*
X163259524Y-81214286D01*
X163221429Y-81138095D01*
X163183333Y-81100000D01*
X163107143Y-81061905D01*
X162954762Y-81061905D01*
X162878571Y-81100000D01*
X162840476Y-81138095D01*
X162802381Y-81214286D01*
X162802381Y-81404762D01*
X162840476Y-81480952D01*
X162878571Y-81519048D01*
X162954762Y-81557143D01*
X163107143Y-81557143D01*
X163183333Y-81519048D01*
X163221429Y-81480952D01*
X163259524Y-81404762D01*
X161735714Y-80861905D02*
X161469047Y-80480952D01*
X161278571Y-80861905D02*
X161278571Y-80061905D01*
X161583333Y-80061905D01*
X161659524Y-80100000D01*
X161697619Y-80138095D01*
X161735714Y-80214286D01*
X161735714Y-80328571D01*
X161697619Y-80404762D01*
X161659524Y-80442857D01*
X161583333Y-80480952D01*
X161278571Y-80480952D01*
X162040476Y-80138095D02*
X162078571Y-80100000D01*
X162154762Y-80061905D01*
X162345238Y-80061905D01*
X162421428Y-80100000D01*
X162459524Y-80138095D01*
X162497619Y-80214286D01*
X162497619Y-80290476D01*
X162459524Y-80404762D01*
X162002381Y-80861905D01*
X162497619Y-80861905D01*
X162992857Y-80061905D02*
X163069048Y-80061905D01*
X163145238Y-80100000D01*
X163183333Y-80138095D01*
X163221429Y-80214286D01*
X163259524Y-80366667D01*
X163259524Y-80557143D01*
X163221429Y-80709524D01*
X163183333Y-80785714D01*
X163145238Y-80823810D01*
X163069048Y-80861905D01*
X162992857Y-80861905D01*
X162916667Y-80823810D01*
X162878571Y-80785714D01*
X162840476Y-80709524D01*
X162802381Y-80557143D01*
X162802381Y-80366667D01*
X162840476Y-80214286D01*
X162878571Y-80138095D01*
X162916667Y-80100000D01*
X162992857Y-80061905D01*
X167361905Y-82014286D02*
X166980952Y-82280953D01*
X167361905Y-82471429D02*
X166561905Y-82471429D01*
X166561905Y-82166667D01*
X166600000Y-82090476D01*
X166638095Y-82052381D01*
X166714286Y-82014286D01*
X166828571Y-82014286D01*
X166904762Y-82052381D01*
X166942857Y-82090476D01*
X166980952Y-82166667D01*
X166980952Y-82471429D01*
X166638095Y-81709524D02*
X166600000Y-81671429D01*
X166561905Y-81595238D01*
X166561905Y-81404762D01*
X166600000Y-81328572D01*
X166638095Y-81290476D01*
X166714286Y-81252381D01*
X166790476Y-81252381D01*
X166904762Y-81290476D01*
X167361905Y-81747619D01*
X167361905Y-81252381D01*
X166561905Y-80985714D02*
X166561905Y-80490476D01*
X166866667Y-80757143D01*
X166866667Y-80642857D01*
X166904762Y-80566667D01*
X166942857Y-80528571D01*
X167019048Y-80490476D01*
X167209524Y-80490476D01*
X167285714Y-80528571D01*
X167323810Y-80566667D01*
X167361905Y-80642857D01*
X167361905Y-80871429D01*
X167323810Y-80947619D01*
X167285714Y-80985714D01*
X167361905Y-79014286D02*
X166980952Y-79280953D01*
X167361905Y-79471429D02*
X166561905Y-79471429D01*
X166561905Y-79166667D01*
X166600000Y-79090476D01*
X166638095Y-79052381D01*
X166714286Y-79014286D01*
X166828571Y-79014286D01*
X166904762Y-79052381D01*
X166942857Y-79090476D01*
X166980952Y-79166667D01*
X166980952Y-79471429D01*
X166638095Y-78709524D02*
X166600000Y-78671429D01*
X166561905Y-78595238D01*
X166561905Y-78404762D01*
X166600000Y-78328572D01*
X166638095Y-78290476D01*
X166714286Y-78252381D01*
X166790476Y-78252381D01*
X166904762Y-78290476D01*
X167361905Y-78747619D01*
X167361905Y-78252381D01*
X166828571Y-77566667D02*
X167361905Y-77566667D01*
X166523810Y-77757143D02*
X167095238Y-77947619D01*
X167095238Y-77452381D01*
X168485714Y-83861905D02*
X168219047Y-83480952D01*
X168028571Y-83861905D02*
X168028571Y-83061905D01*
X168333333Y-83061905D01*
X168409524Y-83100000D01*
X168447619Y-83138095D01*
X168485714Y-83214286D01*
X168485714Y-83328571D01*
X168447619Y-83404762D01*
X168409524Y-83442857D01*
X168333333Y-83480952D01*
X168028571Y-83480952D01*
X168790476Y-83138095D02*
X168828571Y-83100000D01*
X168904762Y-83061905D01*
X169095238Y-83061905D01*
X169171428Y-83100000D01*
X169209524Y-83138095D01*
X169247619Y-83214286D01*
X169247619Y-83290476D01*
X169209524Y-83404762D01*
X168752381Y-83861905D01*
X169247619Y-83861905D01*
X169628571Y-83861905D02*
X169780952Y-83861905D01*
X169857143Y-83823810D01*
X169895238Y-83785714D01*
X169971429Y-83671429D01*
X170009524Y-83519048D01*
X170009524Y-83214286D01*
X169971429Y-83138095D01*
X169933333Y-83100000D01*
X169857143Y-83061905D01*
X169704762Y-83061905D01*
X169628571Y-83100000D01*
X169590476Y-83138095D01*
X169552381Y-83214286D01*
X169552381Y-83404762D01*
X169590476Y-83480952D01*
X169628571Y-83519048D01*
X169704762Y-83557143D01*
X169857143Y-83557143D01*
X169933333Y-83519048D01*
X169971429Y-83480952D01*
X170009524Y-83404762D01*
X168485714Y-76861905D02*
X168219047Y-76480952D01*
X168028571Y-76861905D02*
X168028571Y-76061905D01*
X168333333Y-76061905D01*
X168409524Y-76100000D01*
X168447619Y-76138095D01*
X168485714Y-76214286D01*
X168485714Y-76328571D01*
X168447619Y-76404762D01*
X168409524Y-76442857D01*
X168333333Y-76480952D01*
X168028571Y-76480952D01*
X168752381Y-76061905D02*
X169247619Y-76061905D01*
X168980952Y-76366667D01*
X169095238Y-76366667D01*
X169171428Y-76404762D01*
X169209524Y-76442857D01*
X169247619Y-76519048D01*
X169247619Y-76709524D01*
X169209524Y-76785714D01*
X169171428Y-76823810D01*
X169095238Y-76861905D01*
X168866666Y-76861905D01*
X168790476Y-76823810D01*
X168752381Y-76785714D01*
X169742857Y-76061905D02*
X169819048Y-76061905D01*
X169895238Y-76100000D01*
X169933333Y-76138095D01*
X169971429Y-76214286D01*
X170009524Y-76366667D01*
X170009524Y-76557143D01*
X169971429Y-76709524D01*
X169933333Y-76785714D01*
X169895238Y-76823810D01*
X169819048Y-76861905D01*
X169742857Y-76861905D01*
X169666667Y-76823810D01*
X169628571Y-76785714D01*
X169590476Y-76709524D01*
X169552381Y-76557143D01*
X169552381Y-76366667D01*
X169590476Y-76214286D01*
X169628571Y-76138095D01*
X169666667Y-76100000D01*
X169742857Y-76061905D01*
X171485714Y-83861905D02*
X171219047Y-83480952D01*
X171028571Y-83861905D02*
X171028571Y-83061905D01*
X171333333Y-83061905D01*
X171409524Y-83100000D01*
X171447619Y-83138095D01*
X171485714Y-83214286D01*
X171485714Y-83328571D01*
X171447619Y-83404762D01*
X171409524Y-83442857D01*
X171333333Y-83480952D01*
X171028571Y-83480952D01*
X171752381Y-83061905D02*
X172247619Y-83061905D01*
X171980952Y-83366667D01*
X172095238Y-83366667D01*
X172171428Y-83404762D01*
X172209524Y-83442857D01*
X172247619Y-83519048D01*
X172247619Y-83709524D01*
X172209524Y-83785714D01*
X172171428Y-83823810D01*
X172095238Y-83861905D01*
X171866666Y-83861905D01*
X171790476Y-83823810D01*
X171752381Y-83785714D01*
X173009524Y-83861905D02*
X172552381Y-83861905D01*
X172780952Y-83861905D02*
X172780952Y-83061905D01*
X172704762Y-83176190D01*
X172628571Y-83252381D01*
X172552381Y-83290476D01*
X171485714Y-76861905D02*
X171219047Y-76480952D01*
X171028571Y-76861905D02*
X171028571Y-76061905D01*
X171333333Y-76061905D01*
X171409524Y-76100000D01*
X171447619Y-76138095D01*
X171485714Y-76214286D01*
X171485714Y-76328571D01*
X171447619Y-76404762D01*
X171409524Y-76442857D01*
X171333333Y-76480952D01*
X171028571Y-76480952D01*
X171752381Y-76061905D02*
X172247619Y-76061905D01*
X171980952Y-76366667D01*
X172095238Y-76366667D01*
X172171428Y-76404762D01*
X172209524Y-76442857D01*
X172247619Y-76519048D01*
X172247619Y-76709524D01*
X172209524Y-76785714D01*
X172171428Y-76823810D01*
X172095238Y-76861905D01*
X171866666Y-76861905D01*
X171790476Y-76823810D01*
X171752381Y-76785714D01*
X172552381Y-76138095D02*
X172590476Y-76100000D01*
X172666667Y-76061905D01*
X172857143Y-76061905D01*
X172933333Y-76100000D01*
X172971429Y-76138095D01*
X173009524Y-76214286D01*
X173009524Y-76290476D01*
X172971429Y-76404762D01*
X172514286Y-76861905D01*
X173009524Y-76861905D01*
X173361905Y-79014286D02*
X172980952Y-79280953D01*
X173361905Y-79471429D02*
X172561905Y-79471429D01*
X172561905Y-79166667D01*
X172600000Y-79090476D01*
X172638095Y-79052381D01*
X172714286Y-79014286D01*
X172828571Y-79014286D01*
X172904762Y-79052381D01*
X172942857Y-79090476D01*
X172980952Y-79166667D01*
X172980952Y-79471429D01*
X172561905Y-78747619D02*
X172561905Y-78252381D01*
X172866667Y-78519048D01*
X172866667Y-78404762D01*
X172904762Y-78328572D01*
X172942857Y-78290476D01*
X173019048Y-78252381D01*
X173209524Y-78252381D01*
X173285714Y-78290476D01*
X173323810Y-78328572D01*
X173361905Y-78404762D01*
X173361905Y-78633334D01*
X173323810Y-78709524D01*
X173285714Y-78747619D01*
X172561905Y-77566667D02*
X172561905Y-77719048D01*
X172600000Y-77795238D01*
X172638095Y-77833333D01*
X172752381Y-77909524D01*
X172904762Y-77947619D01*
X173209524Y-77947619D01*
X173285714Y-77909524D01*
X173323810Y-77871429D01*
X173361905Y-77795238D01*
X173361905Y-77642857D01*
X173323810Y-77566667D01*
X173285714Y-77528571D01*
X173209524Y-77490476D01*
X173019048Y-77490476D01*
X172942857Y-77528571D01*
X172904762Y-77566667D01*
X172866667Y-77642857D01*
X172866667Y-77795238D01*
X172904762Y-77871429D01*
X172942857Y-77909524D01*
X173019048Y-77947619D01*
X167361905Y-90014286D02*
X166980952Y-90280953D01*
X167361905Y-90471429D02*
X166561905Y-90471429D01*
X166561905Y-90166667D01*
X166600000Y-90090476D01*
X166638095Y-90052381D01*
X166714286Y-90014286D01*
X166828571Y-90014286D01*
X166904762Y-90052381D01*
X166942857Y-90090476D01*
X166980952Y-90166667D01*
X166980952Y-90471429D01*
X166638095Y-89709524D02*
X166600000Y-89671429D01*
X166561905Y-89595238D01*
X166561905Y-89404762D01*
X166600000Y-89328572D01*
X166638095Y-89290476D01*
X166714286Y-89252381D01*
X166790476Y-89252381D01*
X166904762Y-89290476D01*
X167361905Y-89747619D01*
X167361905Y-89252381D01*
X167361905Y-88490476D02*
X167361905Y-88947619D01*
X167361905Y-88719048D02*
X166561905Y-88719048D01*
X166676190Y-88795238D01*
X166752381Y-88871429D01*
X166790476Y-88947619D01*
X167361905Y-87014286D02*
X166980952Y-87280953D01*
X167361905Y-87471429D02*
X166561905Y-87471429D01*
X166561905Y-87166667D01*
X166600000Y-87090476D01*
X166638095Y-87052381D01*
X166714286Y-87014286D01*
X166828571Y-87014286D01*
X166904762Y-87052381D01*
X166942857Y-87090476D01*
X166980952Y-87166667D01*
X166980952Y-87471429D01*
X166638095Y-86709524D02*
X166600000Y-86671429D01*
X166561905Y-86595238D01*
X166561905Y-86404762D01*
X166600000Y-86328572D01*
X166638095Y-86290476D01*
X166714286Y-86252381D01*
X166790476Y-86252381D01*
X166904762Y-86290476D01*
X167361905Y-86747619D01*
X167361905Y-86252381D01*
X166638095Y-85947619D02*
X166600000Y-85909524D01*
X166561905Y-85833333D01*
X166561905Y-85642857D01*
X166600000Y-85566667D01*
X166638095Y-85528571D01*
X166714286Y-85490476D01*
X166790476Y-85490476D01*
X166904762Y-85528571D01*
X167361905Y-85985714D01*
X167361905Y-85490476D01*
X168485714Y-91861905D02*
X168219047Y-91480952D01*
X168028571Y-91861905D02*
X168028571Y-91061905D01*
X168333333Y-91061905D01*
X168409524Y-91100000D01*
X168447619Y-91138095D01*
X168485714Y-91214286D01*
X168485714Y-91328571D01*
X168447619Y-91404762D01*
X168409524Y-91442857D01*
X168333333Y-91480952D01*
X168028571Y-91480952D01*
X168790476Y-91138095D02*
X168828571Y-91100000D01*
X168904762Y-91061905D01*
X169095238Y-91061905D01*
X169171428Y-91100000D01*
X169209524Y-91138095D01*
X169247619Y-91214286D01*
X169247619Y-91290476D01*
X169209524Y-91404762D01*
X168752381Y-91861905D01*
X169247619Y-91861905D01*
X169971429Y-91061905D02*
X169590476Y-91061905D01*
X169552381Y-91442857D01*
X169590476Y-91404762D01*
X169666667Y-91366667D01*
X169857143Y-91366667D01*
X169933333Y-91404762D01*
X169971429Y-91442857D01*
X170009524Y-91519048D01*
X170009524Y-91709524D01*
X169971429Y-91785714D01*
X169933333Y-91823810D01*
X169857143Y-91861905D01*
X169666667Y-91861905D01*
X169590476Y-91823810D01*
X169552381Y-91785714D01*
X168485714Y-84861905D02*
X168219047Y-84480952D01*
X168028571Y-84861905D02*
X168028571Y-84061905D01*
X168333333Y-84061905D01*
X168409524Y-84100000D01*
X168447619Y-84138095D01*
X168485714Y-84214286D01*
X168485714Y-84328571D01*
X168447619Y-84404762D01*
X168409524Y-84442857D01*
X168333333Y-84480952D01*
X168028571Y-84480952D01*
X168790476Y-84138095D02*
X168828571Y-84100000D01*
X168904762Y-84061905D01*
X169095238Y-84061905D01*
X169171428Y-84100000D01*
X169209524Y-84138095D01*
X169247619Y-84214286D01*
X169247619Y-84290476D01*
X169209524Y-84404762D01*
X168752381Y-84861905D01*
X169247619Y-84861905D01*
X169933333Y-84061905D02*
X169780952Y-84061905D01*
X169704762Y-84100000D01*
X169666667Y-84138095D01*
X169590476Y-84252381D01*
X169552381Y-84404762D01*
X169552381Y-84709524D01*
X169590476Y-84785714D01*
X169628571Y-84823810D01*
X169704762Y-84861905D01*
X169857143Y-84861905D01*
X169933333Y-84823810D01*
X169971429Y-84785714D01*
X170009524Y-84709524D01*
X170009524Y-84519048D01*
X169971429Y-84442857D01*
X169933333Y-84404762D01*
X169857143Y-84366667D01*
X169704762Y-84366667D01*
X169628571Y-84404762D01*
X169590476Y-84442857D01*
X169552381Y-84519048D01*
X171485714Y-84861905D02*
X171219047Y-84480952D01*
X171028571Y-84861905D02*
X171028571Y-84061905D01*
X171333333Y-84061905D01*
X171409524Y-84100000D01*
X171447619Y-84138095D01*
X171485714Y-84214286D01*
X171485714Y-84328571D01*
X171447619Y-84404762D01*
X171409524Y-84442857D01*
X171333333Y-84480952D01*
X171028571Y-84480952D01*
X171790476Y-84138095D02*
X171828571Y-84100000D01*
X171904762Y-84061905D01*
X172095238Y-84061905D01*
X172171428Y-84100000D01*
X172209524Y-84138095D01*
X172247619Y-84214286D01*
X172247619Y-84290476D01*
X172209524Y-84404762D01*
X171752381Y-84861905D01*
X172247619Y-84861905D01*
X172704762Y-84404762D02*
X172628571Y-84366667D01*
X172590476Y-84328571D01*
X172552381Y-84252381D01*
X172552381Y-84214286D01*
X172590476Y-84138095D01*
X172628571Y-84100000D01*
X172704762Y-84061905D01*
X172857143Y-84061905D01*
X172933333Y-84100000D01*
X172971429Y-84138095D01*
X173009524Y-84214286D01*
X173009524Y-84252381D01*
X172971429Y-84328571D01*
X172933333Y-84366667D01*
X172857143Y-84404762D01*
X172704762Y-84404762D01*
X172628571Y-84442857D01*
X172590476Y-84480952D01*
X172552381Y-84557143D01*
X172552381Y-84709524D01*
X172590476Y-84785714D01*
X172628571Y-84823810D01*
X172704762Y-84861905D01*
X172857143Y-84861905D01*
X172933333Y-84823810D01*
X172971429Y-84785714D01*
X173009524Y-84709524D01*
X173009524Y-84557143D01*
X172971429Y-84480952D01*
X172933333Y-84442857D01*
X172857143Y-84404762D01*
X173361905Y-87014286D02*
X172980952Y-87280953D01*
X173361905Y-87471429D02*
X172561905Y-87471429D01*
X172561905Y-87166667D01*
X172600000Y-87090476D01*
X172638095Y-87052381D01*
X172714286Y-87014286D01*
X172828571Y-87014286D01*
X172904762Y-87052381D01*
X172942857Y-87090476D01*
X172980952Y-87166667D01*
X172980952Y-87471429D01*
X172561905Y-86747619D02*
X172561905Y-86252381D01*
X172866667Y-86519048D01*
X172866667Y-86404762D01*
X172904762Y-86328572D01*
X172942857Y-86290476D01*
X173019048Y-86252381D01*
X173209524Y-86252381D01*
X173285714Y-86290476D01*
X173323810Y-86328572D01*
X173361905Y-86404762D01*
X173361905Y-86633334D01*
X173323810Y-86709524D01*
X173285714Y-86747619D01*
X172828571Y-85566667D02*
X173361905Y-85566667D01*
X172523810Y-85757143D02*
X173095238Y-85947619D01*
X173095238Y-85452381D01*
X173735714Y-82361905D02*
X173469047Y-81980952D01*
X173278571Y-82361905D02*
X173278571Y-81561905D01*
X173583333Y-81561905D01*
X173659524Y-81600000D01*
X173697619Y-81638095D01*
X173735714Y-81714286D01*
X173735714Y-81828571D01*
X173697619Y-81904762D01*
X173659524Y-81942857D01*
X173583333Y-81980952D01*
X173278571Y-81980952D01*
X174002381Y-81561905D02*
X174497619Y-81561905D01*
X174230952Y-81866667D01*
X174345238Y-81866667D01*
X174421428Y-81904762D01*
X174459524Y-81942857D01*
X174497619Y-82019048D01*
X174497619Y-82209524D01*
X174459524Y-82285714D01*
X174421428Y-82323810D01*
X174345238Y-82361905D01*
X174116666Y-82361905D01*
X174040476Y-82323810D01*
X174002381Y-82285714D01*
X175221429Y-81561905D02*
X174840476Y-81561905D01*
X174802381Y-81942857D01*
X174840476Y-81904762D01*
X174916667Y-81866667D01*
X175107143Y-81866667D01*
X175183333Y-81904762D01*
X175221429Y-81942857D01*
X175259524Y-82019048D01*
X175259524Y-82209524D01*
X175221429Y-82285714D01*
X175183333Y-82323810D01*
X175107143Y-82361905D01*
X174916667Y-82361905D01*
X174840476Y-82323810D01*
X174802381Y-82285714D01*
X173735714Y-90361905D02*
X173469047Y-89980952D01*
X173278571Y-90361905D02*
X173278571Y-89561905D01*
X173583333Y-89561905D01*
X173659524Y-89600000D01*
X173697619Y-89638095D01*
X173735714Y-89714286D01*
X173735714Y-89828571D01*
X173697619Y-89904762D01*
X173659524Y-89942857D01*
X173583333Y-89980952D01*
X173278571Y-89980952D01*
X174002381Y-89561905D02*
X174497619Y-89561905D01*
X174230952Y-89866667D01*
X174345238Y-89866667D01*
X174421428Y-89904762D01*
X174459524Y-89942857D01*
X174497619Y-90019048D01*
X174497619Y-90209524D01*
X174459524Y-90285714D01*
X174421428Y-90323810D01*
X174345238Y-90361905D01*
X174116666Y-90361905D01*
X174040476Y-90323810D01*
X174002381Y-90285714D01*
X174764286Y-89561905D02*
X175259524Y-89561905D01*
X174992857Y-89866667D01*
X175107143Y-89866667D01*
X175183333Y-89904762D01*
X175221429Y-89942857D01*
X175259524Y-90019048D01*
X175259524Y-90209524D01*
X175221429Y-90285714D01*
X175183333Y-90323810D01*
X175107143Y-90361905D01*
X174878571Y-90361905D01*
X174802381Y-90323810D01*
X174764286Y-90285714D01*
M02*
