G04 #@! TF.FileFunction,Soldermask,Bot*
%FSLAX46Y46*%
G04 Gerber Fmt 4.6, Leading zero omitted, Abs format (unit mm)*
G04 Created by KiCad (PCBNEW (2014-11-08 BZR 5258)-product) date Tue 11 Nov 2014 10:04:59 AM EST*
%MOMM*%
G01*
G04 APERTURE LIST*
%ADD10C,0.100000*%
%ADD11R,1.050000X1.800000*%
%ADD12R,1.524000X1.524000*%
%ADD13C,1.524000*%
%ADD14R,2.300000X1.500000*%
%ADD15R,1.524000X2.286000*%
%ADD16O,1.524000X2.286000*%
%ADD17R,0.650000X0.600000*%
%ADD18R,0.600000X0.650000*%
%ADD19R,1.150000X1.450000*%
%ADD20R,1.450000X1.150000*%
%ADD21R,0.700000X0.650000*%
%ADD22R,0.650000X0.700000*%
%ADD23R,2.500000X2.500000*%
%ADD24C,0.254000*%
G04 APERTURE END LIST*
D10*
D11*
X165000000Y-92750000D03*
X162000000Y-92750000D03*
D12*
X173249680Y-72500000D03*
D13*
X170750320Y-72500000D03*
D14*
X169850000Y-70000000D03*
X174150000Y-70000000D03*
D15*
X177640000Y-97630000D03*
D16*
X180180000Y-97630000D03*
X182720000Y-97630000D03*
X160020000Y-94996000D03*
X162560000Y-94996000D03*
X165100000Y-94996000D03*
X167640000Y-94996000D03*
X167640000Y-98044000D03*
X165100000Y-98044000D03*
X162560000Y-98044000D03*
X160020000Y-98044000D03*
X170180000Y-98044000D03*
X170180000Y-94996000D03*
X157480000Y-94996000D03*
X157480000Y-98044000D03*
D15*
X147320000Y-98044000D03*
D16*
X149860000Y-98044000D03*
X152400000Y-98044000D03*
X154940000Y-98044000D03*
X154940000Y-94996000D03*
X152400000Y-94996000D03*
X149860000Y-94996000D03*
X147320000Y-94996000D03*
D12*
X166249680Y-72500000D03*
D13*
X163750320Y-72500000D03*
D17*
X148550000Y-85750000D03*
X149450000Y-85750000D03*
X148550000Y-83750000D03*
X149450000Y-83750000D03*
X148550000Y-82250000D03*
X149450000Y-82250000D03*
D18*
X150500000Y-79550000D03*
X150500000Y-80450000D03*
X153000000Y-79550000D03*
X153000000Y-80450000D03*
X155750000Y-79550000D03*
X155750000Y-80450000D03*
D17*
X157450000Y-82250000D03*
X156550000Y-82250000D03*
D18*
X151000000Y-88450000D03*
X151000000Y-87550000D03*
D17*
X157450000Y-84750000D03*
X156550000Y-84750000D03*
D18*
X155750000Y-88450000D03*
X155750000Y-87550000D03*
D19*
X148100000Y-87000000D03*
X149900000Y-87000000D03*
D20*
X149000000Y-80900000D03*
X149000000Y-79100000D03*
X155750000Y-89600000D03*
X155750000Y-91400000D03*
X157500000Y-79100000D03*
X157500000Y-80900000D03*
D19*
X152350000Y-87750000D03*
X154150000Y-87750000D03*
D20*
X158250000Y-85850000D03*
X158250000Y-87650000D03*
D19*
X148100000Y-90250000D03*
X149900000Y-90250000D03*
D17*
X170050000Y-80500000D03*
X170950000Y-80500000D03*
X169050000Y-81500000D03*
X169950000Y-81500000D03*
X171050000Y-81500000D03*
X171950000Y-81500000D03*
D19*
X167600000Y-83000000D03*
X169400000Y-83000000D03*
D17*
X170050000Y-88500000D03*
X170950000Y-88500000D03*
X169050000Y-89500000D03*
X169950000Y-89500000D03*
X171050000Y-89500000D03*
X171950000Y-89500000D03*
D19*
X167600000Y-91000000D03*
X169400000Y-91000000D03*
D21*
X150500000Y-78450000D03*
X150500000Y-77550000D03*
X176750000Y-94300000D03*
X176750000Y-95200000D03*
X183500000Y-94550000D03*
X183500000Y-95450000D03*
D22*
X166050000Y-93000000D03*
X166950000Y-93000000D03*
D23*
X161000000Y-87500000D03*
X162500000Y-90250000D03*
D19*
X171600000Y-83000000D03*
X173400000Y-83000000D03*
X171600000Y-91000000D03*
X173400000Y-91000000D03*
D14*
X167150000Y-70000000D03*
X162850000Y-70000000D03*
X174150000Y-75000000D03*
X169850000Y-75000000D03*
D11*
X175250000Y-94000000D03*
X172250000Y-94000000D03*
X181000000Y-91000000D03*
X178000000Y-91000000D03*
D24*
G36*
X155623000Y-86623000D02*
X150877000Y-86623000D01*
X150877000Y-85873000D01*
X150377000Y-85873000D01*
X150377000Y-81377000D01*
X155623000Y-81377000D01*
X155623000Y-86623000D01*
X155623000Y-86623000D01*
G37*
X155623000Y-86623000D02*
X150877000Y-86623000D01*
X150877000Y-85873000D01*
X150377000Y-85873000D01*
X150377000Y-81377000D01*
X155623000Y-81377000D01*
X155623000Y-86623000D01*
G36*
X157623000Y-73873000D02*
X150500000Y-73873000D01*
X150377000Y-73873000D01*
X150377000Y-70127000D01*
X157623000Y-70127000D01*
X157623000Y-73873000D01*
X157623000Y-73873000D01*
G37*
X157623000Y-73873000D02*
X150500000Y-73873000D01*
X150377000Y-73873000D01*
X150377000Y-70127000D01*
X157623000Y-70127000D01*
X157623000Y-73873000D01*
M02*
