%FSLAX46Y46*%
G04 Gerber Fmt 4.6, Leading zero omitted, Abs format (unit mm)*
G04 Created by KiCad (PCBNEW (2014-10-29 BZR 5235)-product) date 10/30/2014 3:07:56 PM*
%MOMM*%
G01*
G04 APERTURE LIST*
%ADD10C,0.100000*%
%ADD11C,0.200000*%
%ADD12R,1.050000X1.800000*%
%ADD13R,1.524000X1.524000*%
%ADD14C,1.524000*%
%ADD15R,2.300000X1.500000*%
%ADD16R,1.524000X2.286000*%
%ADD17O,1.524000X2.286000*%
%ADD18R,0.650000X0.600000*%
%ADD19R,0.600000X0.650000*%
%ADD20R,1.150000X1.450000*%
%ADD21R,1.450000X1.150000*%
%ADD22R,0.700000X0.650000*%
%ADD23R,0.650000X0.700000*%
%ADD24R,2.500000X2.500000*%
%ADD25R,1.800000X1.050000*%
%ADD26C,0.600000*%
%ADD27C,0.600000*%
%ADD28C,0.500000*%
%ADD29C,1.000000*%
%ADD30C,0.800000*%
%ADD31C,0.400000*%
%ADD32C,0.141500*%
%ADD33C,0.250000*%
%ADD34C,0.254000*%
G04 APERTURE END LIST*
D10*
D11*
X156380952Y-70652381D02*
X156142857Y-71652381D01*
X155952380Y-70938095D01*
X155761904Y-71652381D01*
X155523809Y-70652381D01*
X154571428Y-71557143D02*
X154619047Y-71604762D01*
X154761904Y-71652381D01*
X154857142Y-71652381D01*
X155000000Y-71604762D01*
X155095238Y-71509524D01*
X155142857Y-71414286D01*
X155190476Y-71223810D01*
X155190476Y-71080952D01*
X155142857Y-70890476D01*
X155095238Y-70795238D01*
X155000000Y-70700000D01*
X154857142Y-70652381D01*
X154761904Y-70652381D01*
X154619047Y-70700000D01*
X154571428Y-70747619D01*
X154142857Y-71652381D02*
X154142857Y-70652381D01*
X153761904Y-70652381D01*
X153666666Y-70700000D01*
X153619047Y-70747619D01*
X153571428Y-70842857D01*
X153571428Y-70985714D01*
X153619047Y-71080952D01*
X153666666Y-71128571D01*
X153761904Y-71176190D01*
X154142857Y-71176190D01*
X152666666Y-70652381D02*
X153142857Y-70652381D01*
X153190476Y-71128571D01*
X153142857Y-71080952D01*
X153047619Y-71033333D01*
X152809523Y-71033333D01*
X152714285Y-71080952D01*
X152666666Y-71128571D01*
X152619047Y-71223810D01*
X152619047Y-71461905D01*
X152666666Y-71557143D01*
X152714285Y-71604762D01*
X152809523Y-71652381D01*
X153047619Y-71652381D01*
X153142857Y-71604762D01*
X153190476Y-71557143D01*
X152238095Y-70747619D02*
X152190476Y-70700000D01*
X152095238Y-70652381D01*
X151857142Y-70652381D01*
X151761904Y-70700000D01*
X151714285Y-70747619D01*
X151666666Y-70842857D01*
X151666666Y-70938095D01*
X151714285Y-71080952D01*
X152285714Y-71652381D01*
X151666666Y-71652381D01*
X157285714Y-72347619D02*
X157238095Y-72300000D01*
X157142857Y-72252381D01*
X156904761Y-72252381D01*
X156809523Y-72300000D01*
X156761904Y-72347619D01*
X156714285Y-72442857D01*
X156714285Y-72538095D01*
X156761904Y-72680952D01*
X157333333Y-73252381D01*
X156714285Y-73252381D01*
X156095238Y-72252381D02*
X155999999Y-72252381D01*
X155904761Y-72300000D01*
X155857142Y-72347619D01*
X155809523Y-72442857D01*
X155761904Y-72633333D01*
X155761904Y-72871429D01*
X155809523Y-73061905D01*
X155857142Y-73157143D01*
X155904761Y-73204762D01*
X155999999Y-73252381D01*
X156095238Y-73252381D01*
X156190476Y-73204762D01*
X156238095Y-73157143D01*
X156285714Y-73061905D01*
X156333333Y-72871429D01*
X156333333Y-72633333D01*
X156285714Y-72442857D01*
X156238095Y-72347619D01*
X156190476Y-72300000D01*
X156095238Y-72252381D01*
X154809523Y-73252381D02*
X155380952Y-73252381D01*
X155095238Y-73252381D02*
X155095238Y-72252381D01*
X155190476Y-72395238D01*
X155285714Y-72490476D01*
X155380952Y-72538095D01*
X153952380Y-72585714D02*
X153952380Y-73252381D01*
X154190476Y-72204762D02*
X154428571Y-72919048D01*
X153809523Y-72919048D01*
X153428571Y-72871429D02*
X152666666Y-72871429D01*
X151666666Y-73252381D02*
X152238095Y-73252381D01*
X151952381Y-73252381D02*
X151952381Y-72252381D01*
X152047619Y-72395238D01*
X152142857Y-72490476D01*
X152238095Y-72538095D01*
X151047619Y-72252381D02*
X150952380Y-72252381D01*
X150857142Y-72300000D01*
X150809523Y-72347619D01*
X150761904Y-72442857D01*
X150714285Y-72633333D01*
X150714285Y-72871429D01*
X150761904Y-73061905D01*
X150809523Y-73157143D01*
X150857142Y-73204762D01*
X150952380Y-73252381D01*
X151047619Y-73252381D01*
X151142857Y-73204762D01*
X151190476Y-73157143D01*
X151238095Y-73061905D01*
X151285714Y-72871429D01*
X151285714Y-72633333D01*
X151238095Y-72442857D01*
X151190476Y-72347619D01*
X151142857Y-72300000D01*
X151047619Y-72252381D01*
D12*
X165000000Y-92750000D03*
X162000000Y-92750000D03*
D13*
X173249680Y-72500000D03*
D14*
X170750320Y-72500000D03*
D15*
X169850000Y-70000000D03*
X174150000Y-70000000D03*
D16*
X172720000Y-97790000D03*
D17*
X175260000Y-97790000D03*
X177800000Y-97790000D03*
X160020000Y-94996000D03*
X162560000Y-94996000D03*
X165100000Y-94996000D03*
X167640000Y-94996000D03*
X167640000Y-98044000D03*
X165100000Y-98044000D03*
X162560000Y-98044000D03*
X160020000Y-98044000D03*
X170180000Y-98044000D03*
X170180000Y-94996000D03*
X157480000Y-94996000D03*
X157480000Y-98044000D03*
D16*
X147320000Y-98044000D03*
D17*
X149860000Y-98044000D03*
X152400000Y-98044000D03*
X154940000Y-98044000D03*
X154940000Y-94996000D03*
X152400000Y-94996000D03*
X149860000Y-94996000D03*
X147320000Y-94996000D03*
D13*
X166249680Y-72500000D03*
D14*
X163750320Y-72500000D03*
D18*
X148550000Y-85750000D03*
X149450000Y-85750000D03*
X148550000Y-83750000D03*
X149450000Y-83750000D03*
X148550000Y-82250000D03*
X149450000Y-82250000D03*
D19*
X150500000Y-79550000D03*
X150500000Y-80450000D03*
X153000000Y-79550000D03*
X153000000Y-80450000D03*
X155750000Y-79550000D03*
X155750000Y-80450000D03*
D18*
X157450000Y-82250000D03*
X156550000Y-82250000D03*
D19*
X151000000Y-88450000D03*
X151000000Y-87550000D03*
D18*
X157450000Y-84750000D03*
X156550000Y-84750000D03*
D19*
X155750000Y-88450000D03*
X155750000Y-87550000D03*
D20*
X148100000Y-87000000D03*
X149900000Y-87000000D03*
D21*
X149000000Y-80900000D03*
X149000000Y-79100000D03*
X155750000Y-89600000D03*
X155750000Y-91400000D03*
X157500000Y-79100000D03*
X157500000Y-80900000D03*
D20*
X152350000Y-87750000D03*
X154150000Y-87750000D03*
D21*
X158250000Y-85850000D03*
X158250000Y-87650000D03*
D20*
X148100000Y-90250000D03*
X149900000Y-90250000D03*
D18*
X170050000Y-80500000D03*
X170950000Y-80500000D03*
X169050000Y-81500000D03*
X169950000Y-81500000D03*
X171050000Y-81500000D03*
X171950000Y-81500000D03*
D20*
X167600000Y-83000000D03*
X169400000Y-83000000D03*
D18*
X170050000Y-88500000D03*
X170950000Y-88500000D03*
X169050000Y-89500000D03*
X169950000Y-89500000D03*
X171050000Y-89500000D03*
X171950000Y-89500000D03*
D20*
X167600000Y-91000000D03*
X169400000Y-91000000D03*
D22*
X150500000Y-78450000D03*
X150500000Y-77550000D03*
X176750000Y-94300000D03*
X176750000Y-95200000D03*
D23*
X180700000Y-98000000D03*
X179800000Y-98000000D03*
X166050000Y-93000000D03*
X166950000Y-93000000D03*
D24*
X161000000Y-87500000D03*
X162500000Y-90250000D03*
D20*
X171600000Y-83000000D03*
X173400000Y-83000000D03*
X171600000Y-91000000D03*
X173400000Y-91000000D03*
D15*
X167150000Y-70000000D03*
X162850000Y-70000000D03*
X174150000Y-75000000D03*
X169850000Y-75000000D03*
D12*
X175250000Y-94000000D03*
X172250000Y-94000000D03*
D25*
X182500000Y-98000000D03*
X182500000Y-95000000D03*
D26*
X167000000Y-80000000D03*
X163600000Y-79600000D03*
X163600000Y-87400000D03*
X153750000Y-77500000D03*
X160500000Y-76000000D03*
X158500000Y-76000000D03*
X156500000Y-76000000D03*
X154500000Y-76000000D03*
X162500000Y-76000000D03*
X160500000Y-78000000D03*
X162500000Y-78000000D03*
X149000000Y-91500000D03*
X157750000Y-69500000D03*
X150250000Y-69500000D03*
X175250000Y-77500000D03*
X174000000Y-77500000D03*
X172750000Y-77500000D03*
X174250000Y-85500000D03*
X172500000Y-85500000D03*
X170500000Y-91400000D03*
X157000000Y-88000000D03*
X154000000Y-85000000D03*
X152000000Y-85000000D03*
X154000000Y-83000000D03*
X152000000Y-83000000D03*
X155000000Y-84000000D03*
X155000000Y-86000000D03*
X153000000Y-86000000D03*
X151000000Y-86000000D03*
X153000000Y-84000000D03*
X155000000Y-82000000D03*
X151000000Y-82000000D03*
X176500000Y-85000000D03*
X178000000Y-85000000D03*
X179500000Y-85000000D03*
X181000000Y-85000000D03*
X182500000Y-85000000D03*
X176500000Y-77000000D03*
X178000000Y-77000000D03*
X179500000Y-77000000D03*
X181000000Y-77000000D03*
X182500000Y-77000000D03*
X176500000Y-93000000D03*
X178000000Y-93000000D03*
X179500000Y-93000000D03*
X181000000Y-93000000D03*
X182500000Y-93000000D03*
X166250000Y-86750000D03*
X148000000Y-79000000D03*
X153000000Y-82000000D03*
X151000000Y-84000000D03*
X170500000Y-83750000D03*
X149000000Y-88200000D03*
X165500000Y-90000000D03*
X165500000Y-91000000D03*
X184000000Y-89500000D03*
X184000000Y-88000000D03*
X184000000Y-86500000D03*
X184000000Y-85000000D03*
X184000000Y-83500000D03*
X184000000Y-82000000D03*
X184000000Y-80500000D03*
X184000000Y-79000000D03*
X184000000Y-77500000D03*
X152500000Y-69500000D03*
X155000000Y-69500000D03*
X179000000Y-70000000D03*
X181000000Y-70000000D03*
X181000000Y-71000000D03*
X179000000Y-71000000D03*
X152850021Y-89225114D03*
X156854438Y-88808537D03*
X184250000Y-73750000D03*
X183000000Y-73750000D03*
X183600000Y-72500000D03*
X184250000Y-71250000D03*
X183000000Y-71250000D03*
X151250000Y-77500000D03*
X149200000Y-89000000D03*
X169250000Y-88250000D03*
X169400000Y-80200000D03*
X169400000Y-80200000D03*
X172500000Y-88000000D03*
X172400000Y-80000000D03*
X167250000Y-89250000D03*
X159000000Y-84000000D03*
X167250000Y-86750000D03*
X159000000Y-83000000D03*
X167250000Y-81250000D03*
X167250000Y-81250000D03*
X159000000Y-81500000D03*
X167250000Y-78750000D03*
X167250000Y-78750000D03*
X159000000Y-80500000D03*
X163500000Y-81500000D03*
X165500000Y-82250000D03*
X163600000Y-85200000D03*
X166000000Y-85250000D03*
X168000000Y-88000846D03*
X168000000Y-79999151D03*
X160750000Y-79750000D03*
X160750000Y-84750000D03*
X160700000Y-82248955D03*
X147250000Y-80750000D03*
X147250000Y-85750000D03*
X147250000Y-84750000D03*
X147750000Y-84250000D03*
X147250000Y-83750000D03*
X147250000Y-82750000D03*
X147250000Y-81750000D03*
X147750000Y-81250000D03*
X156500000Y-79000000D03*
X158250000Y-84750000D03*
X148000000Y-89250000D03*
X151250000Y-78899998D03*
X153760729Y-78899998D03*
X158250000Y-82250000D03*
X158000000Y-91750000D03*
X157000000Y-91750000D03*
D27*
X149500000Y-91500000D02*
X149000000Y-91500000D01*
X149900000Y-91100000D02*
X149500000Y-91500000D01*
X149900000Y-90250000D02*
X149900000Y-91100000D01*
D11*
X171050000Y-89500000D02*
X170500000Y-90050000D01*
X170500000Y-90050000D02*
X170500000Y-91400000D01*
X169950000Y-89500000D02*
X170500000Y-90050000D01*
X171600000Y-91000000D02*
X170900000Y-91000000D01*
X170900000Y-91000000D02*
X170500000Y-91400000D01*
X169400000Y-91000000D02*
X170100000Y-91000000D01*
X170100000Y-91000000D02*
X170500000Y-91400000D01*
D27*
X170500000Y-83000000D02*
X171600000Y-83000000D01*
X169400000Y-83000000D02*
X170500000Y-83000000D01*
X170500000Y-81500000D02*
X171050000Y-81500000D01*
X169950000Y-81500000D02*
X170500000Y-81500000D01*
X157500000Y-80900000D02*
X156650000Y-80900000D01*
X156200000Y-80450000D02*
X155750000Y-80450000D01*
X156650000Y-80900000D02*
X156200000Y-80450000D01*
X155750000Y-80450000D02*
X153000000Y-80450000D01*
X153000000Y-80450000D02*
X150500000Y-80450000D01*
X150500000Y-80450000D02*
X150500000Y-81750000D01*
X150000000Y-82250000D02*
X149450000Y-82250000D01*
X150500000Y-81750000D02*
X150000000Y-82250000D01*
X149450000Y-82250000D02*
X149450000Y-83750000D01*
X149450000Y-83750000D02*
X149450000Y-85750000D01*
X150750000Y-85750000D02*
X151000000Y-86000000D01*
X149450000Y-85750000D02*
X150750000Y-85750000D01*
X151000000Y-86000000D02*
X151000000Y-87550000D01*
X149900000Y-87000000D02*
X150954187Y-87000000D01*
X155000000Y-86000000D02*
X154500000Y-86000000D01*
X154150000Y-86350000D02*
X154150000Y-87750000D01*
X154500000Y-86000000D02*
X154150000Y-86350000D01*
X154350000Y-87550000D02*
X154150000Y-87750000D01*
X155750000Y-87550000D02*
X154350000Y-87550000D01*
X157350000Y-87650000D02*
X157000000Y-88000000D01*
X158250000Y-87650000D02*
X157350000Y-87650000D01*
X158250000Y-87650000D02*
X156650000Y-87650000D01*
X156550000Y-87550000D02*
X155750000Y-87550000D01*
X156650000Y-87650000D02*
X156550000Y-87550000D01*
X155750000Y-84750000D02*
X155000000Y-84000000D01*
X156550000Y-84750000D02*
X155750000Y-84750000D01*
X155250000Y-82250000D02*
X155000000Y-82000000D01*
X156550000Y-82250000D02*
X155250000Y-82250000D01*
X148100000Y-79100000D02*
X148000000Y-79000000D01*
X149000000Y-79100000D02*
X148100000Y-79100000D01*
X153000000Y-80450000D02*
X153000000Y-82000000D01*
X155750000Y-81250000D02*
X155000000Y-82000000D01*
X155750000Y-80450000D02*
X155750000Y-81250000D01*
X150750000Y-83750000D02*
X151000000Y-84000000D01*
X149450000Y-83750000D02*
X150750000Y-83750000D01*
X170500000Y-83000000D02*
X170500000Y-83750000D01*
X170500000Y-81500000D02*
X170500000Y-83000000D01*
D28*
X149000000Y-88200000D02*
X149400000Y-88200000D01*
X149900000Y-87700000D02*
X149900000Y-87000000D01*
X149400000Y-88200000D02*
X149900000Y-87700000D01*
D29*
X162850000Y-71599680D02*
X163750320Y-72500000D01*
X162850000Y-70000000D02*
X162850000Y-71599680D01*
X169850000Y-71599680D02*
X170750320Y-72500000D01*
X169850000Y-70000000D02*
X169850000Y-71599680D01*
X169850000Y-73400320D02*
X169850000Y-75000000D01*
X170750320Y-72500000D02*
X169850000Y-73400320D01*
D27*
X150750000Y-82250000D02*
X151000000Y-82000000D01*
X149450000Y-82250000D02*
X150750000Y-82250000D01*
D29*
X165500000Y-74750000D02*
X148250000Y-74750000D01*
D27*
X152362059Y-89225114D02*
X152350000Y-89237173D01*
X152850021Y-89225114D02*
X152362059Y-89225114D01*
D29*
X152350000Y-87750000D02*
X152350000Y-89237173D01*
X167150000Y-71599680D02*
X166249680Y-72500000D01*
X167150000Y-70000000D02*
X167150000Y-71599680D01*
X147500000Y-93000000D02*
X150500000Y-93000000D01*
X146200000Y-91700000D02*
X147500000Y-93000000D01*
X146200000Y-76800000D02*
X146200000Y-91700000D01*
X148250000Y-74750000D02*
X146200000Y-76800000D01*
X148250000Y-74750000D02*
X148250000Y-74750000D01*
X152350000Y-91150000D02*
X152350000Y-89237173D01*
X165500000Y-74750000D02*
X166249680Y-74000320D01*
X166249680Y-74000320D02*
X166249680Y-72500000D01*
D27*
X151905197Y-91905197D02*
X151905197Y-91594803D01*
X153025008Y-93025008D02*
X151905197Y-91905197D01*
X160999992Y-93025008D02*
X153025008Y-93025008D01*
X162000000Y-92750000D02*
X161275000Y-92750000D01*
D29*
X151905197Y-91594803D02*
X152350000Y-91150000D01*
D27*
X161275000Y-92750000D02*
X160999992Y-93025008D01*
D29*
X150500000Y-93000000D02*
X151905197Y-91594803D01*
D27*
X151200000Y-77550000D02*
X151250000Y-77500000D01*
X150500000Y-77550000D02*
X151200000Y-77550000D01*
D11*
X150450000Y-89000000D02*
X151000000Y-88450000D01*
X149200000Y-89000000D02*
X150450000Y-89000000D01*
D27*
X155750000Y-89600000D02*
X155750000Y-88450000D01*
X156854438Y-88808537D02*
X156854438Y-89395562D01*
X156650000Y-89600000D02*
X155750000Y-89600000D01*
X156854438Y-89395562D02*
X156650000Y-89600000D01*
X172720000Y-97790000D02*
X172720000Y-96280000D01*
X172720000Y-96280000D02*
X173250000Y-95750000D01*
X173250000Y-95750000D02*
X175500000Y-95750000D01*
X175500000Y-95750000D02*
X176000000Y-96250000D01*
X176000000Y-96250000D02*
X176500000Y-96250000D01*
X176750000Y-96000000D02*
X176750000Y-95200000D01*
X176500000Y-96250000D02*
X176750000Y-96000000D01*
X167600000Y-92100000D02*
X167600000Y-91000000D01*
X169050000Y-86050000D02*
X167600000Y-84600000D01*
X167600000Y-84600000D02*
X167600000Y-83000000D01*
X169050000Y-88450000D02*
X169050000Y-86050000D01*
X170050000Y-88500000D02*
X169500000Y-88500000D01*
X169500000Y-88500000D02*
X169250000Y-88250000D01*
X169050000Y-89500000D02*
X169050000Y-88450000D01*
X169050000Y-88450000D02*
X169250000Y-88250000D01*
X167600000Y-90150000D02*
X168250000Y-89500000D01*
X168250000Y-89500000D02*
X169050000Y-89500000D01*
X167600000Y-91000000D02*
X167600000Y-90150000D01*
X170050000Y-80500000D02*
X169700000Y-80500000D01*
X169700000Y-80500000D02*
X169400000Y-80200000D01*
X169050000Y-81500000D02*
X169050000Y-80550000D01*
X169050000Y-80550000D02*
X169400000Y-80200000D01*
X167600000Y-82200000D02*
X168300000Y-81500000D01*
X168300000Y-81500000D02*
X169050000Y-81500000D01*
X167600000Y-83000000D02*
X167600000Y-82200000D01*
X167750000Y-92250000D02*
X167600000Y-92100000D01*
X167750000Y-92250000D02*
X169750000Y-92250000D01*
X171500000Y-94000000D02*
X172250000Y-94000000D01*
X169750000Y-92250000D02*
X171500000Y-94000000D01*
D29*
X169400000Y-80200000D02*
X169400000Y-77600000D01*
X169400000Y-77600000D02*
X170500000Y-76500000D01*
D30*
X170500000Y-76500000D02*
X171750000Y-76500000D01*
X173250000Y-75000000D02*
X174150000Y-75000000D01*
X171750000Y-76500000D02*
X173250000Y-75000000D01*
D27*
X172500000Y-88000000D02*
X173400000Y-87100000D01*
X173400000Y-87100000D02*
X173400000Y-83000000D01*
X170950000Y-88500000D02*
X171900000Y-88500000D01*
X171900000Y-88500000D02*
X171950000Y-88550000D01*
X171950000Y-89500000D02*
X171950000Y-88550000D01*
X171950000Y-88550000D02*
X172500000Y-88000000D01*
X173400000Y-90150000D02*
X172750000Y-89500000D01*
X172750000Y-89500000D02*
X171950000Y-89500000D01*
X173400000Y-91000000D02*
X173400000Y-90150000D01*
X170950000Y-80500000D02*
X171900000Y-80500000D01*
X171900000Y-80500000D02*
X171950000Y-80450000D01*
X171950000Y-81500000D02*
X171950000Y-80450000D01*
X171950000Y-80450000D02*
X172400000Y-80000000D01*
X173400000Y-82200000D02*
X172700000Y-81500000D01*
X172700000Y-81500000D02*
X171950000Y-81500000D01*
X173400000Y-83000000D02*
X173400000Y-82200000D01*
X173400000Y-91000000D02*
X183000000Y-91000000D01*
X183000000Y-91000000D02*
X184000000Y-92000000D01*
X184000000Y-92000000D02*
X184000000Y-94750000D01*
X183750000Y-95000000D02*
X182500000Y-95000000D01*
X184000000Y-94750000D02*
X183750000Y-95000000D01*
D29*
X174150000Y-70000000D02*
X176000000Y-70000000D01*
X176000000Y-70000000D02*
X177250000Y-71250000D01*
X177250000Y-71250000D02*
X177250000Y-76250000D01*
D31*
X177250000Y-76250000D02*
X177250000Y-77500000D01*
X177250000Y-77500000D02*
X177250000Y-78000000D01*
D29*
X177250000Y-78000000D02*
X177250000Y-81750000D01*
X176000000Y-83000000D02*
X173400000Y-83000000D01*
X177250000Y-81750000D02*
X176000000Y-83000000D01*
D27*
X177800000Y-97790000D02*
X179040000Y-97790000D01*
X179250000Y-98000000D02*
X179800000Y-98000000D01*
X179040000Y-97790000D02*
X179250000Y-98000000D01*
D32*
X167250000Y-89250000D02*
X167250000Y-88650000D01*
X167250000Y-88650000D02*
X166749910Y-88149910D01*
X165175773Y-88149909D02*
X160675774Y-83649910D01*
X166749910Y-88149910D02*
X165175773Y-88149909D01*
X160675774Y-83649910D02*
X159350090Y-83649910D01*
X159350090Y-83649910D02*
X159000000Y-84000000D01*
X159000000Y-83000000D02*
X159350000Y-83350000D01*
X165300000Y-87850000D02*
X166750000Y-87850000D01*
X159350000Y-83350000D02*
X160800000Y-83350000D01*
X160800000Y-83350000D02*
X165300000Y-87850000D01*
X166750000Y-87850000D02*
X167250000Y-87350000D01*
X167250000Y-87350000D02*
X167250000Y-86750000D01*
X159000000Y-81500000D02*
X159341599Y-81158401D01*
X159341599Y-81158401D02*
X161996521Y-81158401D01*
X165700090Y-80149910D02*
X166149910Y-80149910D01*
X161996521Y-81158401D02*
X162290000Y-81451880D01*
X164201880Y-82810000D02*
X164708399Y-82303481D01*
X164708399Y-82303481D02*
X164708399Y-81141601D01*
X166149910Y-80149910D02*
X167250000Y-81250000D01*
X162290000Y-81451880D02*
X162290000Y-82301880D01*
X162290000Y-82301880D02*
X162798120Y-82810000D01*
X162798120Y-82810000D02*
X164201880Y-82810000D01*
X164708399Y-81141601D02*
X165700090Y-80149910D01*
X167250000Y-81250000D02*
X167250000Y-81150000D01*
X167250000Y-78750000D02*
X167250000Y-78850000D01*
X167250000Y-78850000D02*
X166250000Y-79850000D01*
X162922256Y-82510000D02*
X162591510Y-82179254D01*
X166250000Y-79850000D02*
X165537744Y-79850000D01*
X165537744Y-79850000D02*
X164408490Y-80979253D01*
X162120747Y-80858491D02*
X159358491Y-80858491D01*
X164408490Y-80979253D02*
X164408490Y-82179254D01*
X162591510Y-82179254D02*
X162591510Y-81329253D01*
X164408490Y-82179254D02*
X164077744Y-82510000D01*
X162591510Y-81329253D02*
X162120747Y-80858491D01*
X164077744Y-82510000D02*
X162922256Y-82510000D01*
X159358491Y-80858491D02*
X159000000Y-80500000D01*
X159000000Y-80500000D02*
X159350000Y-80850000D01*
D27*
X176750000Y-94300000D02*
X176300000Y-94300000D01*
X176000000Y-94000000D02*
X175250000Y-94000000D01*
X176300000Y-94300000D02*
X176000000Y-94000000D01*
X180700000Y-98000000D02*
X182500000Y-98000000D01*
X147250000Y-82750000D02*
X147250000Y-82211863D01*
X147250000Y-82211863D02*
X147250000Y-81750000D01*
X148550000Y-82250000D02*
X147288137Y-82250000D01*
X147288137Y-82250000D02*
X147250000Y-82211863D01*
X156500000Y-79000000D02*
X157400000Y-79000000D01*
X157400000Y-79000000D02*
X157500000Y-79100000D01*
X157450000Y-84750000D02*
X158250000Y-84750000D01*
X158250000Y-84750000D02*
X158250000Y-85850000D01*
X148100000Y-89350000D02*
X148000000Y-89250000D01*
X148100000Y-90250000D02*
X148100000Y-89350000D01*
X148000000Y-87100000D02*
X148100000Y-87000000D01*
X148000000Y-89250000D02*
X148000000Y-87100000D01*
X148550000Y-85750000D02*
X147250000Y-85750000D01*
X148100000Y-87000000D02*
X148100000Y-85939500D01*
X147250000Y-84750000D02*
X147750000Y-84250000D01*
X147250000Y-83750000D02*
X147750000Y-84250000D01*
X147250000Y-84750000D02*
X147250000Y-85750000D01*
X147250000Y-83750000D02*
X147250000Y-82750000D01*
X148250000Y-83750000D02*
X148550000Y-83750000D01*
X147750000Y-84250000D02*
X148250000Y-83750000D01*
X147750000Y-81250000D02*
X147250000Y-81750000D01*
X147250000Y-80750000D02*
X147750000Y-81250000D01*
X148100000Y-80900000D02*
X147750000Y-81250000D01*
X149000000Y-80900000D02*
X148100000Y-80900000D01*
X151250000Y-79000000D02*
X150517811Y-79000000D01*
X153000000Y-79550000D02*
X153000000Y-79250000D01*
X153250000Y-79000000D02*
X153750000Y-79000000D01*
X153000000Y-79250000D02*
X153250000Y-79000000D01*
X155750000Y-79550000D02*
X155750000Y-79250000D01*
X156000000Y-79000000D02*
X156500000Y-79000000D01*
X155750000Y-79250000D02*
X156000000Y-79000000D01*
X155750000Y-79550000D02*
X153000000Y-79550000D01*
X153000000Y-79550000D02*
X150500000Y-79550000D01*
X150500000Y-78450000D02*
X150500000Y-79550000D01*
X158250000Y-82250000D02*
X157450000Y-82250000D01*
X165250000Y-93000000D02*
X165000000Y-92750000D01*
X166050000Y-93000000D02*
X165250000Y-93000000D01*
X166950000Y-93000000D02*
X167200000Y-93250000D01*
X167200000Y-93250000D02*
X169250000Y-93250000D01*
X170180000Y-94180000D02*
X170180000Y-95250000D01*
X169250000Y-93250000D02*
X170180000Y-94180000D01*
D11*
X161000000Y-87500000D02*
X158000000Y-90500000D01*
X158000000Y-90500000D02*
X158000000Y-91750000D01*
D33*
X157000000Y-92200000D02*
X157200000Y-92400000D01*
X157000000Y-91750000D02*
X157000000Y-92200000D01*
D11*
X162500000Y-90250000D02*
X161000000Y-90250000D01*
X158850000Y-92400000D02*
X157200000Y-92400000D01*
X161000000Y-90250000D02*
X158850000Y-92400000D01*
D34*
G36*
X151215000Y-90679867D02*
X151102631Y-90792237D01*
X150029868Y-91865000D01*
X147970132Y-91865000D01*
X147715132Y-91610000D01*
X148801309Y-91610000D01*
X149034698Y-91513327D01*
X149213327Y-91334699D01*
X149310000Y-91101310D01*
X149310000Y-90848691D01*
X149310000Y-89935096D01*
X149385167Y-89935162D01*
X149728943Y-89793117D01*
X149787161Y-89735000D01*
X150450000Y-89735000D01*
X150450000Y-89734999D01*
X150731272Y-89679051D01*
X150969723Y-89519723D01*
X151079446Y-89410000D01*
X151215000Y-89410000D01*
X151215000Y-90679867D01*
X151215000Y-90679867D01*
G37*
X151215000Y-90679867D02*
X151102631Y-90792237D01*
X150029868Y-91865000D01*
X147970132Y-91865000D01*
X147715132Y-91610000D01*
X148801309Y-91610000D01*
X149034698Y-91513327D01*
X149213327Y-91334699D01*
X149310000Y-91101310D01*
X149310000Y-90848691D01*
X149310000Y-89935096D01*
X149385167Y-89935162D01*
X149728943Y-89793117D01*
X149787161Y-89735000D01*
X150450000Y-89735000D01*
X150450000Y-89734999D01*
X150731272Y-89679051D01*
X150969723Y-89519723D01*
X151079446Y-89410000D01*
X151215000Y-89410000D01*
X151215000Y-90679867D01*
G36*
X159115000Y-88345553D02*
X157721016Y-89739537D01*
X157789438Y-89395562D01*
X157789438Y-88809353D01*
X157789438Y-88808537D01*
X157789600Y-88623370D01*
X157718265Y-88450728D01*
X157647555Y-88279594D01*
X157515583Y-88147392D01*
X157384765Y-88016345D01*
X157041237Y-87873699D01*
X156669271Y-87873375D01*
X156638379Y-87886139D01*
X156588327Y-87765302D01*
X156409699Y-87586673D01*
X156176310Y-87490000D01*
X155923691Y-87490000D01*
X155323691Y-87490000D01*
X155090302Y-87586673D01*
X154911673Y-87765301D01*
X154815000Y-87998690D01*
X154815000Y-88251309D01*
X154815000Y-88424665D01*
X154665302Y-88486673D01*
X154486673Y-88665301D01*
X154390000Y-88898690D01*
X154390000Y-89151309D01*
X154390000Y-90301309D01*
X154486673Y-90534698D01*
X154665301Y-90713327D01*
X154898690Y-90810000D01*
X155151309Y-90810000D01*
X156601309Y-90810000D01*
X156834698Y-90713327D01*
X157013327Y-90534699D01*
X157056028Y-90431607D01*
X157311145Y-90261145D01*
X157312851Y-90259438D01*
X157265000Y-90500000D01*
X157265000Y-90847634D01*
X157186799Y-90815162D01*
X156814833Y-90814838D01*
X156471057Y-90956883D01*
X156207808Y-91219673D01*
X156065162Y-91563201D01*
X156064838Y-91935167D01*
X156128816Y-92090008D01*
X153412297Y-92090008D01*
X153201548Y-91879258D01*
X153398603Y-91584346D01*
X153484999Y-91150000D01*
X153485000Y-91150000D01*
X153485000Y-89912379D01*
X153511166Y-89886259D01*
X153642213Y-89755441D01*
X153713848Y-89582923D01*
X153784859Y-89411913D01*
X153785021Y-89225114D01*
X153785183Y-89039947D01*
X153713848Y-88867305D01*
X153643138Y-88696171D01*
X153556610Y-88609492D01*
X153560000Y-88601310D01*
X153560000Y-88348691D01*
X153560000Y-86898691D01*
X153463327Y-86665302D01*
X153284699Y-86486673D01*
X153051310Y-86390000D01*
X152798691Y-86390000D01*
X151648691Y-86390000D01*
X151415302Y-86486673D01*
X151236673Y-86665301D01*
X151140000Y-86898690D01*
X151140000Y-87151309D01*
X151140000Y-87490000D01*
X150573691Y-87490000D01*
X150340302Y-87586673D01*
X150161673Y-87765301D01*
X150065000Y-87998690D01*
X150065000Y-88251309D01*
X150065000Y-88265000D01*
X149787419Y-88265000D01*
X149730327Y-88207808D01*
X149386799Y-88065162D01*
X149221479Y-88065017D01*
X149310000Y-87851310D01*
X149310000Y-87598691D01*
X149310000Y-86513025D01*
X149413327Y-86409699D01*
X149510000Y-86176310D01*
X149510000Y-85923691D01*
X149510000Y-85323691D01*
X149413327Y-85090302D01*
X149234699Y-84911673D01*
X149135000Y-84870376D01*
X149135000Y-84629623D01*
X149234698Y-84588327D01*
X149413327Y-84409699D01*
X149510000Y-84176310D01*
X149510000Y-83923691D01*
X149510000Y-83323691D01*
X149413327Y-83090302D01*
X149323025Y-82999999D01*
X149413327Y-82909699D01*
X149510000Y-82676310D01*
X149510000Y-82423691D01*
X149510000Y-82110000D01*
X149851309Y-82110000D01*
X150084698Y-82013327D01*
X150263327Y-81834699D01*
X150360000Y-81601310D01*
X150360000Y-81348691D01*
X150360000Y-80510000D01*
X150926309Y-80510000D01*
X150986664Y-80485000D01*
X152513334Y-80485000D01*
X152573690Y-80510000D01*
X152826309Y-80510000D01*
X153426309Y-80510000D01*
X153486664Y-80485000D01*
X155263334Y-80485000D01*
X155323690Y-80510000D01*
X155576309Y-80510000D01*
X156176309Y-80510000D01*
X156409698Y-80413327D01*
X156552760Y-80270264D01*
X156648690Y-80310000D01*
X156901309Y-80310000D01*
X157492000Y-80310000D01*
X157492000Y-81315000D01*
X157450000Y-81315000D01*
X156998691Y-81315000D01*
X156765302Y-81411673D01*
X156586673Y-81590301D01*
X156490000Y-81823690D01*
X156490000Y-82076309D01*
X156490000Y-82676309D01*
X156586673Y-82909698D01*
X156765301Y-83088327D01*
X156998690Y-83185000D01*
X157251309Y-83185000D01*
X157450000Y-83185000D01*
X157492000Y-83185000D01*
X157492000Y-83815000D01*
X157450000Y-83815000D01*
X156998691Y-83815000D01*
X156765302Y-83911673D01*
X156586673Y-84090301D01*
X156490000Y-84323690D01*
X156490000Y-84576309D01*
X156490000Y-85176309D01*
X156586673Y-85409698D01*
X156765301Y-85588327D01*
X156890000Y-85639979D01*
X156890000Y-86551309D01*
X156986673Y-86784698D01*
X157165301Y-86963327D01*
X157398690Y-87060000D01*
X157651309Y-87060000D01*
X159101309Y-87060000D01*
X159115000Y-87054328D01*
X159115000Y-88345553D01*
X159115000Y-88345553D01*
G37*
X159115000Y-88345553D02*
X157721016Y-89739537D01*
X157789438Y-89395562D01*
X157789438Y-88809353D01*
X157789438Y-88808537D01*
X157789600Y-88623370D01*
X157718265Y-88450728D01*
X157647555Y-88279594D01*
X157515583Y-88147392D01*
X157384765Y-88016345D01*
X157041237Y-87873699D01*
X156669271Y-87873375D01*
X156638379Y-87886139D01*
X156588327Y-87765302D01*
X156409699Y-87586673D01*
X156176310Y-87490000D01*
X155923691Y-87490000D01*
X155323691Y-87490000D01*
X155090302Y-87586673D01*
X154911673Y-87765301D01*
X154815000Y-87998690D01*
X154815000Y-88251309D01*
X154815000Y-88424665D01*
X154665302Y-88486673D01*
X154486673Y-88665301D01*
X154390000Y-88898690D01*
X154390000Y-89151309D01*
X154390000Y-90301309D01*
X154486673Y-90534698D01*
X154665301Y-90713327D01*
X154898690Y-90810000D01*
X155151309Y-90810000D01*
X156601309Y-90810000D01*
X156834698Y-90713327D01*
X157013327Y-90534699D01*
X157056028Y-90431607D01*
X157311145Y-90261145D01*
X157312851Y-90259438D01*
X157265000Y-90500000D01*
X157265000Y-90847634D01*
X157186799Y-90815162D01*
X156814833Y-90814838D01*
X156471057Y-90956883D01*
X156207808Y-91219673D01*
X156065162Y-91563201D01*
X156064838Y-91935167D01*
X156128816Y-92090008D01*
X153412297Y-92090008D01*
X153201548Y-91879258D01*
X153398603Y-91584346D01*
X153484999Y-91150000D01*
X153485000Y-91150000D01*
X153485000Y-89912379D01*
X153511166Y-89886259D01*
X153642213Y-89755441D01*
X153713848Y-89582923D01*
X153784859Y-89411913D01*
X153785021Y-89225114D01*
X153785183Y-89039947D01*
X153713848Y-88867305D01*
X153643138Y-88696171D01*
X153556610Y-88609492D01*
X153560000Y-88601310D01*
X153560000Y-88348691D01*
X153560000Y-86898691D01*
X153463327Y-86665302D01*
X153284699Y-86486673D01*
X153051310Y-86390000D01*
X152798691Y-86390000D01*
X151648691Y-86390000D01*
X151415302Y-86486673D01*
X151236673Y-86665301D01*
X151140000Y-86898690D01*
X151140000Y-87151309D01*
X151140000Y-87490000D01*
X150573691Y-87490000D01*
X150340302Y-87586673D01*
X150161673Y-87765301D01*
X150065000Y-87998690D01*
X150065000Y-88251309D01*
X150065000Y-88265000D01*
X149787419Y-88265000D01*
X149730327Y-88207808D01*
X149386799Y-88065162D01*
X149221479Y-88065017D01*
X149310000Y-87851310D01*
X149310000Y-87598691D01*
X149310000Y-86513025D01*
X149413327Y-86409699D01*
X149510000Y-86176310D01*
X149510000Y-85923691D01*
X149510000Y-85323691D01*
X149413327Y-85090302D01*
X149234699Y-84911673D01*
X149135000Y-84870376D01*
X149135000Y-84629623D01*
X149234698Y-84588327D01*
X149413327Y-84409699D01*
X149510000Y-84176310D01*
X149510000Y-83923691D01*
X149510000Y-83323691D01*
X149413327Y-83090302D01*
X149323025Y-82999999D01*
X149413327Y-82909699D01*
X149510000Y-82676310D01*
X149510000Y-82423691D01*
X149510000Y-82110000D01*
X149851309Y-82110000D01*
X150084698Y-82013327D01*
X150263327Y-81834699D01*
X150360000Y-81601310D01*
X150360000Y-81348691D01*
X150360000Y-80510000D01*
X150926309Y-80510000D01*
X150986664Y-80485000D01*
X152513334Y-80485000D01*
X152573690Y-80510000D01*
X152826309Y-80510000D01*
X153426309Y-80510000D01*
X153486664Y-80485000D01*
X155263334Y-80485000D01*
X155323690Y-80510000D01*
X155576309Y-80510000D01*
X156176309Y-80510000D01*
X156409698Y-80413327D01*
X156552760Y-80270264D01*
X156648690Y-80310000D01*
X156901309Y-80310000D01*
X157492000Y-80310000D01*
X157492000Y-81315000D01*
X157450000Y-81315000D01*
X156998691Y-81315000D01*
X156765302Y-81411673D01*
X156586673Y-81590301D01*
X156490000Y-81823690D01*
X156490000Y-82076309D01*
X156490000Y-82676309D01*
X156586673Y-82909698D01*
X156765301Y-83088327D01*
X156998690Y-83185000D01*
X157251309Y-83185000D01*
X157450000Y-83185000D01*
X157492000Y-83185000D01*
X157492000Y-83815000D01*
X157450000Y-83815000D01*
X156998691Y-83815000D01*
X156765302Y-83911673D01*
X156586673Y-84090301D01*
X156490000Y-84323690D01*
X156490000Y-84576309D01*
X156490000Y-85176309D01*
X156586673Y-85409698D01*
X156765301Y-85588327D01*
X156890000Y-85639979D01*
X156890000Y-86551309D01*
X156986673Y-86784698D01*
X157165301Y-86963327D01*
X157398690Y-87060000D01*
X157651309Y-87060000D01*
X159101309Y-87060000D01*
X159115000Y-87054328D01*
X159115000Y-88345553D01*
G36*
X165704696Y-68685000D02*
X165640302Y-68711673D01*
X165461673Y-68890301D01*
X165365000Y-69123690D01*
X165365000Y-69376309D01*
X165365000Y-70876309D01*
X165458898Y-71103000D01*
X165361371Y-71103000D01*
X165127982Y-71199673D01*
X164949353Y-71378301D01*
X164852680Y-71611690D01*
X164852680Y-71734427D01*
X164730533Y-71699392D01*
X164550928Y-71878997D01*
X164550928Y-71519787D01*
X164481463Y-71277603D01*
X163958018Y-71090856D01*
X163402952Y-71118638D01*
X163019177Y-71277603D01*
X162949712Y-71519787D01*
X163750320Y-72320395D01*
X164550928Y-71519787D01*
X164550928Y-71878997D01*
X163929925Y-72500000D01*
X164730533Y-73300608D01*
X164852680Y-73265572D01*
X164852680Y-73388309D01*
X164946578Y-73615000D01*
X164512267Y-73615000D01*
X164550928Y-73480213D01*
X163750320Y-72679605D01*
X163570715Y-72859210D01*
X163570715Y-72500000D01*
X162770107Y-71699392D01*
X162527923Y-71768857D01*
X162341176Y-72292302D01*
X162368958Y-72847368D01*
X162527923Y-73231143D01*
X162770107Y-73300608D01*
X163570715Y-72500000D01*
X163570715Y-72859210D01*
X162949712Y-73480213D01*
X162988372Y-73615000D01*
X158211191Y-73615000D01*
X158211191Y-69565000D01*
X149788810Y-69565000D01*
X149788810Y-73615000D01*
X148250000Y-73615000D01*
X147815654Y-73701397D01*
X147447434Y-73947434D01*
X146185000Y-75209868D01*
X146185000Y-68685000D01*
X165704696Y-68685000D01*
X165704696Y-68685000D01*
G37*
X165704696Y-68685000D02*
X165640302Y-68711673D01*
X165461673Y-68890301D01*
X165365000Y-69123690D01*
X165365000Y-69376309D01*
X165365000Y-70876309D01*
X165458898Y-71103000D01*
X165361371Y-71103000D01*
X165127982Y-71199673D01*
X164949353Y-71378301D01*
X164852680Y-71611690D01*
X164852680Y-71734427D01*
X164730533Y-71699392D01*
X164550928Y-71878997D01*
X164550928Y-71519787D01*
X164481463Y-71277603D01*
X163958018Y-71090856D01*
X163402952Y-71118638D01*
X163019177Y-71277603D01*
X162949712Y-71519787D01*
X163750320Y-72320395D01*
X164550928Y-71519787D01*
X164550928Y-71878997D01*
X163929925Y-72500000D01*
X164730533Y-73300608D01*
X164852680Y-73265572D01*
X164852680Y-73388309D01*
X164946578Y-73615000D01*
X164512267Y-73615000D01*
X164550928Y-73480213D01*
X163750320Y-72679605D01*
X163570715Y-72859210D01*
X163570715Y-72500000D01*
X162770107Y-71699392D01*
X162527923Y-71768857D01*
X162341176Y-72292302D01*
X162368958Y-72847368D01*
X162527923Y-73231143D01*
X162770107Y-73300608D01*
X163570715Y-72500000D01*
X163570715Y-72859210D01*
X162949712Y-73480213D01*
X162988372Y-73615000D01*
X158211191Y-73615000D01*
X158211191Y-69565000D01*
X149788810Y-69565000D01*
X149788810Y-73615000D01*
X148250000Y-73615000D01*
X147815654Y-73701397D01*
X147447434Y-73947434D01*
X146185000Y-75209868D01*
X146185000Y-68685000D01*
X165704696Y-68685000D01*
G36*
X166457803Y-92015000D02*
X166248691Y-92015000D01*
X166160000Y-92015000D01*
X166160000Y-91723691D01*
X166063327Y-91490302D01*
X165884699Y-91311673D01*
X165651310Y-91215000D01*
X165398691Y-91215000D01*
X164385000Y-91215000D01*
X164385000Y-90103420D01*
X164789580Y-90508000D01*
X166390000Y-90508000D01*
X166390000Y-91851309D01*
X166457803Y-92015000D01*
X166457803Y-92015000D01*
G37*
X166457803Y-92015000D02*
X166248691Y-92015000D01*
X166160000Y-92015000D01*
X166160000Y-91723691D01*
X166063327Y-91490302D01*
X165884699Y-91311673D01*
X165651310Y-91215000D01*
X165398691Y-91215000D01*
X164385000Y-91215000D01*
X164385000Y-90103420D01*
X164789580Y-90508000D01*
X166390000Y-90508000D01*
X166390000Y-91851309D01*
X166457803Y-92015000D01*
G36*
X172248276Y-83992000D02*
X169008000Y-83992000D01*
X169008000Y-83000000D01*
X169008000Y-82435000D01*
X169050000Y-82435000D01*
X169501309Y-82435000D01*
X169734698Y-82338327D01*
X169913327Y-82159699D01*
X170010000Y-81926310D01*
X170010000Y-81673691D01*
X170010000Y-81435000D01*
X170050000Y-81435000D01*
X170498690Y-81435000D01*
X170501309Y-81435000D01*
X170751309Y-81435000D01*
X170950000Y-81435000D01*
X170990000Y-81435000D01*
X170990000Y-81926309D01*
X171086673Y-82159698D01*
X171265301Y-82338327D01*
X171498690Y-82435000D01*
X171751309Y-82435000D01*
X171950000Y-82435000D01*
X172190000Y-82435000D01*
X172190000Y-83851309D01*
X172248276Y-83992000D01*
X172248276Y-83992000D01*
G37*
X172248276Y-83992000D02*
X169008000Y-83992000D01*
X169008000Y-83000000D01*
X169008000Y-82435000D01*
X169050000Y-82435000D01*
X169501309Y-82435000D01*
X169734698Y-82338327D01*
X169913327Y-82159699D01*
X170010000Y-81926310D01*
X170010000Y-81673691D01*
X170010000Y-81435000D01*
X170050000Y-81435000D01*
X170498690Y-81435000D01*
X170501309Y-81435000D01*
X170751309Y-81435000D01*
X170950000Y-81435000D01*
X170990000Y-81435000D01*
X170990000Y-81926309D01*
X171086673Y-82159698D01*
X171265301Y-82338327D01*
X171498690Y-82435000D01*
X171751309Y-82435000D01*
X171950000Y-82435000D01*
X172190000Y-82435000D01*
X172190000Y-83851309D01*
X172248276Y-83992000D01*
G36*
X172704696Y-68685000D02*
X172640302Y-68711673D01*
X172461673Y-68890301D01*
X172365000Y-69123690D01*
X172365000Y-69376309D01*
X172365000Y-70876309D01*
X172458898Y-71103000D01*
X172361371Y-71103000D01*
X172127982Y-71199673D01*
X171949353Y-71378301D01*
X171852680Y-71611690D01*
X171852680Y-71734427D01*
X171730533Y-71699392D01*
X171550928Y-71878997D01*
X171550928Y-71519787D01*
X171481463Y-71277603D01*
X170958018Y-71090856D01*
X170402952Y-71118638D01*
X170019177Y-71277603D01*
X169949712Y-71519787D01*
X170750320Y-72320395D01*
X171550928Y-71519787D01*
X171550928Y-71878997D01*
X170929925Y-72500000D01*
X171730533Y-73300608D01*
X171852680Y-73265572D01*
X171852680Y-73388309D01*
X171949353Y-73621698D01*
X172127981Y-73800327D01*
X172361370Y-73897000D01*
X172458898Y-73897000D01*
X172365000Y-74123690D01*
X172365000Y-74376309D01*
X172365000Y-74421288D01*
X171550928Y-75235360D01*
X171550928Y-73480213D01*
X170750320Y-72679605D01*
X170570715Y-72859210D01*
X170570715Y-72500000D01*
X169770107Y-71699392D01*
X169527923Y-71768857D01*
X169341176Y-72292302D01*
X169368958Y-72847368D01*
X169527923Y-73231143D01*
X169770107Y-73300608D01*
X170570715Y-72500000D01*
X170570715Y-72859210D01*
X169949712Y-73480213D01*
X170019177Y-73722397D01*
X170542622Y-73909144D01*
X171097688Y-73881362D01*
X171481463Y-73722397D01*
X171550928Y-73480213D01*
X171550928Y-75235360D01*
X171321288Y-75465000D01*
X170954703Y-75465000D01*
X170934345Y-75451397D01*
X170500000Y-75365000D01*
X170065655Y-75451397D01*
X169697434Y-75697434D01*
X169402868Y-75992000D01*
X168992000Y-75992000D01*
X168992000Y-76402868D01*
X168902868Y-76492000D01*
X166789580Y-76492000D01*
X166289580Y-76992000D01*
X164289580Y-76992000D01*
X162789580Y-78492000D01*
X158860000Y-78492000D01*
X158860000Y-78398691D01*
X158763327Y-78165302D01*
X158584699Y-77986673D01*
X158351310Y-77890000D01*
X158098691Y-77890000D01*
X156648691Y-77890000D01*
X156415302Y-77986673D01*
X156337117Y-78064857D01*
X156314833Y-78064838D01*
X156314440Y-78065000D01*
X156000000Y-78065000D01*
X155642191Y-78136173D01*
X155338855Y-78338855D01*
X155088855Y-78588855D01*
X155071385Y-78615000D01*
X154654641Y-78615000D01*
X154553846Y-78371055D01*
X154291056Y-78107806D01*
X153947528Y-77965160D01*
X153575562Y-77964836D01*
X153333146Y-78065000D01*
X153250000Y-78065000D01*
X152892191Y-78136173D01*
X152588855Y-78338855D01*
X152338855Y-78588855D01*
X152321385Y-78615000D01*
X152143912Y-78615000D01*
X152043117Y-78371055D01*
X151872325Y-78199964D01*
X151910854Y-78161435D01*
X151911145Y-78161145D01*
X152042192Y-78030327D01*
X152113827Y-77857809D01*
X152184838Y-77686799D01*
X152185000Y-77500000D01*
X152185162Y-77314833D01*
X152113827Y-77142191D01*
X152043117Y-76971057D01*
X151911145Y-76838855D01*
X151780327Y-76707808D01*
X151436799Y-76565162D01*
X151064833Y-76564838D01*
X150990105Y-76595714D01*
X150976310Y-76590000D01*
X150723691Y-76590000D01*
X150023691Y-76590000D01*
X149790302Y-76686673D01*
X149611673Y-76865301D01*
X149515000Y-77098690D01*
X149515000Y-77351309D01*
X149515000Y-77998690D01*
X149515000Y-78001309D01*
X149515000Y-78251309D01*
X149515000Y-78901309D01*
X149565000Y-79022019D01*
X149565000Y-79098690D01*
X149565000Y-79351309D01*
X149565000Y-79550000D01*
X149565000Y-79690000D01*
X149135000Y-79690000D01*
X149135000Y-79615000D01*
X147335000Y-79615000D01*
X147335000Y-77270132D01*
X148720132Y-75885000D01*
X165500000Y-75885000D01*
X165934345Y-75798603D01*
X165934346Y-75798603D01*
X166302566Y-75552566D01*
X167052246Y-74802886D01*
X167298283Y-74434666D01*
X167298284Y-74434665D01*
X167384680Y-74000320D01*
X167384680Y-73787025D01*
X167550007Y-73621699D01*
X167646680Y-73388310D01*
X167646680Y-73135691D01*
X167646680Y-72708132D01*
X167952566Y-72402246D01*
X168198603Y-72034026D01*
X168198603Y-72034025D01*
X168285000Y-71599680D01*
X168285000Y-71385000D01*
X168426309Y-71385000D01*
X168659698Y-71288327D01*
X168838327Y-71109699D01*
X168935000Y-70876310D01*
X168935000Y-70623691D01*
X168935000Y-69123691D01*
X168838327Y-68890302D01*
X168659699Y-68711673D01*
X168595304Y-68685000D01*
X172704696Y-68685000D01*
X172704696Y-68685000D01*
G37*
X172704696Y-68685000D02*
X172640302Y-68711673D01*
X172461673Y-68890301D01*
X172365000Y-69123690D01*
X172365000Y-69376309D01*
X172365000Y-70876309D01*
X172458898Y-71103000D01*
X172361371Y-71103000D01*
X172127982Y-71199673D01*
X171949353Y-71378301D01*
X171852680Y-71611690D01*
X171852680Y-71734427D01*
X171730533Y-71699392D01*
X171550928Y-71878997D01*
X171550928Y-71519787D01*
X171481463Y-71277603D01*
X170958018Y-71090856D01*
X170402952Y-71118638D01*
X170019177Y-71277603D01*
X169949712Y-71519787D01*
X170750320Y-72320395D01*
X171550928Y-71519787D01*
X171550928Y-71878997D01*
X170929925Y-72500000D01*
X171730533Y-73300608D01*
X171852680Y-73265572D01*
X171852680Y-73388309D01*
X171949353Y-73621698D01*
X172127981Y-73800327D01*
X172361370Y-73897000D01*
X172458898Y-73897000D01*
X172365000Y-74123690D01*
X172365000Y-74376309D01*
X172365000Y-74421288D01*
X171550928Y-75235360D01*
X171550928Y-73480213D01*
X170750320Y-72679605D01*
X170570715Y-72859210D01*
X170570715Y-72500000D01*
X169770107Y-71699392D01*
X169527923Y-71768857D01*
X169341176Y-72292302D01*
X169368958Y-72847368D01*
X169527923Y-73231143D01*
X169770107Y-73300608D01*
X170570715Y-72500000D01*
X170570715Y-72859210D01*
X169949712Y-73480213D01*
X170019177Y-73722397D01*
X170542622Y-73909144D01*
X171097688Y-73881362D01*
X171481463Y-73722397D01*
X171550928Y-73480213D01*
X171550928Y-75235360D01*
X171321288Y-75465000D01*
X170954703Y-75465000D01*
X170934345Y-75451397D01*
X170500000Y-75365000D01*
X170065655Y-75451397D01*
X169697434Y-75697434D01*
X169402868Y-75992000D01*
X168992000Y-75992000D01*
X168992000Y-76402868D01*
X168902868Y-76492000D01*
X166789580Y-76492000D01*
X166289580Y-76992000D01*
X164289580Y-76992000D01*
X162789580Y-78492000D01*
X158860000Y-78492000D01*
X158860000Y-78398691D01*
X158763327Y-78165302D01*
X158584699Y-77986673D01*
X158351310Y-77890000D01*
X158098691Y-77890000D01*
X156648691Y-77890000D01*
X156415302Y-77986673D01*
X156337117Y-78064857D01*
X156314833Y-78064838D01*
X156314440Y-78065000D01*
X156000000Y-78065000D01*
X155642191Y-78136173D01*
X155338855Y-78338855D01*
X155088855Y-78588855D01*
X155071385Y-78615000D01*
X154654641Y-78615000D01*
X154553846Y-78371055D01*
X154291056Y-78107806D01*
X153947528Y-77965160D01*
X153575562Y-77964836D01*
X153333146Y-78065000D01*
X153250000Y-78065000D01*
X152892191Y-78136173D01*
X152588855Y-78338855D01*
X152338855Y-78588855D01*
X152321385Y-78615000D01*
X152143912Y-78615000D01*
X152043117Y-78371055D01*
X151872325Y-78199964D01*
X151910854Y-78161435D01*
X151911145Y-78161145D01*
X152042192Y-78030327D01*
X152113827Y-77857809D01*
X152184838Y-77686799D01*
X152185000Y-77500000D01*
X152185162Y-77314833D01*
X152113827Y-77142191D01*
X152043117Y-76971057D01*
X151911145Y-76838855D01*
X151780327Y-76707808D01*
X151436799Y-76565162D01*
X151064833Y-76564838D01*
X150990105Y-76595714D01*
X150976310Y-76590000D01*
X150723691Y-76590000D01*
X150023691Y-76590000D01*
X149790302Y-76686673D01*
X149611673Y-76865301D01*
X149515000Y-77098690D01*
X149515000Y-77351309D01*
X149515000Y-77998690D01*
X149515000Y-78001309D01*
X149515000Y-78251309D01*
X149515000Y-78901309D01*
X149565000Y-79022019D01*
X149565000Y-79098690D01*
X149565000Y-79351309D01*
X149565000Y-79550000D01*
X149565000Y-79690000D01*
X149135000Y-79690000D01*
X149135000Y-79615000D01*
X147335000Y-79615000D01*
X147335000Y-77270132D01*
X148720132Y-75885000D01*
X165500000Y-75885000D01*
X165934345Y-75798603D01*
X165934346Y-75798603D01*
X166302566Y-75552566D01*
X167052246Y-74802886D01*
X167298283Y-74434666D01*
X167298284Y-74434665D01*
X167384680Y-74000320D01*
X167384680Y-73787025D01*
X167550007Y-73621699D01*
X167646680Y-73388310D01*
X167646680Y-73135691D01*
X167646680Y-72708132D01*
X167952566Y-72402246D01*
X168198603Y-72034026D01*
X168198603Y-72034025D01*
X168285000Y-71599680D01*
X168285000Y-71385000D01*
X168426309Y-71385000D01*
X168659698Y-71288327D01*
X168838327Y-71109699D01*
X168935000Y-70876310D01*
X168935000Y-70623691D01*
X168935000Y-69123691D01*
X168838327Y-68890302D01*
X168659699Y-68711673D01*
X168595304Y-68685000D01*
X172704696Y-68685000D01*
G36*
X175407000Y-97917000D02*
X175387000Y-97917000D01*
X175387000Y-97937000D01*
X175133000Y-97937000D01*
X175133000Y-97917000D01*
X175113000Y-97917000D01*
X175113000Y-97663000D01*
X175133000Y-97663000D01*
X175133000Y-97643000D01*
X175387000Y-97643000D01*
X175387000Y-97663000D01*
X175407000Y-97663000D01*
X175407000Y-97917000D01*
X175407000Y-97917000D01*
G37*
X175407000Y-97917000D02*
X175387000Y-97917000D01*
X175387000Y-97937000D01*
X175133000Y-97937000D01*
X175133000Y-97917000D01*
X175113000Y-97917000D01*
X175113000Y-97663000D01*
X175133000Y-97663000D01*
X175133000Y-97643000D01*
X175387000Y-97643000D01*
X175387000Y-97663000D01*
X175407000Y-97663000D01*
X175407000Y-97917000D01*
G36*
X176415000Y-77245974D02*
X176201397Y-77565654D01*
X176115000Y-78000000D01*
X176115000Y-81279868D01*
X175529868Y-81865000D01*
X174463025Y-81865000D01*
X174334699Y-81736673D01*
X174139219Y-81655702D01*
X174061145Y-81538855D01*
X174061141Y-81538852D01*
X173361145Y-80838855D01*
X173074792Y-80647521D01*
X173192192Y-80530327D01*
X173263827Y-80357809D01*
X173334838Y-80186799D01*
X173335000Y-80000000D01*
X173335162Y-79814833D01*
X173263827Y-79642191D01*
X173193117Y-79471057D01*
X173061145Y-79338855D01*
X172930327Y-79207808D01*
X172586799Y-79065162D01*
X172508000Y-79065093D01*
X172508000Y-77205711D01*
X173328711Y-76385000D01*
X175426309Y-76385000D01*
X175659698Y-76288327D01*
X175838327Y-76109699D01*
X175935000Y-75876310D01*
X175935000Y-75623691D01*
X175935000Y-74123691D01*
X175838327Y-73890302D01*
X175659699Y-73711673D01*
X175426310Y-73615000D01*
X175173691Y-73615000D01*
X174552781Y-73615000D01*
X174646680Y-73388310D01*
X174646680Y-73135691D01*
X174646680Y-71611691D01*
X174552781Y-71385000D01*
X175426309Y-71385000D01*
X175659698Y-71288327D01*
X175671446Y-71276578D01*
X176115000Y-71720132D01*
X176115000Y-76250000D01*
X176201397Y-76684346D01*
X176415000Y-77004025D01*
X176415000Y-77245974D01*
X176415000Y-77245974D01*
G37*
X176415000Y-77245974D02*
X176201397Y-77565654D01*
X176115000Y-78000000D01*
X176115000Y-81279868D01*
X175529868Y-81865000D01*
X174463025Y-81865000D01*
X174334699Y-81736673D01*
X174139219Y-81655702D01*
X174061145Y-81538855D01*
X174061141Y-81538852D01*
X173361145Y-80838855D01*
X173074792Y-80647521D01*
X173192192Y-80530327D01*
X173263827Y-80357809D01*
X173334838Y-80186799D01*
X173335000Y-80000000D01*
X173335162Y-79814833D01*
X173263827Y-79642191D01*
X173193117Y-79471057D01*
X173061145Y-79338855D01*
X172930327Y-79207808D01*
X172586799Y-79065162D01*
X172508000Y-79065093D01*
X172508000Y-77205711D01*
X173328711Y-76385000D01*
X175426309Y-76385000D01*
X175659698Y-76288327D01*
X175838327Y-76109699D01*
X175935000Y-75876310D01*
X175935000Y-75623691D01*
X175935000Y-74123691D01*
X175838327Y-73890302D01*
X175659699Y-73711673D01*
X175426310Y-73615000D01*
X175173691Y-73615000D01*
X174552781Y-73615000D01*
X174646680Y-73388310D01*
X174646680Y-73135691D01*
X174646680Y-71611691D01*
X174552781Y-71385000D01*
X175426309Y-71385000D01*
X175659698Y-71288327D01*
X175671446Y-71276578D01*
X176115000Y-71720132D01*
X176115000Y-76250000D01*
X176201397Y-76684346D01*
X176415000Y-77004025D01*
X176415000Y-77245974D01*
G36*
X184815000Y-91569116D02*
X184661145Y-91338855D01*
X183661145Y-90338855D01*
X183357809Y-90136173D01*
X183000000Y-90065000D01*
X174575334Y-90065000D01*
X174513327Y-89915302D01*
X174334699Y-89736673D01*
X174185413Y-89674836D01*
X174061145Y-89488855D01*
X173411145Y-88838855D01*
X173154751Y-88667538D01*
X173160854Y-88661435D01*
X173161145Y-88661145D01*
X173292192Y-88530327D01*
X173292354Y-88529935D01*
X174061145Y-87761145D01*
X174263827Y-87457809D01*
X174335000Y-87100000D01*
X174335000Y-84263025D01*
X174463025Y-84135000D01*
X176000000Y-84135000D01*
X176434345Y-84048603D01*
X176434346Y-84048603D01*
X176802566Y-83802566D01*
X178052566Y-82552566D01*
X178298603Y-82184346D01*
X178298603Y-82184345D01*
X178385000Y-81750000D01*
X178385000Y-78000000D01*
X178298603Y-77565654D01*
X178085000Y-77245974D01*
X178085000Y-77004025D01*
X178298603Y-76684346D01*
X178385000Y-76250000D01*
X178385000Y-71250000D01*
X178298603Y-70815655D01*
X178298603Y-70815654D01*
X178052566Y-70447434D01*
X176802566Y-69197434D01*
X176434346Y-68951397D01*
X176000000Y-68865000D01*
X175813025Y-68865000D01*
X175659699Y-68711673D01*
X175595304Y-68685000D01*
X184815000Y-68685000D01*
X184815000Y-70492541D01*
X184780327Y-70457808D01*
X184436799Y-70315162D01*
X184064833Y-70314838D01*
X183721057Y-70456883D01*
X183625063Y-70552709D01*
X183530327Y-70457808D01*
X183186799Y-70315162D01*
X182814833Y-70314838D01*
X182471057Y-70456883D01*
X182207808Y-70719673D01*
X182065162Y-71063201D01*
X182064838Y-71435167D01*
X182206883Y-71778943D01*
X182469673Y-72042192D01*
X182732395Y-72151284D01*
X182665162Y-72313201D01*
X182664838Y-72685167D01*
X182732477Y-72848866D01*
X182471057Y-72956883D01*
X182207808Y-73219673D01*
X182065162Y-73563201D01*
X182064838Y-73935167D01*
X182206883Y-74278943D01*
X182469673Y-74542192D01*
X182813201Y-74684838D01*
X183185167Y-74685162D01*
X183528943Y-74543117D01*
X183624936Y-74447290D01*
X183719673Y-74542192D01*
X184063201Y-74684838D01*
X184435167Y-74685162D01*
X184778943Y-74543117D01*
X184815000Y-74507122D01*
X184815000Y-91569116D01*
X184815000Y-91569116D01*
G37*
X184815000Y-91569116D02*
X184661145Y-91338855D01*
X183661145Y-90338855D01*
X183357809Y-90136173D01*
X183000000Y-90065000D01*
X174575334Y-90065000D01*
X174513327Y-89915302D01*
X174334699Y-89736673D01*
X174185413Y-89674836D01*
X174061145Y-89488855D01*
X173411145Y-88838855D01*
X173154751Y-88667538D01*
X173160854Y-88661435D01*
X173161145Y-88661145D01*
X173292192Y-88530327D01*
X173292354Y-88529935D01*
X174061145Y-87761145D01*
X174263827Y-87457809D01*
X174335000Y-87100000D01*
X174335000Y-84263025D01*
X174463025Y-84135000D01*
X176000000Y-84135000D01*
X176434345Y-84048603D01*
X176434346Y-84048603D01*
X176802566Y-83802566D01*
X178052566Y-82552566D01*
X178298603Y-82184346D01*
X178298603Y-82184345D01*
X178385000Y-81750000D01*
X178385000Y-78000000D01*
X178298603Y-77565654D01*
X178085000Y-77245974D01*
X178085000Y-77004025D01*
X178298603Y-76684346D01*
X178385000Y-76250000D01*
X178385000Y-71250000D01*
X178298603Y-70815655D01*
X178298603Y-70815654D01*
X178052566Y-70447434D01*
X176802566Y-69197434D01*
X176434346Y-68951397D01*
X176000000Y-68865000D01*
X175813025Y-68865000D01*
X175659699Y-68711673D01*
X175595304Y-68685000D01*
X184815000Y-68685000D01*
X184815000Y-70492541D01*
X184780327Y-70457808D01*
X184436799Y-70315162D01*
X184064833Y-70314838D01*
X183721057Y-70456883D01*
X183625063Y-70552709D01*
X183530327Y-70457808D01*
X183186799Y-70315162D01*
X182814833Y-70314838D01*
X182471057Y-70456883D01*
X182207808Y-70719673D01*
X182065162Y-71063201D01*
X182064838Y-71435167D01*
X182206883Y-71778943D01*
X182469673Y-72042192D01*
X182732395Y-72151284D01*
X182665162Y-72313201D01*
X182664838Y-72685167D01*
X182732477Y-72848866D01*
X182471057Y-72956883D01*
X182207808Y-73219673D01*
X182065162Y-73563201D01*
X182064838Y-73935167D01*
X182206883Y-74278943D01*
X182469673Y-74542192D01*
X182813201Y-74684838D01*
X183185167Y-74685162D01*
X183528943Y-74543117D01*
X183624936Y-74447290D01*
X183719673Y-74542192D01*
X184063201Y-74684838D01*
X184435167Y-74685162D01*
X184778943Y-74543117D01*
X184815000Y-74507122D01*
X184815000Y-91569116D01*
G36*
X184815000Y-99315000D02*
X178606231Y-99315000D01*
X178787828Y-99193661D01*
X178994604Y-98884198D01*
X179207634Y-98926573D01*
X179348690Y-98985000D01*
X179601309Y-98985000D01*
X180248690Y-98985000D01*
X180251309Y-98985000D01*
X180501309Y-98985000D01*
X181151309Y-98985000D01*
X181158850Y-98981876D01*
X181240301Y-99063327D01*
X181473690Y-99160000D01*
X181726309Y-99160000D01*
X183526309Y-99160000D01*
X183759698Y-99063327D01*
X183938327Y-98884699D01*
X184035000Y-98651310D01*
X184035000Y-98398691D01*
X184035000Y-97348691D01*
X183938327Y-97115302D01*
X183759699Y-96936673D01*
X183526310Y-96840000D01*
X183273691Y-96840000D01*
X181473691Y-96840000D01*
X181240302Y-96936673D01*
X181158850Y-97018123D01*
X181151310Y-97015000D01*
X180898691Y-97015000D01*
X180251310Y-97015000D01*
X180248691Y-97015000D01*
X179998691Y-97015000D01*
X179530748Y-97015000D01*
X179397809Y-96926173D01*
X179095945Y-96866128D01*
X179090660Y-96839558D01*
X178787828Y-96386339D01*
X178334609Y-96083507D01*
X177800000Y-95977167D01*
X177684991Y-96000043D01*
X177685000Y-96000000D01*
X177685000Y-95772020D01*
X177735000Y-95651310D01*
X177735000Y-95398691D01*
X177735000Y-94751310D01*
X177735000Y-94748691D01*
X177735000Y-94498691D01*
X177735000Y-93848691D01*
X177638327Y-93615302D01*
X177459699Y-93436673D01*
X177226310Y-93340000D01*
X176973691Y-93340000D01*
X176662290Y-93340000D01*
X176661145Y-93338855D01*
X176410000Y-93171045D01*
X176410000Y-92973691D01*
X176313327Y-92740302D01*
X176134699Y-92561673D01*
X175901310Y-92465000D01*
X175648691Y-92465000D01*
X174598691Y-92465000D01*
X174365302Y-92561673D01*
X174186673Y-92740301D01*
X174090000Y-92973690D01*
X174090000Y-93226309D01*
X174090000Y-94815000D01*
X173410000Y-94815000D01*
X173410000Y-94773691D01*
X173410000Y-92973691D01*
X173313327Y-92740302D01*
X173134699Y-92561673D01*
X172901310Y-92465000D01*
X172648691Y-92465000D01*
X171598691Y-92465000D01*
X171378497Y-92556207D01*
X170411145Y-91588855D01*
X170107809Y-91386173D01*
X169750000Y-91315000D01*
X168810000Y-91315000D01*
X168810000Y-90508000D01*
X169008000Y-90508000D01*
X169008000Y-90435000D01*
X169050000Y-90435000D01*
X169501309Y-90435000D01*
X169734698Y-90338327D01*
X169913327Y-90159699D01*
X170010000Y-89926310D01*
X170010000Y-89673691D01*
X170010000Y-89435000D01*
X170050000Y-89435000D01*
X170498690Y-89435000D01*
X170501309Y-89435000D01*
X170751309Y-89435000D01*
X170950000Y-89435000D01*
X170990000Y-89435000D01*
X170990000Y-89926309D01*
X171086673Y-90159698D01*
X171265301Y-90338327D01*
X171498690Y-90435000D01*
X171751309Y-90435000D01*
X171950000Y-90435000D01*
X172190000Y-90435000D01*
X172190000Y-91851309D01*
X172286673Y-92084698D01*
X172465301Y-92263327D01*
X172698690Y-92360000D01*
X172951309Y-92360000D01*
X174101309Y-92360000D01*
X174334698Y-92263327D01*
X174513327Y-92084699D01*
X174575334Y-91935000D01*
X182612710Y-91935000D01*
X183065000Y-92387290D01*
X183065000Y-93840000D01*
X181473691Y-93840000D01*
X181240302Y-93936673D01*
X181061673Y-94115301D01*
X180965000Y-94348690D01*
X180965000Y-94601309D01*
X180965000Y-95651309D01*
X181061673Y-95884698D01*
X181240301Y-96063327D01*
X181473690Y-96160000D01*
X181726309Y-96160000D01*
X183526309Y-96160000D01*
X183759698Y-96063327D01*
X183922298Y-95900727D01*
X184107809Y-95863827D01*
X184411145Y-95661145D01*
X184661145Y-95411145D01*
X184815000Y-95180883D01*
X184815000Y-99315000D01*
X184815000Y-99315000D01*
G37*
X184815000Y-99315000D02*
X178606231Y-99315000D01*
X178787828Y-99193661D01*
X178994604Y-98884198D01*
X179207634Y-98926573D01*
X179348690Y-98985000D01*
X179601309Y-98985000D01*
X180248690Y-98985000D01*
X180251309Y-98985000D01*
X180501309Y-98985000D01*
X181151309Y-98985000D01*
X181158850Y-98981876D01*
X181240301Y-99063327D01*
X181473690Y-99160000D01*
X181726309Y-99160000D01*
X183526309Y-99160000D01*
X183759698Y-99063327D01*
X183938327Y-98884699D01*
X184035000Y-98651310D01*
X184035000Y-98398691D01*
X184035000Y-97348691D01*
X183938327Y-97115302D01*
X183759699Y-96936673D01*
X183526310Y-96840000D01*
X183273691Y-96840000D01*
X181473691Y-96840000D01*
X181240302Y-96936673D01*
X181158850Y-97018123D01*
X181151310Y-97015000D01*
X180898691Y-97015000D01*
X180251310Y-97015000D01*
X180248691Y-97015000D01*
X179998691Y-97015000D01*
X179530748Y-97015000D01*
X179397809Y-96926173D01*
X179095945Y-96866128D01*
X179090660Y-96839558D01*
X178787828Y-96386339D01*
X178334609Y-96083507D01*
X177800000Y-95977167D01*
X177684991Y-96000043D01*
X177685000Y-96000000D01*
X177685000Y-95772020D01*
X177735000Y-95651310D01*
X177735000Y-95398691D01*
X177735000Y-94751310D01*
X177735000Y-94748691D01*
X177735000Y-94498691D01*
X177735000Y-93848691D01*
X177638327Y-93615302D01*
X177459699Y-93436673D01*
X177226310Y-93340000D01*
X176973691Y-93340000D01*
X176662290Y-93340000D01*
X176661145Y-93338855D01*
X176410000Y-93171045D01*
X176410000Y-92973691D01*
X176313327Y-92740302D01*
X176134699Y-92561673D01*
X175901310Y-92465000D01*
X175648691Y-92465000D01*
X174598691Y-92465000D01*
X174365302Y-92561673D01*
X174186673Y-92740301D01*
X174090000Y-92973690D01*
X174090000Y-93226309D01*
X174090000Y-94815000D01*
X173410000Y-94815000D01*
X173410000Y-94773691D01*
X173410000Y-92973691D01*
X173313327Y-92740302D01*
X173134699Y-92561673D01*
X172901310Y-92465000D01*
X172648691Y-92465000D01*
X171598691Y-92465000D01*
X171378497Y-92556207D01*
X170411145Y-91588855D01*
X170107809Y-91386173D01*
X169750000Y-91315000D01*
X168810000Y-91315000D01*
X168810000Y-90508000D01*
X169008000Y-90508000D01*
X169008000Y-90435000D01*
X169050000Y-90435000D01*
X169501309Y-90435000D01*
X169734698Y-90338327D01*
X169913327Y-90159699D01*
X170010000Y-89926310D01*
X170010000Y-89673691D01*
X170010000Y-89435000D01*
X170050000Y-89435000D01*
X170498690Y-89435000D01*
X170501309Y-89435000D01*
X170751309Y-89435000D01*
X170950000Y-89435000D01*
X170990000Y-89435000D01*
X170990000Y-89926309D01*
X171086673Y-90159698D01*
X171265301Y-90338327D01*
X171498690Y-90435000D01*
X171751309Y-90435000D01*
X171950000Y-90435000D01*
X172190000Y-90435000D01*
X172190000Y-91851309D01*
X172286673Y-92084698D01*
X172465301Y-92263327D01*
X172698690Y-92360000D01*
X172951309Y-92360000D01*
X174101309Y-92360000D01*
X174334698Y-92263327D01*
X174513327Y-92084699D01*
X174575334Y-91935000D01*
X182612710Y-91935000D01*
X183065000Y-92387290D01*
X183065000Y-93840000D01*
X181473691Y-93840000D01*
X181240302Y-93936673D01*
X181061673Y-94115301D01*
X180965000Y-94348690D01*
X180965000Y-94601309D01*
X180965000Y-95651309D01*
X181061673Y-95884698D01*
X181240301Y-96063327D01*
X181473690Y-96160000D01*
X181726309Y-96160000D01*
X183526309Y-96160000D01*
X183759698Y-96063327D01*
X183922298Y-95900727D01*
X184107809Y-95863827D01*
X184411145Y-95661145D01*
X184661145Y-95411145D01*
X184815000Y-95180883D01*
X184815000Y-99315000D01*
G36*
X148247000Y-87127000D02*
X148227000Y-87127000D01*
X148227000Y-87147000D01*
X147973000Y-87147000D01*
X147973000Y-87127000D01*
X147953000Y-87127000D01*
X147953000Y-86873000D01*
X147973000Y-86873000D01*
X147973000Y-86632937D01*
X148098691Y-86685000D01*
X148227000Y-86685000D01*
X148227000Y-86873000D01*
X148247000Y-86873000D01*
X148247000Y-87127000D01*
X148247000Y-87127000D01*
G37*
X148247000Y-87127000D02*
X148227000Y-87127000D01*
X148227000Y-87147000D01*
X147973000Y-87147000D01*
X147973000Y-87127000D01*
X147953000Y-87127000D01*
X147953000Y-86873000D01*
X147973000Y-86873000D01*
X147973000Y-86632937D01*
X148098691Y-86685000D01*
X148227000Y-86685000D01*
X148227000Y-86873000D01*
X148247000Y-86873000D01*
X148247000Y-87127000D01*
G36*
X148272750Y-88794925D02*
X148265162Y-88813201D01*
X148264989Y-89010760D01*
X148227000Y-89048750D01*
X148227000Y-90123000D01*
X148247000Y-90123000D01*
X148247000Y-90377000D01*
X148227000Y-90377000D01*
X148227000Y-90397000D01*
X147973000Y-90397000D01*
X147973000Y-90377000D01*
X147953000Y-90377000D01*
X147953000Y-90123000D01*
X147973000Y-90123000D01*
X147973000Y-89048750D01*
X147814250Y-88890000D01*
X147398691Y-88890000D01*
X147335000Y-88916381D01*
X147335000Y-88333618D01*
X147398691Y-88360000D01*
X147814250Y-88360000D01*
X147972998Y-88201252D01*
X147972998Y-88360000D01*
X148064859Y-88360000D01*
X148064838Y-88385167D01*
X148206883Y-88728943D01*
X148272750Y-88794925D01*
X148272750Y-88794925D01*
G37*
X148272750Y-88794925D02*
X148265162Y-88813201D01*
X148264989Y-89010760D01*
X148227000Y-89048750D01*
X148227000Y-90123000D01*
X148247000Y-90123000D01*
X148247000Y-90377000D01*
X148227000Y-90377000D01*
X148227000Y-90397000D01*
X147973000Y-90397000D01*
X147973000Y-90377000D01*
X147953000Y-90377000D01*
X147953000Y-90123000D01*
X147973000Y-90123000D01*
X147973000Y-89048750D01*
X147814250Y-88890000D01*
X147398691Y-88890000D01*
X147335000Y-88916381D01*
X147335000Y-88333618D01*
X147398691Y-88360000D01*
X147814250Y-88360000D01*
X147972998Y-88201252D01*
X147972998Y-88360000D01*
X148064859Y-88360000D01*
X148064838Y-88385167D01*
X148206883Y-88728943D01*
X148272750Y-88794925D01*
G36*
X148373000Y-84923750D02*
X148264250Y-84815000D01*
X148098691Y-84815000D01*
X147865302Y-84911673D01*
X147686673Y-85090301D01*
X147590000Y-85323690D01*
X147590000Y-85464250D01*
X147748748Y-85622998D01*
X147590000Y-85622998D01*
X147590000Y-85640000D01*
X147398691Y-85640000D01*
X147335000Y-85666381D01*
X147335000Y-80377000D01*
X147640000Y-80377000D01*
X147640000Y-80614250D01*
X147798750Y-80773000D01*
X148373000Y-80773000D01*
X148373000Y-81027000D01*
X147798750Y-81027000D01*
X147640000Y-81185750D01*
X147640000Y-81601309D01*
X147661056Y-81652144D01*
X147590000Y-81823690D01*
X147590000Y-81964250D01*
X147748750Y-82123000D01*
X148373000Y-82123000D01*
X148373000Y-82377000D01*
X147748750Y-82377000D01*
X147590000Y-82535750D01*
X147590000Y-82676310D01*
X147686673Y-82909699D01*
X147776974Y-83000000D01*
X147686673Y-83090301D01*
X147590000Y-83323690D01*
X147590000Y-83464250D01*
X147748750Y-83623000D01*
X148373000Y-83623000D01*
X148373000Y-83877000D01*
X147748750Y-83877000D01*
X147590000Y-84035750D01*
X147590000Y-84176310D01*
X147686673Y-84409699D01*
X147865302Y-84588327D01*
X148098691Y-84685000D01*
X148264250Y-84685000D01*
X148373000Y-84576250D01*
X148373000Y-84923750D01*
X148373000Y-84923750D01*
G37*
X148373000Y-84923750D02*
X148264250Y-84815000D01*
X148098691Y-84815000D01*
X147865302Y-84911673D01*
X147686673Y-85090301D01*
X147590000Y-85323690D01*
X147590000Y-85464250D01*
X147748748Y-85622998D01*
X147590000Y-85622998D01*
X147590000Y-85640000D01*
X147398691Y-85640000D01*
X147335000Y-85666381D01*
X147335000Y-80377000D01*
X147640000Y-80377000D01*
X147640000Y-80614250D01*
X147798750Y-80773000D01*
X148373000Y-80773000D01*
X148373000Y-81027000D01*
X147798750Y-81027000D01*
X147640000Y-81185750D01*
X147640000Y-81601309D01*
X147661056Y-81652144D01*
X147590000Y-81823690D01*
X147590000Y-81964250D01*
X147748750Y-82123000D01*
X148373000Y-82123000D01*
X148373000Y-82377000D01*
X147748750Y-82377000D01*
X147590000Y-82535750D01*
X147590000Y-82676310D01*
X147686673Y-82909699D01*
X147776974Y-83000000D01*
X147686673Y-83090301D01*
X147590000Y-83323690D01*
X147590000Y-83464250D01*
X147748750Y-83623000D01*
X148373000Y-83623000D01*
X148373000Y-83877000D01*
X147748750Y-83877000D01*
X147590000Y-84035750D01*
X147590000Y-84176310D01*
X147686673Y-84409699D01*
X147865302Y-84588327D01*
X148098691Y-84685000D01*
X148264250Y-84685000D01*
X148373000Y-84576250D01*
X148373000Y-84923750D01*
M02*
