%FSLAX46Y46*%
G04 Gerber Fmt 4.6, Leading zero omitted, Abs format (unit mm)*
G04 Created by KiCad (PCBNEW (2014-10-29 BZR 5235)-product) date 10/30/2014 3:07:56 PM*
%MOMM*%
G01*
G04 APERTURE LIST*
%ADD10C,0.100000*%
%ADD11R,0.600000X0.600000*%
%ADD12R,1.100000X0.600000*%
%ADD13C,2.050000*%
%ADD14R,7.760000X1.600000*%
%ADD15R,2.200000X2.200000*%
%ADD16R,5.300000X1.800000*%
%ADD17R,1.524000X1.524000*%
%ADD18C,1.524000*%
%ADD19R,0.900000X0.300000*%
%ADD20R,0.300000X0.900000*%
%ADD21R,5.900000X5.900000*%
%ADD22R,1.524000X2.286000*%
%ADD23O,1.524000X2.286000*%
%ADD24R,0.650000X0.600000*%
%ADD25R,1.450000X1.150000*%
%ADD26R,0.600000X0.650000*%
%ADD27R,2.500000X2.500000*%
%ADD28R,2.100000X1.100000*%
%ADD29R,2.100000X3.500000*%
%ADD30C,0.254000*%
G04 APERTURE END LIST*
D10*
D11*
X171950000Y-90500000D03*
X171050000Y-90500000D03*
D12*
X171600000Y-88950000D03*
X171600000Y-87050000D03*
X171600000Y-88000000D03*
X169400000Y-87050000D03*
X169400000Y-88950000D03*
D13*
X179500000Y-81000000D03*
D14*
X179500000Y-77920000D03*
X179500000Y-84080000D03*
D15*
X182280000Y-78220000D03*
X182280000Y-83780000D03*
X176720000Y-78220000D03*
X176720000Y-83780000D03*
D16*
X149400000Y-73000000D03*
X158600000Y-73000000D03*
D17*
X173249680Y-72500000D03*
D18*
X170750320Y-72500000D03*
D19*
X157150000Y-87250000D03*
X157150000Y-86750000D03*
X157150000Y-86250000D03*
X157150000Y-85750000D03*
X157150000Y-85250000D03*
X157150000Y-84750000D03*
X157150000Y-84250000D03*
X157150000Y-83750000D03*
X157150000Y-83250000D03*
X157150000Y-82750000D03*
X157150000Y-82250000D03*
X157150000Y-81750000D03*
X157150000Y-81250000D03*
X157150000Y-80750000D03*
D20*
X156250000Y-79850000D03*
X155750000Y-79850000D03*
X155250000Y-79850000D03*
X154750000Y-79850000D03*
X154250000Y-79850000D03*
X153750000Y-79850000D03*
X153250000Y-79850000D03*
X152750000Y-79850000D03*
X152250000Y-79850000D03*
X151750000Y-79850000D03*
X151250000Y-79850000D03*
X150750000Y-79850000D03*
X150250000Y-79850000D03*
X149750000Y-79850000D03*
D19*
X148850000Y-80750000D03*
X148850000Y-81250000D03*
X148850000Y-81750000D03*
X148850000Y-82250000D03*
X148850000Y-82750000D03*
X148850000Y-83250000D03*
X148850000Y-83750000D03*
X148850000Y-84250000D03*
X148850000Y-84750000D03*
X148850000Y-85250000D03*
X148850000Y-85750000D03*
X148850000Y-86250000D03*
X148850000Y-86750000D03*
X148850000Y-87250000D03*
D20*
X149750000Y-88150000D03*
X150250000Y-88150000D03*
X150750000Y-88150000D03*
X151250000Y-88150000D03*
X151750000Y-88150000D03*
X152250000Y-88150000D03*
X152750000Y-88150000D03*
X153250000Y-88150000D03*
X153750000Y-88150000D03*
X154250000Y-88150000D03*
X154750000Y-88150000D03*
X155250000Y-88150000D03*
X155750000Y-88150000D03*
X156250000Y-88150000D03*
D21*
X153000000Y-84000000D03*
D11*
X155000000Y-90050000D03*
X155000000Y-90950000D03*
X155000000Y-77050000D03*
X155000000Y-77950000D03*
D22*
X172720000Y-97790000D03*
D23*
X175260000Y-97790000D03*
X177800000Y-97790000D03*
X160020000Y-94996000D03*
X162560000Y-94996000D03*
X165100000Y-94996000D03*
X167640000Y-94996000D03*
X167640000Y-98044000D03*
X165100000Y-98044000D03*
X162560000Y-98044000D03*
X160020000Y-98044000D03*
X170180000Y-98044000D03*
X170180000Y-94996000D03*
X157480000Y-94996000D03*
X157480000Y-98044000D03*
D22*
X147320000Y-98044000D03*
D23*
X149860000Y-98044000D03*
X152400000Y-98044000D03*
X154940000Y-98044000D03*
X154940000Y-94996000D03*
X152400000Y-94996000D03*
X149860000Y-94996000D03*
X147320000Y-94996000D03*
D17*
X166249680Y-72500000D03*
D18*
X163750320Y-72500000D03*
D12*
X171600000Y-80950000D03*
X171600000Y-79050000D03*
X171600000Y-80000000D03*
X169400000Y-79050000D03*
X169400000Y-80950000D03*
D24*
X148550000Y-69500000D03*
X149450000Y-69500000D03*
X159450000Y-69500000D03*
X158550000Y-69500000D03*
D25*
X164800000Y-81300000D03*
X164800000Y-79500000D03*
X164750000Y-85600000D03*
X164750000Y-87400000D03*
D26*
X150000000Y-77950000D03*
X150000000Y-77050000D03*
D13*
X179500000Y-89000000D03*
D14*
X179500000Y-85920000D03*
X179500000Y-92080000D03*
D15*
X182280000Y-86220000D03*
X182280000Y-91780000D03*
X176720000Y-86220000D03*
X176720000Y-91780000D03*
D27*
X161000000Y-87500000D03*
X162500000Y-90250000D03*
D28*
X177400000Y-70200000D03*
X177400000Y-72500000D03*
X177400000Y-74800000D03*
D29*
X183600000Y-72500000D03*
D11*
X150000000Y-90050000D03*
X150000000Y-90950000D03*
X159000000Y-90050000D03*
X159000000Y-90950000D03*
X160000000Y-90050000D03*
X160000000Y-90950000D03*
X151000000Y-90050000D03*
X151000000Y-90950000D03*
X152000000Y-90050000D03*
X152000000Y-90950000D03*
X153000000Y-90050000D03*
X153000000Y-90950000D03*
X154000000Y-90050000D03*
X154000000Y-90950000D03*
X156000000Y-90050000D03*
X156000000Y-90950000D03*
X158000000Y-90050000D03*
X158000000Y-90950000D03*
X149000000Y-77950000D03*
X149000000Y-77050000D03*
X160700000Y-84000000D03*
X159800000Y-84000000D03*
X157000000Y-90950000D03*
X157000000Y-90050000D03*
X160700000Y-83000000D03*
X159800000Y-83000000D03*
X160700000Y-81500000D03*
X159800000Y-81500000D03*
X160700000Y-80500000D03*
X159800000Y-80500000D03*
X168000000Y-80550000D03*
X168000000Y-81450000D03*
X168000000Y-79450000D03*
X168000000Y-78550000D03*
X169950000Y-82500000D03*
X169050000Y-82500000D03*
X169950000Y-77500000D03*
X169050000Y-77500000D03*
X171950000Y-82500000D03*
X171050000Y-82500000D03*
X171950000Y-77500000D03*
X171050000Y-77500000D03*
X173000000Y-80950000D03*
X173000000Y-80050000D03*
X168000000Y-88550000D03*
X168000000Y-89450000D03*
X168000000Y-87450000D03*
X168000000Y-86550000D03*
X169950000Y-90500000D03*
X169050000Y-90500000D03*
X169950000Y-85500000D03*
X169050000Y-85500000D03*
X171950000Y-85500000D03*
X171050000Y-85500000D03*
X173000000Y-88950000D03*
X173000000Y-88050000D03*
X174700000Y-81000000D03*
X173800000Y-81000000D03*
X174700000Y-89000000D03*
X173800000Y-89000000D03*
D30*
G36*
X183273000Y-85273000D02*
X175727000Y-85273000D01*
X175727000Y-84727000D01*
X183273000Y-84727000D01*
X183273000Y-85273000D01*
X183273000Y-85273000D01*
G37*
X183273000Y-85273000D02*
X175727000Y-85273000D01*
X175727000Y-84727000D01*
X183273000Y-84727000D01*
X183273000Y-85273000D01*
M02*
