%FSLAX46Y46*%
G04 Gerber Fmt 4.6, Leading zero omitted, Abs format (unit mm)*
G04 Created by KiCad (PCBNEW (2014-10-26 BZR 5226)-product) date Tue 28 Oct 2014 10:56:12 AM EDT*
%MOMM*%
G01*
G04 APERTURE LIST*
%ADD10C,0.100000*%
%ADD11R,1.524000X1.524000*%
%ADD12C,1.524000*%
%ADD13R,1.524000X2.286000*%
%ADD14O,1.524000X2.286000*%
%ADD15R,2.500000X2.500000*%
%ADD16C,0.600000*%
%ADD17C,0.250000*%
%ADD18C,0.600000*%
%ADD19C,0.254000*%
G04 APERTURE END LIST*
D10*
D11*
X173249680Y-72500000D03*
D12*
X170750320Y-72500000D03*
D13*
X172720000Y-97790000D03*
D14*
X175260000Y-97790000D03*
X177800000Y-97790000D03*
X160020000Y-94996000D03*
X162560000Y-94996000D03*
X165100000Y-94996000D03*
X167640000Y-94996000D03*
X167640000Y-98044000D03*
X165100000Y-98044000D03*
X162560000Y-98044000D03*
X160020000Y-98044000D03*
X170180000Y-98044000D03*
X170180000Y-94996000D03*
X157480000Y-94996000D03*
X157480000Y-98044000D03*
D13*
X147320000Y-98044000D03*
D14*
X149860000Y-98044000D03*
X152400000Y-98044000D03*
X154940000Y-98044000D03*
X154940000Y-94996000D03*
X152400000Y-94996000D03*
X149860000Y-94996000D03*
X147320000Y-94996000D03*
D11*
X166249680Y-72500000D03*
D12*
X163750320Y-72500000D03*
D15*
X161000000Y-87500000D03*
X162500000Y-90250000D03*
D16*
X163600000Y-79600000D03*
X167000000Y-80000000D03*
X179000000Y-71000000D03*
X181000000Y-71000000D03*
X181000000Y-70000000D03*
X179000000Y-70000000D03*
X155000000Y-69500000D03*
X152500000Y-69500000D03*
X184000000Y-77500000D03*
X184000000Y-79000000D03*
X184000000Y-80500000D03*
X184000000Y-82000000D03*
X184000000Y-83500000D03*
X184000000Y-85000000D03*
X184000000Y-86500000D03*
X184000000Y-88000000D03*
X184000000Y-89500000D03*
X165500000Y-91000000D03*
X165500000Y-90000000D03*
X149000000Y-88200000D03*
X170500000Y-83750000D03*
X151000000Y-84000000D03*
X153000000Y-82000000D03*
X148000000Y-79000000D03*
X163500000Y-87250000D03*
X166250000Y-86750000D03*
X182500000Y-93000000D03*
X181000000Y-93000000D03*
X179500000Y-93000000D03*
X178000000Y-93000000D03*
X176500000Y-93000000D03*
X182500000Y-77000000D03*
X181000000Y-77000000D03*
X179500000Y-77000000D03*
X178000000Y-77000000D03*
X176500000Y-77000000D03*
X182500000Y-85000000D03*
X181000000Y-85000000D03*
X179500000Y-85000000D03*
X178000000Y-85000000D03*
X176500000Y-85000000D03*
X151000000Y-82000000D03*
X155000000Y-82000000D03*
X153000000Y-84000000D03*
X151000000Y-86000000D03*
X153000000Y-86000000D03*
X155000000Y-86000000D03*
X155000000Y-84000000D03*
X152000000Y-83000000D03*
X154000000Y-83000000D03*
X152000000Y-85000000D03*
X154000000Y-85000000D03*
X157000000Y-88000000D03*
X170500000Y-91400000D03*
X172500000Y-85500000D03*
X174250000Y-85500000D03*
X172750000Y-77500000D03*
X174000000Y-77500000D03*
X175250000Y-77500000D03*
X150250000Y-69500000D03*
X157750000Y-69500000D03*
X149000000Y-91500000D03*
X162500000Y-78000000D03*
X160500000Y-78000000D03*
X162500000Y-76000000D03*
X154500000Y-76000000D03*
X156500000Y-76000000D03*
X158500000Y-76000000D03*
X160500000Y-76000000D03*
X153750000Y-77500000D03*
X152850021Y-89225114D03*
X149200000Y-89000000D03*
X151250000Y-77500000D03*
X183000000Y-71250000D03*
X184250000Y-71250000D03*
X183600000Y-72500000D03*
X183000000Y-73750000D03*
X184250000Y-73750000D03*
X156854438Y-88808537D03*
X158000000Y-91750000D03*
X157000000Y-91750000D03*
X169400000Y-80200000D03*
X169400000Y-80200000D03*
X169250000Y-88250000D03*
X172400000Y-80000000D03*
X172500000Y-88000000D03*
X159000000Y-84000000D03*
X167250000Y-89250000D03*
X159000000Y-83000000D03*
X167250000Y-86750000D03*
X159000000Y-81500000D03*
X167250000Y-81250000D03*
X167250000Y-81250000D03*
X159000000Y-80500000D03*
X167250000Y-78750000D03*
X167250000Y-78750000D03*
X166000000Y-82200000D03*
X163600000Y-82200000D03*
X158250000Y-82250000D03*
X153760729Y-78899998D03*
X151250000Y-78899998D03*
X148000000Y-89250000D03*
X158250000Y-84750000D03*
X163500000Y-85250000D03*
X156500000Y-79000000D03*
X147750000Y-81250000D03*
X147250000Y-81750000D03*
X147250000Y-82750000D03*
X147250000Y-83750000D03*
X147750000Y-84250000D03*
X147250000Y-84750000D03*
X147250000Y-85750000D03*
X147250000Y-80750000D03*
X160700000Y-82248955D03*
X160750000Y-84750000D03*
X160750000Y-79750000D03*
X168000000Y-79999151D03*
X168000000Y-88000846D03*
X166000000Y-85250000D03*
D17*
X165500000Y-93000000D02*
X163016996Y-93000000D01*
X163016996Y-93000000D02*
X159407656Y-93000000D01*
X168500000Y-93000000D02*
X163016996Y-93000000D01*
X168955516Y-93455516D02*
X168500000Y-93000000D01*
D18*
X168955516Y-97790000D02*
X167640000Y-97790000D01*
X170180000Y-97790000D02*
X168955516Y-97790000D01*
D17*
X168955516Y-97790000D02*
X168955516Y-93455516D01*
X160500000Y-93000000D02*
X159407656Y-93000000D01*
X159407656Y-93000000D02*
X158117540Y-93000000D01*
X166377416Y-93877416D02*
X165500000Y-93000000D01*
D18*
X166377416Y-97790000D02*
X165100000Y-97790000D01*
X167640000Y-97790000D02*
X166377416Y-97790000D01*
D17*
X166377416Y-97790000D02*
X166377416Y-93877416D01*
X158117540Y-93000000D02*
X155500000Y-93000000D01*
X163860480Y-93360480D02*
X163500000Y-93000000D01*
X163500000Y-93000000D02*
X158117540Y-93000000D01*
D18*
X163860480Y-97790000D02*
X162560000Y-97790000D01*
X165100000Y-97790000D02*
X163860480Y-97790000D01*
D17*
X163860480Y-97790000D02*
X163860480Y-93360480D01*
X161300160Y-93800160D02*
X160500000Y-93000000D01*
D18*
X161300160Y-97790000D02*
X160020000Y-97790000D01*
X162560000Y-97790000D02*
X161300160Y-97790000D01*
D17*
X161300160Y-97790000D02*
X161300160Y-93800160D01*
X155500000Y-93000000D02*
X154934920Y-93000000D01*
X154934920Y-93000000D02*
X152036780Y-93000000D01*
X158000000Y-93000000D02*
X154934920Y-93000000D01*
X158757620Y-93757620D02*
X158000000Y-93000000D01*
D18*
X158757620Y-97790000D02*
X157480000Y-97790000D01*
X160020000Y-97790000D02*
X158757620Y-97790000D01*
D17*
X158757620Y-97790000D02*
X158757620Y-93757620D01*
X150276560Y-93000000D02*
X152036780Y-93000000D01*
X152036780Y-93000000D02*
X153000000Y-93000000D01*
X156161740Y-93661740D02*
X155500000Y-93000000D01*
D18*
X156161740Y-97790000D02*
X154940000Y-97790000D01*
X157480000Y-97790000D02*
X156161740Y-97790000D01*
D17*
X156161740Y-97790000D02*
X156161740Y-93661740D01*
D18*
X154940000Y-97790000D02*
X153654760Y-97790000D01*
D17*
X153654760Y-93654760D02*
X153654760Y-97790000D01*
D18*
X153654760Y-97790000D02*
X152400000Y-97790000D01*
D17*
X153000000Y-93000000D02*
X153654760Y-93654760D01*
X150276560Y-93000000D02*
X150500000Y-93000000D01*
X149000000Y-93000000D02*
X150276560Y-93000000D01*
D18*
X152400000Y-97790000D02*
X151112220Y-97790000D01*
D17*
X150500000Y-93000000D02*
X151112220Y-93612220D01*
D18*
X151112220Y-97790000D02*
X149860000Y-97790000D01*
D17*
X151112220Y-93612220D02*
X151112220Y-97790000D01*
X148623020Y-93376980D02*
X149000000Y-93000000D01*
D18*
X148623020Y-97790000D02*
X147320000Y-97790000D01*
X149860000Y-97790000D02*
X148623020Y-97790000D01*
D17*
X148623020Y-97790000D02*
X148623020Y-93376980D01*
D18*
X175260000Y-97790000D02*
X175260000Y-95760000D01*
X172500000Y-95000000D02*
X170180000Y-97320000D01*
X174500000Y-95000000D02*
X172500000Y-95000000D01*
X175260000Y-95760000D02*
X174500000Y-95000000D01*
X170180000Y-97320000D02*
X170180000Y-97790000D01*
D19*
G36*
X184873000Y-99373000D02*
X177889275Y-99373000D01*
X178255011Y-99300251D01*
X178640750Y-99042508D01*
X178898493Y-98656769D01*
X178989000Y-98201758D01*
X178989000Y-97378242D01*
X178898493Y-96923231D01*
X178640750Y-96537492D01*
X178255011Y-96279749D01*
X177800000Y-96189242D01*
X177344989Y-96279749D01*
X176959250Y-96537492D01*
X176701507Y-96923231D01*
X176640955Y-97227642D01*
X176502059Y-96757059D01*
X176158026Y-96331370D01*
X175677277Y-96069740D01*
X175603070Y-96054780D01*
X175387000Y-96177280D01*
X175387000Y-97663000D01*
X175407000Y-97663000D01*
X175407000Y-97917000D01*
X175387000Y-97917000D01*
X175387000Y-97937000D01*
X175133000Y-97937000D01*
X175133000Y-97917000D01*
X175113000Y-97917000D01*
X175113000Y-97663000D01*
X175133000Y-97663000D01*
X175133000Y-96177280D01*
X174916930Y-96054780D01*
X174842723Y-96069740D01*
X174438680Y-96289625D01*
X174438680Y-73346936D01*
X174438680Y-73177065D01*
X174438680Y-71653065D01*
X174373673Y-71496124D01*
X174253556Y-71376007D01*
X174096616Y-71311000D01*
X173926745Y-71311000D01*
X172402745Y-71311000D01*
X172245804Y-71376007D01*
X172125687Y-71496124D01*
X172060680Y-71653064D01*
X172060680Y-71822935D01*
X172060680Y-71981218D01*
X171972717Y-71768857D01*
X171730533Y-71699392D01*
X171550928Y-71878997D01*
X171550928Y-71519787D01*
X171481463Y-71277603D01*
X170958018Y-71090856D01*
X170402952Y-71118638D01*
X170019177Y-71277603D01*
X169949712Y-71519787D01*
X170750320Y-72320395D01*
X171550928Y-71519787D01*
X171550928Y-71878997D01*
X170929925Y-72500000D01*
X171730533Y-73300608D01*
X171972717Y-73231143D01*
X172060680Y-72984585D01*
X172060680Y-73346935D01*
X172125687Y-73503876D01*
X172245804Y-73623993D01*
X172402744Y-73689000D01*
X172572615Y-73689000D01*
X174096615Y-73689000D01*
X174253556Y-73623993D01*
X174373673Y-73503876D01*
X174438680Y-73346936D01*
X174438680Y-96289625D01*
X174361974Y-96331370D01*
X174017941Y-96757059D01*
X173909000Y-97126151D01*
X173909000Y-96562065D01*
X173843993Y-96405124D01*
X173723876Y-96285007D01*
X173566936Y-96220000D01*
X173508000Y-96220000D01*
X173508000Y-80258000D01*
X173508000Y-77742000D01*
X172008000Y-77742000D01*
X172008000Y-76492000D01*
X171550928Y-76492000D01*
X171550928Y-73480213D01*
X170750320Y-72679605D01*
X170570715Y-72859210D01*
X170570715Y-72500000D01*
X169770107Y-71699392D01*
X169527923Y-71768857D01*
X169341176Y-72292302D01*
X169368958Y-72847368D01*
X169527923Y-73231143D01*
X169770107Y-73300608D01*
X170570715Y-72500000D01*
X170570715Y-72859210D01*
X169949712Y-73480213D01*
X170019177Y-73722397D01*
X170542622Y-73909144D01*
X171097688Y-73881362D01*
X171481463Y-73722397D01*
X171550928Y-73480213D01*
X171550928Y-76492000D01*
X168992000Y-76492000D01*
X168992000Y-78758000D01*
X169992000Y-78758000D01*
X169992000Y-79764002D01*
X169812350Y-79584039D01*
X169545244Y-79473126D01*
X169256025Y-79472874D01*
X168988725Y-79583320D01*
X168784039Y-79787650D01*
X168727065Y-79924856D01*
X168727126Y-79855176D01*
X168616680Y-79587876D01*
X168412350Y-79383190D01*
X168145244Y-79272277D01*
X167856025Y-79272025D01*
X167685521Y-79342475D01*
X167865961Y-79162350D01*
X167976874Y-78895244D01*
X167977126Y-78606025D01*
X167866680Y-78338725D01*
X167662350Y-78134039D01*
X167438680Y-78041162D01*
X167438680Y-73346936D01*
X167438680Y-73177065D01*
X167438680Y-71653065D01*
X167373673Y-71496124D01*
X167253556Y-71376007D01*
X167096616Y-71311000D01*
X166926745Y-71311000D01*
X165402745Y-71311000D01*
X165245804Y-71376007D01*
X165125687Y-71496124D01*
X165060680Y-71653064D01*
X165060680Y-71822935D01*
X165060680Y-71981218D01*
X164972717Y-71768857D01*
X164730533Y-71699392D01*
X164550928Y-71878997D01*
X164550928Y-71519787D01*
X164481463Y-71277603D01*
X163958018Y-71090856D01*
X163402952Y-71118638D01*
X163019177Y-71277603D01*
X162949712Y-71519787D01*
X163750320Y-72320395D01*
X164550928Y-71519787D01*
X164550928Y-71878997D01*
X163929925Y-72500000D01*
X164730533Y-73300608D01*
X164972717Y-73231143D01*
X165060680Y-72984585D01*
X165060680Y-73346935D01*
X165125687Y-73503876D01*
X165245804Y-73623993D01*
X165402744Y-73689000D01*
X165572615Y-73689000D01*
X167096615Y-73689000D01*
X167253556Y-73623993D01*
X167373673Y-73503876D01*
X167438680Y-73346936D01*
X167438680Y-78041162D01*
X167395244Y-78023126D01*
X167106025Y-78022874D01*
X166838725Y-78133320D01*
X166634039Y-78337650D01*
X166523126Y-78604756D01*
X166522874Y-78893975D01*
X166633320Y-79161275D01*
X166837650Y-79365961D01*
X167104756Y-79476874D01*
X167393975Y-79477126D01*
X167564478Y-79406675D01*
X167384039Y-79586801D01*
X167273126Y-79853907D01*
X167272874Y-80143126D01*
X167383320Y-80410426D01*
X167567033Y-80594459D01*
X167395244Y-80523126D01*
X167106025Y-80522874D01*
X166838725Y-80633320D01*
X166634039Y-80837650D01*
X166523126Y-81104756D01*
X166522874Y-81393975D01*
X166633320Y-81661275D01*
X166837650Y-81865961D01*
X167104756Y-81976874D01*
X167393975Y-81977126D01*
X167661275Y-81866680D01*
X167865961Y-81662350D01*
X167976874Y-81395244D01*
X167977126Y-81106025D01*
X167866680Y-80838725D01*
X167682966Y-80654691D01*
X167854756Y-80726025D01*
X168143975Y-80726277D01*
X168411275Y-80615831D01*
X168615961Y-80411501D01*
X168672934Y-80274294D01*
X168672874Y-80343975D01*
X168783320Y-80611275D01*
X168987650Y-80815961D01*
X169254756Y-80926874D01*
X169543975Y-80927126D01*
X169811275Y-80816680D01*
X170015961Y-80612350D01*
X170126874Y-80345244D01*
X170126950Y-80258000D01*
X171719988Y-80258000D01*
X171783320Y-80411275D01*
X171987650Y-80615961D01*
X172254756Y-80726874D01*
X172543975Y-80727126D01*
X172811275Y-80616680D01*
X173015961Y-80412350D01*
X173080053Y-80258000D01*
X173508000Y-80258000D01*
X173508000Y-96220000D01*
X173397065Y-96220000D01*
X173227126Y-96220000D01*
X173227126Y-87856025D01*
X173116680Y-87588725D01*
X173008000Y-87479855D01*
X173008000Y-85742000D01*
X172008000Y-85742000D01*
X172008000Y-84492000D01*
X168992000Y-84492000D01*
X168992000Y-86758000D01*
X169992000Y-86758000D01*
X169992000Y-88008000D01*
X171772992Y-88008000D01*
X171772874Y-88143975D01*
X171883320Y-88411275D01*
X172087650Y-88615961D01*
X172354756Y-88726874D01*
X172643975Y-88727126D01*
X172911275Y-88616680D01*
X173115961Y-88412350D01*
X173226874Y-88145244D01*
X173227126Y-87856025D01*
X173227126Y-96220000D01*
X171873065Y-96220000D01*
X171716124Y-96285007D01*
X171596007Y-96405124D01*
X171531000Y-96562064D01*
X171531000Y-96731935D01*
X171531000Y-97380151D01*
X171422059Y-97011059D01*
X171078026Y-96585370D01*
X170768610Y-96416982D01*
X171020750Y-96248508D01*
X171278493Y-95862769D01*
X171369000Y-95407758D01*
X171369000Y-94584242D01*
X171278493Y-94129231D01*
X171020750Y-93743492D01*
X170635011Y-93485749D01*
X170180000Y-93395242D01*
X169977126Y-93435596D01*
X169977126Y-88106025D01*
X169866680Y-87838725D01*
X169662350Y-87634039D01*
X169395244Y-87523126D01*
X169106025Y-87522874D01*
X168838725Y-87633320D01*
X168694319Y-87777473D01*
X168616680Y-87589571D01*
X168412350Y-87384885D01*
X168145244Y-87273972D01*
X167856025Y-87273720D01*
X167682624Y-87345367D01*
X167865961Y-87162350D01*
X167976874Y-86895244D01*
X167977126Y-86606025D01*
X167866680Y-86338725D01*
X167662350Y-86134039D01*
X167395244Y-86023126D01*
X167106025Y-86022874D01*
X166838725Y-86133320D01*
X166727126Y-86244724D01*
X166727126Y-85106025D01*
X166727126Y-82056025D01*
X166616680Y-81788725D01*
X166412350Y-81584039D01*
X166145244Y-81473126D01*
X165856025Y-81472874D01*
X165588725Y-81583320D01*
X165384039Y-81787650D01*
X165273126Y-82054756D01*
X165272874Y-82343975D01*
X165383320Y-82611275D01*
X165587650Y-82815961D01*
X165854756Y-82926874D01*
X166143975Y-82927126D01*
X166411275Y-82816680D01*
X166615961Y-82612350D01*
X166726874Y-82345244D01*
X166727126Y-82056025D01*
X166727126Y-85106025D01*
X166616680Y-84838725D01*
X166412350Y-84634039D01*
X166145244Y-84523126D01*
X165856025Y-84522874D01*
X165588725Y-84633320D01*
X165384039Y-84837650D01*
X165273126Y-85104756D01*
X165272874Y-85393975D01*
X165383320Y-85661275D01*
X165587650Y-85865961D01*
X165854756Y-85976874D01*
X166143975Y-85977126D01*
X166411275Y-85866680D01*
X166615961Y-85662350D01*
X166726874Y-85395244D01*
X166727126Y-85106025D01*
X166727126Y-86244724D01*
X166634039Y-86337650D01*
X166523126Y-86604756D01*
X166522874Y-86893975D01*
X166633320Y-87161275D01*
X166837650Y-87365961D01*
X167104756Y-87476874D01*
X167393975Y-87477126D01*
X167567375Y-87405478D01*
X167384039Y-87588496D01*
X167273126Y-87855602D01*
X167272874Y-88144821D01*
X167383320Y-88412121D01*
X167564143Y-88593259D01*
X167395244Y-88523126D01*
X167106025Y-88522874D01*
X166838725Y-88633320D01*
X166634039Y-88837650D01*
X166523126Y-89104756D01*
X166522874Y-89393975D01*
X166633320Y-89661275D01*
X166837650Y-89865961D01*
X167104756Y-89976874D01*
X167393975Y-89977126D01*
X167661275Y-89866680D01*
X167865961Y-89662350D01*
X167976874Y-89395244D01*
X167977126Y-89106025D01*
X167866680Y-88838725D01*
X167685856Y-88657586D01*
X167854756Y-88727720D01*
X168143975Y-88727972D01*
X168411275Y-88617526D01*
X168555680Y-88473372D01*
X168633320Y-88661275D01*
X168837650Y-88865961D01*
X169104756Y-88976874D01*
X169393975Y-88977126D01*
X169661275Y-88866680D01*
X169865961Y-88662350D01*
X169976874Y-88395244D01*
X169977126Y-88106025D01*
X169977126Y-93435596D01*
X169724989Y-93485749D01*
X169339250Y-93743492D01*
X169081507Y-94129231D01*
X168991000Y-94584242D01*
X168991000Y-95407758D01*
X169081507Y-95862769D01*
X169339250Y-96248508D01*
X169591389Y-96416982D01*
X169281974Y-96585370D01*
X168937941Y-97011059D01*
X168910000Y-97105723D01*
X168882059Y-97011059D01*
X168538026Y-96585370D01*
X168228610Y-96416982D01*
X168480750Y-96248508D01*
X168738493Y-95862769D01*
X168829000Y-95407758D01*
X168829000Y-94584242D01*
X168738493Y-94129231D01*
X168480750Y-93743492D01*
X168095011Y-93485749D01*
X167640000Y-93395242D01*
X167184989Y-93485749D01*
X166799250Y-93743492D01*
X166541507Y-94129231D01*
X166451000Y-94584242D01*
X166451000Y-95407758D01*
X166541507Y-95862769D01*
X166799250Y-96248508D01*
X167051389Y-96416982D01*
X166741974Y-96585370D01*
X166397941Y-97011059D01*
X166370000Y-97105723D01*
X166342059Y-97011059D01*
X165998026Y-96585370D01*
X165688610Y-96416982D01*
X165940750Y-96248508D01*
X166198493Y-95862769D01*
X166289000Y-95407758D01*
X166289000Y-94584242D01*
X166198493Y-94129231D01*
X165940750Y-93743492D01*
X165555011Y-93485749D01*
X165100000Y-93395242D01*
X164644989Y-93485749D01*
X164550928Y-93548598D01*
X164550928Y-73480213D01*
X163750320Y-72679605D01*
X163570715Y-72859210D01*
X163570715Y-72500000D01*
X162770107Y-71699392D01*
X162527923Y-71768857D01*
X162341176Y-72292302D01*
X162368958Y-72847368D01*
X162527923Y-73231143D01*
X162770107Y-73300608D01*
X163570715Y-72500000D01*
X163570715Y-72859210D01*
X162949712Y-73480213D01*
X163019177Y-73722397D01*
X163542622Y-73909144D01*
X164097688Y-73881362D01*
X164481463Y-73722397D01*
X164550928Y-73480213D01*
X164550928Y-93548598D01*
X164327126Y-93698138D01*
X164327126Y-82056025D01*
X164216680Y-81788725D01*
X164012350Y-81584039D01*
X163745244Y-81473126D01*
X163456025Y-81472874D01*
X163188725Y-81583320D01*
X162984039Y-81787650D01*
X162873126Y-82054756D01*
X162872874Y-82343975D01*
X162983320Y-82611275D01*
X163187650Y-82815961D01*
X163454756Y-82926874D01*
X163743975Y-82927126D01*
X164011275Y-82816680D01*
X164215961Y-82612350D01*
X164326874Y-82345244D01*
X164327126Y-82056025D01*
X164327126Y-93698138D01*
X164259250Y-93743492D01*
X164227126Y-93791568D01*
X164227126Y-85106025D01*
X164116680Y-84838725D01*
X163912350Y-84634039D01*
X163645244Y-84523126D01*
X163356025Y-84522874D01*
X163088725Y-84633320D01*
X162884039Y-84837650D01*
X162773126Y-85104756D01*
X162772874Y-85393975D01*
X162883320Y-85661275D01*
X163087650Y-85865961D01*
X163354756Y-85976874D01*
X163643975Y-85977126D01*
X163911275Y-85866680D01*
X164115961Y-85662350D01*
X164226874Y-85395244D01*
X164227126Y-85106025D01*
X164227126Y-93791568D01*
X164177000Y-93866587D01*
X164177000Y-91584936D01*
X164177000Y-91415065D01*
X164177000Y-88915065D01*
X164111993Y-88758124D01*
X163991876Y-88638007D01*
X163834936Y-88573000D01*
X163665065Y-88573000D01*
X162677000Y-88573000D01*
X162677000Y-86165065D01*
X162611993Y-86008124D01*
X162491876Y-85888007D01*
X162334936Y-85823000D01*
X162165065Y-85823000D01*
X161477126Y-85823000D01*
X161477126Y-84606025D01*
X161477126Y-79606025D01*
X161366680Y-79338725D01*
X161162350Y-79134039D01*
X160895244Y-79023126D01*
X160606025Y-79022874D01*
X160338725Y-79133320D01*
X160134039Y-79337650D01*
X160023126Y-79604756D01*
X160022874Y-79893975D01*
X160133320Y-80161275D01*
X160337650Y-80365961D01*
X160604756Y-80476874D01*
X160893975Y-80477126D01*
X161161275Y-80366680D01*
X161365961Y-80162350D01*
X161476874Y-79895244D01*
X161477126Y-79606025D01*
X161477126Y-84606025D01*
X161427126Y-84485015D01*
X161427126Y-82104980D01*
X161316680Y-81837680D01*
X161112350Y-81632994D01*
X160845244Y-81522081D01*
X160556025Y-81521829D01*
X160288725Y-81632275D01*
X160084039Y-81836605D01*
X159973126Y-82103711D01*
X159972874Y-82392930D01*
X160083320Y-82660230D01*
X160287650Y-82864916D01*
X160554756Y-82975829D01*
X160843975Y-82976081D01*
X161111275Y-82865635D01*
X161315961Y-82661305D01*
X161426874Y-82394199D01*
X161427126Y-82104980D01*
X161427126Y-84485015D01*
X161366680Y-84338725D01*
X161162350Y-84134039D01*
X160895244Y-84023126D01*
X160606025Y-84022874D01*
X160338725Y-84133320D01*
X160134039Y-84337650D01*
X160023126Y-84604756D01*
X160022874Y-84893975D01*
X160133320Y-85161275D01*
X160337650Y-85365961D01*
X160604756Y-85476874D01*
X160893975Y-85477126D01*
X161161275Y-85366680D01*
X161365961Y-85162350D01*
X161476874Y-84895244D01*
X161477126Y-84606025D01*
X161477126Y-85823000D01*
X159727126Y-85823000D01*
X159727126Y-83856025D01*
X159616680Y-83588725D01*
X159528133Y-83500024D01*
X159615961Y-83412350D01*
X159726874Y-83145244D01*
X159727126Y-82856025D01*
X159616680Y-82588725D01*
X159412350Y-82384039D01*
X159145244Y-82273126D01*
X158976980Y-82272979D01*
X158977020Y-82226980D01*
X159143975Y-82227126D01*
X159411275Y-82116680D01*
X159615961Y-81912350D01*
X159726874Y-81645244D01*
X159727126Y-81356025D01*
X159616680Y-81088725D01*
X159528133Y-81000024D01*
X159615961Y-80912350D01*
X159726874Y-80645244D01*
X159727126Y-80356025D01*
X159616680Y-80088725D01*
X159412350Y-79884039D01*
X159145244Y-79773126D01*
X158856025Y-79772874D01*
X158588725Y-79883320D01*
X158384039Y-80087650D01*
X158273126Y-80354756D01*
X158272874Y-80643975D01*
X158383320Y-80911275D01*
X158471866Y-80999975D01*
X158384039Y-81087650D01*
X158273126Y-81354756D01*
X158272979Y-81523019D01*
X158106025Y-81522874D01*
X157838725Y-81633320D01*
X157634039Y-81837650D01*
X157523126Y-82104756D01*
X157522874Y-82393975D01*
X157633320Y-82661275D01*
X157837650Y-82865961D01*
X158104756Y-82976874D01*
X158273019Y-82977020D01*
X158272874Y-83143975D01*
X158383320Y-83411275D01*
X158471866Y-83499975D01*
X158384039Y-83587650D01*
X158273126Y-83854756D01*
X158272979Y-84023019D01*
X158106025Y-84022874D01*
X157838725Y-84133320D01*
X157634039Y-84337650D01*
X157523126Y-84604756D01*
X157522874Y-84893975D01*
X157633320Y-85161275D01*
X157837650Y-85365961D01*
X158104756Y-85476874D01*
X158393975Y-85477126D01*
X158661275Y-85366680D01*
X158865961Y-85162350D01*
X158976874Y-84895244D01*
X158977020Y-84726980D01*
X159143975Y-84727126D01*
X159411275Y-84616680D01*
X159615961Y-84412350D01*
X159726874Y-84145244D01*
X159727126Y-83856025D01*
X159727126Y-85823000D01*
X159665065Y-85823000D01*
X159508124Y-85888007D01*
X159388007Y-86008124D01*
X159323000Y-86165064D01*
X159323000Y-86334935D01*
X159323000Y-88834935D01*
X159388007Y-88991876D01*
X159508124Y-89111993D01*
X159665064Y-89177000D01*
X159834935Y-89177000D01*
X160823000Y-89177000D01*
X160823000Y-91584935D01*
X160888007Y-91741876D01*
X161008124Y-91861993D01*
X161165064Y-91927000D01*
X161334935Y-91927000D01*
X163834935Y-91927000D01*
X163991876Y-91861993D01*
X164111993Y-91741876D01*
X164177000Y-91584936D01*
X164177000Y-93866587D01*
X164001507Y-94129231D01*
X163911000Y-94584242D01*
X163911000Y-95407758D01*
X164001507Y-95862769D01*
X164259250Y-96248508D01*
X164511389Y-96416982D01*
X164201974Y-96585370D01*
X163857941Y-97011059D01*
X163830000Y-97105723D01*
X163802059Y-97011059D01*
X163458026Y-96585370D01*
X163148610Y-96416982D01*
X163400750Y-96248508D01*
X163658493Y-95862769D01*
X163749000Y-95407758D01*
X163749000Y-94584242D01*
X163658493Y-94129231D01*
X163400750Y-93743492D01*
X163015011Y-93485749D01*
X162560000Y-93395242D01*
X162104989Y-93485749D01*
X161719250Y-93743492D01*
X161461507Y-94129231D01*
X161371000Y-94584242D01*
X161371000Y-95407758D01*
X161461507Y-95862769D01*
X161719250Y-96248508D01*
X161971389Y-96416982D01*
X161661974Y-96585370D01*
X161317941Y-97011059D01*
X161290000Y-97105723D01*
X161262059Y-97011059D01*
X160918026Y-96585370D01*
X160608610Y-96416982D01*
X160860750Y-96248508D01*
X161118493Y-95862769D01*
X161209000Y-95407758D01*
X161209000Y-94584242D01*
X161118493Y-94129231D01*
X160860750Y-93743492D01*
X160475011Y-93485749D01*
X160020000Y-93395242D01*
X159564989Y-93485749D01*
X159179250Y-93743492D01*
X158921507Y-94129231D01*
X158831000Y-94584242D01*
X158831000Y-95407758D01*
X158921507Y-95862769D01*
X159179250Y-96248508D01*
X159431389Y-96416982D01*
X159121974Y-96585370D01*
X158777941Y-97011059D01*
X158750000Y-97105723D01*
X158727126Y-97028225D01*
X158727126Y-91606025D01*
X158616680Y-91338725D01*
X158412350Y-91134039D01*
X158145244Y-91023126D01*
X157856025Y-91022874D01*
X157588725Y-91133320D01*
X157581564Y-91140468D01*
X157581564Y-88664562D01*
X157471118Y-88397262D01*
X157266788Y-88192576D01*
X157227126Y-88176106D01*
X157227126Y-78856025D01*
X157116680Y-78588725D01*
X156912350Y-78384039D01*
X156645244Y-78273126D01*
X156356025Y-78272874D01*
X156088725Y-78383320D01*
X155884039Y-78587650D01*
X155773126Y-78854756D01*
X155772874Y-79143975D01*
X155883320Y-79411275D01*
X156087650Y-79615961D01*
X156354756Y-79726874D01*
X156643975Y-79727126D01*
X156911275Y-79616680D01*
X157115961Y-79412350D01*
X157226874Y-79145244D01*
X157227126Y-78856025D01*
X157227126Y-88176106D01*
X156999682Y-88081663D01*
X156710463Y-88081411D01*
X156443163Y-88191857D01*
X156238477Y-88396187D01*
X156127564Y-88663293D01*
X156127312Y-88952512D01*
X156237758Y-89219812D01*
X156442088Y-89424498D01*
X156709194Y-89535411D01*
X156998413Y-89535663D01*
X157265713Y-89425217D01*
X157470399Y-89220887D01*
X157581312Y-88953781D01*
X157581564Y-88664562D01*
X157581564Y-91140468D01*
X157500024Y-91221866D01*
X157412350Y-91134039D01*
X157145244Y-91023126D01*
X156856025Y-91022874D01*
X156588725Y-91133320D01*
X156384039Y-91337650D01*
X156273126Y-91604756D01*
X156272874Y-91893975D01*
X156383320Y-92161275D01*
X156587650Y-92365961D01*
X156854756Y-92476874D01*
X157143975Y-92477126D01*
X157411275Y-92366680D01*
X157499975Y-92278133D01*
X157587650Y-92365961D01*
X157854756Y-92476874D01*
X158143975Y-92477126D01*
X158411275Y-92366680D01*
X158615961Y-92162350D01*
X158726874Y-91895244D01*
X158727126Y-91606025D01*
X158727126Y-97028225D01*
X158722059Y-97011059D01*
X158378026Y-96585370D01*
X158068610Y-96416982D01*
X158320750Y-96248508D01*
X158578493Y-95862769D01*
X158669000Y-95407758D01*
X158669000Y-94584242D01*
X158578493Y-94129231D01*
X158320750Y-93743492D01*
X157935011Y-93485749D01*
X157480000Y-93395242D01*
X157024989Y-93485749D01*
X156639250Y-93743492D01*
X156381507Y-94129231D01*
X156291000Y-94584242D01*
X156291000Y-95407758D01*
X156381507Y-95862769D01*
X156639250Y-96248508D01*
X156891389Y-96416982D01*
X156581974Y-96585370D01*
X156237941Y-97011059D01*
X156210000Y-97105723D01*
X156182059Y-97011059D01*
X155838026Y-96585370D01*
X155528610Y-96416982D01*
X155780750Y-96248508D01*
X156038493Y-95862769D01*
X156129000Y-95407758D01*
X156129000Y-94584242D01*
X156038493Y-94129231D01*
X155780750Y-93743492D01*
X155395011Y-93485749D01*
X154940000Y-93395242D01*
X154487855Y-93485178D01*
X154487855Y-78756023D01*
X154377409Y-78488723D01*
X154173079Y-78284037D01*
X153905973Y-78173124D01*
X153616754Y-78172872D01*
X153349454Y-78283318D01*
X153144768Y-78487648D01*
X153033855Y-78754754D01*
X153033603Y-79043973D01*
X153144049Y-79311273D01*
X153348379Y-79515959D01*
X153615485Y-79626872D01*
X153904704Y-79627124D01*
X154172004Y-79516678D01*
X154376690Y-79312348D01*
X154487603Y-79045242D01*
X154487855Y-78756023D01*
X154487855Y-93485178D01*
X154484989Y-93485749D01*
X154099250Y-93743492D01*
X153841507Y-94129231D01*
X153751000Y-94584242D01*
X153751000Y-95407758D01*
X153841507Y-95862769D01*
X154099250Y-96248508D01*
X154351389Y-96416982D01*
X154041974Y-96585370D01*
X153697941Y-97011059D01*
X153670000Y-97105723D01*
X153642059Y-97011059D01*
X153298026Y-96585370D01*
X152988610Y-96416982D01*
X153240750Y-96248508D01*
X153498493Y-95862769D01*
X153589000Y-95407758D01*
X153589000Y-94584242D01*
X153577147Y-94524652D01*
X153577147Y-89081139D01*
X153466701Y-88813839D01*
X153262371Y-88609153D01*
X152995265Y-88498240D01*
X152706046Y-88497988D01*
X152438746Y-88608434D01*
X152234060Y-88812764D01*
X152123147Y-89079870D01*
X152122895Y-89369089D01*
X152233341Y-89636389D01*
X152437671Y-89841075D01*
X152704777Y-89951988D01*
X152993996Y-89952240D01*
X153261296Y-89841794D01*
X153465982Y-89637464D01*
X153576895Y-89370358D01*
X153577147Y-89081139D01*
X153577147Y-94524652D01*
X153498493Y-94129231D01*
X153240750Y-93743492D01*
X152855011Y-93485749D01*
X152400000Y-93395242D01*
X151977126Y-93479356D01*
X151977126Y-78756023D01*
X151866680Y-78488723D01*
X151662350Y-78284037D01*
X151459796Y-78199928D01*
X151661275Y-78116680D01*
X151865961Y-77912350D01*
X151976874Y-77645244D01*
X151977126Y-77356025D01*
X151866680Y-77088725D01*
X151662350Y-76884039D01*
X151395244Y-76773126D01*
X151106025Y-76772874D01*
X150838725Y-76883320D01*
X150634039Y-77087650D01*
X150523126Y-77354756D01*
X150522874Y-77643975D01*
X150633320Y-77911275D01*
X150837650Y-78115961D01*
X151040203Y-78200069D01*
X150838725Y-78283318D01*
X150634039Y-78487648D01*
X150523126Y-78754754D01*
X150522874Y-79043973D01*
X150633320Y-79311273D01*
X150837650Y-79515959D01*
X151104756Y-79626872D01*
X151393975Y-79627124D01*
X151661275Y-79516678D01*
X151865961Y-79312348D01*
X151976874Y-79045242D01*
X151977126Y-78756023D01*
X151977126Y-93479356D01*
X151944989Y-93485749D01*
X151559250Y-93743492D01*
X151301507Y-94129231D01*
X151211000Y-94584242D01*
X151211000Y-95407758D01*
X151301507Y-95862769D01*
X151559250Y-96248508D01*
X151811389Y-96416982D01*
X151501974Y-96585370D01*
X151157941Y-97011059D01*
X151130000Y-97105723D01*
X151102059Y-97011059D01*
X150758026Y-96585370D01*
X150448610Y-96416982D01*
X150700750Y-96248508D01*
X150958493Y-95862769D01*
X151049000Y-95407758D01*
X151049000Y-94584242D01*
X150958493Y-94129231D01*
X150700750Y-93743492D01*
X150315011Y-93485749D01*
X149927126Y-93408594D01*
X149927126Y-88856025D01*
X149816680Y-88588725D01*
X149612350Y-88384039D01*
X149345244Y-88273126D01*
X149056025Y-88272874D01*
X148788725Y-88383320D01*
X148584039Y-88587650D01*
X148519998Y-88741875D01*
X148477126Y-88698928D01*
X148477126Y-84106025D01*
X148366680Y-83838725D01*
X148162350Y-83634039D01*
X147952737Y-83546999D01*
X147866680Y-83338725D01*
X147778133Y-83250024D01*
X147865961Y-83162350D01*
X147976874Y-82895244D01*
X147977126Y-82606025D01*
X147866680Y-82338725D01*
X147778133Y-82250024D01*
X147865961Y-82162350D01*
X147953000Y-81952737D01*
X148161275Y-81866680D01*
X148365961Y-81662350D01*
X148476874Y-81395244D01*
X148477126Y-81106025D01*
X148366680Y-80838725D01*
X148162350Y-80634039D01*
X147952737Y-80546999D01*
X147866680Y-80338725D01*
X147662350Y-80134039D01*
X147395244Y-80023126D01*
X147106025Y-80022874D01*
X146838725Y-80133320D01*
X146634039Y-80337650D01*
X146523126Y-80604756D01*
X146522874Y-80893975D01*
X146633320Y-81161275D01*
X146721866Y-81249975D01*
X146634039Y-81337650D01*
X146523126Y-81604756D01*
X146522874Y-81893975D01*
X146633320Y-82161275D01*
X146721866Y-82249975D01*
X146634039Y-82337650D01*
X146523126Y-82604756D01*
X146522874Y-82893975D01*
X146633320Y-83161275D01*
X146721866Y-83249975D01*
X146634039Y-83337650D01*
X146523126Y-83604756D01*
X146522874Y-83893975D01*
X146633320Y-84161275D01*
X146721866Y-84249975D01*
X146634039Y-84337650D01*
X146523126Y-84604756D01*
X146522874Y-84893975D01*
X146633320Y-85161275D01*
X146721866Y-85249975D01*
X146634039Y-85337650D01*
X146523126Y-85604756D01*
X146522874Y-85893975D01*
X146633320Y-86161275D01*
X146837650Y-86365961D01*
X147104756Y-86476874D01*
X147393975Y-86477126D01*
X147661275Y-86366680D01*
X147865961Y-86162350D01*
X147976874Y-85895244D01*
X147977126Y-85606025D01*
X147866680Y-85338725D01*
X147778133Y-85250024D01*
X147865961Y-85162350D01*
X147953000Y-84952737D01*
X148161275Y-84866680D01*
X148365961Y-84662350D01*
X148476874Y-84395244D01*
X148477126Y-84106025D01*
X148477126Y-88698928D01*
X148412350Y-88634039D01*
X148145244Y-88523126D01*
X147856025Y-88522874D01*
X147588725Y-88633320D01*
X147384039Y-88837650D01*
X147273126Y-89104756D01*
X147272874Y-89393975D01*
X147383320Y-89661275D01*
X147587650Y-89865961D01*
X147854756Y-89976874D01*
X148143975Y-89977126D01*
X148411275Y-89866680D01*
X148615961Y-89662350D01*
X148680001Y-89508124D01*
X148787650Y-89615961D01*
X149054756Y-89726874D01*
X149343975Y-89727126D01*
X149611275Y-89616680D01*
X149815961Y-89412350D01*
X149926874Y-89145244D01*
X149927126Y-88856025D01*
X149927126Y-93408594D01*
X149860000Y-93395242D01*
X149404989Y-93485749D01*
X149019250Y-93743492D01*
X148761507Y-94129231D01*
X148671000Y-94584242D01*
X148671000Y-95407758D01*
X148761507Y-95862769D01*
X149019250Y-96248508D01*
X149271389Y-96416982D01*
X148961974Y-96585370D01*
X148717000Y-96888488D01*
X148717000Y-96774690D01*
X148620327Y-96541301D01*
X148441698Y-96362673D01*
X148208309Y-96266000D01*
X148134571Y-96266000D01*
X148160750Y-96248508D01*
X148418493Y-95862769D01*
X148509000Y-95407758D01*
X148509000Y-94584242D01*
X148418493Y-94129231D01*
X148160750Y-93743492D01*
X147775011Y-93485749D01*
X147320000Y-93395242D01*
X146864989Y-93485749D01*
X146479250Y-93743492D01*
X146221507Y-94129231D01*
X146131000Y-94584242D01*
X146131000Y-95407758D01*
X146221507Y-95862769D01*
X146479250Y-96248508D01*
X146505428Y-96266000D01*
X146431691Y-96266000D01*
X146198302Y-96362673D01*
X146127000Y-96433974D01*
X146127000Y-68627000D01*
X184873000Y-68627000D01*
X184873000Y-70854020D01*
X184866680Y-70838725D01*
X184662350Y-70634039D01*
X184395244Y-70523126D01*
X184106025Y-70522874D01*
X183838725Y-70633320D01*
X183634039Y-70837650D01*
X183625115Y-70859140D01*
X183616680Y-70838725D01*
X183412350Y-70634039D01*
X183145244Y-70523126D01*
X182856025Y-70522874D01*
X182588725Y-70633320D01*
X182384039Y-70837650D01*
X182273126Y-71104756D01*
X182272874Y-71393975D01*
X182383320Y-71661275D01*
X182587650Y-71865961D01*
X182854756Y-71976874D01*
X183094798Y-71977083D01*
X182984039Y-72087650D01*
X182873126Y-72354756D01*
X182872874Y-72643975D01*
X182983320Y-72911275D01*
X183094932Y-73023082D01*
X182856025Y-73022874D01*
X182588725Y-73133320D01*
X182384039Y-73337650D01*
X182273126Y-73604756D01*
X182272874Y-73893975D01*
X182383320Y-74161275D01*
X182587650Y-74365961D01*
X182854756Y-74476874D01*
X183143975Y-74477126D01*
X183411275Y-74366680D01*
X183615961Y-74162350D01*
X183624884Y-74140859D01*
X183633320Y-74161275D01*
X183837650Y-74365961D01*
X184104756Y-74476874D01*
X184393975Y-74477126D01*
X184661275Y-74366680D01*
X184865961Y-74162350D01*
X184873000Y-74145398D01*
X184873000Y-99373000D01*
X184873000Y-99373000D01*
G37*
X184873000Y-99373000D02*
X177889275Y-99373000D01*
X178255011Y-99300251D01*
X178640750Y-99042508D01*
X178898493Y-98656769D01*
X178989000Y-98201758D01*
X178989000Y-97378242D01*
X178898493Y-96923231D01*
X178640750Y-96537492D01*
X178255011Y-96279749D01*
X177800000Y-96189242D01*
X177344989Y-96279749D01*
X176959250Y-96537492D01*
X176701507Y-96923231D01*
X176640955Y-97227642D01*
X176502059Y-96757059D01*
X176158026Y-96331370D01*
X175677277Y-96069740D01*
X175603070Y-96054780D01*
X175387000Y-96177280D01*
X175387000Y-97663000D01*
X175407000Y-97663000D01*
X175407000Y-97917000D01*
X175387000Y-97917000D01*
X175387000Y-97937000D01*
X175133000Y-97937000D01*
X175133000Y-97917000D01*
X175113000Y-97917000D01*
X175113000Y-97663000D01*
X175133000Y-97663000D01*
X175133000Y-96177280D01*
X174916930Y-96054780D01*
X174842723Y-96069740D01*
X174438680Y-96289625D01*
X174438680Y-73346936D01*
X174438680Y-73177065D01*
X174438680Y-71653065D01*
X174373673Y-71496124D01*
X174253556Y-71376007D01*
X174096616Y-71311000D01*
X173926745Y-71311000D01*
X172402745Y-71311000D01*
X172245804Y-71376007D01*
X172125687Y-71496124D01*
X172060680Y-71653064D01*
X172060680Y-71822935D01*
X172060680Y-71981218D01*
X171972717Y-71768857D01*
X171730533Y-71699392D01*
X171550928Y-71878997D01*
X171550928Y-71519787D01*
X171481463Y-71277603D01*
X170958018Y-71090856D01*
X170402952Y-71118638D01*
X170019177Y-71277603D01*
X169949712Y-71519787D01*
X170750320Y-72320395D01*
X171550928Y-71519787D01*
X171550928Y-71878997D01*
X170929925Y-72500000D01*
X171730533Y-73300608D01*
X171972717Y-73231143D01*
X172060680Y-72984585D01*
X172060680Y-73346935D01*
X172125687Y-73503876D01*
X172245804Y-73623993D01*
X172402744Y-73689000D01*
X172572615Y-73689000D01*
X174096615Y-73689000D01*
X174253556Y-73623993D01*
X174373673Y-73503876D01*
X174438680Y-73346936D01*
X174438680Y-96289625D01*
X174361974Y-96331370D01*
X174017941Y-96757059D01*
X173909000Y-97126151D01*
X173909000Y-96562065D01*
X173843993Y-96405124D01*
X173723876Y-96285007D01*
X173566936Y-96220000D01*
X173508000Y-96220000D01*
X173508000Y-80258000D01*
X173508000Y-77742000D01*
X172008000Y-77742000D01*
X172008000Y-76492000D01*
X171550928Y-76492000D01*
X171550928Y-73480213D01*
X170750320Y-72679605D01*
X170570715Y-72859210D01*
X170570715Y-72500000D01*
X169770107Y-71699392D01*
X169527923Y-71768857D01*
X169341176Y-72292302D01*
X169368958Y-72847368D01*
X169527923Y-73231143D01*
X169770107Y-73300608D01*
X170570715Y-72500000D01*
X170570715Y-72859210D01*
X169949712Y-73480213D01*
X170019177Y-73722397D01*
X170542622Y-73909144D01*
X171097688Y-73881362D01*
X171481463Y-73722397D01*
X171550928Y-73480213D01*
X171550928Y-76492000D01*
X168992000Y-76492000D01*
X168992000Y-78758000D01*
X169992000Y-78758000D01*
X169992000Y-79764002D01*
X169812350Y-79584039D01*
X169545244Y-79473126D01*
X169256025Y-79472874D01*
X168988725Y-79583320D01*
X168784039Y-79787650D01*
X168727065Y-79924856D01*
X168727126Y-79855176D01*
X168616680Y-79587876D01*
X168412350Y-79383190D01*
X168145244Y-79272277D01*
X167856025Y-79272025D01*
X167685521Y-79342475D01*
X167865961Y-79162350D01*
X167976874Y-78895244D01*
X167977126Y-78606025D01*
X167866680Y-78338725D01*
X167662350Y-78134039D01*
X167438680Y-78041162D01*
X167438680Y-73346936D01*
X167438680Y-73177065D01*
X167438680Y-71653065D01*
X167373673Y-71496124D01*
X167253556Y-71376007D01*
X167096616Y-71311000D01*
X166926745Y-71311000D01*
X165402745Y-71311000D01*
X165245804Y-71376007D01*
X165125687Y-71496124D01*
X165060680Y-71653064D01*
X165060680Y-71822935D01*
X165060680Y-71981218D01*
X164972717Y-71768857D01*
X164730533Y-71699392D01*
X164550928Y-71878997D01*
X164550928Y-71519787D01*
X164481463Y-71277603D01*
X163958018Y-71090856D01*
X163402952Y-71118638D01*
X163019177Y-71277603D01*
X162949712Y-71519787D01*
X163750320Y-72320395D01*
X164550928Y-71519787D01*
X164550928Y-71878997D01*
X163929925Y-72500000D01*
X164730533Y-73300608D01*
X164972717Y-73231143D01*
X165060680Y-72984585D01*
X165060680Y-73346935D01*
X165125687Y-73503876D01*
X165245804Y-73623993D01*
X165402744Y-73689000D01*
X165572615Y-73689000D01*
X167096615Y-73689000D01*
X167253556Y-73623993D01*
X167373673Y-73503876D01*
X167438680Y-73346936D01*
X167438680Y-78041162D01*
X167395244Y-78023126D01*
X167106025Y-78022874D01*
X166838725Y-78133320D01*
X166634039Y-78337650D01*
X166523126Y-78604756D01*
X166522874Y-78893975D01*
X166633320Y-79161275D01*
X166837650Y-79365961D01*
X167104756Y-79476874D01*
X167393975Y-79477126D01*
X167564478Y-79406675D01*
X167384039Y-79586801D01*
X167273126Y-79853907D01*
X167272874Y-80143126D01*
X167383320Y-80410426D01*
X167567033Y-80594459D01*
X167395244Y-80523126D01*
X167106025Y-80522874D01*
X166838725Y-80633320D01*
X166634039Y-80837650D01*
X166523126Y-81104756D01*
X166522874Y-81393975D01*
X166633320Y-81661275D01*
X166837650Y-81865961D01*
X167104756Y-81976874D01*
X167393975Y-81977126D01*
X167661275Y-81866680D01*
X167865961Y-81662350D01*
X167976874Y-81395244D01*
X167977126Y-81106025D01*
X167866680Y-80838725D01*
X167682966Y-80654691D01*
X167854756Y-80726025D01*
X168143975Y-80726277D01*
X168411275Y-80615831D01*
X168615961Y-80411501D01*
X168672934Y-80274294D01*
X168672874Y-80343975D01*
X168783320Y-80611275D01*
X168987650Y-80815961D01*
X169254756Y-80926874D01*
X169543975Y-80927126D01*
X169811275Y-80816680D01*
X170015961Y-80612350D01*
X170126874Y-80345244D01*
X170126950Y-80258000D01*
X171719988Y-80258000D01*
X171783320Y-80411275D01*
X171987650Y-80615961D01*
X172254756Y-80726874D01*
X172543975Y-80727126D01*
X172811275Y-80616680D01*
X173015961Y-80412350D01*
X173080053Y-80258000D01*
X173508000Y-80258000D01*
X173508000Y-96220000D01*
X173397065Y-96220000D01*
X173227126Y-96220000D01*
X173227126Y-87856025D01*
X173116680Y-87588725D01*
X173008000Y-87479855D01*
X173008000Y-85742000D01*
X172008000Y-85742000D01*
X172008000Y-84492000D01*
X168992000Y-84492000D01*
X168992000Y-86758000D01*
X169992000Y-86758000D01*
X169992000Y-88008000D01*
X171772992Y-88008000D01*
X171772874Y-88143975D01*
X171883320Y-88411275D01*
X172087650Y-88615961D01*
X172354756Y-88726874D01*
X172643975Y-88727126D01*
X172911275Y-88616680D01*
X173115961Y-88412350D01*
X173226874Y-88145244D01*
X173227126Y-87856025D01*
X173227126Y-96220000D01*
X171873065Y-96220000D01*
X171716124Y-96285007D01*
X171596007Y-96405124D01*
X171531000Y-96562064D01*
X171531000Y-96731935D01*
X171531000Y-97380151D01*
X171422059Y-97011059D01*
X171078026Y-96585370D01*
X170768610Y-96416982D01*
X171020750Y-96248508D01*
X171278493Y-95862769D01*
X171369000Y-95407758D01*
X171369000Y-94584242D01*
X171278493Y-94129231D01*
X171020750Y-93743492D01*
X170635011Y-93485749D01*
X170180000Y-93395242D01*
X169977126Y-93435596D01*
X169977126Y-88106025D01*
X169866680Y-87838725D01*
X169662350Y-87634039D01*
X169395244Y-87523126D01*
X169106025Y-87522874D01*
X168838725Y-87633320D01*
X168694319Y-87777473D01*
X168616680Y-87589571D01*
X168412350Y-87384885D01*
X168145244Y-87273972D01*
X167856025Y-87273720D01*
X167682624Y-87345367D01*
X167865961Y-87162350D01*
X167976874Y-86895244D01*
X167977126Y-86606025D01*
X167866680Y-86338725D01*
X167662350Y-86134039D01*
X167395244Y-86023126D01*
X167106025Y-86022874D01*
X166838725Y-86133320D01*
X166727126Y-86244724D01*
X166727126Y-85106025D01*
X166727126Y-82056025D01*
X166616680Y-81788725D01*
X166412350Y-81584039D01*
X166145244Y-81473126D01*
X165856025Y-81472874D01*
X165588725Y-81583320D01*
X165384039Y-81787650D01*
X165273126Y-82054756D01*
X165272874Y-82343975D01*
X165383320Y-82611275D01*
X165587650Y-82815961D01*
X165854756Y-82926874D01*
X166143975Y-82927126D01*
X166411275Y-82816680D01*
X166615961Y-82612350D01*
X166726874Y-82345244D01*
X166727126Y-82056025D01*
X166727126Y-85106025D01*
X166616680Y-84838725D01*
X166412350Y-84634039D01*
X166145244Y-84523126D01*
X165856025Y-84522874D01*
X165588725Y-84633320D01*
X165384039Y-84837650D01*
X165273126Y-85104756D01*
X165272874Y-85393975D01*
X165383320Y-85661275D01*
X165587650Y-85865961D01*
X165854756Y-85976874D01*
X166143975Y-85977126D01*
X166411275Y-85866680D01*
X166615961Y-85662350D01*
X166726874Y-85395244D01*
X166727126Y-85106025D01*
X166727126Y-86244724D01*
X166634039Y-86337650D01*
X166523126Y-86604756D01*
X166522874Y-86893975D01*
X166633320Y-87161275D01*
X166837650Y-87365961D01*
X167104756Y-87476874D01*
X167393975Y-87477126D01*
X167567375Y-87405478D01*
X167384039Y-87588496D01*
X167273126Y-87855602D01*
X167272874Y-88144821D01*
X167383320Y-88412121D01*
X167564143Y-88593259D01*
X167395244Y-88523126D01*
X167106025Y-88522874D01*
X166838725Y-88633320D01*
X166634039Y-88837650D01*
X166523126Y-89104756D01*
X166522874Y-89393975D01*
X166633320Y-89661275D01*
X166837650Y-89865961D01*
X167104756Y-89976874D01*
X167393975Y-89977126D01*
X167661275Y-89866680D01*
X167865961Y-89662350D01*
X167976874Y-89395244D01*
X167977126Y-89106025D01*
X167866680Y-88838725D01*
X167685856Y-88657586D01*
X167854756Y-88727720D01*
X168143975Y-88727972D01*
X168411275Y-88617526D01*
X168555680Y-88473372D01*
X168633320Y-88661275D01*
X168837650Y-88865961D01*
X169104756Y-88976874D01*
X169393975Y-88977126D01*
X169661275Y-88866680D01*
X169865961Y-88662350D01*
X169976874Y-88395244D01*
X169977126Y-88106025D01*
X169977126Y-93435596D01*
X169724989Y-93485749D01*
X169339250Y-93743492D01*
X169081507Y-94129231D01*
X168991000Y-94584242D01*
X168991000Y-95407758D01*
X169081507Y-95862769D01*
X169339250Y-96248508D01*
X169591389Y-96416982D01*
X169281974Y-96585370D01*
X168937941Y-97011059D01*
X168910000Y-97105723D01*
X168882059Y-97011059D01*
X168538026Y-96585370D01*
X168228610Y-96416982D01*
X168480750Y-96248508D01*
X168738493Y-95862769D01*
X168829000Y-95407758D01*
X168829000Y-94584242D01*
X168738493Y-94129231D01*
X168480750Y-93743492D01*
X168095011Y-93485749D01*
X167640000Y-93395242D01*
X167184989Y-93485749D01*
X166799250Y-93743492D01*
X166541507Y-94129231D01*
X166451000Y-94584242D01*
X166451000Y-95407758D01*
X166541507Y-95862769D01*
X166799250Y-96248508D01*
X167051389Y-96416982D01*
X166741974Y-96585370D01*
X166397941Y-97011059D01*
X166370000Y-97105723D01*
X166342059Y-97011059D01*
X165998026Y-96585370D01*
X165688610Y-96416982D01*
X165940750Y-96248508D01*
X166198493Y-95862769D01*
X166289000Y-95407758D01*
X166289000Y-94584242D01*
X166198493Y-94129231D01*
X165940750Y-93743492D01*
X165555011Y-93485749D01*
X165100000Y-93395242D01*
X164644989Y-93485749D01*
X164550928Y-93548598D01*
X164550928Y-73480213D01*
X163750320Y-72679605D01*
X163570715Y-72859210D01*
X163570715Y-72500000D01*
X162770107Y-71699392D01*
X162527923Y-71768857D01*
X162341176Y-72292302D01*
X162368958Y-72847368D01*
X162527923Y-73231143D01*
X162770107Y-73300608D01*
X163570715Y-72500000D01*
X163570715Y-72859210D01*
X162949712Y-73480213D01*
X163019177Y-73722397D01*
X163542622Y-73909144D01*
X164097688Y-73881362D01*
X164481463Y-73722397D01*
X164550928Y-73480213D01*
X164550928Y-93548598D01*
X164327126Y-93698138D01*
X164327126Y-82056025D01*
X164216680Y-81788725D01*
X164012350Y-81584039D01*
X163745244Y-81473126D01*
X163456025Y-81472874D01*
X163188725Y-81583320D01*
X162984039Y-81787650D01*
X162873126Y-82054756D01*
X162872874Y-82343975D01*
X162983320Y-82611275D01*
X163187650Y-82815961D01*
X163454756Y-82926874D01*
X163743975Y-82927126D01*
X164011275Y-82816680D01*
X164215961Y-82612350D01*
X164326874Y-82345244D01*
X164327126Y-82056025D01*
X164327126Y-93698138D01*
X164259250Y-93743492D01*
X164227126Y-93791568D01*
X164227126Y-85106025D01*
X164116680Y-84838725D01*
X163912350Y-84634039D01*
X163645244Y-84523126D01*
X163356025Y-84522874D01*
X163088725Y-84633320D01*
X162884039Y-84837650D01*
X162773126Y-85104756D01*
X162772874Y-85393975D01*
X162883320Y-85661275D01*
X163087650Y-85865961D01*
X163354756Y-85976874D01*
X163643975Y-85977126D01*
X163911275Y-85866680D01*
X164115961Y-85662350D01*
X164226874Y-85395244D01*
X164227126Y-85106025D01*
X164227126Y-93791568D01*
X164177000Y-93866587D01*
X164177000Y-91584936D01*
X164177000Y-91415065D01*
X164177000Y-88915065D01*
X164111993Y-88758124D01*
X163991876Y-88638007D01*
X163834936Y-88573000D01*
X163665065Y-88573000D01*
X162677000Y-88573000D01*
X162677000Y-86165065D01*
X162611993Y-86008124D01*
X162491876Y-85888007D01*
X162334936Y-85823000D01*
X162165065Y-85823000D01*
X161477126Y-85823000D01*
X161477126Y-84606025D01*
X161477126Y-79606025D01*
X161366680Y-79338725D01*
X161162350Y-79134039D01*
X160895244Y-79023126D01*
X160606025Y-79022874D01*
X160338725Y-79133320D01*
X160134039Y-79337650D01*
X160023126Y-79604756D01*
X160022874Y-79893975D01*
X160133320Y-80161275D01*
X160337650Y-80365961D01*
X160604756Y-80476874D01*
X160893975Y-80477126D01*
X161161275Y-80366680D01*
X161365961Y-80162350D01*
X161476874Y-79895244D01*
X161477126Y-79606025D01*
X161477126Y-84606025D01*
X161427126Y-84485015D01*
X161427126Y-82104980D01*
X161316680Y-81837680D01*
X161112350Y-81632994D01*
X160845244Y-81522081D01*
X160556025Y-81521829D01*
X160288725Y-81632275D01*
X160084039Y-81836605D01*
X159973126Y-82103711D01*
X159972874Y-82392930D01*
X160083320Y-82660230D01*
X160287650Y-82864916D01*
X160554756Y-82975829D01*
X160843975Y-82976081D01*
X161111275Y-82865635D01*
X161315961Y-82661305D01*
X161426874Y-82394199D01*
X161427126Y-82104980D01*
X161427126Y-84485015D01*
X161366680Y-84338725D01*
X161162350Y-84134039D01*
X160895244Y-84023126D01*
X160606025Y-84022874D01*
X160338725Y-84133320D01*
X160134039Y-84337650D01*
X160023126Y-84604756D01*
X160022874Y-84893975D01*
X160133320Y-85161275D01*
X160337650Y-85365961D01*
X160604756Y-85476874D01*
X160893975Y-85477126D01*
X161161275Y-85366680D01*
X161365961Y-85162350D01*
X161476874Y-84895244D01*
X161477126Y-84606025D01*
X161477126Y-85823000D01*
X159727126Y-85823000D01*
X159727126Y-83856025D01*
X159616680Y-83588725D01*
X159528133Y-83500024D01*
X159615961Y-83412350D01*
X159726874Y-83145244D01*
X159727126Y-82856025D01*
X159616680Y-82588725D01*
X159412350Y-82384039D01*
X159145244Y-82273126D01*
X158976980Y-82272979D01*
X158977020Y-82226980D01*
X159143975Y-82227126D01*
X159411275Y-82116680D01*
X159615961Y-81912350D01*
X159726874Y-81645244D01*
X159727126Y-81356025D01*
X159616680Y-81088725D01*
X159528133Y-81000024D01*
X159615961Y-80912350D01*
X159726874Y-80645244D01*
X159727126Y-80356025D01*
X159616680Y-80088725D01*
X159412350Y-79884039D01*
X159145244Y-79773126D01*
X158856025Y-79772874D01*
X158588725Y-79883320D01*
X158384039Y-80087650D01*
X158273126Y-80354756D01*
X158272874Y-80643975D01*
X158383320Y-80911275D01*
X158471866Y-80999975D01*
X158384039Y-81087650D01*
X158273126Y-81354756D01*
X158272979Y-81523019D01*
X158106025Y-81522874D01*
X157838725Y-81633320D01*
X157634039Y-81837650D01*
X157523126Y-82104756D01*
X157522874Y-82393975D01*
X157633320Y-82661275D01*
X157837650Y-82865961D01*
X158104756Y-82976874D01*
X158273019Y-82977020D01*
X158272874Y-83143975D01*
X158383320Y-83411275D01*
X158471866Y-83499975D01*
X158384039Y-83587650D01*
X158273126Y-83854756D01*
X158272979Y-84023019D01*
X158106025Y-84022874D01*
X157838725Y-84133320D01*
X157634039Y-84337650D01*
X157523126Y-84604756D01*
X157522874Y-84893975D01*
X157633320Y-85161275D01*
X157837650Y-85365961D01*
X158104756Y-85476874D01*
X158393975Y-85477126D01*
X158661275Y-85366680D01*
X158865961Y-85162350D01*
X158976874Y-84895244D01*
X158977020Y-84726980D01*
X159143975Y-84727126D01*
X159411275Y-84616680D01*
X159615961Y-84412350D01*
X159726874Y-84145244D01*
X159727126Y-83856025D01*
X159727126Y-85823000D01*
X159665065Y-85823000D01*
X159508124Y-85888007D01*
X159388007Y-86008124D01*
X159323000Y-86165064D01*
X159323000Y-86334935D01*
X159323000Y-88834935D01*
X159388007Y-88991876D01*
X159508124Y-89111993D01*
X159665064Y-89177000D01*
X159834935Y-89177000D01*
X160823000Y-89177000D01*
X160823000Y-91584935D01*
X160888007Y-91741876D01*
X161008124Y-91861993D01*
X161165064Y-91927000D01*
X161334935Y-91927000D01*
X163834935Y-91927000D01*
X163991876Y-91861993D01*
X164111993Y-91741876D01*
X164177000Y-91584936D01*
X164177000Y-93866587D01*
X164001507Y-94129231D01*
X163911000Y-94584242D01*
X163911000Y-95407758D01*
X164001507Y-95862769D01*
X164259250Y-96248508D01*
X164511389Y-96416982D01*
X164201974Y-96585370D01*
X163857941Y-97011059D01*
X163830000Y-97105723D01*
X163802059Y-97011059D01*
X163458026Y-96585370D01*
X163148610Y-96416982D01*
X163400750Y-96248508D01*
X163658493Y-95862769D01*
X163749000Y-95407758D01*
X163749000Y-94584242D01*
X163658493Y-94129231D01*
X163400750Y-93743492D01*
X163015011Y-93485749D01*
X162560000Y-93395242D01*
X162104989Y-93485749D01*
X161719250Y-93743492D01*
X161461507Y-94129231D01*
X161371000Y-94584242D01*
X161371000Y-95407758D01*
X161461507Y-95862769D01*
X161719250Y-96248508D01*
X161971389Y-96416982D01*
X161661974Y-96585370D01*
X161317941Y-97011059D01*
X161290000Y-97105723D01*
X161262059Y-97011059D01*
X160918026Y-96585370D01*
X160608610Y-96416982D01*
X160860750Y-96248508D01*
X161118493Y-95862769D01*
X161209000Y-95407758D01*
X161209000Y-94584242D01*
X161118493Y-94129231D01*
X160860750Y-93743492D01*
X160475011Y-93485749D01*
X160020000Y-93395242D01*
X159564989Y-93485749D01*
X159179250Y-93743492D01*
X158921507Y-94129231D01*
X158831000Y-94584242D01*
X158831000Y-95407758D01*
X158921507Y-95862769D01*
X159179250Y-96248508D01*
X159431389Y-96416982D01*
X159121974Y-96585370D01*
X158777941Y-97011059D01*
X158750000Y-97105723D01*
X158727126Y-97028225D01*
X158727126Y-91606025D01*
X158616680Y-91338725D01*
X158412350Y-91134039D01*
X158145244Y-91023126D01*
X157856025Y-91022874D01*
X157588725Y-91133320D01*
X157581564Y-91140468D01*
X157581564Y-88664562D01*
X157471118Y-88397262D01*
X157266788Y-88192576D01*
X157227126Y-88176106D01*
X157227126Y-78856025D01*
X157116680Y-78588725D01*
X156912350Y-78384039D01*
X156645244Y-78273126D01*
X156356025Y-78272874D01*
X156088725Y-78383320D01*
X155884039Y-78587650D01*
X155773126Y-78854756D01*
X155772874Y-79143975D01*
X155883320Y-79411275D01*
X156087650Y-79615961D01*
X156354756Y-79726874D01*
X156643975Y-79727126D01*
X156911275Y-79616680D01*
X157115961Y-79412350D01*
X157226874Y-79145244D01*
X157227126Y-78856025D01*
X157227126Y-88176106D01*
X156999682Y-88081663D01*
X156710463Y-88081411D01*
X156443163Y-88191857D01*
X156238477Y-88396187D01*
X156127564Y-88663293D01*
X156127312Y-88952512D01*
X156237758Y-89219812D01*
X156442088Y-89424498D01*
X156709194Y-89535411D01*
X156998413Y-89535663D01*
X157265713Y-89425217D01*
X157470399Y-89220887D01*
X157581312Y-88953781D01*
X157581564Y-88664562D01*
X157581564Y-91140468D01*
X157500024Y-91221866D01*
X157412350Y-91134039D01*
X157145244Y-91023126D01*
X156856025Y-91022874D01*
X156588725Y-91133320D01*
X156384039Y-91337650D01*
X156273126Y-91604756D01*
X156272874Y-91893975D01*
X156383320Y-92161275D01*
X156587650Y-92365961D01*
X156854756Y-92476874D01*
X157143975Y-92477126D01*
X157411275Y-92366680D01*
X157499975Y-92278133D01*
X157587650Y-92365961D01*
X157854756Y-92476874D01*
X158143975Y-92477126D01*
X158411275Y-92366680D01*
X158615961Y-92162350D01*
X158726874Y-91895244D01*
X158727126Y-91606025D01*
X158727126Y-97028225D01*
X158722059Y-97011059D01*
X158378026Y-96585370D01*
X158068610Y-96416982D01*
X158320750Y-96248508D01*
X158578493Y-95862769D01*
X158669000Y-95407758D01*
X158669000Y-94584242D01*
X158578493Y-94129231D01*
X158320750Y-93743492D01*
X157935011Y-93485749D01*
X157480000Y-93395242D01*
X157024989Y-93485749D01*
X156639250Y-93743492D01*
X156381507Y-94129231D01*
X156291000Y-94584242D01*
X156291000Y-95407758D01*
X156381507Y-95862769D01*
X156639250Y-96248508D01*
X156891389Y-96416982D01*
X156581974Y-96585370D01*
X156237941Y-97011059D01*
X156210000Y-97105723D01*
X156182059Y-97011059D01*
X155838026Y-96585370D01*
X155528610Y-96416982D01*
X155780750Y-96248508D01*
X156038493Y-95862769D01*
X156129000Y-95407758D01*
X156129000Y-94584242D01*
X156038493Y-94129231D01*
X155780750Y-93743492D01*
X155395011Y-93485749D01*
X154940000Y-93395242D01*
X154487855Y-93485178D01*
X154487855Y-78756023D01*
X154377409Y-78488723D01*
X154173079Y-78284037D01*
X153905973Y-78173124D01*
X153616754Y-78172872D01*
X153349454Y-78283318D01*
X153144768Y-78487648D01*
X153033855Y-78754754D01*
X153033603Y-79043973D01*
X153144049Y-79311273D01*
X153348379Y-79515959D01*
X153615485Y-79626872D01*
X153904704Y-79627124D01*
X154172004Y-79516678D01*
X154376690Y-79312348D01*
X154487603Y-79045242D01*
X154487855Y-78756023D01*
X154487855Y-93485178D01*
X154484989Y-93485749D01*
X154099250Y-93743492D01*
X153841507Y-94129231D01*
X153751000Y-94584242D01*
X153751000Y-95407758D01*
X153841507Y-95862769D01*
X154099250Y-96248508D01*
X154351389Y-96416982D01*
X154041974Y-96585370D01*
X153697941Y-97011059D01*
X153670000Y-97105723D01*
X153642059Y-97011059D01*
X153298026Y-96585370D01*
X152988610Y-96416982D01*
X153240750Y-96248508D01*
X153498493Y-95862769D01*
X153589000Y-95407758D01*
X153589000Y-94584242D01*
X153577147Y-94524652D01*
X153577147Y-89081139D01*
X153466701Y-88813839D01*
X153262371Y-88609153D01*
X152995265Y-88498240D01*
X152706046Y-88497988D01*
X152438746Y-88608434D01*
X152234060Y-88812764D01*
X152123147Y-89079870D01*
X152122895Y-89369089D01*
X152233341Y-89636389D01*
X152437671Y-89841075D01*
X152704777Y-89951988D01*
X152993996Y-89952240D01*
X153261296Y-89841794D01*
X153465982Y-89637464D01*
X153576895Y-89370358D01*
X153577147Y-89081139D01*
X153577147Y-94524652D01*
X153498493Y-94129231D01*
X153240750Y-93743492D01*
X152855011Y-93485749D01*
X152400000Y-93395242D01*
X151977126Y-93479356D01*
X151977126Y-78756023D01*
X151866680Y-78488723D01*
X151662350Y-78284037D01*
X151459796Y-78199928D01*
X151661275Y-78116680D01*
X151865961Y-77912350D01*
X151976874Y-77645244D01*
X151977126Y-77356025D01*
X151866680Y-77088725D01*
X151662350Y-76884039D01*
X151395244Y-76773126D01*
X151106025Y-76772874D01*
X150838725Y-76883320D01*
X150634039Y-77087650D01*
X150523126Y-77354756D01*
X150522874Y-77643975D01*
X150633320Y-77911275D01*
X150837650Y-78115961D01*
X151040203Y-78200069D01*
X150838725Y-78283318D01*
X150634039Y-78487648D01*
X150523126Y-78754754D01*
X150522874Y-79043973D01*
X150633320Y-79311273D01*
X150837650Y-79515959D01*
X151104756Y-79626872D01*
X151393975Y-79627124D01*
X151661275Y-79516678D01*
X151865961Y-79312348D01*
X151976874Y-79045242D01*
X151977126Y-78756023D01*
X151977126Y-93479356D01*
X151944989Y-93485749D01*
X151559250Y-93743492D01*
X151301507Y-94129231D01*
X151211000Y-94584242D01*
X151211000Y-95407758D01*
X151301507Y-95862769D01*
X151559250Y-96248508D01*
X151811389Y-96416982D01*
X151501974Y-96585370D01*
X151157941Y-97011059D01*
X151130000Y-97105723D01*
X151102059Y-97011059D01*
X150758026Y-96585370D01*
X150448610Y-96416982D01*
X150700750Y-96248508D01*
X150958493Y-95862769D01*
X151049000Y-95407758D01*
X151049000Y-94584242D01*
X150958493Y-94129231D01*
X150700750Y-93743492D01*
X150315011Y-93485749D01*
X149927126Y-93408594D01*
X149927126Y-88856025D01*
X149816680Y-88588725D01*
X149612350Y-88384039D01*
X149345244Y-88273126D01*
X149056025Y-88272874D01*
X148788725Y-88383320D01*
X148584039Y-88587650D01*
X148519998Y-88741875D01*
X148477126Y-88698928D01*
X148477126Y-84106025D01*
X148366680Y-83838725D01*
X148162350Y-83634039D01*
X147952737Y-83546999D01*
X147866680Y-83338725D01*
X147778133Y-83250024D01*
X147865961Y-83162350D01*
X147976874Y-82895244D01*
X147977126Y-82606025D01*
X147866680Y-82338725D01*
X147778133Y-82250024D01*
X147865961Y-82162350D01*
X147953000Y-81952737D01*
X148161275Y-81866680D01*
X148365961Y-81662350D01*
X148476874Y-81395244D01*
X148477126Y-81106025D01*
X148366680Y-80838725D01*
X148162350Y-80634039D01*
X147952737Y-80546999D01*
X147866680Y-80338725D01*
X147662350Y-80134039D01*
X147395244Y-80023126D01*
X147106025Y-80022874D01*
X146838725Y-80133320D01*
X146634039Y-80337650D01*
X146523126Y-80604756D01*
X146522874Y-80893975D01*
X146633320Y-81161275D01*
X146721866Y-81249975D01*
X146634039Y-81337650D01*
X146523126Y-81604756D01*
X146522874Y-81893975D01*
X146633320Y-82161275D01*
X146721866Y-82249975D01*
X146634039Y-82337650D01*
X146523126Y-82604756D01*
X146522874Y-82893975D01*
X146633320Y-83161275D01*
X146721866Y-83249975D01*
X146634039Y-83337650D01*
X146523126Y-83604756D01*
X146522874Y-83893975D01*
X146633320Y-84161275D01*
X146721866Y-84249975D01*
X146634039Y-84337650D01*
X146523126Y-84604756D01*
X146522874Y-84893975D01*
X146633320Y-85161275D01*
X146721866Y-85249975D01*
X146634039Y-85337650D01*
X146523126Y-85604756D01*
X146522874Y-85893975D01*
X146633320Y-86161275D01*
X146837650Y-86365961D01*
X147104756Y-86476874D01*
X147393975Y-86477126D01*
X147661275Y-86366680D01*
X147865961Y-86162350D01*
X147976874Y-85895244D01*
X147977126Y-85606025D01*
X147866680Y-85338725D01*
X147778133Y-85250024D01*
X147865961Y-85162350D01*
X147953000Y-84952737D01*
X148161275Y-84866680D01*
X148365961Y-84662350D01*
X148476874Y-84395244D01*
X148477126Y-84106025D01*
X148477126Y-88698928D01*
X148412350Y-88634039D01*
X148145244Y-88523126D01*
X147856025Y-88522874D01*
X147588725Y-88633320D01*
X147384039Y-88837650D01*
X147273126Y-89104756D01*
X147272874Y-89393975D01*
X147383320Y-89661275D01*
X147587650Y-89865961D01*
X147854756Y-89976874D01*
X148143975Y-89977126D01*
X148411275Y-89866680D01*
X148615961Y-89662350D01*
X148680001Y-89508124D01*
X148787650Y-89615961D01*
X149054756Y-89726874D01*
X149343975Y-89727126D01*
X149611275Y-89616680D01*
X149815961Y-89412350D01*
X149926874Y-89145244D01*
X149927126Y-88856025D01*
X149927126Y-93408594D01*
X149860000Y-93395242D01*
X149404989Y-93485749D01*
X149019250Y-93743492D01*
X148761507Y-94129231D01*
X148671000Y-94584242D01*
X148671000Y-95407758D01*
X148761507Y-95862769D01*
X149019250Y-96248508D01*
X149271389Y-96416982D01*
X148961974Y-96585370D01*
X148717000Y-96888488D01*
X148717000Y-96774690D01*
X148620327Y-96541301D01*
X148441698Y-96362673D01*
X148208309Y-96266000D01*
X148134571Y-96266000D01*
X148160750Y-96248508D01*
X148418493Y-95862769D01*
X148509000Y-95407758D01*
X148509000Y-94584242D01*
X148418493Y-94129231D01*
X148160750Y-93743492D01*
X147775011Y-93485749D01*
X147320000Y-93395242D01*
X146864989Y-93485749D01*
X146479250Y-93743492D01*
X146221507Y-94129231D01*
X146131000Y-94584242D01*
X146131000Y-95407758D01*
X146221507Y-95862769D01*
X146479250Y-96248508D01*
X146505428Y-96266000D01*
X146431691Y-96266000D01*
X146198302Y-96362673D01*
X146127000Y-96433974D01*
X146127000Y-68627000D01*
X184873000Y-68627000D01*
X184873000Y-70854020D01*
X184866680Y-70838725D01*
X184662350Y-70634039D01*
X184395244Y-70523126D01*
X184106025Y-70522874D01*
X183838725Y-70633320D01*
X183634039Y-70837650D01*
X183625115Y-70859140D01*
X183616680Y-70838725D01*
X183412350Y-70634039D01*
X183145244Y-70523126D01*
X182856025Y-70522874D01*
X182588725Y-70633320D01*
X182384039Y-70837650D01*
X182273126Y-71104756D01*
X182272874Y-71393975D01*
X182383320Y-71661275D01*
X182587650Y-71865961D01*
X182854756Y-71976874D01*
X183094798Y-71977083D01*
X182984039Y-72087650D01*
X182873126Y-72354756D01*
X182872874Y-72643975D01*
X182983320Y-72911275D01*
X183094932Y-73023082D01*
X182856025Y-73022874D01*
X182588725Y-73133320D01*
X182384039Y-73337650D01*
X182273126Y-73604756D01*
X182272874Y-73893975D01*
X182383320Y-74161275D01*
X182587650Y-74365961D01*
X182854756Y-74476874D01*
X183143975Y-74477126D01*
X183411275Y-74366680D01*
X183615961Y-74162350D01*
X183624884Y-74140859D01*
X183633320Y-74161275D01*
X183837650Y-74365961D01*
X184104756Y-74476874D01*
X184393975Y-74477126D01*
X184661275Y-74366680D01*
X184865961Y-74162350D01*
X184873000Y-74145398D01*
X184873000Y-99373000D01*
M02*
