%FSLAX46Y46*%
G04 Gerber Fmt 4.6, Leading zero omitted, Abs format (unit mm)*
G04 Created by KiCad (PCBNEW (2014-10-26 BZR 5226)-product) date Tue 28 Oct 2014 11:58:48 AM EDT*
%MOMM*%
G01*
G04 APERTURE LIST*
%ADD10C,0.100000*%
%ADD11R,1.524000X1.524000*%
%ADD12C,1.524000*%
%ADD13R,1.524000X2.286000*%
%ADD14O,1.524000X2.286000*%
%ADD15R,2.500000X2.500000*%
%ADD16C,0.600000*%
%ADD17C,0.600000*%
%ADD18C,0.254000*%
G04 APERTURE END LIST*
D10*
D11*
X173249680Y-72500000D03*
D12*
X170750320Y-72500000D03*
D13*
X172720000Y-97790000D03*
D14*
X175260000Y-97790000D03*
X177800000Y-97790000D03*
X160020000Y-94996000D03*
X162560000Y-94996000D03*
X165100000Y-94996000D03*
X167640000Y-94996000D03*
X167640000Y-98044000D03*
X165100000Y-98044000D03*
X162560000Y-98044000D03*
X160020000Y-98044000D03*
X170180000Y-98044000D03*
X170180000Y-94996000D03*
X157480000Y-94996000D03*
X157480000Y-98044000D03*
D13*
X147320000Y-98044000D03*
D14*
X149860000Y-98044000D03*
X152400000Y-98044000D03*
X154940000Y-98044000D03*
X154940000Y-94996000D03*
X152400000Y-94996000D03*
X149860000Y-94996000D03*
X147320000Y-94996000D03*
D11*
X166249680Y-72500000D03*
D12*
X163750320Y-72500000D03*
D15*
X161000000Y-87500000D03*
X162500000Y-90250000D03*
D16*
X163600000Y-79600000D03*
X167000000Y-80000000D03*
X179000000Y-71000000D03*
X181000000Y-71000000D03*
X181000000Y-70000000D03*
X179000000Y-70000000D03*
X155000000Y-69500000D03*
X152500000Y-69500000D03*
X184000000Y-77500000D03*
X184000000Y-79000000D03*
X184000000Y-80500000D03*
X184000000Y-82000000D03*
X184000000Y-83500000D03*
X184000000Y-85000000D03*
X184000000Y-86500000D03*
X184000000Y-88000000D03*
X184000000Y-89500000D03*
X165500000Y-91000000D03*
X165500000Y-90000000D03*
X149000000Y-88200000D03*
X170500000Y-83750000D03*
X151000000Y-84000000D03*
X153000000Y-82000000D03*
X148000000Y-79000000D03*
X163500000Y-87250000D03*
X166250000Y-86750000D03*
X182500000Y-93000000D03*
X181000000Y-93000000D03*
X179500000Y-93000000D03*
X178000000Y-93000000D03*
X176500000Y-93000000D03*
X182500000Y-77000000D03*
X181000000Y-77000000D03*
X179500000Y-77000000D03*
X178000000Y-77000000D03*
X176500000Y-77000000D03*
X182500000Y-85000000D03*
X181000000Y-85000000D03*
X179500000Y-85000000D03*
X178000000Y-85000000D03*
X176500000Y-85000000D03*
X151000000Y-82000000D03*
X155000000Y-82000000D03*
X153000000Y-84000000D03*
X151000000Y-86000000D03*
X153000000Y-86000000D03*
X155000000Y-86000000D03*
X155000000Y-84000000D03*
X152000000Y-83000000D03*
X154000000Y-83000000D03*
X152000000Y-85000000D03*
X154000000Y-85000000D03*
X157000000Y-88000000D03*
X170500000Y-91400000D03*
X172500000Y-85500000D03*
X174250000Y-85500000D03*
X172750000Y-77500000D03*
X174000000Y-77500000D03*
X175250000Y-77500000D03*
X150250000Y-69500000D03*
X157750000Y-69500000D03*
X149000000Y-91500000D03*
X162500000Y-78000000D03*
X160500000Y-78000000D03*
X162500000Y-76000000D03*
X154500000Y-76000000D03*
X156500000Y-76000000D03*
X158500000Y-76000000D03*
X160500000Y-76000000D03*
X153750000Y-77500000D03*
X152850021Y-89225114D03*
X149200000Y-89000000D03*
X151250000Y-77500000D03*
X183000000Y-71250000D03*
X184250000Y-71250000D03*
X183600000Y-72500000D03*
X183000000Y-73750000D03*
X184250000Y-73750000D03*
X156854438Y-88808537D03*
X169400000Y-80200000D03*
X169400000Y-80200000D03*
X169250000Y-88250000D03*
X172400000Y-80000000D03*
X172500000Y-88000000D03*
X159000000Y-84000000D03*
X167250000Y-89250000D03*
X159000000Y-83000000D03*
X167250000Y-86750000D03*
X159000000Y-81500000D03*
X167250000Y-81250000D03*
X167250000Y-81250000D03*
X159000000Y-80500000D03*
X167250000Y-78750000D03*
X167250000Y-78750000D03*
X166000000Y-82200000D03*
X163600000Y-82200000D03*
X158250000Y-82250000D03*
X153760729Y-78899998D03*
X151250000Y-78899998D03*
X148000000Y-89250000D03*
X158250000Y-84750000D03*
X163500000Y-85250000D03*
X156500000Y-79000000D03*
X147750000Y-81250000D03*
X147250000Y-81750000D03*
X147250000Y-82750000D03*
X147250000Y-83750000D03*
X147750000Y-84250000D03*
X147250000Y-84750000D03*
X147250000Y-85750000D03*
X147250000Y-80750000D03*
X160700000Y-82248955D03*
X160750000Y-84750000D03*
X160750000Y-79750000D03*
X168000000Y-79999151D03*
X168000000Y-88000846D03*
X166000000Y-85250000D03*
X158000000Y-91750000D03*
X157000000Y-91750000D03*
D17*
X146750000Y-90250000D02*
X149236474Y-90250000D01*
X149236474Y-90250000D02*
X156250000Y-90250000D01*
X149200000Y-89000000D02*
X149200000Y-90213526D01*
X149200000Y-90213526D02*
X149236474Y-90250000D01*
X156854438Y-89645562D02*
X156854438Y-88808537D01*
X156250000Y-90250000D02*
X156854438Y-89645562D01*
X146250000Y-89750000D02*
X146750000Y-90250000D01*
X146250000Y-78000000D02*
X146250000Y-89750000D01*
X146750000Y-77500000D02*
X146250000Y-78000000D01*
X151250000Y-77500000D02*
X146750000Y-77500000D01*
D18*
G36*
X184873000Y-99373000D02*
X184727126Y-99373000D01*
X184727126Y-89356025D01*
X184727126Y-87856025D01*
X184727126Y-86356025D01*
X184727126Y-84856025D01*
X184727126Y-83356025D01*
X184727126Y-81856025D01*
X184727126Y-80356025D01*
X184727126Y-78856025D01*
X184727126Y-77356025D01*
X184616680Y-77088725D01*
X184412350Y-76884039D01*
X184145244Y-76773126D01*
X183856025Y-76772874D01*
X183588725Y-76883320D01*
X183384039Y-77087650D01*
X183273126Y-77354756D01*
X183272874Y-77643975D01*
X183383320Y-77911275D01*
X183587650Y-78115961D01*
X183854756Y-78226874D01*
X184143975Y-78227126D01*
X184411275Y-78116680D01*
X184615961Y-77912350D01*
X184726874Y-77645244D01*
X184727126Y-77356025D01*
X184727126Y-78856025D01*
X184616680Y-78588725D01*
X184412350Y-78384039D01*
X184145244Y-78273126D01*
X183856025Y-78272874D01*
X183588725Y-78383320D01*
X183384039Y-78587650D01*
X183273126Y-78854756D01*
X183272874Y-79143975D01*
X183383320Y-79411275D01*
X183587650Y-79615961D01*
X183854756Y-79726874D01*
X184143975Y-79727126D01*
X184411275Y-79616680D01*
X184615961Y-79412350D01*
X184726874Y-79145244D01*
X184727126Y-78856025D01*
X184727126Y-80356025D01*
X184616680Y-80088725D01*
X184412350Y-79884039D01*
X184145244Y-79773126D01*
X183856025Y-79772874D01*
X183588725Y-79883320D01*
X183384039Y-80087650D01*
X183273126Y-80354756D01*
X183272874Y-80643975D01*
X183383320Y-80911275D01*
X183587650Y-81115961D01*
X183854756Y-81226874D01*
X184143975Y-81227126D01*
X184411275Y-81116680D01*
X184615961Y-80912350D01*
X184726874Y-80645244D01*
X184727126Y-80356025D01*
X184727126Y-81856025D01*
X184616680Y-81588725D01*
X184412350Y-81384039D01*
X184145244Y-81273126D01*
X183856025Y-81272874D01*
X183588725Y-81383320D01*
X183384039Y-81587650D01*
X183273126Y-81854756D01*
X183272874Y-82143975D01*
X183383320Y-82411275D01*
X183587650Y-82615961D01*
X183854756Y-82726874D01*
X184143975Y-82727126D01*
X184411275Y-82616680D01*
X184615961Y-82412350D01*
X184726874Y-82145244D01*
X184727126Y-81856025D01*
X184727126Y-83356025D01*
X184616680Y-83088725D01*
X184412350Y-82884039D01*
X184145244Y-82773126D01*
X183856025Y-82772874D01*
X183588725Y-82883320D01*
X183384039Y-83087650D01*
X183273126Y-83354756D01*
X183272874Y-83643975D01*
X183383320Y-83911275D01*
X183587650Y-84115961D01*
X183854756Y-84226874D01*
X184143975Y-84227126D01*
X184411275Y-84116680D01*
X184615961Y-83912350D01*
X184726874Y-83645244D01*
X184727126Y-83356025D01*
X184727126Y-84856025D01*
X184616680Y-84588725D01*
X184412350Y-84384039D01*
X184145244Y-84273126D01*
X183856025Y-84272874D01*
X183588725Y-84383320D01*
X183384039Y-84587650D01*
X183273126Y-84854756D01*
X183272874Y-85143975D01*
X183383320Y-85411275D01*
X183587650Y-85615961D01*
X183854756Y-85726874D01*
X184143975Y-85727126D01*
X184411275Y-85616680D01*
X184615961Y-85412350D01*
X184726874Y-85145244D01*
X184727126Y-84856025D01*
X184727126Y-86356025D01*
X184616680Y-86088725D01*
X184412350Y-85884039D01*
X184145244Y-85773126D01*
X183856025Y-85772874D01*
X183588725Y-85883320D01*
X183384039Y-86087650D01*
X183273126Y-86354756D01*
X183272874Y-86643975D01*
X183383320Y-86911275D01*
X183587650Y-87115961D01*
X183854756Y-87226874D01*
X184143975Y-87227126D01*
X184411275Y-87116680D01*
X184615961Y-86912350D01*
X184726874Y-86645244D01*
X184727126Y-86356025D01*
X184727126Y-87856025D01*
X184616680Y-87588725D01*
X184412350Y-87384039D01*
X184145244Y-87273126D01*
X183856025Y-87272874D01*
X183588725Y-87383320D01*
X183384039Y-87587650D01*
X183273126Y-87854756D01*
X183272874Y-88143975D01*
X183383320Y-88411275D01*
X183587650Y-88615961D01*
X183854756Y-88726874D01*
X184143975Y-88727126D01*
X184411275Y-88616680D01*
X184615961Y-88412350D01*
X184726874Y-88145244D01*
X184727126Y-87856025D01*
X184727126Y-89356025D01*
X184616680Y-89088725D01*
X184412350Y-88884039D01*
X184145244Y-88773126D01*
X183856025Y-88772874D01*
X183588725Y-88883320D01*
X183384039Y-89087650D01*
X183273126Y-89354756D01*
X183272874Y-89643975D01*
X183383320Y-89911275D01*
X183587650Y-90115961D01*
X183854756Y-90226874D01*
X184143975Y-90227126D01*
X184411275Y-90116680D01*
X184615961Y-89912350D01*
X184726874Y-89645244D01*
X184727126Y-89356025D01*
X184727126Y-99373000D01*
X183227126Y-99373000D01*
X183227126Y-92856025D01*
X183227126Y-84856025D01*
X183227126Y-76856025D01*
X183116680Y-76588725D01*
X182912350Y-76384039D01*
X182645244Y-76273126D01*
X182356025Y-76272874D01*
X182088725Y-76383320D01*
X181884039Y-76587650D01*
X181773126Y-76854756D01*
X181772874Y-77143975D01*
X181883320Y-77411275D01*
X182087650Y-77615961D01*
X182354756Y-77726874D01*
X182643975Y-77727126D01*
X182911275Y-77616680D01*
X183115961Y-77412350D01*
X183226874Y-77145244D01*
X183227126Y-76856025D01*
X183227126Y-84856025D01*
X183116680Y-84588725D01*
X182912350Y-84384039D01*
X182645244Y-84273126D01*
X182356025Y-84272874D01*
X182088725Y-84383320D01*
X181884039Y-84587650D01*
X181773126Y-84854756D01*
X181772874Y-85143975D01*
X181883320Y-85411275D01*
X182087650Y-85615961D01*
X182354756Y-85726874D01*
X182643975Y-85727126D01*
X182911275Y-85616680D01*
X183115961Y-85412350D01*
X183226874Y-85145244D01*
X183227126Y-84856025D01*
X183227126Y-92856025D01*
X183116680Y-92588725D01*
X182912350Y-92384039D01*
X182645244Y-92273126D01*
X182356025Y-92272874D01*
X182088725Y-92383320D01*
X181884039Y-92587650D01*
X181773126Y-92854756D01*
X181772874Y-93143975D01*
X181883320Y-93411275D01*
X182087650Y-93615961D01*
X182354756Y-93726874D01*
X182643975Y-93727126D01*
X182911275Y-93616680D01*
X183115961Y-93412350D01*
X183226874Y-93145244D01*
X183227126Y-92856025D01*
X183227126Y-99373000D01*
X181727126Y-99373000D01*
X181727126Y-92856025D01*
X181727126Y-84856025D01*
X181727126Y-76856025D01*
X181616680Y-76588725D01*
X181412350Y-76384039D01*
X181145244Y-76273126D01*
X180856025Y-76272874D01*
X180588725Y-76383320D01*
X180384039Y-76587650D01*
X180273126Y-76854756D01*
X180272874Y-77143975D01*
X180383320Y-77411275D01*
X180587650Y-77615961D01*
X180854756Y-77726874D01*
X181143975Y-77727126D01*
X181411275Y-77616680D01*
X181615961Y-77412350D01*
X181726874Y-77145244D01*
X181727126Y-76856025D01*
X181727126Y-84856025D01*
X181616680Y-84588725D01*
X181412350Y-84384039D01*
X181145244Y-84273126D01*
X180856025Y-84272874D01*
X180588725Y-84383320D01*
X180384039Y-84587650D01*
X180273126Y-84854756D01*
X180272874Y-85143975D01*
X180383320Y-85411275D01*
X180587650Y-85615961D01*
X180854756Y-85726874D01*
X181143975Y-85727126D01*
X181411275Y-85616680D01*
X181615961Y-85412350D01*
X181726874Y-85145244D01*
X181727126Y-84856025D01*
X181727126Y-92856025D01*
X181616680Y-92588725D01*
X181412350Y-92384039D01*
X181145244Y-92273126D01*
X180856025Y-92272874D01*
X180588725Y-92383320D01*
X180384039Y-92587650D01*
X180273126Y-92854756D01*
X180272874Y-93143975D01*
X180383320Y-93411275D01*
X180587650Y-93615961D01*
X180854756Y-93726874D01*
X181143975Y-93727126D01*
X181411275Y-93616680D01*
X181615961Y-93412350D01*
X181726874Y-93145244D01*
X181727126Y-92856025D01*
X181727126Y-99373000D01*
X180227126Y-99373000D01*
X180227126Y-92856025D01*
X180227126Y-84856025D01*
X180227126Y-76856025D01*
X180116680Y-76588725D01*
X179912350Y-76384039D01*
X179645244Y-76273126D01*
X179356025Y-76272874D01*
X179088725Y-76383320D01*
X178884039Y-76587650D01*
X178773126Y-76854756D01*
X178772874Y-77143975D01*
X178883320Y-77411275D01*
X179087650Y-77615961D01*
X179354756Y-77726874D01*
X179643975Y-77727126D01*
X179911275Y-77616680D01*
X180115961Y-77412350D01*
X180226874Y-77145244D01*
X180227126Y-76856025D01*
X180227126Y-84856025D01*
X180116680Y-84588725D01*
X179912350Y-84384039D01*
X179645244Y-84273126D01*
X179356025Y-84272874D01*
X179088725Y-84383320D01*
X178884039Y-84587650D01*
X178773126Y-84854756D01*
X178772874Y-85143975D01*
X178883320Y-85411275D01*
X179087650Y-85615961D01*
X179354756Y-85726874D01*
X179643975Y-85727126D01*
X179911275Y-85616680D01*
X180115961Y-85412350D01*
X180226874Y-85145244D01*
X180227126Y-84856025D01*
X180227126Y-92856025D01*
X180116680Y-92588725D01*
X179912350Y-92384039D01*
X179645244Y-92273126D01*
X179356025Y-92272874D01*
X179088725Y-92383320D01*
X178884039Y-92587650D01*
X178773126Y-92854756D01*
X178772874Y-93143975D01*
X178883320Y-93411275D01*
X179087650Y-93615961D01*
X179354756Y-93726874D01*
X179643975Y-93727126D01*
X179911275Y-93616680D01*
X180115961Y-93412350D01*
X180226874Y-93145244D01*
X180227126Y-92856025D01*
X180227126Y-99373000D01*
X177889275Y-99373000D01*
X178255011Y-99300251D01*
X178640750Y-99042508D01*
X178898493Y-98656769D01*
X178989000Y-98201758D01*
X178989000Y-97378242D01*
X178898493Y-96923231D01*
X178727126Y-96666762D01*
X178727126Y-92856025D01*
X178727126Y-84856025D01*
X178727126Y-76856025D01*
X178616680Y-76588725D01*
X178412350Y-76384039D01*
X178145244Y-76273126D01*
X177856025Y-76272874D01*
X177588725Y-76383320D01*
X177384039Y-76587650D01*
X177273126Y-76854756D01*
X177272874Y-77143975D01*
X177383320Y-77411275D01*
X177587650Y-77615961D01*
X177854756Y-77726874D01*
X178143975Y-77727126D01*
X178411275Y-77616680D01*
X178615961Y-77412350D01*
X178726874Y-77145244D01*
X178727126Y-76856025D01*
X178727126Y-84856025D01*
X178616680Y-84588725D01*
X178412350Y-84384039D01*
X178145244Y-84273126D01*
X177856025Y-84272874D01*
X177588725Y-84383320D01*
X177384039Y-84587650D01*
X177273126Y-84854756D01*
X177272874Y-85143975D01*
X177383320Y-85411275D01*
X177587650Y-85615961D01*
X177854756Y-85726874D01*
X178143975Y-85727126D01*
X178411275Y-85616680D01*
X178615961Y-85412350D01*
X178726874Y-85145244D01*
X178727126Y-84856025D01*
X178727126Y-92856025D01*
X178616680Y-92588725D01*
X178412350Y-92384039D01*
X178145244Y-92273126D01*
X177856025Y-92272874D01*
X177588725Y-92383320D01*
X177384039Y-92587650D01*
X177273126Y-92854756D01*
X177272874Y-93143975D01*
X177383320Y-93411275D01*
X177587650Y-93615961D01*
X177854756Y-93726874D01*
X178143975Y-93727126D01*
X178411275Y-93616680D01*
X178615961Y-93412350D01*
X178726874Y-93145244D01*
X178727126Y-92856025D01*
X178727126Y-96666762D01*
X178640750Y-96537492D01*
X178255011Y-96279749D01*
X177800000Y-96189242D01*
X177344989Y-96279749D01*
X177227126Y-96358502D01*
X177227126Y-92856025D01*
X177227126Y-84856025D01*
X177227126Y-76856025D01*
X177116680Y-76588725D01*
X176912350Y-76384039D01*
X176645244Y-76273126D01*
X176356025Y-76272874D01*
X176088725Y-76383320D01*
X175884039Y-76587650D01*
X175773126Y-76854756D01*
X175773003Y-76994885D01*
X175662350Y-76884039D01*
X175395244Y-76773126D01*
X175106025Y-76772874D01*
X174838725Y-76883320D01*
X174634039Y-77087650D01*
X174625115Y-77109140D01*
X174616680Y-77088725D01*
X174412350Y-76884039D01*
X174145244Y-76773126D01*
X173856025Y-76772874D01*
X173588725Y-76883320D01*
X173384039Y-77087650D01*
X173375115Y-77109140D01*
X173366680Y-77088725D01*
X173162350Y-76884039D01*
X172895244Y-76773126D01*
X172606025Y-76772874D01*
X172338725Y-76883320D01*
X172134039Y-77087650D01*
X172023126Y-77354756D01*
X172022874Y-77643975D01*
X172063377Y-77742000D01*
X172008000Y-77742000D01*
X172008000Y-76492000D01*
X168992000Y-76492000D01*
X168992000Y-78758000D01*
X169992000Y-78758000D01*
X169992000Y-79764002D01*
X169812350Y-79584039D01*
X169545244Y-79473126D01*
X169256025Y-79472874D01*
X168988725Y-79583320D01*
X168784039Y-79787650D01*
X168673126Y-80054756D01*
X168672874Y-80343975D01*
X168783320Y-80611275D01*
X168987650Y-80815961D01*
X169254756Y-80926874D01*
X169543975Y-80927126D01*
X169811275Y-80816680D01*
X170015961Y-80612350D01*
X170126874Y-80345244D01*
X170126950Y-80258000D01*
X171719988Y-80258000D01*
X171783320Y-80411275D01*
X171987650Y-80615961D01*
X172254756Y-80726874D01*
X172543975Y-80727126D01*
X172811275Y-80616680D01*
X173015961Y-80412350D01*
X173080053Y-80258000D01*
X173508000Y-80258000D01*
X173508000Y-78036172D01*
X173587650Y-78115961D01*
X173854756Y-78226874D01*
X174143975Y-78227126D01*
X174411275Y-78116680D01*
X174615961Y-77912350D01*
X174624884Y-77890859D01*
X174633320Y-77911275D01*
X174837650Y-78115961D01*
X175104756Y-78226874D01*
X175393975Y-78227126D01*
X175661275Y-78116680D01*
X175865961Y-77912350D01*
X175976874Y-77645244D01*
X175976996Y-77505114D01*
X176087650Y-77615961D01*
X176354756Y-77726874D01*
X176643975Y-77727126D01*
X176911275Y-77616680D01*
X177115961Y-77412350D01*
X177226874Y-77145244D01*
X177227126Y-76856025D01*
X177227126Y-84856025D01*
X177116680Y-84588725D01*
X176912350Y-84384039D01*
X176645244Y-84273126D01*
X176356025Y-84272874D01*
X176088725Y-84383320D01*
X175884039Y-84587650D01*
X175773126Y-84854756D01*
X175772874Y-85143975D01*
X175883320Y-85411275D01*
X176087650Y-85615961D01*
X176354756Y-85726874D01*
X176643975Y-85727126D01*
X176911275Y-85616680D01*
X177115961Y-85412350D01*
X177226874Y-85145244D01*
X177227126Y-84856025D01*
X177227126Y-92856025D01*
X177116680Y-92588725D01*
X176912350Y-92384039D01*
X176645244Y-92273126D01*
X176356025Y-92272874D01*
X176088725Y-92383320D01*
X175884039Y-92587650D01*
X175773126Y-92854756D01*
X175772874Y-93143975D01*
X175883320Y-93411275D01*
X176087650Y-93615961D01*
X176354756Y-93726874D01*
X176643975Y-93727126D01*
X176911275Y-93616680D01*
X177115961Y-93412350D01*
X177226874Y-93145244D01*
X177227126Y-92856025D01*
X177227126Y-96358502D01*
X176959250Y-96537492D01*
X176701507Y-96923231D01*
X176611000Y-97378242D01*
X176611000Y-98201758D01*
X176701507Y-98656769D01*
X176959250Y-99042508D01*
X177344989Y-99300251D01*
X177710724Y-99373000D01*
X175349275Y-99373000D01*
X175715011Y-99300251D01*
X176100750Y-99042508D01*
X176358493Y-98656769D01*
X176449000Y-98201758D01*
X176449000Y-97378242D01*
X176358493Y-96923231D01*
X176100750Y-96537492D01*
X175715011Y-96279749D01*
X175260000Y-96189242D01*
X174977126Y-96245508D01*
X174977126Y-85356025D01*
X174866680Y-85088725D01*
X174662350Y-84884039D01*
X174395244Y-84773126D01*
X174106025Y-84772874D01*
X173838725Y-84883320D01*
X173634039Y-85087650D01*
X173523126Y-85354756D01*
X173522874Y-85643975D01*
X173633320Y-85911275D01*
X173837650Y-86115961D01*
X174104756Y-86226874D01*
X174393975Y-86227126D01*
X174661275Y-86116680D01*
X174865961Y-85912350D01*
X174976874Y-85645244D01*
X174977126Y-85356025D01*
X174977126Y-96245508D01*
X174804989Y-96279749D01*
X174419250Y-96537492D01*
X174161507Y-96923231D01*
X174071000Y-97378242D01*
X174071000Y-98201758D01*
X174161507Y-98656769D01*
X174419250Y-99042508D01*
X174804989Y-99300251D01*
X175170724Y-99373000D01*
X172508000Y-99373000D01*
X172508000Y-99360000D01*
X173566935Y-99360000D01*
X173723876Y-99294993D01*
X173843993Y-99174876D01*
X173909000Y-99017936D01*
X173909000Y-98848065D01*
X173909000Y-96562065D01*
X173843993Y-96405124D01*
X173723876Y-96285007D01*
X173566936Y-96220000D01*
X173397065Y-96220000D01*
X173227126Y-96220000D01*
X173227126Y-87856025D01*
X173116680Y-87588725D01*
X173008000Y-87479855D01*
X173008000Y-86020123D01*
X173115961Y-85912350D01*
X173226874Y-85645244D01*
X173227126Y-85356025D01*
X173116680Y-85088725D01*
X172912350Y-84884039D01*
X172645244Y-84773126D01*
X172356025Y-84772874D01*
X172088725Y-84883320D01*
X172008000Y-84963904D01*
X172008000Y-84492000D01*
X171227126Y-84492000D01*
X171227126Y-83606025D01*
X171116680Y-83338725D01*
X170912350Y-83134039D01*
X170645244Y-83023126D01*
X170356025Y-83022874D01*
X170088725Y-83133320D01*
X169884039Y-83337650D01*
X169773126Y-83604756D01*
X169772874Y-83893975D01*
X169883320Y-84161275D01*
X170087650Y-84365961D01*
X170354756Y-84476874D01*
X170643975Y-84477126D01*
X170911275Y-84366680D01*
X171115961Y-84162350D01*
X171226874Y-83895244D01*
X171227126Y-83606025D01*
X171227126Y-84492000D01*
X168992000Y-84492000D01*
X168992000Y-86758000D01*
X169992000Y-86758000D01*
X169992000Y-88008000D01*
X171772992Y-88008000D01*
X171772874Y-88143975D01*
X171883320Y-88411275D01*
X172087650Y-88615961D01*
X172354756Y-88726874D01*
X172643975Y-88727126D01*
X172911275Y-88616680D01*
X173115961Y-88412350D01*
X173226874Y-88145244D01*
X173227126Y-87856025D01*
X173227126Y-96220000D01*
X172508000Y-96220000D01*
X172508000Y-93289580D01*
X171073328Y-91854908D01*
X171115961Y-91812350D01*
X171226874Y-91545244D01*
X171227126Y-91256025D01*
X171116680Y-90988725D01*
X170912350Y-90784039D01*
X170645244Y-90673126D01*
X170356025Y-90672874D01*
X170088725Y-90783320D01*
X169977126Y-90894724D01*
X169977126Y-88106025D01*
X169866680Y-87838725D01*
X169662350Y-87634039D01*
X169395244Y-87523126D01*
X169106025Y-87522874D01*
X168838725Y-87633320D01*
X168634039Y-87837650D01*
X168523126Y-88104756D01*
X168522874Y-88393975D01*
X168633320Y-88661275D01*
X168837650Y-88865961D01*
X169104756Y-88976874D01*
X169393975Y-88977126D01*
X169661275Y-88866680D01*
X169865961Y-88662350D01*
X169976874Y-88395244D01*
X169977126Y-88106025D01*
X169977126Y-90894724D01*
X169884039Y-90987650D01*
X169773126Y-91254756D01*
X169772919Y-91492000D01*
X167977126Y-91492000D01*
X167977126Y-89106025D01*
X167977126Y-86606025D01*
X167977126Y-81106025D01*
X167866680Y-80838725D01*
X167662350Y-80634039D01*
X167472751Y-80555310D01*
X167615961Y-80412350D01*
X167726874Y-80145244D01*
X167727126Y-79856025D01*
X167616680Y-79588725D01*
X167472773Y-79444567D01*
X167661275Y-79366680D01*
X167865961Y-79162350D01*
X167976874Y-78895244D01*
X167977126Y-78606025D01*
X167866680Y-78338725D01*
X167662350Y-78134039D01*
X167395244Y-78023126D01*
X167106025Y-78022874D01*
X166838725Y-78133320D01*
X166634039Y-78337650D01*
X166523126Y-78604756D01*
X166522874Y-78893975D01*
X166633320Y-79161275D01*
X166777226Y-79305432D01*
X166588725Y-79383320D01*
X166384039Y-79587650D01*
X166273126Y-79854756D01*
X166272874Y-80143975D01*
X166383320Y-80411275D01*
X166587650Y-80615961D01*
X166777248Y-80694689D01*
X166634039Y-80837650D01*
X166523126Y-81104756D01*
X166522874Y-81393975D01*
X166633320Y-81661275D01*
X166837650Y-81865961D01*
X167104756Y-81976874D01*
X167393975Y-81977126D01*
X167661275Y-81866680D01*
X167865961Y-81662350D01*
X167976874Y-81395244D01*
X167977126Y-81106025D01*
X167977126Y-86606025D01*
X167866680Y-86338725D01*
X167662350Y-86134039D01*
X167395244Y-86023126D01*
X167106025Y-86022874D01*
X166838725Y-86133320D01*
X166750024Y-86221866D01*
X166662350Y-86134039D01*
X166395244Y-86023126D01*
X166106025Y-86022874D01*
X165838725Y-86133320D01*
X165634039Y-86337650D01*
X165523126Y-86604756D01*
X165522874Y-86893975D01*
X165633320Y-87161275D01*
X165837650Y-87365961D01*
X166104756Y-87476874D01*
X166393975Y-87477126D01*
X166661275Y-87366680D01*
X166749975Y-87278133D01*
X166837650Y-87365961D01*
X167104756Y-87476874D01*
X167393975Y-87477126D01*
X167661275Y-87366680D01*
X167865961Y-87162350D01*
X167976874Y-86895244D01*
X167977126Y-86606025D01*
X167977126Y-89106025D01*
X167866680Y-88838725D01*
X167662350Y-88634039D01*
X167395244Y-88523126D01*
X167106025Y-88522874D01*
X166838725Y-88633320D01*
X166634039Y-88837650D01*
X166523126Y-89104756D01*
X166522874Y-89393975D01*
X166633320Y-89661275D01*
X166837650Y-89865961D01*
X167104756Y-89976874D01*
X167393975Y-89977126D01*
X167661275Y-89866680D01*
X167865961Y-89662350D01*
X167976874Y-89395244D01*
X167977126Y-89106025D01*
X167977126Y-91492000D01*
X166036172Y-91492000D01*
X166115961Y-91412350D01*
X166226874Y-91145244D01*
X166227126Y-90856025D01*
X166116680Y-90588725D01*
X166028133Y-90500024D01*
X166115961Y-90412350D01*
X166226874Y-90145244D01*
X166227126Y-89856025D01*
X166116680Y-89588725D01*
X165912350Y-89384039D01*
X165645244Y-89273126D01*
X165356025Y-89272874D01*
X165088725Y-89383320D01*
X164884039Y-89587650D01*
X164773126Y-89854756D01*
X164772874Y-90143975D01*
X164883320Y-90411275D01*
X164971866Y-90499975D01*
X164884039Y-90587650D01*
X164773126Y-90854756D01*
X164772874Y-91143975D01*
X164883320Y-91411275D01*
X164963904Y-91492000D01*
X164327126Y-91492000D01*
X164327126Y-79456025D01*
X164216680Y-79188725D01*
X164012350Y-78984039D01*
X163745244Y-78873126D01*
X163456025Y-78872874D01*
X163227126Y-78967453D01*
X163227126Y-77856025D01*
X163227126Y-75856025D01*
X163116680Y-75588725D01*
X162912350Y-75384039D01*
X162645244Y-75273126D01*
X162356025Y-75272874D01*
X162088725Y-75383320D01*
X161884039Y-75587650D01*
X161773126Y-75854756D01*
X161772874Y-76143975D01*
X161883320Y-76411275D01*
X162087650Y-76615961D01*
X162354756Y-76726874D01*
X162643975Y-76727126D01*
X162911275Y-76616680D01*
X163115961Y-76412350D01*
X163226874Y-76145244D01*
X163227126Y-75856025D01*
X163227126Y-77856025D01*
X163116680Y-77588725D01*
X162912350Y-77384039D01*
X162645244Y-77273126D01*
X162356025Y-77272874D01*
X162088725Y-77383320D01*
X161884039Y-77587650D01*
X161773126Y-77854756D01*
X161772874Y-78143975D01*
X161883320Y-78411275D01*
X162087650Y-78615961D01*
X162354756Y-78726874D01*
X162643975Y-78727126D01*
X162911275Y-78616680D01*
X163115961Y-78412350D01*
X163226874Y-78145244D01*
X163227126Y-77856025D01*
X163227126Y-78967453D01*
X163188725Y-78983320D01*
X162984039Y-79187650D01*
X162873126Y-79454756D01*
X162872874Y-79743975D01*
X162983320Y-80011275D01*
X163187650Y-80215961D01*
X163454756Y-80326874D01*
X163743975Y-80327126D01*
X164011275Y-80216680D01*
X164215961Y-80012350D01*
X164326874Y-79745244D01*
X164327126Y-79456025D01*
X164327126Y-91492000D01*
X164227126Y-91492000D01*
X164227126Y-87106025D01*
X164116680Y-86838725D01*
X163912350Y-86634039D01*
X163645244Y-86523126D01*
X163356025Y-86522874D01*
X163088725Y-86633320D01*
X162884039Y-86837650D01*
X162773126Y-87104756D01*
X162772874Y-87393975D01*
X162883320Y-87661275D01*
X163087650Y-87865961D01*
X163354756Y-87976874D01*
X163643975Y-87977126D01*
X163911275Y-87866680D01*
X164115961Y-87662350D01*
X164226874Y-87395244D01*
X164227126Y-87106025D01*
X164227126Y-91492000D01*
X164177000Y-91492000D01*
X164177000Y-91415065D01*
X164177000Y-88915065D01*
X164111993Y-88758124D01*
X163991876Y-88638007D01*
X163834936Y-88573000D01*
X163665065Y-88573000D01*
X162677000Y-88573000D01*
X162677000Y-86165065D01*
X162611993Y-86008124D01*
X162491876Y-85888007D01*
X162334936Y-85823000D01*
X162165065Y-85823000D01*
X161227126Y-85823000D01*
X161227126Y-77856025D01*
X161227126Y-75856025D01*
X161116680Y-75588725D01*
X160912350Y-75384039D01*
X160645244Y-75273126D01*
X160356025Y-75272874D01*
X160088725Y-75383320D01*
X159884039Y-75587650D01*
X159773126Y-75854756D01*
X159772874Y-76143975D01*
X159883320Y-76411275D01*
X160087650Y-76615961D01*
X160354756Y-76726874D01*
X160643975Y-76727126D01*
X160911275Y-76616680D01*
X161115961Y-76412350D01*
X161226874Y-76145244D01*
X161227126Y-75856025D01*
X161227126Y-77856025D01*
X161116680Y-77588725D01*
X160912350Y-77384039D01*
X160645244Y-77273126D01*
X160356025Y-77272874D01*
X160088725Y-77383320D01*
X159884039Y-77587650D01*
X159773126Y-77854756D01*
X159772874Y-78143975D01*
X159883320Y-78411275D01*
X160087650Y-78615961D01*
X160354756Y-78726874D01*
X160643975Y-78727126D01*
X160911275Y-78616680D01*
X161115961Y-78412350D01*
X161226874Y-78145244D01*
X161227126Y-77856025D01*
X161227126Y-85823000D01*
X159727126Y-85823000D01*
X159727126Y-83856025D01*
X159616680Y-83588725D01*
X159528133Y-83500024D01*
X159615961Y-83412350D01*
X159726874Y-83145244D01*
X159727126Y-82856025D01*
X159727126Y-81356025D01*
X159616680Y-81088725D01*
X159528133Y-81000024D01*
X159615961Y-80912350D01*
X159726874Y-80645244D01*
X159727126Y-80356025D01*
X159616680Y-80088725D01*
X159412350Y-79884039D01*
X159227126Y-79807126D01*
X159227126Y-75856025D01*
X159116680Y-75588725D01*
X158912350Y-75384039D01*
X158645244Y-75273126D01*
X158356025Y-75272874D01*
X158088725Y-75383320D01*
X157884039Y-75587650D01*
X157773126Y-75854756D01*
X157772874Y-76143975D01*
X157883320Y-76411275D01*
X158087650Y-76615961D01*
X158354756Y-76726874D01*
X158643975Y-76727126D01*
X158911275Y-76616680D01*
X159115961Y-76412350D01*
X159226874Y-76145244D01*
X159227126Y-75856025D01*
X159227126Y-79807126D01*
X159145244Y-79773126D01*
X158856025Y-79772874D01*
X158588725Y-79883320D01*
X158384039Y-80087650D01*
X158273126Y-80354756D01*
X158272874Y-80643975D01*
X158383320Y-80911275D01*
X158471866Y-80999975D01*
X158384039Y-81087650D01*
X158273126Y-81354756D01*
X158272874Y-81643975D01*
X158383320Y-81911275D01*
X158587650Y-82115961D01*
X158854756Y-82226874D01*
X159143975Y-82227126D01*
X159411275Y-82116680D01*
X159615961Y-81912350D01*
X159726874Y-81645244D01*
X159727126Y-81356025D01*
X159727126Y-82856025D01*
X159616680Y-82588725D01*
X159412350Y-82384039D01*
X159145244Y-82273126D01*
X158856025Y-82272874D01*
X158588725Y-82383320D01*
X158384039Y-82587650D01*
X158273126Y-82854756D01*
X158272874Y-83143975D01*
X158383320Y-83411275D01*
X158471866Y-83499975D01*
X158384039Y-83587650D01*
X158273126Y-83854756D01*
X158272874Y-84143975D01*
X158383320Y-84411275D01*
X158587650Y-84615961D01*
X158854756Y-84726874D01*
X159143975Y-84727126D01*
X159411275Y-84616680D01*
X159615961Y-84412350D01*
X159726874Y-84145244D01*
X159727126Y-83856025D01*
X159727126Y-85823000D01*
X159665065Y-85823000D01*
X159508124Y-85888007D01*
X159388007Y-86008124D01*
X159323000Y-86165064D01*
X159323000Y-86334935D01*
X159323000Y-88834935D01*
X159388007Y-88991876D01*
X159508124Y-89111993D01*
X159665064Y-89177000D01*
X159834935Y-89177000D01*
X160823000Y-89177000D01*
X160823000Y-89492000D01*
X157581438Y-89492000D01*
X157581438Y-88809171D01*
X157581438Y-88808537D01*
X157581564Y-88664562D01*
X157526098Y-88530326D01*
X157517828Y-88510311D01*
X157615961Y-88412350D01*
X157726874Y-88145244D01*
X157727126Y-87856025D01*
X157616680Y-87588725D01*
X157412350Y-87384039D01*
X157227126Y-87307126D01*
X157227126Y-75856025D01*
X157116680Y-75588725D01*
X156912350Y-75384039D01*
X156645244Y-75273126D01*
X156356025Y-75272874D01*
X156088725Y-75383320D01*
X155884039Y-75587650D01*
X155773126Y-75854756D01*
X155772874Y-76143975D01*
X155883320Y-76411275D01*
X156087650Y-76615961D01*
X156354756Y-76726874D01*
X156643975Y-76727126D01*
X156911275Y-76616680D01*
X157115961Y-76412350D01*
X157226874Y-76145244D01*
X157227126Y-75856025D01*
X157227126Y-87307126D01*
X157145244Y-87273126D01*
X156856025Y-87272874D01*
X156588725Y-87383320D01*
X156384039Y-87587650D01*
X156273126Y-87854756D01*
X156272874Y-88143975D01*
X156336609Y-88298225D01*
X156238477Y-88396187D01*
X156127564Y-88663293D01*
X156127312Y-88952512D01*
X156127438Y-88952816D01*
X156127438Y-89344428D01*
X155979866Y-89492000D01*
X155727126Y-89492000D01*
X155727126Y-85856025D01*
X155616680Y-85588725D01*
X155412350Y-85384039D01*
X155145244Y-85273126D01*
X154856025Y-85272874D01*
X154636152Y-85363723D01*
X154726874Y-85145244D01*
X154727126Y-84856025D01*
X154636276Y-84636152D01*
X154854756Y-84726874D01*
X155143975Y-84727126D01*
X155411275Y-84616680D01*
X155615961Y-84412350D01*
X155726874Y-84145244D01*
X155727126Y-83856025D01*
X155616680Y-83588725D01*
X155412350Y-83384039D01*
X155145244Y-83273126D01*
X154856025Y-83272874D01*
X154636152Y-83363723D01*
X154726874Y-83145244D01*
X154727126Y-82856025D01*
X154636276Y-82636152D01*
X154854756Y-82726874D01*
X155143975Y-82727126D01*
X155411275Y-82616680D01*
X155615961Y-82412350D01*
X155726874Y-82145244D01*
X155727126Y-81856025D01*
X155616680Y-81588725D01*
X155412350Y-81384039D01*
X155227126Y-81307126D01*
X155227126Y-75856025D01*
X155116680Y-75588725D01*
X154912350Y-75384039D01*
X154645244Y-75273126D01*
X154356025Y-75272874D01*
X154088725Y-75383320D01*
X153884039Y-75587650D01*
X153773126Y-75854756D01*
X153772874Y-76143975D01*
X153883320Y-76411275D01*
X154087650Y-76615961D01*
X154354756Y-76726874D01*
X154643975Y-76727126D01*
X154911275Y-76616680D01*
X155115961Y-76412350D01*
X155226874Y-76145244D01*
X155227126Y-75856025D01*
X155227126Y-81307126D01*
X155145244Y-81273126D01*
X154856025Y-81272874D01*
X154588725Y-81383320D01*
X154477126Y-81494724D01*
X154477126Y-77356025D01*
X154366680Y-77088725D01*
X154162350Y-76884039D01*
X153895244Y-76773126D01*
X153606025Y-76772874D01*
X153338725Y-76883320D01*
X153134039Y-77087650D01*
X153023126Y-77354756D01*
X153022874Y-77643975D01*
X153133320Y-77911275D01*
X153337650Y-78115961D01*
X153604756Y-78226874D01*
X153893975Y-78227126D01*
X154161275Y-78116680D01*
X154365961Y-77912350D01*
X154476874Y-77645244D01*
X154477126Y-77356025D01*
X154477126Y-81494724D01*
X154384039Y-81587650D01*
X154273126Y-81854756D01*
X154272874Y-82143975D01*
X154363723Y-82363847D01*
X154145244Y-82273126D01*
X153856025Y-82272874D01*
X153636152Y-82363723D01*
X153726874Y-82145244D01*
X153727126Y-81856025D01*
X153616680Y-81588725D01*
X153412350Y-81384039D01*
X153145244Y-81273126D01*
X152856025Y-81272874D01*
X152588725Y-81383320D01*
X152384039Y-81587650D01*
X152273126Y-81854756D01*
X152272874Y-82143975D01*
X152363723Y-82363847D01*
X152145244Y-82273126D01*
X151856025Y-82272874D01*
X151636152Y-82363723D01*
X151726874Y-82145244D01*
X151727126Y-81856025D01*
X151616680Y-81588725D01*
X151412350Y-81384039D01*
X151145244Y-81273126D01*
X150856025Y-81272874D01*
X150588725Y-81383320D01*
X150384039Y-81587650D01*
X150273126Y-81854756D01*
X150272874Y-82143975D01*
X150383320Y-82411275D01*
X150587650Y-82615961D01*
X150854756Y-82726874D01*
X151143975Y-82727126D01*
X151363847Y-82636276D01*
X151273126Y-82854756D01*
X151272874Y-83143975D01*
X151363723Y-83363847D01*
X151145244Y-83273126D01*
X150856025Y-83272874D01*
X150588725Y-83383320D01*
X150384039Y-83587650D01*
X150273126Y-83854756D01*
X150272874Y-84143975D01*
X150383320Y-84411275D01*
X150587650Y-84615961D01*
X150854756Y-84726874D01*
X151143975Y-84727126D01*
X151363847Y-84636276D01*
X151273126Y-84854756D01*
X151272874Y-85143975D01*
X151363723Y-85363847D01*
X151145244Y-85273126D01*
X150856025Y-85272874D01*
X150588725Y-85383320D01*
X150384039Y-85587650D01*
X150273126Y-85854756D01*
X150272874Y-86143975D01*
X150383320Y-86411275D01*
X150587650Y-86615961D01*
X150854756Y-86726874D01*
X151143975Y-86727126D01*
X151411275Y-86616680D01*
X151615961Y-86412350D01*
X151726874Y-86145244D01*
X151727126Y-85856025D01*
X151636276Y-85636152D01*
X151854756Y-85726874D01*
X152143975Y-85727126D01*
X152363847Y-85636276D01*
X152273126Y-85854756D01*
X152272874Y-86143975D01*
X152383320Y-86411275D01*
X152587650Y-86615961D01*
X152854756Y-86726874D01*
X153143975Y-86727126D01*
X153411275Y-86616680D01*
X153615961Y-86412350D01*
X153726874Y-86145244D01*
X153727126Y-85856025D01*
X153636276Y-85636152D01*
X153854756Y-85726874D01*
X154143975Y-85727126D01*
X154363847Y-85636276D01*
X154273126Y-85854756D01*
X154272874Y-86143975D01*
X154383320Y-86411275D01*
X154587650Y-86615961D01*
X154854756Y-86726874D01*
X155143975Y-86727126D01*
X155411275Y-86616680D01*
X155615961Y-86412350D01*
X155726874Y-86145244D01*
X155727126Y-85856025D01*
X155727126Y-89492000D01*
X153526384Y-89492000D01*
X153576895Y-89370358D01*
X153577147Y-89081139D01*
X153466701Y-88813839D01*
X153262371Y-88609153D01*
X152995265Y-88498240D01*
X152706046Y-88497988D01*
X152438746Y-88608434D01*
X152234060Y-88812764D01*
X152123147Y-89079870D01*
X152122895Y-89369089D01*
X152173680Y-89492000D01*
X149927000Y-89492000D01*
X149927000Y-89000634D01*
X149927000Y-89000000D01*
X149927126Y-88856025D01*
X149871660Y-88721789D01*
X149816680Y-88588725D01*
X149714067Y-88485933D01*
X149714066Y-88485932D01*
X149681853Y-88453663D01*
X149726874Y-88345244D01*
X149727126Y-88056025D01*
X149616680Y-87788725D01*
X149412350Y-87584039D01*
X149145244Y-87473126D01*
X148856025Y-87472874D01*
X148588725Y-87583320D01*
X148384039Y-87787650D01*
X148273126Y-88054756D01*
X148272874Y-88343975D01*
X148383320Y-88611275D01*
X148518146Y-88746336D01*
X148473126Y-88854756D01*
X148472874Y-89143975D01*
X148473000Y-89144279D01*
X148473000Y-89492000D01*
X147020133Y-89492000D01*
X146977000Y-89448866D01*
X146977000Y-78508000D01*
X147463827Y-78508000D01*
X147384039Y-78587650D01*
X147273126Y-78854756D01*
X147272874Y-79143975D01*
X147383320Y-79411275D01*
X147587650Y-79615961D01*
X147854756Y-79726874D01*
X148143975Y-79727126D01*
X148411275Y-79616680D01*
X148615961Y-79412350D01*
X148726874Y-79145244D01*
X148727126Y-78856025D01*
X148616680Y-78588725D01*
X148536095Y-78508000D01*
X152258000Y-78508000D01*
X152258000Y-75258000D01*
X184873000Y-75258000D01*
X184873000Y-99373000D01*
X184873000Y-99373000D01*
G37*
X184873000Y-99373000D02*
X184727126Y-99373000D01*
X184727126Y-89356025D01*
X184727126Y-87856025D01*
X184727126Y-86356025D01*
X184727126Y-84856025D01*
X184727126Y-83356025D01*
X184727126Y-81856025D01*
X184727126Y-80356025D01*
X184727126Y-78856025D01*
X184727126Y-77356025D01*
X184616680Y-77088725D01*
X184412350Y-76884039D01*
X184145244Y-76773126D01*
X183856025Y-76772874D01*
X183588725Y-76883320D01*
X183384039Y-77087650D01*
X183273126Y-77354756D01*
X183272874Y-77643975D01*
X183383320Y-77911275D01*
X183587650Y-78115961D01*
X183854756Y-78226874D01*
X184143975Y-78227126D01*
X184411275Y-78116680D01*
X184615961Y-77912350D01*
X184726874Y-77645244D01*
X184727126Y-77356025D01*
X184727126Y-78856025D01*
X184616680Y-78588725D01*
X184412350Y-78384039D01*
X184145244Y-78273126D01*
X183856025Y-78272874D01*
X183588725Y-78383320D01*
X183384039Y-78587650D01*
X183273126Y-78854756D01*
X183272874Y-79143975D01*
X183383320Y-79411275D01*
X183587650Y-79615961D01*
X183854756Y-79726874D01*
X184143975Y-79727126D01*
X184411275Y-79616680D01*
X184615961Y-79412350D01*
X184726874Y-79145244D01*
X184727126Y-78856025D01*
X184727126Y-80356025D01*
X184616680Y-80088725D01*
X184412350Y-79884039D01*
X184145244Y-79773126D01*
X183856025Y-79772874D01*
X183588725Y-79883320D01*
X183384039Y-80087650D01*
X183273126Y-80354756D01*
X183272874Y-80643975D01*
X183383320Y-80911275D01*
X183587650Y-81115961D01*
X183854756Y-81226874D01*
X184143975Y-81227126D01*
X184411275Y-81116680D01*
X184615961Y-80912350D01*
X184726874Y-80645244D01*
X184727126Y-80356025D01*
X184727126Y-81856025D01*
X184616680Y-81588725D01*
X184412350Y-81384039D01*
X184145244Y-81273126D01*
X183856025Y-81272874D01*
X183588725Y-81383320D01*
X183384039Y-81587650D01*
X183273126Y-81854756D01*
X183272874Y-82143975D01*
X183383320Y-82411275D01*
X183587650Y-82615961D01*
X183854756Y-82726874D01*
X184143975Y-82727126D01*
X184411275Y-82616680D01*
X184615961Y-82412350D01*
X184726874Y-82145244D01*
X184727126Y-81856025D01*
X184727126Y-83356025D01*
X184616680Y-83088725D01*
X184412350Y-82884039D01*
X184145244Y-82773126D01*
X183856025Y-82772874D01*
X183588725Y-82883320D01*
X183384039Y-83087650D01*
X183273126Y-83354756D01*
X183272874Y-83643975D01*
X183383320Y-83911275D01*
X183587650Y-84115961D01*
X183854756Y-84226874D01*
X184143975Y-84227126D01*
X184411275Y-84116680D01*
X184615961Y-83912350D01*
X184726874Y-83645244D01*
X184727126Y-83356025D01*
X184727126Y-84856025D01*
X184616680Y-84588725D01*
X184412350Y-84384039D01*
X184145244Y-84273126D01*
X183856025Y-84272874D01*
X183588725Y-84383320D01*
X183384039Y-84587650D01*
X183273126Y-84854756D01*
X183272874Y-85143975D01*
X183383320Y-85411275D01*
X183587650Y-85615961D01*
X183854756Y-85726874D01*
X184143975Y-85727126D01*
X184411275Y-85616680D01*
X184615961Y-85412350D01*
X184726874Y-85145244D01*
X184727126Y-84856025D01*
X184727126Y-86356025D01*
X184616680Y-86088725D01*
X184412350Y-85884039D01*
X184145244Y-85773126D01*
X183856025Y-85772874D01*
X183588725Y-85883320D01*
X183384039Y-86087650D01*
X183273126Y-86354756D01*
X183272874Y-86643975D01*
X183383320Y-86911275D01*
X183587650Y-87115961D01*
X183854756Y-87226874D01*
X184143975Y-87227126D01*
X184411275Y-87116680D01*
X184615961Y-86912350D01*
X184726874Y-86645244D01*
X184727126Y-86356025D01*
X184727126Y-87856025D01*
X184616680Y-87588725D01*
X184412350Y-87384039D01*
X184145244Y-87273126D01*
X183856025Y-87272874D01*
X183588725Y-87383320D01*
X183384039Y-87587650D01*
X183273126Y-87854756D01*
X183272874Y-88143975D01*
X183383320Y-88411275D01*
X183587650Y-88615961D01*
X183854756Y-88726874D01*
X184143975Y-88727126D01*
X184411275Y-88616680D01*
X184615961Y-88412350D01*
X184726874Y-88145244D01*
X184727126Y-87856025D01*
X184727126Y-89356025D01*
X184616680Y-89088725D01*
X184412350Y-88884039D01*
X184145244Y-88773126D01*
X183856025Y-88772874D01*
X183588725Y-88883320D01*
X183384039Y-89087650D01*
X183273126Y-89354756D01*
X183272874Y-89643975D01*
X183383320Y-89911275D01*
X183587650Y-90115961D01*
X183854756Y-90226874D01*
X184143975Y-90227126D01*
X184411275Y-90116680D01*
X184615961Y-89912350D01*
X184726874Y-89645244D01*
X184727126Y-89356025D01*
X184727126Y-99373000D01*
X183227126Y-99373000D01*
X183227126Y-92856025D01*
X183227126Y-84856025D01*
X183227126Y-76856025D01*
X183116680Y-76588725D01*
X182912350Y-76384039D01*
X182645244Y-76273126D01*
X182356025Y-76272874D01*
X182088725Y-76383320D01*
X181884039Y-76587650D01*
X181773126Y-76854756D01*
X181772874Y-77143975D01*
X181883320Y-77411275D01*
X182087650Y-77615961D01*
X182354756Y-77726874D01*
X182643975Y-77727126D01*
X182911275Y-77616680D01*
X183115961Y-77412350D01*
X183226874Y-77145244D01*
X183227126Y-76856025D01*
X183227126Y-84856025D01*
X183116680Y-84588725D01*
X182912350Y-84384039D01*
X182645244Y-84273126D01*
X182356025Y-84272874D01*
X182088725Y-84383320D01*
X181884039Y-84587650D01*
X181773126Y-84854756D01*
X181772874Y-85143975D01*
X181883320Y-85411275D01*
X182087650Y-85615961D01*
X182354756Y-85726874D01*
X182643975Y-85727126D01*
X182911275Y-85616680D01*
X183115961Y-85412350D01*
X183226874Y-85145244D01*
X183227126Y-84856025D01*
X183227126Y-92856025D01*
X183116680Y-92588725D01*
X182912350Y-92384039D01*
X182645244Y-92273126D01*
X182356025Y-92272874D01*
X182088725Y-92383320D01*
X181884039Y-92587650D01*
X181773126Y-92854756D01*
X181772874Y-93143975D01*
X181883320Y-93411275D01*
X182087650Y-93615961D01*
X182354756Y-93726874D01*
X182643975Y-93727126D01*
X182911275Y-93616680D01*
X183115961Y-93412350D01*
X183226874Y-93145244D01*
X183227126Y-92856025D01*
X183227126Y-99373000D01*
X181727126Y-99373000D01*
X181727126Y-92856025D01*
X181727126Y-84856025D01*
X181727126Y-76856025D01*
X181616680Y-76588725D01*
X181412350Y-76384039D01*
X181145244Y-76273126D01*
X180856025Y-76272874D01*
X180588725Y-76383320D01*
X180384039Y-76587650D01*
X180273126Y-76854756D01*
X180272874Y-77143975D01*
X180383320Y-77411275D01*
X180587650Y-77615961D01*
X180854756Y-77726874D01*
X181143975Y-77727126D01*
X181411275Y-77616680D01*
X181615961Y-77412350D01*
X181726874Y-77145244D01*
X181727126Y-76856025D01*
X181727126Y-84856025D01*
X181616680Y-84588725D01*
X181412350Y-84384039D01*
X181145244Y-84273126D01*
X180856025Y-84272874D01*
X180588725Y-84383320D01*
X180384039Y-84587650D01*
X180273126Y-84854756D01*
X180272874Y-85143975D01*
X180383320Y-85411275D01*
X180587650Y-85615961D01*
X180854756Y-85726874D01*
X181143975Y-85727126D01*
X181411275Y-85616680D01*
X181615961Y-85412350D01*
X181726874Y-85145244D01*
X181727126Y-84856025D01*
X181727126Y-92856025D01*
X181616680Y-92588725D01*
X181412350Y-92384039D01*
X181145244Y-92273126D01*
X180856025Y-92272874D01*
X180588725Y-92383320D01*
X180384039Y-92587650D01*
X180273126Y-92854756D01*
X180272874Y-93143975D01*
X180383320Y-93411275D01*
X180587650Y-93615961D01*
X180854756Y-93726874D01*
X181143975Y-93727126D01*
X181411275Y-93616680D01*
X181615961Y-93412350D01*
X181726874Y-93145244D01*
X181727126Y-92856025D01*
X181727126Y-99373000D01*
X180227126Y-99373000D01*
X180227126Y-92856025D01*
X180227126Y-84856025D01*
X180227126Y-76856025D01*
X180116680Y-76588725D01*
X179912350Y-76384039D01*
X179645244Y-76273126D01*
X179356025Y-76272874D01*
X179088725Y-76383320D01*
X178884039Y-76587650D01*
X178773126Y-76854756D01*
X178772874Y-77143975D01*
X178883320Y-77411275D01*
X179087650Y-77615961D01*
X179354756Y-77726874D01*
X179643975Y-77727126D01*
X179911275Y-77616680D01*
X180115961Y-77412350D01*
X180226874Y-77145244D01*
X180227126Y-76856025D01*
X180227126Y-84856025D01*
X180116680Y-84588725D01*
X179912350Y-84384039D01*
X179645244Y-84273126D01*
X179356025Y-84272874D01*
X179088725Y-84383320D01*
X178884039Y-84587650D01*
X178773126Y-84854756D01*
X178772874Y-85143975D01*
X178883320Y-85411275D01*
X179087650Y-85615961D01*
X179354756Y-85726874D01*
X179643975Y-85727126D01*
X179911275Y-85616680D01*
X180115961Y-85412350D01*
X180226874Y-85145244D01*
X180227126Y-84856025D01*
X180227126Y-92856025D01*
X180116680Y-92588725D01*
X179912350Y-92384039D01*
X179645244Y-92273126D01*
X179356025Y-92272874D01*
X179088725Y-92383320D01*
X178884039Y-92587650D01*
X178773126Y-92854756D01*
X178772874Y-93143975D01*
X178883320Y-93411275D01*
X179087650Y-93615961D01*
X179354756Y-93726874D01*
X179643975Y-93727126D01*
X179911275Y-93616680D01*
X180115961Y-93412350D01*
X180226874Y-93145244D01*
X180227126Y-92856025D01*
X180227126Y-99373000D01*
X177889275Y-99373000D01*
X178255011Y-99300251D01*
X178640750Y-99042508D01*
X178898493Y-98656769D01*
X178989000Y-98201758D01*
X178989000Y-97378242D01*
X178898493Y-96923231D01*
X178727126Y-96666762D01*
X178727126Y-92856025D01*
X178727126Y-84856025D01*
X178727126Y-76856025D01*
X178616680Y-76588725D01*
X178412350Y-76384039D01*
X178145244Y-76273126D01*
X177856025Y-76272874D01*
X177588725Y-76383320D01*
X177384039Y-76587650D01*
X177273126Y-76854756D01*
X177272874Y-77143975D01*
X177383320Y-77411275D01*
X177587650Y-77615961D01*
X177854756Y-77726874D01*
X178143975Y-77727126D01*
X178411275Y-77616680D01*
X178615961Y-77412350D01*
X178726874Y-77145244D01*
X178727126Y-76856025D01*
X178727126Y-84856025D01*
X178616680Y-84588725D01*
X178412350Y-84384039D01*
X178145244Y-84273126D01*
X177856025Y-84272874D01*
X177588725Y-84383320D01*
X177384039Y-84587650D01*
X177273126Y-84854756D01*
X177272874Y-85143975D01*
X177383320Y-85411275D01*
X177587650Y-85615961D01*
X177854756Y-85726874D01*
X178143975Y-85727126D01*
X178411275Y-85616680D01*
X178615961Y-85412350D01*
X178726874Y-85145244D01*
X178727126Y-84856025D01*
X178727126Y-92856025D01*
X178616680Y-92588725D01*
X178412350Y-92384039D01*
X178145244Y-92273126D01*
X177856025Y-92272874D01*
X177588725Y-92383320D01*
X177384039Y-92587650D01*
X177273126Y-92854756D01*
X177272874Y-93143975D01*
X177383320Y-93411275D01*
X177587650Y-93615961D01*
X177854756Y-93726874D01*
X178143975Y-93727126D01*
X178411275Y-93616680D01*
X178615961Y-93412350D01*
X178726874Y-93145244D01*
X178727126Y-92856025D01*
X178727126Y-96666762D01*
X178640750Y-96537492D01*
X178255011Y-96279749D01*
X177800000Y-96189242D01*
X177344989Y-96279749D01*
X177227126Y-96358502D01*
X177227126Y-92856025D01*
X177227126Y-84856025D01*
X177227126Y-76856025D01*
X177116680Y-76588725D01*
X176912350Y-76384039D01*
X176645244Y-76273126D01*
X176356025Y-76272874D01*
X176088725Y-76383320D01*
X175884039Y-76587650D01*
X175773126Y-76854756D01*
X175773003Y-76994885D01*
X175662350Y-76884039D01*
X175395244Y-76773126D01*
X175106025Y-76772874D01*
X174838725Y-76883320D01*
X174634039Y-77087650D01*
X174625115Y-77109140D01*
X174616680Y-77088725D01*
X174412350Y-76884039D01*
X174145244Y-76773126D01*
X173856025Y-76772874D01*
X173588725Y-76883320D01*
X173384039Y-77087650D01*
X173375115Y-77109140D01*
X173366680Y-77088725D01*
X173162350Y-76884039D01*
X172895244Y-76773126D01*
X172606025Y-76772874D01*
X172338725Y-76883320D01*
X172134039Y-77087650D01*
X172023126Y-77354756D01*
X172022874Y-77643975D01*
X172063377Y-77742000D01*
X172008000Y-77742000D01*
X172008000Y-76492000D01*
X168992000Y-76492000D01*
X168992000Y-78758000D01*
X169992000Y-78758000D01*
X169992000Y-79764002D01*
X169812350Y-79584039D01*
X169545244Y-79473126D01*
X169256025Y-79472874D01*
X168988725Y-79583320D01*
X168784039Y-79787650D01*
X168673126Y-80054756D01*
X168672874Y-80343975D01*
X168783320Y-80611275D01*
X168987650Y-80815961D01*
X169254756Y-80926874D01*
X169543975Y-80927126D01*
X169811275Y-80816680D01*
X170015961Y-80612350D01*
X170126874Y-80345244D01*
X170126950Y-80258000D01*
X171719988Y-80258000D01*
X171783320Y-80411275D01*
X171987650Y-80615961D01*
X172254756Y-80726874D01*
X172543975Y-80727126D01*
X172811275Y-80616680D01*
X173015961Y-80412350D01*
X173080053Y-80258000D01*
X173508000Y-80258000D01*
X173508000Y-78036172D01*
X173587650Y-78115961D01*
X173854756Y-78226874D01*
X174143975Y-78227126D01*
X174411275Y-78116680D01*
X174615961Y-77912350D01*
X174624884Y-77890859D01*
X174633320Y-77911275D01*
X174837650Y-78115961D01*
X175104756Y-78226874D01*
X175393975Y-78227126D01*
X175661275Y-78116680D01*
X175865961Y-77912350D01*
X175976874Y-77645244D01*
X175976996Y-77505114D01*
X176087650Y-77615961D01*
X176354756Y-77726874D01*
X176643975Y-77727126D01*
X176911275Y-77616680D01*
X177115961Y-77412350D01*
X177226874Y-77145244D01*
X177227126Y-76856025D01*
X177227126Y-84856025D01*
X177116680Y-84588725D01*
X176912350Y-84384039D01*
X176645244Y-84273126D01*
X176356025Y-84272874D01*
X176088725Y-84383320D01*
X175884039Y-84587650D01*
X175773126Y-84854756D01*
X175772874Y-85143975D01*
X175883320Y-85411275D01*
X176087650Y-85615961D01*
X176354756Y-85726874D01*
X176643975Y-85727126D01*
X176911275Y-85616680D01*
X177115961Y-85412350D01*
X177226874Y-85145244D01*
X177227126Y-84856025D01*
X177227126Y-92856025D01*
X177116680Y-92588725D01*
X176912350Y-92384039D01*
X176645244Y-92273126D01*
X176356025Y-92272874D01*
X176088725Y-92383320D01*
X175884039Y-92587650D01*
X175773126Y-92854756D01*
X175772874Y-93143975D01*
X175883320Y-93411275D01*
X176087650Y-93615961D01*
X176354756Y-93726874D01*
X176643975Y-93727126D01*
X176911275Y-93616680D01*
X177115961Y-93412350D01*
X177226874Y-93145244D01*
X177227126Y-92856025D01*
X177227126Y-96358502D01*
X176959250Y-96537492D01*
X176701507Y-96923231D01*
X176611000Y-97378242D01*
X176611000Y-98201758D01*
X176701507Y-98656769D01*
X176959250Y-99042508D01*
X177344989Y-99300251D01*
X177710724Y-99373000D01*
X175349275Y-99373000D01*
X175715011Y-99300251D01*
X176100750Y-99042508D01*
X176358493Y-98656769D01*
X176449000Y-98201758D01*
X176449000Y-97378242D01*
X176358493Y-96923231D01*
X176100750Y-96537492D01*
X175715011Y-96279749D01*
X175260000Y-96189242D01*
X174977126Y-96245508D01*
X174977126Y-85356025D01*
X174866680Y-85088725D01*
X174662350Y-84884039D01*
X174395244Y-84773126D01*
X174106025Y-84772874D01*
X173838725Y-84883320D01*
X173634039Y-85087650D01*
X173523126Y-85354756D01*
X173522874Y-85643975D01*
X173633320Y-85911275D01*
X173837650Y-86115961D01*
X174104756Y-86226874D01*
X174393975Y-86227126D01*
X174661275Y-86116680D01*
X174865961Y-85912350D01*
X174976874Y-85645244D01*
X174977126Y-85356025D01*
X174977126Y-96245508D01*
X174804989Y-96279749D01*
X174419250Y-96537492D01*
X174161507Y-96923231D01*
X174071000Y-97378242D01*
X174071000Y-98201758D01*
X174161507Y-98656769D01*
X174419250Y-99042508D01*
X174804989Y-99300251D01*
X175170724Y-99373000D01*
X172508000Y-99373000D01*
X172508000Y-99360000D01*
X173566935Y-99360000D01*
X173723876Y-99294993D01*
X173843993Y-99174876D01*
X173909000Y-99017936D01*
X173909000Y-98848065D01*
X173909000Y-96562065D01*
X173843993Y-96405124D01*
X173723876Y-96285007D01*
X173566936Y-96220000D01*
X173397065Y-96220000D01*
X173227126Y-96220000D01*
X173227126Y-87856025D01*
X173116680Y-87588725D01*
X173008000Y-87479855D01*
X173008000Y-86020123D01*
X173115961Y-85912350D01*
X173226874Y-85645244D01*
X173227126Y-85356025D01*
X173116680Y-85088725D01*
X172912350Y-84884039D01*
X172645244Y-84773126D01*
X172356025Y-84772874D01*
X172088725Y-84883320D01*
X172008000Y-84963904D01*
X172008000Y-84492000D01*
X171227126Y-84492000D01*
X171227126Y-83606025D01*
X171116680Y-83338725D01*
X170912350Y-83134039D01*
X170645244Y-83023126D01*
X170356025Y-83022874D01*
X170088725Y-83133320D01*
X169884039Y-83337650D01*
X169773126Y-83604756D01*
X169772874Y-83893975D01*
X169883320Y-84161275D01*
X170087650Y-84365961D01*
X170354756Y-84476874D01*
X170643975Y-84477126D01*
X170911275Y-84366680D01*
X171115961Y-84162350D01*
X171226874Y-83895244D01*
X171227126Y-83606025D01*
X171227126Y-84492000D01*
X168992000Y-84492000D01*
X168992000Y-86758000D01*
X169992000Y-86758000D01*
X169992000Y-88008000D01*
X171772992Y-88008000D01*
X171772874Y-88143975D01*
X171883320Y-88411275D01*
X172087650Y-88615961D01*
X172354756Y-88726874D01*
X172643975Y-88727126D01*
X172911275Y-88616680D01*
X173115961Y-88412350D01*
X173226874Y-88145244D01*
X173227126Y-87856025D01*
X173227126Y-96220000D01*
X172508000Y-96220000D01*
X172508000Y-93289580D01*
X171073328Y-91854908D01*
X171115961Y-91812350D01*
X171226874Y-91545244D01*
X171227126Y-91256025D01*
X171116680Y-90988725D01*
X170912350Y-90784039D01*
X170645244Y-90673126D01*
X170356025Y-90672874D01*
X170088725Y-90783320D01*
X169977126Y-90894724D01*
X169977126Y-88106025D01*
X169866680Y-87838725D01*
X169662350Y-87634039D01*
X169395244Y-87523126D01*
X169106025Y-87522874D01*
X168838725Y-87633320D01*
X168634039Y-87837650D01*
X168523126Y-88104756D01*
X168522874Y-88393975D01*
X168633320Y-88661275D01*
X168837650Y-88865961D01*
X169104756Y-88976874D01*
X169393975Y-88977126D01*
X169661275Y-88866680D01*
X169865961Y-88662350D01*
X169976874Y-88395244D01*
X169977126Y-88106025D01*
X169977126Y-90894724D01*
X169884039Y-90987650D01*
X169773126Y-91254756D01*
X169772919Y-91492000D01*
X167977126Y-91492000D01*
X167977126Y-89106025D01*
X167977126Y-86606025D01*
X167977126Y-81106025D01*
X167866680Y-80838725D01*
X167662350Y-80634039D01*
X167472751Y-80555310D01*
X167615961Y-80412350D01*
X167726874Y-80145244D01*
X167727126Y-79856025D01*
X167616680Y-79588725D01*
X167472773Y-79444567D01*
X167661275Y-79366680D01*
X167865961Y-79162350D01*
X167976874Y-78895244D01*
X167977126Y-78606025D01*
X167866680Y-78338725D01*
X167662350Y-78134039D01*
X167395244Y-78023126D01*
X167106025Y-78022874D01*
X166838725Y-78133320D01*
X166634039Y-78337650D01*
X166523126Y-78604756D01*
X166522874Y-78893975D01*
X166633320Y-79161275D01*
X166777226Y-79305432D01*
X166588725Y-79383320D01*
X166384039Y-79587650D01*
X166273126Y-79854756D01*
X166272874Y-80143975D01*
X166383320Y-80411275D01*
X166587650Y-80615961D01*
X166777248Y-80694689D01*
X166634039Y-80837650D01*
X166523126Y-81104756D01*
X166522874Y-81393975D01*
X166633320Y-81661275D01*
X166837650Y-81865961D01*
X167104756Y-81976874D01*
X167393975Y-81977126D01*
X167661275Y-81866680D01*
X167865961Y-81662350D01*
X167976874Y-81395244D01*
X167977126Y-81106025D01*
X167977126Y-86606025D01*
X167866680Y-86338725D01*
X167662350Y-86134039D01*
X167395244Y-86023126D01*
X167106025Y-86022874D01*
X166838725Y-86133320D01*
X166750024Y-86221866D01*
X166662350Y-86134039D01*
X166395244Y-86023126D01*
X166106025Y-86022874D01*
X165838725Y-86133320D01*
X165634039Y-86337650D01*
X165523126Y-86604756D01*
X165522874Y-86893975D01*
X165633320Y-87161275D01*
X165837650Y-87365961D01*
X166104756Y-87476874D01*
X166393975Y-87477126D01*
X166661275Y-87366680D01*
X166749975Y-87278133D01*
X166837650Y-87365961D01*
X167104756Y-87476874D01*
X167393975Y-87477126D01*
X167661275Y-87366680D01*
X167865961Y-87162350D01*
X167976874Y-86895244D01*
X167977126Y-86606025D01*
X167977126Y-89106025D01*
X167866680Y-88838725D01*
X167662350Y-88634039D01*
X167395244Y-88523126D01*
X167106025Y-88522874D01*
X166838725Y-88633320D01*
X166634039Y-88837650D01*
X166523126Y-89104756D01*
X166522874Y-89393975D01*
X166633320Y-89661275D01*
X166837650Y-89865961D01*
X167104756Y-89976874D01*
X167393975Y-89977126D01*
X167661275Y-89866680D01*
X167865961Y-89662350D01*
X167976874Y-89395244D01*
X167977126Y-89106025D01*
X167977126Y-91492000D01*
X166036172Y-91492000D01*
X166115961Y-91412350D01*
X166226874Y-91145244D01*
X166227126Y-90856025D01*
X166116680Y-90588725D01*
X166028133Y-90500024D01*
X166115961Y-90412350D01*
X166226874Y-90145244D01*
X166227126Y-89856025D01*
X166116680Y-89588725D01*
X165912350Y-89384039D01*
X165645244Y-89273126D01*
X165356025Y-89272874D01*
X165088725Y-89383320D01*
X164884039Y-89587650D01*
X164773126Y-89854756D01*
X164772874Y-90143975D01*
X164883320Y-90411275D01*
X164971866Y-90499975D01*
X164884039Y-90587650D01*
X164773126Y-90854756D01*
X164772874Y-91143975D01*
X164883320Y-91411275D01*
X164963904Y-91492000D01*
X164327126Y-91492000D01*
X164327126Y-79456025D01*
X164216680Y-79188725D01*
X164012350Y-78984039D01*
X163745244Y-78873126D01*
X163456025Y-78872874D01*
X163227126Y-78967453D01*
X163227126Y-77856025D01*
X163227126Y-75856025D01*
X163116680Y-75588725D01*
X162912350Y-75384039D01*
X162645244Y-75273126D01*
X162356025Y-75272874D01*
X162088725Y-75383320D01*
X161884039Y-75587650D01*
X161773126Y-75854756D01*
X161772874Y-76143975D01*
X161883320Y-76411275D01*
X162087650Y-76615961D01*
X162354756Y-76726874D01*
X162643975Y-76727126D01*
X162911275Y-76616680D01*
X163115961Y-76412350D01*
X163226874Y-76145244D01*
X163227126Y-75856025D01*
X163227126Y-77856025D01*
X163116680Y-77588725D01*
X162912350Y-77384039D01*
X162645244Y-77273126D01*
X162356025Y-77272874D01*
X162088725Y-77383320D01*
X161884039Y-77587650D01*
X161773126Y-77854756D01*
X161772874Y-78143975D01*
X161883320Y-78411275D01*
X162087650Y-78615961D01*
X162354756Y-78726874D01*
X162643975Y-78727126D01*
X162911275Y-78616680D01*
X163115961Y-78412350D01*
X163226874Y-78145244D01*
X163227126Y-77856025D01*
X163227126Y-78967453D01*
X163188725Y-78983320D01*
X162984039Y-79187650D01*
X162873126Y-79454756D01*
X162872874Y-79743975D01*
X162983320Y-80011275D01*
X163187650Y-80215961D01*
X163454756Y-80326874D01*
X163743975Y-80327126D01*
X164011275Y-80216680D01*
X164215961Y-80012350D01*
X164326874Y-79745244D01*
X164327126Y-79456025D01*
X164327126Y-91492000D01*
X164227126Y-91492000D01*
X164227126Y-87106025D01*
X164116680Y-86838725D01*
X163912350Y-86634039D01*
X163645244Y-86523126D01*
X163356025Y-86522874D01*
X163088725Y-86633320D01*
X162884039Y-86837650D01*
X162773126Y-87104756D01*
X162772874Y-87393975D01*
X162883320Y-87661275D01*
X163087650Y-87865961D01*
X163354756Y-87976874D01*
X163643975Y-87977126D01*
X163911275Y-87866680D01*
X164115961Y-87662350D01*
X164226874Y-87395244D01*
X164227126Y-87106025D01*
X164227126Y-91492000D01*
X164177000Y-91492000D01*
X164177000Y-91415065D01*
X164177000Y-88915065D01*
X164111993Y-88758124D01*
X163991876Y-88638007D01*
X163834936Y-88573000D01*
X163665065Y-88573000D01*
X162677000Y-88573000D01*
X162677000Y-86165065D01*
X162611993Y-86008124D01*
X162491876Y-85888007D01*
X162334936Y-85823000D01*
X162165065Y-85823000D01*
X161227126Y-85823000D01*
X161227126Y-77856025D01*
X161227126Y-75856025D01*
X161116680Y-75588725D01*
X160912350Y-75384039D01*
X160645244Y-75273126D01*
X160356025Y-75272874D01*
X160088725Y-75383320D01*
X159884039Y-75587650D01*
X159773126Y-75854756D01*
X159772874Y-76143975D01*
X159883320Y-76411275D01*
X160087650Y-76615961D01*
X160354756Y-76726874D01*
X160643975Y-76727126D01*
X160911275Y-76616680D01*
X161115961Y-76412350D01*
X161226874Y-76145244D01*
X161227126Y-75856025D01*
X161227126Y-77856025D01*
X161116680Y-77588725D01*
X160912350Y-77384039D01*
X160645244Y-77273126D01*
X160356025Y-77272874D01*
X160088725Y-77383320D01*
X159884039Y-77587650D01*
X159773126Y-77854756D01*
X159772874Y-78143975D01*
X159883320Y-78411275D01*
X160087650Y-78615961D01*
X160354756Y-78726874D01*
X160643975Y-78727126D01*
X160911275Y-78616680D01*
X161115961Y-78412350D01*
X161226874Y-78145244D01*
X161227126Y-77856025D01*
X161227126Y-85823000D01*
X159727126Y-85823000D01*
X159727126Y-83856025D01*
X159616680Y-83588725D01*
X159528133Y-83500024D01*
X159615961Y-83412350D01*
X159726874Y-83145244D01*
X159727126Y-82856025D01*
X159727126Y-81356025D01*
X159616680Y-81088725D01*
X159528133Y-81000024D01*
X159615961Y-80912350D01*
X159726874Y-80645244D01*
X159727126Y-80356025D01*
X159616680Y-80088725D01*
X159412350Y-79884039D01*
X159227126Y-79807126D01*
X159227126Y-75856025D01*
X159116680Y-75588725D01*
X158912350Y-75384039D01*
X158645244Y-75273126D01*
X158356025Y-75272874D01*
X158088725Y-75383320D01*
X157884039Y-75587650D01*
X157773126Y-75854756D01*
X157772874Y-76143975D01*
X157883320Y-76411275D01*
X158087650Y-76615961D01*
X158354756Y-76726874D01*
X158643975Y-76727126D01*
X158911275Y-76616680D01*
X159115961Y-76412350D01*
X159226874Y-76145244D01*
X159227126Y-75856025D01*
X159227126Y-79807126D01*
X159145244Y-79773126D01*
X158856025Y-79772874D01*
X158588725Y-79883320D01*
X158384039Y-80087650D01*
X158273126Y-80354756D01*
X158272874Y-80643975D01*
X158383320Y-80911275D01*
X158471866Y-80999975D01*
X158384039Y-81087650D01*
X158273126Y-81354756D01*
X158272874Y-81643975D01*
X158383320Y-81911275D01*
X158587650Y-82115961D01*
X158854756Y-82226874D01*
X159143975Y-82227126D01*
X159411275Y-82116680D01*
X159615961Y-81912350D01*
X159726874Y-81645244D01*
X159727126Y-81356025D01*
X159727126Y-82856025D01*
X159616680Y-82588725D01*
X159412350Y-82384039D01*
X159145244Y-82273126D01*
X158856025Y-82272874D01*
X158588725Y-82383320D01*
X158384039Y-82587650D01*
X158273126Y-82854756D01*
X158272874Y-83143975D01*
X158383320Y-83411275D01*
X158471866Y-83499975D01*
X158384039Y-83587650D01*
X158273126Y-83854756D01*
X158272874Y-84143975D01*
X158383320Y-84411275D01*
X158587650Y-84615961D01*
X158854756Y-84726874D01*
X159143975Y-84727126D01*
X159411275Y-84616680D01*
X159615961Y-84412350D01*
X159726874Y-84145244D01*
X159727126Y-83856025D01*
X159727126Y-85823000D01*
X159665065Y-85823000D01*
X159508124Y-85888007D01*
X159388007Y-86008124D01*
X159323000Y-86165064D01*
X159323000Y-86334935D01*
X159323000Y-88834935D01*
X159388007Y-88991876D01*
X159508124Y-89111993D01*
X159665064Y-89177000D01*
X159834935Y-89177000D01*
X160823000Y-89177000D01*
X160823000Y-89492000D01*
X157581438Y-89492000D01*
X157581438Y-88809171D01*
X157581438Y-88808537D01*
X157581564Y-88664562D01*
X157526098Y-88530326D01*
X157517828Y-88510311D01*
X157615961Y-88412350D01*
X157726874Y-88145244D01*
X157727126Y-87856025D01*
X157616680Y-87588725D01*
X157412350Y-87384039D01*
X157227126Y-87307126D01*
X157227126Y-75856025D01*
X157116680Y-75588725D01*
X156912350Y-75384039D01*
X156645244Y-75273126D01*
X156356025Y-75272874D01*
X156088725Y-75383320D01*
X155884039Y-75587650D01*
X155773126Y-75854756D01*
X155772874Y-76143975D01*
X155883320Y-76411275D01*
X156087650Y-76615961D01*
X156354756Y-76726874D01*
X156643975Y-76727126D01*
X156911275Y-76616680D01*
X157115961Y-76412350D01*
X157226874Y-76145244D01*
X157227126Y-75856025D01*
X157227126Y-87307126D01*
X157145244Y-87273126D01*
X156856025Y-87272874D01*
X156588725Y-87383320D01*
X156384039Y-87587650D01*
X156273126Y-87854756D01*
X156272874Y-88143975D01*
X156336609Y-88298225D01*
X156238477Y-88396187D01*
X156127564Y-88663293D01*
X156127312Y-88952512D01*
X156127438Y-88952816D01*
X156127438Y-89344428D01*
X155979866Y-89492000D01*
X155727126Y-89492000D01*
X155727126Y-85856025D01*
X155616680Y-85588725D01*
X155412350Y-85384039D01*
X155145244Y-85273126D01*
X154856025Y-85272874D01*
X154636152Y-85363723D01*
X154726874Y-85145244D01*
X154727126Y-84856025D01*
X154636276Y-84636152D01*
X154854756Y-84726874D01*
X155143975Y-84727126D01*
X155411275Y-84616680D01*
X155615961Y-84412350D01*
X155726874Y-84145244D01*
X155727126Y-83856025D01*
X155616680Y-83588725D01*
X155412350Y-83384039D01*
X155145244Y-83273126D01*
X154856025Y-83272874D01*
X154636152Y-83363723D01*
X154726874Y-83145244D01*
X154727126Y-82856025D01*
X154636276Y-82636152D01*
X154854756Y-82726874D01*
X155143975Y-82727126D01*
X155411275Y-82616680D01*
X155615961Y-82412350D01*
X155726874Y-82145244D01*
X155727126Y-81856025D01*
X155616680Y-81588725D01*
X155412350Y-81384039D01*
X155227126Y-81307126D01*
X155227126Y-75856025D01*
X155116680Y-75588725D01*
X154912350Y-75384039D01*
X154645244Y-75273126D01*
X154356025Y-75272874D01*
X154088725Y-75383320D01*
X153884039Y-75587650D01*
X153773126Y-75854756D01*
X153772874Y-76143975D01*
X153883320Y-76411275D01*
X154087650Y-76615961D01*
X154354756Y-76726874D01*
X154643975Y-76727126D01*
X154911275Y-76616680D01*
X155115961Y-76412350D01*
X155226874Y-76145244D01*
X155227126Y-75856025D01*
X155227126Y-81307126D01*
X155145244Y-81273126D01*
X154856025Y-81272874D01*
X154588725Y-81383320D01*
X154477126Y-81494724D01*
X154477126Y-77356025D01*
X154366680Y-77088725D01*
X154162350Y-76884039D01*
X153895244Y-76773126D01*
X153606025Y-76772874D01*
X153338725Y-76883320D01*
X153134039Y-77087650D01*
X153023126Y-77354756D01*
X153022874Y-77643975D01*
X153133320Y-77911275D01*
X153337650Y-78115961D01*
X153604756Y-78226874D01*
X153893975Y-78227126D01*
X154161275Y-78116680D01*
X154365961Y-77912350D01*
X154476874Y-77645244D01*
X154477126Y-77356025D01*
X154477126Y-81494724D01*
X154384039Y-81587650D01*
X154273126Y-81854756D01*
X154272874Y-82143975D01*
X154363723Y-82363847D01*
X154145244Y-82273126D01*
X153856025Y-82272874D01*
X153636152Y-82363723D01*
X153726874Y-82145244D01*
X153727126Y-81856025D01*
X153616680Y-81588725D01*
X153412350Y-81384039D01*
X153145244Y-81273126D01*
X152856025Y-81272874D01*
X152588725Y-81383320D01*
X152384039Y-81587650D01*
X152273126Y-81854756D01*
X152272874Y-82143975D01*
X152363723Y-82363847D01*
X152145244Y-82273126D01*
X151856025Y-82272874D01*
X151636152Y-82363723D01*
X151726874Y-82145244D01*
X151727126Y-81856025D01*
X151616680Y-81588725D01*
X151412350Y-81384039D01*
X151145244Y-81273126D01*
X150856025Y-81272874D01*
X150588725Y-81383320D01*
X150384039Y-81587650D01*
X150273126Y-81854756D01*
X150272874Y-82143975D01*
X150383320Y-82411275D01*
X150587650Y-82615961D01*
X150854756Y-82726874D01*
X151143975Y-82727126D01*
X151363847Y-82636276D01*
X151273126Y-82854756D01*
X151272874Y-83143975D01*
X151363723Y-83363847D01*
X151145244Y-83273126D01*
X150856025Y-83272874D01*
X150588725Y-83383320D01*
X150384039Y-83587650D01*
X150273126Y-83854756D01*
X150272874Y-84143975D01*
X150383320Y-84411275D01*
X150587650Y-84615961D01*
X150854756Y-84726874D01*
X151143975Y-84727126D01*
X151363847Y-84636276D01*
X151273126Y-84854756D01*
X151272874Y-85143975D01*
X151363723Y-85363847D01*
X151145244Y-85273126D01*
X150856025Y-85272874D01*
X150588725Y-85383320D01*
X150384039Y-85587650D01*
X150273126Y-85854756D01*
X150272874Y-86143975D01*
X150383320Y-86411275D01*
X150587650Y-86615961D01*
X150854756Y-86726874D01*
X151143975Y-86727126D01*
X151411275Y-86616680D01*
X151615961Y-86412350D01*
X151726874Y-86145244D01*
X151727126Y-85856025D01*
X151636276Y-85636152D01*
X151854756Y-85726874D01*
X152143975Y-85727126D01*
X152363847Y-85636276D01*
X152273126Y-85854756D01*
X152272874Y-86143975D01*
X152383320Y-86411275D01*
X152587650Y-86615961D01*
X152854756Y-86726874D01*
X153143975Y-86727126D01*
X153411275Y-86616680D01*
X153615961Y-86412350D01*
X153726874Y-86145244D01*
X153727126Y-85856025D01*
X153636276Y-85636152D01*
X153854756Y-85726874D01*
X154143975Y-85727126D01*
X154363847Y-85636276D01*
X154273126Y-85854756D01*
X154272874Y-86143975D01*
X154383320Y-86411275D01*
X154587650Y-86615961D01*
X154854756Y-86726874D01*
X155143975Y-86727126D01*
X155411275Y-86616680D01*
X155615961Y-86412350D01*
X155726874Y-86145244D01*
X155727126Y-85856025D01*
X155727126Y-89492000D01*
X153526384Y-89492000D01*
X153576895Y-89370358D01*
X153577147Y-89081139D01*
X153466701Y-88813839D01*
X153262371Y-88609153D01*
X152995265Y-88498240D01*
X152706046Y-88497988D01*
X152438746Y-88608434D01*
X152234060Y-88812764D01*
X152123147Y-89079870D01*
X152122895Y-89369089D01*
X152173680Y-89492000D01*
X149927000Y-89492000D01*
X149927000Y-89000634D01*
X149927000Y-89000000D01*
X149927126Y-88856025D01*
X149871660Y-88721789D01*
X149816680Y-88588725D01*
X149714067Y-88485933D01*
X149714066Y-88485932D01*
X149681853Y-88453663D01*
X149726874Y-88345244D01*
X149727126Y-88056025D01*
X149616680Y-87788725D01*
X149412350Y-87584039D01*
X149145244Y-87473126D01*
X148856025Y-87472874D01*
X148588725Y-87583320D01*
X148384039Y-87787650D01*
X148273126Y-88054756D01*
X148272874Y-88343975D01*
X148383320Y-88611275D01*
X148518146Y-88746336D01*
X148473126Y-88854756D01*
X148472874Y-89143975D01*
X148473000Y-89144279D01*
X148473000Y-89492000D01*
X147020133Y-89492000D01*
X146977000Y-89448866D01*
X146977000Y-78508000D01*
X147463827Y-78508000D01*
X147384039Y-78587650D01*
X147273126Y-78854756D01*
X147272874Y-79143975D01*
X147383320Y-79411275D01*
X147587650Y-79615961D01*
X147854756Y-79726874D01*
X148143975Y-79727126D01*
X148411275Y-79616680D01*
X148615961Y-79412350D01*
X148726874Y-79145244D01*
X148727126Y-78856025D01*
X148616680Y-78588725D01*
X148536095Y-78508000D01*
X152258000Y-78508000D01*
X152258000Y-75258000D01*
X184873000Y-75258000D01*
X184873000Y-99373000D01*
G36*
X184815000Y-74623000D02*
X174646680Y-74623000D01*
X174646680Y-73388310D01*
X174646680Y-73135691D01*
X174646680Y-72785750D01*
X174646680Y-72214250D01*
X174646680Y-71864309D01*
X174646680Y-71611690D01*
X174550007Y-71378301D01*
X174371378Y-71199673D01*
X174137989Y-71103000D01*
X173535430Y-71103000D01*
X173376680Y-71261750D01*
X173376680Y-72373000D01*
X174487930Y-72373000D01*
X174646680Y-72214250D01*
X174646680Y-72785750D01*
X174487930Y-72627000D01*
X173376680Y-72627000D01*
X173376680Y-73738250D01*
X173535430Y-73897000D01*
X174137989Y-73897000D01*
X174371378Y-73800327D01*
X174550007Y-73621699D01*
X174646680Y-73388310D01*
X174646680Y-74623000D01*
X173122680Y-74623000D01*
X173122680Y-73738250D01*
X173122680Y-72627000D01*
X173102680Y-72627000D01*
X173102680Y-72373000D01*
X173122680Y-72373000D01*
X173122680Y-71261750D01*
X172963930Y-71103000D01*
X172361371Y-71103000D01*
X172127982Y-71199673D01*
X171949353Y-71378301D01*
X171852680Y-71611690D01*
X171852680Y-71626902D01*
X171542690Y-71316371D01*
X171029420Y-71103243D01*
X170473659Y-71102758D01*
X169960017Y-71314990D01*
X169566691Y-71707630D01*
X169353563Y-72220900D01*
X169353078Y-72776661D01*
X169565310Y-73290303D01*
X169957950Y-73683629D01*
X170471220Y-73896757D01*
X171026981Y-73897242D01*
X171540623Y-73685010D01*
X171852680Y-73373497D01*
X171852680Y-73388310D01*
X171949353Y-73621699D01*
X172127982Y-73800327D01*
X172361371Y-73897000D01*
X172963930Y-73897000D01*
X173122680Y-73738250D01*
X173122680Y-74623000D01*
X167646680Y-74623000D01*
X167646680Y-73388310D01*
X167646680Y-73135691D01*
X167646680Y-71611691D01*
X167550007Y-71378302D01*
X167371379Y-71199673D01*
X167137990Y-71103000D01*
X166885371Y-71103000D01*
X165361371Y-71103000D01*
X165127982Y-71199673D01*
X164949353Y-71378301D01*
X164852680Y-71611690D01*
X164852680Y-71626902D01*
X164542690Y-71316371D01*
X164029420Y-71103243D01*
X163473659Y-71102758D01*
X162960017Y-71314990D01*
X162566691Y-71707630D01*
X162353563Y-72220900D01*
X162353078Y-72776661D01*
X162565310Y-73290303D01*
X162957950Y-73683629D01*
X163471220Y-73896757D01*
X164026981Y-73897242D01*
X164540623Y-73685010D01*
X164852680Y-73373497D01*
X164852680Y-73388309D01*
X164949353Y-73621698D01*
X165127981Y-73800327D01*
X165361370Y-73897000D01*
X165613989Y-73897000D01*
X167137989Y-73897000D01*
X167371378Y-73800327D01*
X167550007Y-73621699D01*
X167646680Y-73388310D01*
X167646680Y-74623000D01*
X151623000Y-74623000D01*
X151623000Y-77873000D01*
X146627000Y-77873000D01*
X146627000Y-69127000D01*
X149392479Y-69127000D01*
X149315162Y-69313201D01*
X149314838Y-69685167D01*
X149456883Y-70028943D01*
X149719673Y-70292192D01*
X150063201Y-70434838D01*
X150435167Y-70435162D01*
X150778943Y-70293117D01*
X151042192Y-70030327D01*
X151184838Y-69686799D01*
X151185162Y-69314833D01*
X151107551Y-69127000D01*
X151642479Y-69127000D01*
X151565162Y-69313201D01*
X151564838Y-69685167D01*
X151706883Y-70028943D01*
X151969673Y-70292192D01*
X152313201Y-70434838D01*
X152685167Y-70435162D01*
X153028943Y-70293117D01*
X153292192Y-70030327D01*
X153434838Y-69686799D01*
X153435162Y-69314833D01*
X153357551Y-69127000D01*
X154142479Y-69127000D01*
X154065162Y-69313201D01*
X154064838Y-69685167D01*
X154206883Y-70028943D01*
X154469673Y-70292192D01*
X154813201Y-70434838D01*
X155185167Y-70435162D01*
X155528943Y-70293117D01*
X155792192Y-70030327D01*
X155934838Y-69686799D01*
X155935162Y-69314833D01*
X155857551Y-69127000D01*
X156892479Y-69127000D01*
X156815162Y-69313201D01*
X156814838Y-69685167D01*
X156956883Y-70028943D01*
X157219673Y-70292192D01*
X157563201Y-70434838D01*
X157935167Y-70435162D01*
X158278943Y-70293117D01*
X158542192Y-70030327D01*
X158684838Y-69686799D01*
X158685162Y-69314833D01*
X158607551Y-69127000D01*
X178664389Y-69127000D01*
X178471057Y-69206883D01*
X178207808Y-69469673D01*
X178065162Y-69813201D01*
X178064838Y-70185167D01*
X178195069Y-70500351D01*
X178065162Y-70813201D01*
X178064838Y-71185167D01*
X178206883Y-71528943D01*
X178469673Y-71792192D01*
X178813201Y-71934838D01*
X179185167Y-71935162D01*
X179528943Y-71793117D01*
X179792192Y-71530327D01*
X179934838Y-71186799D01*
X179935162Y-70814833D01*
X179804930Y-70499648D01*
X179934838Y-70186799D01*
X179935162Y-69814833D01*
X179793117Y-69471057D01*
X179530327Y-69207808D01*
X179335720Y-69127000D01*
X180664389Y-69127000D01*
X180471057Y-69206883D01*
X180207808Y-69469673D01*
X180065162Y-69813201D01*
X180064838Y-70185167D01*
X180195069Y-70500351D01*
X180065162Y-70813201D01*
X180064838Y-71185167D01*
X180206883Y-71528943D01*
X180469673Y-71792192D01*
X180813201Y-71934838D01*
X181185167Y-71935162D01*
X181528943Y-71793117D01*
X181792192Y-71530327D01*
X181934838Y-71186799D01*
X181935162Y-70814833D01*
X181804930Y-70499648D01*
X181934838Y-70186799D01*
X181935162Y-69814833D01*
X181793117Y-69471057D01*
X181530327Y-69207808D01*
X181335720Y-69127000D01*
X184815000Y-69127000D01*
X184815000Y-74623000D01*
X184815000Y-74623000D01*
G37*
X184815000Y-74623000D02*
X174646680Y-74623000D01*
X174646680Y-73388310D01*
X174646680Y-73135691D01*
X174646680Y-72785750D01*
X174646680Y-72214250D01*
X174646680Y-71864309D01*
X174646680Y-71611690D01*
X174550007Y-71378301D01*
X174371378Y-71199673D01*
X174137989Y-71103000D01*
X173535430Y-71103000D01*
X173376680Y-71261750D01*
X173376680Y-72373000D01*
X174487930Y-72373000D01*
X174646680Y-72214250D01*
X174646680Y-72785750D01*
X174487930Y-72627000D01*
X173376680Y-72627000D01*
X173376680Y-73738250D01*
X173535430Y-73897000D01*
X174137989Y-73897000D01*
X174371378Y-73800327D01*
X174550007Y-73621699D01*
X174646680Y-73388310D01*
X174646680Y-74623000D01*
X173122680Y-74623000D01*
X173122680Y-73738250D01*
X173122680Y-72627000D01*
X173102680Y-72627000D01*
X173102680Y-72373000D01*
X173122680Y-72373000D01*
X173122680Y-71261750D01*
X172963930Y-71103000D01*
X172361371Y-71103000D01*
X172127982Y-71199673D01*
X171949353Y-71378301D01*
X171852680Y-71611690D01*
X171852680Y-71626902D01*
X171542690Y-71316371D01*
X171029420Y-71103243D01*
X170473659Y-71102758D01*
X169960017Y-71314990D01*
X169566691Y-71707630D01*
X169353563Y-72220900D01*
X169353078Y-72776661D01*
X169565310Y-73290303D01*
X169957950Y-73683629D01*
X170471220Y-73896757D01*
X171026981Y-73897242D01*
X171540623Y-73685010D01*
X171852680Y-73373497D01*
X171852680Y-73388310D01*
X171949353Y-73621699D01*
X172127982Y-73800327D01*
X172361371Y-73897000D01*
X172963930Y-73897000D01*
X173122680Y-73738250D01*
X173122680Y-74623000D01*
X167646680Y-74623000D01*
X167646680Y-73388310D01*
X167646680Y-73135691D01*
X167646680Y-71611691D01*
X167550007Y-71378302D01*
X167371379Y-71199673D01*
X167137990Y-71103000D01*
X166885371Y-71103000D01*
X165361371Y-71103000D01*
X165127982Y-71199673D01*
X164949353Y-71378301D01*
X164852680Y-71611690D01*
X164852680Y-71626902D01*
X164542690Y-71316371D01*
X164029420Y-71103243D01*
X163473659Y-71102758D01*
X162960017Y-71314990D01*
X162566691Y-71707630D01*
X162353563Y-72220900D01*
X162353078Y-72776661D01*
X162565310Y-73290303D01*
X162957950Y-73683629D01*
X163471220Y-73896757D01*
X164026981Y-73897242D01*
X164540623Y-73685010D01*
X164852680Y-73373497D01*
X164852680Y-73388309D01*
X164949353Y-73621698D01*
X165127981Y-73800327D01*
X165361370Y-73897000D01*
X165613989Y-73897000D01*
X167137989Y-73897000D01*
X167371378Y-73800327D01*
X167550007Y-73621699D01*
X167646680Y-73388310D01*
X167646680Y-74623000D01*
X151623000Y-74623000D01*
X151623000Y-77873000D01*
X146627000Y-77873000D01*
X146627000Y-69127000D01*
X149392479Y-69127000D01*
X149315162Y-69313201D01*
X149314838Y-69685167D01*
X149456883Y-70028943D01*
X149719673Y-70292192D01*
X150063201Y-70434838D01*
X150435167Y-70435162D01*
X150778943Y-70293117D01*
X151042192Y-70030327D01*
X151184838Y-69686799D01*
X151185162Y-69314833D01*
X151107551Y-69127000D01*
X151642479Y-69127000D01*
X151565162Y-69313201D01*
X151564838Y-69685167D01*
X151706883Y-70028943D01*
X151969673Y-70292192D01*
X152313201Y-70434838D01*
X152685167Y-70435162D01*
X153028943Y-70293117D01*
X153292192Y-70030327D01*
X153434838Y-69686799D01*
X153435162Y-69314833D01*
X153357551Y-69127000D01*
X154142479Y-69127000D01*
X154065162Y-69313201D01*
X154064838Y-69685167D01*
X154206883Y-70028943D01*
X154469673Y-70292192D01*
X154813201Y-70434838D01*
X155185167Y-70435162D01*
X155528943Y-70293117D01*
X155792192Y-70030327D01*
X155934838Y-69686799D01*
X155935162Y-69314833D01*
X155857551Y-69127000D01*
X156892479Y-69127000D01*
X156815162Y-69313201D01*
X156814838Y-69685167D01*
X156956883Y-70028943D01*
X157219673Y-70292192D01*
X157563201Y-70434838D01*
X157935167Y-70435162D01*
X158278943Y-70293117D01*
X158542192Y-70030327D01*
X158684838Y-69686799D01*
X158685162Y-69314833D01*
X158607551Y-69127000D01*
X178664389Y-69127000D01*
X178471057Y-69206883D01*
X178207808Y-69469673D01*
X178065162Y-69813201D01*
X178064838Y-70185167D01*
X178195069Y-70500351D01*
X178065162Y-70813201D01*
X178064838Y-71185167D01*
X178206883Y-71528943D01*
X178469673Y-71792192D01*
X178813201Y-71934838D01*
X179185167Y-71935162D01*
X179528943Y-71793117D01*
X179792192Y-71530327D01*
X179934838Y-71186799D01*
X179935162Y-70814833D01*
X179804930Y-70499648D01*
X179934838Y-70186799D01*
X179935162Y-69814833D01*
X179793117Y-69471057D01*
X179530327Y-69207808D01*
X179335720Y-69127000D01*
X180664389Y-69127000D01*
X180471057Y-69206883D01*
X180207808Y-69469673D01*
X180065162Y-69813201D01*
X180064838Y-70185167D01*
X180195069Y-70500351D01*
X180065162Y-70813201D01*
X180064838Y-71185167D01*
X180206883Y-71528943D01*
X180469673Y-71792192D01*
X180813201Y-71934838D01*
X181185167Y-71935162D01*
X181528943Y-71793117D01*
X181792192Y-71530327D01*
X181934838Y-71186799D01*
X181935162Y-70814833D01*
X181804930Y-70499648D01*
X181934838Y-70186799D01*
X181935162Y-69814833D01*
X181793117Y-69471057D01*
X181530327Y-69207808D01*
X181335720Y-69127000D01*
X184815000Y-69127000D01*
X184815000Y-74623000D01*
G36*
X171873000Y-96012000D02*
X171831691Y-96012000D01*
X171598302Y-96108673D01*
X171419673Y-96287301D01*
X171323000Y-96520690D01*
X171323000Y-96773309D01*
X171323000Y-96872569D01*
X171167828Y-96640339D01*
X170987728Y-96520000D01*
X171167828Y-96399661D01*
X171470660Y-95946442D01*
X171577000Y-95411833D01*
X171577000Y-94580167D01*
X171470660Y-94045558D01*
X171167828Y-93592339D01*
X170714609Y-93289507D01*
X170180000Y-93183167D01*
X169645391Y-93289507D01*
X169192172Y-93592339D01*
X168910000Y-94014638D01*
X168627828Y-93592339D01*
X168174609Y-93289507D01*
X167640000Y-93183167D01*
X167105391Y-93289507D01*
X166652172Y-93592339D01*
X166370000Y-94014638D01*
X166087828Y-93592339D01*
X165634609Y-93289507D01*
X165100000Y-93183167D01*
X164565391Y-93289507D01*
X164112172Y-93592339D01*
X163830000Y-94014638D01*
X163547828Y-93592339D01*
X163094609Y-93289507D01*
X162560000Y-93183167D01*
X162025391Y-93289507D01*
X161572172Y-93592339D01*
X161290000Y-94014638D01*
X161007828Y-93592339D01*
X160554609Y-93289507D01*
X160020000Y-93183167D01*
X159485391Y-93289507D01*
X159032172Y-93592339D01*
X158935162Y-93737524D01*
X158935162Y-91564833D01*
X158793117Y-91221057D01*
X158530327Y-90957808D01*
X158186799Y-90815162D01*
X157814833Y-90814838D01*
X157499648Y-90945069D01*
X157186799Y-90815162D01*
X156814833Y-90814838D01*
X156471057Y-90956883D01*
X156207808Y-91219673D01*
X156065162Y-91563201D01*
X156064838Y-91935167D01*
X156206883Y-92278943D01*
X156469673Y-92542192D01*
X156813201Y-92684838D01*
X157185167Y-92685162D01*
X157500351Y-92554930D01*
X157813201Y-92684838D01*
X158185167Y-92685162D01*
X158528943Y-92543117D01*
X158792192Y-92280327D01*
X158934838Y-91936799D01*
X158935162Y-91564833D01*
X158935162Y-93737524D01*
X158750000Y-94014638D01*
X158467828Y-93592339D01*
X158014609Y-93289507D01*
X157480000Y-93183167D01*
X156945391Y-93289507D01*
X156492172Y-93592339D01*
X156210000Y-94014638D01*
X155927828Y-93592339D01*
X155474609Y-93289507D01*
X154940000Y-93183167D01*
X154405391Y-93289507D01*
X153952172Y-93592339D01*
X153670000Y-94014638D01*
X153387828Y-93592339D01*
X152934609Y-93289507D01*
X152400000Y-93183167D01*
X151865391Y-93289507D01*
X151412172Y-93592339D01*
X151130000Y-94014638D01*
X150847828Y-93592339D01*
X150394609Y-93289507D01*
X149935162Y-93198117D01*
X149935162Y-91314833D01*
X149793117Y-90971057D01*
X149530327Y-90707808D01*
X149186799Y-90565162D01*
X148814833Y-90564838D01*
X148471057Y-90706883D01*
X148207808Y-90969673D01*
X148065162Y-91313201D01*
X148064838Y-91685167D01*
X148206883Y-92028943D01*
X148469673Y-92292192D01*
X148813201Y-92434838D01*
X149185167Y-92435162D01*
X149528943Y-92293117D01*
X149792192Y-92030327D01*
X149934838Y-91686799D01*
X149935162Y-91314833D01*
X149935162Y-93198117D01*
X149860000Y-93183167D01*
X149325391Y-93289507D01*
X148872172Y-93592339D01*
X148590000Y-94014638D01*
X148307828Y-93592339D01*
X147854609Y-93289507D01*
X147320000Y-93183167D01*
X146785391Y-93289507D01*
X146627000Y-93395340D01*
X146627000Y-90127000D01*
X147673912Y-90127000D01*
X147813201Y-90184838D01*
X148185167Y-90185162D01*
X148325930Y-90127000D01*
X152583865Y-90127000D01*
X152663222Y-90159952D01*
X153035188Y-90160276D01*
X153115722Y-90127000D01*
X160615000Y-90127000D01*
X160615000Y-91626309D01*
X160711673Y-91859698D01*
X160890301Y-92038327D01*
X161123690Y-92135000D01*
X161376309Y-92135000D01*
X163876309Y-92135000D01*
X163895622Y-92127000D01*
X169904594Y-92127000D01*
X169969673Y-92192192D01*
X170313201Y-92334838D01*
X170655531Y-92335136D01*
X171873000Y-93552605D01*
X171873000Y-96012000D01*
X171873000Y-96012000D01*
G37*
X171873000Y-96012000D02*
X171831691Y-96012000D01*
X171598302Y-96108673D01*
X171419673Y-96287301D01*
X171323000Y-96520690D01*
X171323000Y-96773309D01*
X171323000Y-96872569D01*
X171167828Y-96640339D01*
X170987728Y-96520000D01*
X171167828Y-96399661D01*
X171470660Y-95946442D01*
X171577000Y-95411833D01*
X171577000Y-94580167D01*
X171470660Y-94045558D01*
X171167828Y-93592339D01*
X170714609Y-93289507D01*
X170180000Y-93183167D01*
X169645391Y-93289507D01*
X169192172Y-93592339D01*
X168910000Y-94014638D01*
X168627828Y-93592339D01*
X168174609Y-93289507D01*
X167640000Y-93183167D01*
X167105391Y-93289507D01*
X166652172Y-93592339D01*
X166370000Y-94014638D01*
X166087828Y-93592339D01*
X165634609Y-93289507D01*
X165100000Y-93183167D01*
X164565391Y-93289507D01*
X164112172Y-93592339D01*
X163830000Y-94014638D01*
X163547828Y-93592339D01*
X163094609Y-93289507D01*
X162560000Y-93183167D01*
X162025391Y-93289507D01*
X161572172Y-93592339D01*
X161290000Y-94014638D01*
X161007828Y-93592339D01*
X160554609Y-93289507D01*
X160020000Y-93183167D01*
X159485391Y-93289507D01*
X159032172Y-93592339D01*
X158935162Y-93737524D01*
X158935162Y-91564833D01*
X158793117Y-91221057D01*
X158530327Y-90957808D01*
X158186799Y-90815162D01*
X157814833Y-90814838D01*
X157499648Y-90945069D01*
X157186799Y-90815162D01*
X156814833Y-90814838D01*
X156471057Y-90956883D01*
X156207808Y-91219673D01*
X156065162Y-91563201D01*
X156064838Y-91935167D01*
X156206883Y-92278943D01*
X156469673Y-92542192D01*
X156813201Y-92684838D01*
X157185167Y-92685162D01*
X157500351Y-92554930D01*
X157813201Y-92684838D01*
X158185167Y-92685162D01*
X158528943Y-92543117D01*
X158792192Y-92280327D01*
X158934838Y-91936799D01*
X158935162Y-91564833D01*
X158935162Y-93737524D01*
X158750000Y-94014638D01*
X158467828Y-93592339D01*
X158014609Y-93289507D01*
X157480000Y-93183167D01*
X156945391Y-93289507D01*
X156492172Y-93592339D01*
X156210000Y-94014638D01*
X155927828Y-93592339D01*
X155474609Y-93289507D01*
X154940000Y-93183167D01*
X154405391Y-93289507D01*
X153952172Y-93592339D01*
X153670000Y-94014638D01*
X153387828Y-93592339D01*
X152934609Y-93289507D01*
X152400000Y-93183167D01*
X151865391Y-93289507D01*
X151412172Y-93592339D01*
X151130000Y-94014638D01*
X150847828Y-93592339D01*
X150394609Y-93289507D01*
X149935162Y-93198117D01*
X149935162Y-91314833D01*
X149793117Y-90971057D01*
X149530327Y-90707808D01*
X149186799Y-90565162D01*
X148814833Y-90564838D01*
X148471057Y-90706883D01*
X148207808Y-90969673D01*
X148065162Y-91313201D01*
X148064838Y-91685167D01*
X148206883Y-92028943D01*
X148469673Y-92292192D01*
X148813201Y-92434838D01*
X149185167Y-92435162D01*
X149528943Y-92293117D01*
X149792192Y-92030327D01*
X149934838Y-91686799D01*
X149935162Y-91314833D01*
X149935162Y-93198117D01*
X149860000Y-93183167D01*
X149325391Y-93289507D01*
X148872172Y-93592339D01*
X148590000Y-94014638D01*
X148307828Y-93592339D01*
X147854609Y-93289507D01*
X147320000Y-93183167D01*
X146785391Y-93289507D01*
X146627000Y-93395340D01*
X146627000Y-90127000D01*
X147673912Y-90127000D01*
X147813201Y-90184838D01*
X148185167Y-90185162D01*
X148325930Y-90127000D01*
X152583865Y-90127000D01*
X152663222Y-90159952D01*
X153035188Y-90160276D01*
X153115722Y-90127000D01*
X160615000Y-90127000D01*
X160615000Y-91626309D01*
X160711673Y-91859698D01*
X160890301Y-92038327D01*
X161123690Y-92135000D01*
X161376309Y-92135000D01*
X163876309Y-92135000D01*
X163895622Y-92127000D01*
X169904594Y-92127000D01*
X169969673Y-92192192D01*
X170313201Y-92334838D01*
X170655531Y-92335136D01*
X171873000Y-93552605D01*
X171873000Y-96012000D01*
M02*
